<?xml version="1.0" encoding="UTF-8" standalone="no"?>
<!-- Created with Inkscape (http://www.inkscape.org/) -->

<svg
   xmlns:dc="http://purl.org/dc/elements/1.1/"
   xmlns:cc="http://creativecommons.org/ns#"
   xmlns:rdf="http://www.w3.org/1999/02/22-rdf-syntax-ns#"
   xmlns:svg="http://www.w3.org/2000/svg"
   xmlns="http://www.w3.org/2000/svg"
   xmlns:sodipodi="http://sodipodi.sourceforge.net/DTD/sodipodi-0.dtd"
   xmlns:inkscape="http://www.inkscape.org/namespaces/inkscape"
   version="1.1"
   id="svg3717"
   width="347.30884"
   height="154.41931"
   viewBox="0 0 347.30884 154.41932"
   sodipodi:docname="AM_demodulation_diagram.svg"
   inkscape:version="0.92.0 r">
  <metadata
     id="metadata3723">
    <rdf:RDF>
      <cc:Work
         rdf:about="">
        <dc:format>image/svg+xml</dc:format>
        <dc:type
           rdf:resource="http://purl.org/dc/dcmitype/StillImage" />
        <dc:title></dc:title>
      </cc:Work>
    </rdf:RDF>
  </metadata>
  <defs
     id="defs3721" />
  <sodipodi:namedview
     pagecolor="#ffffff"
     bordercolor="#666666"
     borderopacity="1"
     objecttolerance="10"
     gridtolerance="10"
     guidetolerance="10"
     inkscape:pageopacity="0"
     inkscape:pageshadow="2"
     inkscape:window-width="872"
     inkscape:window-height="550"
     id="namedview3719"
     showgrid="false"
     fit-margin-top="15"
     fit-margin-left="10"
     fit-margin-right="10"
     fit-margin-bottom="15"
     inkscape:zoom="1.3592128"
     inkscape:cx="146.28253"
     inkscape:cy="93.456273"
     inkscape:window-x="290"
     inkscape:window-y="15"
     inkscape:window-maximized="0"
     inkscape:current-layer="svg3717" />
  <path
     style="fill:#171717;stroke-width:0.16842169"
     d="m 129.77411,138.8562 c -0.33154,-0.79894 -0.91177,-3.61273 -0.94641,-4.58949 -0.0164,-0.46316 -0.0985,-1.18316 -0.18247,-1.6 -0.0839,-0.41685 -0.20718,-1.4779 -0.2739,-2.35791 l -0.12133,-1.6 -0.5123,0.0482 c -0.36656,0.0344 -0.62221,-0.0688 -0.89864,-0.36306 -0.46492,-0.49487 -0.34136,-0.83211 0.5555,-1.51618 0.74366,-0.56721 0.87748,-1.07891 1.01871,-3.89528 0.18893,-3.7676 0.85306,-7.09567 1.8348,-9.19451 0.65001,-1.38966 0.86092,-1.63902 1.4443,-1.70772 0.56265,-0.0663 0.8104,0.40496 0.56072,1.06647 -0.16233,0.43005 -0.15367,0.62098 0.0457,1.00644 0.47243,0.91358 0.18487,1.99968 -0.46356,1.75085 -0.35146,-0.13487 -0.56375,0.19674 -0.86558,1.35213 -0.70208,2.6875 -0.98129,5.89476 -0.51317,5.89476 0.102,0 0.66104,-0.41684 1.24239,-0.92632 1.53052,-1.34126 1.87833,-1.44562 2.27319,-0.68205 0.45374,0.87743 0.34248,1.28383 -0.45884,1.67599 -0.69331,0.33931 -2.5499,2.22332 -2.9738,3.01772 -0.13665,0.25609 -0.17453,0.74909 -0.11,1.43158 0.0541,0.57255 0.21064,2.32942 0.34781,3.90417 0.13717,1.57474 0.33546,3.34301 0.44066,3.92947 0.22292,1.24284 0.1186,3.27899 -0.18685,3.64704 -0.38181,0.46006 -1.00481,0.31519 -1.25689,-0.29228 z m -29.56816,-5.89476 c -0.18356,-0.30105 -0.334025,-0.63441 -0.334373,-0.74079 -5.05e-4,-0.16024 -0.736097,-1.66738 -1.105519,-2.26511 -0.0559,-0.0904 -0.379581,0.14646 -0.719393,0.52633 -0.769234,0.85991 -1.414868,1.02064 -3.267306,0.81339 -1.605238,-0.17959 -1.928691,-0.38907 -1.692743,-1.09624 l 0.160053,-0.47969 1.402121,0.0439 c 2.145745,0.0673 2.437504,-0.38084 1.526269,-2.34403 -0.635508,-1.36916 -2.373283,-3.91182 -2.719021,-3.9784 -0.169643,-0.0326 -0.483254,0.30109 -0.868382,0.9242 -0.331559,0.53643 -0.792761,1.15322 -1.024877,1.37063 -0.377981,0.35401 -0.412339,0.48931 -0.329117,1.29573 0.111379,1.07911 -0.125959,1.52668 -1.382626,2.60737 -1.124552,0.96707 -1.986248,1.33554 -3.133813,1.34003 -0.77938,0.003 -1.061605,-0.0821 -1.625295,-0.49043 -0.375179,-0.27178 -0.732078,-0.57494 -0.793109,-0.67369 -0.179472,-0.29039 -0.527933,-0.21115 -1.442331,0.328 -1.2108,0.71391 -2.772207,0.92315 -4.122458,0.55245 -1.17474,-0.32253 -2.403413,-1.23339 -2.538986,-1.88223 -0.05067,-0.24252 -0.204823,-0.69746 -0.342562,-1.01097 -0.443274,-1.00901 0.181507,-3.86735 1.154761,-5.283 0.680774,-0.99022 1.39766,-1.35838 2.878085,-1.47809 1.18443,-0.0958 1.451195,-0.066 1.924528,0.21449 0.699315,0.41446 0.979184,0.90195 0.706465,1.23055 -0.150774,0.18167 -0.57733,0.23007 -1.760431,0.19977 -1.83332,-0.047 -2.01697,0.0573 -2.720962,1.54417 -0.56183,1.18667 -0.717022,2.86056 -0.34726,3.74553 0.214208,0.51267 0.411567,0.67111 1.206404,0.9685 1.86762,0.69876 3.89972,-0.0553 5.061029,-1.87804 0.278562,-0.43722 0.753394,-0.91251 1.058282,-1.05929 0.498802,-0.24015 0.542999,-0.31965 0.450833,-0.81093 -0.06387,-0.34045 0.0069,-0.8259 0.188902,-1.29469 0.548026,-1.41203 1.08728,-1.75093 2.297245,-1.44371 0.834237,0.21182 1.407987,0.62745 1.569756,1.13715 0.150369,0.47376 0.679444,0.70133 1.103214,0.47454 0.594602,-0.31822 1.220141,-1.94363 1.19591,-3.10746 -0.01158,-0.55579 0.03316,-1.09434 0.09947,-1.19676 0.06632,-0.10243 0.397328,-0.23711 0.735592,-0.29927 0.670539,-0.12323 1.153404,0.17557 1.153404,0.71373 0,0.15861 0.246317,0.67778 0.547371,1.1537 0.301053,0.47592 0.698949,1.1139 0.884213,1.41773 0.185264,0.30383 0.413918,0.66979 0.508118,0.81324 0.541728,0.82495 1.434131,2.20841 1.824975,2.82923 0.247854,0.39368 0.516633,0.71579 0.597276,0.71579 0.08063,0 0.196643,-0.43579 0.257769,-0.96843 0.192748,-1.67939 0.663192,-4.09601 1.057383,-5.43159 0.495486,-1.67878 1.269576,-3.54221 1.715626,-4.1299 0.24138,-0.31806 0.55928,-0.74605 0.70644,-0.9511 0.23445,-0.32669 0.3385,-0.35248 0.84095,-0.20837 0.68824,0.19738 0.82201,0.63121 0.35027,1.13595 -0.71115,0.76088 -1.86348,3.52761 -2.32613,5.585 -0.37389,1.66268 -0.45674,2.45409 -0.46726,4.46317 -0.0122,2.33597 0.007,2.48307 0.45019,3.38425 0.25463,0.51818 0.61463,1.0794 0.80001,1.24716 0.43662,0.39514 0.43178,1.16252 -0.0113,1.78472 -0.45835,0.6437 -0.92209,0.62352 -1.33776,-0.0582 z m -11.863493,-4.26622 c 0.365911,-0.23906 0.80965,-0.62885 0.986071,-0.86622 0.487371,-0.65569 0.205306,-0.92936 -1.001343,-0.97157 -0.552008,-0.0193 -1.273113,-0.09 -1.602459,-0.15709 -0.537911,-0.1096 -0.619267,-0.0771 -0.800003,0.31957 -0.28457,0.62457 -0.249454,1.44061 0.07754,1.80194 0.421065,0.46527 1.525657,0.4055 2.340193,-0.12663 z m 0.244237,-3.85073 c 0,-0.13378 -0.174535,-0.44615 -0.38786,-0.69416 l -0.387862,-0.45092 -0.496352,0.44191 c -0.483334,0.43031 -0.487778,0.44851 -0.169422,0.69416 0.429665,0.33151 1.441496,0.33784 1.441496,0.009 z m 62.895416,7.57783 c -0.31473,-0.48033 -0.19656,-1.04143 0.24912,-1.18288 0.16831,-0.0534 0.42951,-0.2336 0.58047,-0.40039 0.3599,-0.39769 1.44558,-3.5028 1.45148,-4.15131 0.002,-0.2779 0.0808,-0.77963 0.17394,-1.11494 0.0932,-0.33532 0.23881,-1.1629 0.32371,-1.83906 0.26918,-2.14377 -0.6035,-7.11308 -1.59719,-9.09492 -0.40422,-0.80617 -1.76145,-2.18271 -2.15211,-2.18271 -0.33904,0 -0.82607,-0.6033 -0.76042,-0.94194 0.0313,-0.16133 0.27017,-0.36439 0.53088,-0.45124 1.01626,-0.33859 2.98266,1.25993 3.87922,3.1535 0.71594,1.5121 1.61348,5.83469 1.62065,7.80522 0.008,2.38779 -0.87681,7.29936 -1.61553,8.96084 -0.74268,1.6703 -2.06755,2.38098 -2.68422,1.43983 z m -16.49524,-1.72007 c -0.18527,-0.05 -0.57225,-0.26821 -0.85996,-0.48489 -0.66409,-0.50014 -0.84225,-1.52078 -0.4969,-2.84668 0.27081,-1.03973 0.4146,-1.34054 1.24086,-2.59587 0.64825,-0.98489 1.60108,-1.53972 2.64426,-1.53972 0.54349,0 1.0928,0.35025 1.0928,0.69679 0,0.49184 -0.37682,0.81901 -0.94331,0.81901 -0.32704,0 -0.73884,0.0772 -0.91512,0.17151 -0.4434,0.23731 -1.09236,1.40768 -1.42674,2.57308 -0.38616,1.34589 -0.21605,1.54333 1.20432,1.3978 0.57507,-0.0589 1.32303,-0.22305 1.66215,-0.36474 0.47613,-0.19895 0.67075,-0.21265 0.85447,-0.0602 0.33054,0.27432 0.29767,1.06382 -0.0568,1.36472 -0.69606,0.59087 -3.09767,1.11271 -4.00001,0.86915 z m 11.22892,-0.97687 c -0.36743,-0.33196 -0.71957,-0.81017 -0.78252,-1.0627 -0.0629,-0.25254 -0.21398,-0.68652 -0.33563,-0.96441 -0.49795,-1.13746 -0.82851,-2.80241 -0.91957,-4.6316 l -0.0964,-1.93685 -1.03026,-0.16842 c -1.54769,-0.25301 -1.93326,-0.70442 -1.19448,-1.39847 0.32845,-0.30855 0.5136,-0.34731 1.2453,-0.26064 0.77805,0.0921 0.88331,0.0639 1.11078,-0.29851 0.13821,-0.22016 0.33883,-1.15818 0.44583,-2.0845 0.27599,-2.38924 0.53479,-3.84008 0.72857,-4.08423 0.0919,-0.11579 0.30673,-0.21052 0.47739,-0.21052 0.60189,0 0.66403,0.5044 0.40713,3.30446 -0.15949,1.73824 -0.1873,2.72378 -0.0799,2.83119 0.10741,0.10741 0.67751,0.0542 1.63773,-0.15284 2.61075,-0.56296 3.2304,-0.51255 2.9905,0.24328 -0.12924,0.40724 -1.26469,1.0063 -1.91871,1.01233 -0.22065,0.002 -0.63749,0.14892 -0.92632,0.3264 -0.28883,0.1775 -0.80666,0.3749 -1.15072,0.43868 -0.34408,0.0638 -0.7165,0.22551 -0.8276,0.35938 -0.24017,0.28939 -0.23335,3.1417 0.009,4.07443 0.0882,0.33845 0.25244,0.99432 0.36496,1.45747 0.28607,1.17757 0.59891,1.76558 1.28023,2.40637 0.54906,0.51639 0.57218,0.57887 0.34282,0.92632 -0.39971,0.60552 -1.01712,0.56157 -1.77887,-0.12662 z m -37.49876,-0.77637 c -1.57257,-0.16889 -3.03036,-0.35002 -3.23954,-0.40252 -0.4465,-0.11206 -0.69364,-0.85463 -0.4171,-1.25325 0.10253,-0.14777 0.46711,-0.76129 0.81021,-1.3634 0.34311,-0.60211 0.9371,-1.54948 1.31998,-2.10527 1.36211,-1.97728 2.29458,-3.77519 2.39419,-4.61626 0.10672,-0.90107 -0.0531,-1.11987 -0.69985,-0.95756 -0.69533,0.17451 -1.43567,0.95198 -2.0296,2.13135 -0.7462,1.48177 -1.43699,1.76577 -1.67369,0.68809 -0.14982,-0.68212 0.48023,-2.24333 1.31788,-3.26567 0.55489,-0.67721 0.88749,-0.91314 1.6241,-1.15203 1.156,-0.37489 1.57305,-0.38883 2.18382,-0.0729 0.64595,0.33403 0.91151,1.18825 0.80677,2.59518 -0.0898,1.20647 -0.67094,2.58206 -1.90483,4.50893 -0.36559,0.57091 -0.81628,1.2851 -1.00155,1.5871 -0.18526,0.302 -0.4498,0.72344 -0.58786,0.93653 -0.44298,0.68371 -0.016,0.88015 2.15645,0.99228 1.04541,0.054 2.2191,0.15413 2.60819,0.2226 0.66877,0.11771 0.70603,0.15459 0.68142,0.67457 -0.0329,0.6968 -0.48859,1.20771 -1.0527,1.18047 -0.24038,-0.0116 -1.72371,-0.15928 -3.29629,-0.32816 z m 8.26772,-0.17999 c -0.30603,-0.43692 -0.36843,-2.90999 -0.12263,-4.86024 0.0759,-0.60211 0.0923,-1.66317 0.0366,-2.3579 l -0.10137,-1.26317 -0.7579,10e-4 c -0.41684,6.7e-4 -0.99935,0.0546 -1.29447,0.11994 -0.39968,0.0884 -0.63446,0.0394 -0.92026,-0.19204 -0.33503,-0.27128 -0.35874,-0.36544 -0.18696,-0.74244 0.13274,-0.29133 0.40466,-0.48481 0.83604,-0.59485 1.01492,-0.25889 4.04746,-0.683 5.58058,-0.78045 0.77242,-0.0491 1.53031,-0.15545 1.68422,-0.23633 0.1539,-0.0808 0.74472,-0.20007 1.31292,-0.26484 0.95573,-0.10896 1.05347,-0.0886 1.30527,0.27081 0.59806,0.85385 0.24542,1.49258 -0.82407,1.49258 -0.38061,0 -0.83773,0.10655 -1.01581,0.23677 -0.31436,0.22986 -0.31516,0.2608 -0.0273,1.06139 0.25287,0.70319 0.29138,1.35105 0.26151,4.39919 -0.0248,2.53652 -0.0937,3.62326 -0.23706,3.74224 -0.30274,0.25126 -1.06338,-0.0973 -1.24292,-0.56949 -0.0835,-0.21952 -0.11314,-1.71772 -0.066,-3.32934 0.076,-2.59693 0.0484,-3.04517 -0.24322,-3.94075 l -0.32902,-1.01053 -0.83684,-0.0499 c -0.623,-0.0372 -0.91942,0.0274 -1.15991,0.25264 -0.30576,0.28636 -0.31639,0.47832 -0.19852,3.58678 0.0685,1.80632 0.14229,3.6056 0.16401,3.99841 0.0438,0.79238 -0.19251,1.13572 -0.90113,1.30928 -0.34636,0.0848 -0.50397,0.0234 -0.71579,-0.27903 z m -3.57366,-21.25394 c -0.45426,-0.39075 -0.4575,-0.40908 -0.44,-2.48422 0.009,-1.14983 0.097,-2.77269 0.19423,-3.60637 0.0972,-0.83369 0.18053,-2.538965 0.18532,-3.789495 0.005,-1.25053 0.0819,-3.06949 0.17138,-4.04212 0.60585,-6.58738 0.80759,-11.00769 0.51074,-11.19116 -0.21521,-0.13301 -0.82368,0.90254 -0.98415,1.67491 -0.11494,0.5532 -0.22656,0.67537 -0.79765,0.87309 -0.36521,0.12644 -0.76116,0.19261 -0.87989,0.14705 -0.58136,-0.22308 -0.0501,-1.93323 1.51926,-4.89046 0.6207,-1.16961 1.01881,-2.14208 1.07688,-2.63051 l 0.0921,-0.77492 -1.32576,-0.11964 c -1.62685,-0.14681 -2.97909,-0.57604 -4.25326,-1.35005 -0.53279,-0.32365 -1.3426,-0.764 -1.79957,-0.97854 -1.82987,-0.85911 -2.85513,-1.68968 -4.06241,-3.291 -1.45999,-1.936502 -1.69517,-2.311714 -1.98603,-3.168423 -0.14616,-0.430486 -0.34937,-0.938972 -0.4516,-1.129972 -0.242818,-0.453728 -1.661886,-4.438332 -1.805687,-5.070219 -0.185569,-0.815413 -0.535917,-0.890277 -1.362868,-0.291243 -0.400738,0.290296 -0.785371,0.527802 -0.85474,0.527802 -0.06937,0 -1.099562,0.530528 -2.289324,1.178952 -1.189751,0.648423 -2.362882,1.178951 -2.606936,1.178951 -0.244064,0 -0.537644,0.113148 -0.652402,0.251422 -0.114769,0.138285 -0.493012,0.327991 -0.84055,0.421581 -0.347539,0.09358 -1.305033,0.543591 -2.127761,1.000024 -2.052563,1.13871 -2.325498,1.191973 -2.672212,0.521508 -0.256418,-0.495865 -0.25446,-0.564329 0.02992,-1.04533 0.223706,-0.378381 0.594286,-0.624687 1.399054,-0.929899 0.602107,-0.228348 1.403511,-0.559244 1.780899,-0.735318 0.377388,-0.176064 1.015059,-0.43617 1.41705,-0.578002 0.401981,-0.141822 0.815898,-0.328422 0.919804,-0.414654 0.103895,-0.08621 0.79255,-0.396654 1.530332,-0.689834 1.401784,-0.557034 2.029323,-0.970446 1.808406,-1.191363 -0.07179,-0.07179 -0.429349,-0.06305 -0.794687,0.01937 -0.365328,0.08242 -0.73175,0.108084 -0.814266,0.05705 -0.08253,-0.05105 -0.958288,-0.124127 -1.946144,-0.162527 -0.987867,-0.03842 -2.402441,-0.115253 -3.143497,-0.170811 -0.741055,-0.05558 -3.166327,-0.110401 -5.389493,-0.121875 -2.223166,-0.01147 -5.254757,-0.131884 -6.736868,-0.267579 -1.48211,-0.135685 -3.566329,-0.243138 -4.631596,-0.23878 -3.66814,0.01505 -9.011142,0.19579 -9.300668,0.314664 -0.159562,0.06547 -0.803775,0.138264 -1.431584,0.161674 -0.627812,0.02337 -2.126742,0.101159 -3.330957,0.172833 -2.101936,0.125063 -2.208002,0.115484 -2.652641,-0.239454 -0.508914,-0.406244 -0.574561,-0.773698 -0.221432,-1.239436 0.210557,-0.277717 0.61647,-0.30918 4.584132,-0.355401 2.421078,-0.02821 4.75973,-0.136664 5.269258,-0.24438 1.599446,-0.338107 9.424119,-0.418875 12.172216,-0.125643 2.461611,0.262664 17.854194,0.545055 18.395133,0.337475 0.438549,-0.168285 0.30158,-0.396328 -0.451792,-0.752213 -0.393685,-0.185969 -1.09474,-0.560455 -1.5579,-0.832182 -0.46316,-0.271738 -0.956909,-0.495834 -1.097236,-0.497991 -0.140316,-0.0021 -0.519265,-0.144369 -0.842108,-0.316002 -0.322833,-0.171642 -0.870003,-0.404496 -1.21592,-0.517465 -1.415813,-0.462338 -1.847689,-2.370482 -0.536531,-2.370482 0.336152,0 2.339085,0.907488 3.776006,1.710827 0.324212,0.181254 0.85474,0.446455 1.178952,0.589329 0.916708,0.403991 3.560044,1.744838 4.171036,2.115786 0.82995,0.503887 0.991467,0.337875 1.128993,-1.160467 0.247022,-2.69121 1.174394,-5.06486 3.081399,-7.887071 1.45869,-2.158723 3.08453,-3.719992 4.67125,-4.485742 0.74106,-0.357623 1.82174,-0.982372 2.40151,-1.388321 0.87212,-0.610645 1.27928,-0.775351 2.35791,-0.953856 2.01485,-0.333433 3.02722,-0.379297 3.62175,-0.164075 0.29985,0.108559 0.92835,0.300296 1.39665,0.426107 0.46831,0.125801 1.42739,0.491191 2.13129,0.811961 0.70389,0.32078 1.53336,0.636602 1.84327,0.701834 0.3099,0.06526 1.16978,0.476276 1.91083,0.913435 0.74106,0.437159 1.61264,0.896509 1.93685,1.020793 0.32422,0.124274 0.70316,0.313443 0.84211,0.42036 0.13895,0.106916 0.75676,0.44718 1.37292,0.756139 1.51991,0.76214 3.7093,2.846337 4.0744,3.878635 0.67037,1.895481 0.81432,2.262356 1.0816,2.756684 0.20052,0.370854 0.31103,1.101299 0.3728,2.463967 l 0.0878,1.936849 4.12633,0.06979 c 2.26948,0.03842 4.69476,0.0619 5.3895,0.05221 0.69474,-0.0095 2.51369,-0.01484 4.04212,-0.01158 10.78936,0.02337 19.08209,-0.02642 19.84141,-0.119285 0.49168,-0.06011 1.15484,-0.06032 1.47368,-5.05e-4 0.46486,0.08726 0.57972,0.186979 0.57972,0.503528 0,0.653002 -0.51105,1.089541 -1.51579,1.294773 -1.03165,0.210738 -6.06651,0.288801 -9.68425,0.150159 -1.29684,-0.04968 -2.44994,-0.02558 -2.56245,0.05358 -0.11251,0.07916 -1.55251,0.09105 -3.20001,0.02653 -2.34144,-0.09168 -6.79666,-0.116937 -9.81654,-0.05558 -0.13895,0.0032 -2.13232,-0.0063 -4.42971,-0.01958 -3.47477,-0.02063 -4.19282,-0.06579 -4.27067,-0.268612 -0.19716,-0.51378 -0.52688,-0.228085 -0.64182,0.556129 -0.29021,1.979849 -1.30478,4.820617 -2.89866,8.116145 -0.76839,1.588732 -0.91697,2.037397 -0.84713,2.558096 0.0949,0.70778 -0.23596,1.15738 -0.85177,1.15738 -0.19541,0 -0.60628,0.23258 -0.91305,0.51684 -0.58589,0.54289 -3.17206,2.32689 -4.07267,2.80941 -0.75505,0.40454 -1.64657,0.7104 -2.07923,0.71333 -0.52576,0.003 -1.93754,0.49361 -2.22912,0.77372 -0.21243,0.20408 -0.18607,0.29545 0.2022,0.7007 0.24556,0.25631 0.74841,1.11956 1.11744,1.91833 0.39286,0.85033 0.87694,1.61804 1.16789,1.85212 0.4722,0.37992 1.04096,1.28076 1.04096,1.64875 0,0.23359 -1.00493,1.36159 -1.21303,1.36159 -0.27792,0 -1.14487,-1.024 -1.14487,-1.35225 0,-0.16837 -0.20842,-0.55142 -0.46316,-0.85123 -0.25474,-0.29981 -0.69195,-1.00669 -0.97158,-1.57083 -0.88821,-1.79188 -1.00551,-1.5129 -1.02051,2.42694 -0.0127,3.33231 -0.18993,6.30424 -0.64508,10.8164 -0.1256,1.24518 -0.16161,2.47974 -0.086,2.94738 0.0727,0.44961 0.0439,1.73371 -0.0653,2.90998 -0.22035,2.373535 -0.24105,6.238605 -0.0373,6.964855 0.11497,0.40985 0.0633,0.53915 -0.3513,0.87815 -0.60542,0.49509 -0.62042,0.49529 -1.17763,0.016 z m 5.19966,-33.179685 c 0.90475,-0.23113 1.89002,-0.57794 2.18949,-0.7707 0.29946,-0.19276 0.76331,-0.48319 1.0308,-0.6454 1.05729,-0.64119 2.62947,-2.091 2.62947,-2.4248 0,-0.314528 -0.75681,-1.240078 -3.68363,-4.504932 -0.61402,-0.684929 -1.23007,-1.413869 -1.36902,-1.61988 -0.21955,-0.325517 -1.3825,-1.734859 -2.89529,-3.508707 l -0.45318,-0.531392 -1.03034,1.094741 c -0.91831,0.975719 -4.52857,5.604326 -5.24547,6.725067 -0.15228,0.238074 -0.5119,0.683444 -0.79917,0.989719 -0.28726,0.306275 -0.57181,0.761013 -0.63232,1.01053 -0.0605,0.249517 -0.36406,0.738094 -0.67452,1.085734 -0.31047,0.34764 -0.56449,0.74425 -0.56449,0.88138 0,0.13711 0.36,0.43407 0.8,0.6599 0.44001,0.22582 1.05809,0.60386 1.37353,0.84008 1.6822,1.25982 5.92552,1.58687 9.32414,0.71866 z m -12.50523,-4.111038 c 0.38791,-0.440002 0.84355,-1.07033 1.01254,-1.400742 0.16899,-0.330412 0.42304,-0.696845 0.56456,-0.814298 0.14153,-0.117453 0.45341,-0.54817 0.6931,-0.95715 0.23968,-0.408991 0.5012,-0.743614 0.58116,-0.743614 0.08,0 0.5478,-0.549475 1.03964,-1.221057 0.94823,-1.294731 2.9459,-3.727161 4.14366,-5.045429 0.39616,-0.436033 0.7203,-0.881308 0.7203,-0.989509 0,-0.108189 -0.60529,-0.812487 -1.34508,-1.565111 -0.73979,-0.752623 -1.4744,-1.557879 -1.63245,-1.789459 -0.15806,-0.231579 -0.89315,-0.989477 -1.63354,-1.684216 -0.74039,-0.69474 -1.50264,-1.452111 -1.69388,-1.683049 -0.19123,-0.230937 -1.01087,-1.098183 -1.8214,-1.927207 -0.81053,-0.829034 -1.47369,-1.566763 -1.47369,-1.639395 0,-0.07263 -0.19845,-0.262106 -0.44101,-0.421044 -0.43569,-0.285474 -0.44697,-0.281959 -0.93411,0.290864 -0.9387,1.103794 -2.49858,3.697835 -2.49858,4.155079 0,0.142274 -0.13983,0.494991 -0.31075,0.783824 -0.22124,0.373864 -0.41909,1.447563 -0.68683,3.727245 l -0.37608,3.202106 0.43419,0.864477 c 0.23882,0.475455 0.43421,0.946246 0.43421,1.046193 0,0.588887 1.51009,4.586891 2.29844,6.08517 1.01001,1.919565 1.47287,2.52632 1.92715,2.52632 0.16125,0 0.61055,-0.359996 0.99845,-0.799998 z m 20.40613,-2.905274 c 0.25466,-0.602107 0.70483,-1.663164 1.00036,-2.357903 0.29554,-0.694739 0.59544,-1.490532 0.66646,-1.768428 0.0711,-0.277895 0.32532,-1.035793 0.56511,-1.684216 0.40066,-1.083457 0.62744,-2.198229 0.88637,-4.357037 0.15838,-1.320489 -0.57002,-4.61167 -1.35294,-6.113086 -0.27726,-0.531738 -1.69542,-1.794511 -2.70844,-2.411703 l -0.66038,-0.402338 -0.65335,0.747329 c -0.53769,0.615023 -2.21809,3.059284 -2.91013,4.232973 -0.39815,0.675287 -1.87693,2.801989 -2.39171,3.439634 -0.30801,0.381538 -0.78033,1.02173 -1.0496,1.422668 l -0.48959,0.728971 0.3482,0.682602 c 0.19151,0.375444 0.52843,0.872088 0.74871,1.103668 0.58381,0.61376 1.70847,1.942323 2.74454,3.242117 0.49839,0.625265 0.95755,1.136846 1.02034,1.136846 0.0627,0 0.47859,0.473686 0.924,1.052635 1.27682,1.659638 2.14382,2.502925 2.51727,2.44842 0.23048,-0.03358 0.47307,-0.38257 0.79478,-1.143152 z M 96.180795,59.806098 c 0.190991,-0.230138 0.176591,-0.306106 -0.09579,-0.505265 -0.473044,-0.345907 -0.761456,-0.285833 -0.761456,0.158569 0,0.659823 0.447244,0.840708 0.857235,0.346696 z m 21.389125,-4.061857 c 0.75745,-0.900877 1.51889,-1.942986 1.69207,-2.315798 0.17318,-0.372812 0.61778,-1.094677 0.98799,-1.604153 0.37022,-0.509476 0.67335,-1.002109 0.67361,-1.094741 3.4e-4,-0.144011 0.43049,-0.800392 1.79239,-2.735547 0.38431,-0.546075 0.19016,-0.837908 -0.905,-1.360331 -0.53434,-0.254906 -1.16101,-0.586476 -1.39259,-0.736834 -0.23158,-0.150359 -0.8,-0.397054 -1.26316,-0.548213 -0.46316,-0.151158 -1.09271,-0.391033 -1.39901,-0.533075 -2.03881,-0.945425 -2.80835,-1.14891 -4.32733,-1.144226 -0.83368,0.0021 -1.81895,0.09063 -2.18948,0.195601 -0.37053,0.105053 -0.8871,0.235801 -1.14794,0.290654 -0.33672,0.07084 -0.54496,0.268938 -0.71805,0.683213 -0.13409,0.320906 -0.33751,0.583539 -0.45206,0.583612 -0.34674,1.69e-4 -2.21326,0.937635 -2.45957,1.235258 -0.40207,0.485843 0.13508,1.211141 3.29428,4.448153 1.64953,1.690143 3.68124,3.788413 4.51493,4.662817 0.83369,0.874403 1.60713,1.594711 1.71877,1.6007 0.11163,0.0063 0.82269,-0.726213 1.58015,-1.62709 z m 154.81794,22.856344 c -0.20237,-0.0806 -0.45042,-0.30079 -0.55122,-0.48915 -0.14759,-0.27577 -0.11776,-0.40803 0.15311,-0.6789 0.18505,-0.18504 0.54678,-0.38271 0.80387,-0.43927 1.59588,-0.35114 3.33458,-1.42278 4.1756,-2.57364 1.22848,-1.68109 2.26795,-3.80073 2.52646,-5.151882 0.35419,-1.851133 0.33066,-3.21498 -0.0622,-3.607855 -0.68294,-0.68294 -3.20737,-0.585192 -3.99493,0.154685 -0.22706,0.213306 -0.49174,0.680886 -0.58818,1.039056 -0.27689,1.028256 -1.08995,1.066688 -1.35805,0.06421 -0.23801,-0.889972 0.46594,-2.206714 1.54336,-2.886863 0.56845,-0.358844 0.83569,-0.405802 2.28695,-0.401833 1.39124,0.0042 1.77794,0.06821 2.52102,0.419706 1.27965,0.605382 1.3296,0.705487 1.32839,2.662263 -0.002,3.078474 -0.69469,5.319983 -2.389,7.729703 -0.52702,0.74956 -0.88133,1.41685 -0.8272,1.5579 0.076,0.19807 0.55244,0.25267 2.41576,0.27685 1.2766,0.0165 2.65264,0.0355 3.05788,0.0421 0.93968,0.0153 1.48694,0.60479 1.21805,1.31206 -0.2136,0.56179 -0.70443,0.71428 -1.47767,0.45908 -0.91278,-0.30125 -7.55862,-0.11421 -8.89825,0.25043 -0.5558,0.15128 -1.12422,0.30498 -1.26317,0.34155 -0.13894,0.0365 -0.41821,5e-4 -0.62057,-0.0802 z m -73.31654,-1.52501 c -0.32421,-0.0842 -1.27158,-0.15492 -2.10527,-0.15708 -1.91275,-0.005 -5.03918,-0.078 -10.61056,-0.24799 -4.93388,-0.15053 -4.48329,-0.14837 -6.73687,-0.0322 -6.83382,0.35235 -7.04976,0.3512 -7.39889,-0.0391 -0.30292,-0.33859 -0.3106,-0.44664 -0.11223,-1.57972 0.2332,-1.33191 0.27312,-3.40009 0.1602,-8.296987 -0.0406,-1.763859 -0.0252,-4.075447 0.0345,-5.136861 0.0867,-1.543164 0.0607,-1.98046 -0.12941,-2.182482 -0.20977,-0.222811 -0.27744,-0.19879 -0.57338,0.203517 -0.18454,0.250885 -0.88097,0.850687 -1.54764,1.332899 -0.66666,0.482202 -1.25001,0.921456 -1.29633,0.97612 -0.0463,0.05463 -0.63368,0.538128 -1.30526,1.074372 -0.67159,0.536255 -1.22106,1.040435 -1.22106,1.120415 0,0.08 -0.68337,0.758813 -1.51859,1.508532 -1.54428,1.386173 -2.16292,1.656374 -2.65827,1.161014 -0.46379,-0.463791 -0.19131,-0.913435 1.51377,-2.49803 2.24708,-2.08826 4.52456,-4.03673 4.71841,-4.03673 0.23961,0 1.9868,-1.707164 1.9868,-1.941292 0,-0.515759 -1.47032,-1.279604 -3.9196,-2.036239 -0.75166,-0.232201 -1.23262,-0.498444 -2.61834,-1.449405 -1.63307,-1.120709 -1.95753,-1.604574 -1.45115,-2.164103 0.51762,-0.571981 1.18321,-0.413885 2.23576,0.531055 1.07095,0.961456 1.81846,1.388837 3.20372,1.831701 0.52227,0.16698 1.45037,0.578981 2.06244,0.915562 0.61817,0.339938 1.39712,0.629665 1.7524,0.651802 l 0.63961,0.0399 0.0616,-3.115801 c 0.0339,-1.71369 0.14172,-3.362139 0.23963,-3.663234 0.15943,-0.490381 0.13322,-2.336093 -0.0962,-6.778909 -0.36989,-7.160921 -0.35298,-7.410554 0.50195,-7.410554 0.78849,0 0.91515,0.544192 0.92802,3.987299 0.006,1.743849 0.0974,3.871583 0.20195,4.728312 0.14282,1.170257 0.14024,2.426977 -0.0105,5.05265 -0.22967,4.004183 -0.27529,17.814297 -0.0639,19.326607 0.0777,0.555792 0.0969,2.071587 0.0428,3.36843 -0.078,1.86805 -0.0501,2.41715 0.1341,2.64308 0.20965,0.25713 0.57433,0.27567 3.70981,0.1886 4.41555,-0.12264 4.04563,-0.11925 8.10889,-0.0743 3.63998,0.0402 11.45257,0.31245 13.30531,0.46355 1.37207,0.1119 1.34037,0.11189 3.8737,0.001 1.1579,-0.0504 3.44568,-0.13302 5.08395,-0.18345 1.63824,-0.0504 3.16221,-0.16148 3.38657,-0.24679 0.31716,-0.12058 0.42939,-0.31522 0.50445,-0.87484 0.0532,-0.39587 0.0235,-0.85636 -0.0659,-1.02331 -0.10137,-0.18949 -0.1147,-1.6803 -0.0354,-3.967216 0.13723,-3.955214 0.13724,-3.957025 0.0702,-8.211062 -0.0248,-1.574742 0.035,-4.000014 0.13279,-5.389493 0.17836,-2.532788 0.15125,-6.516013 -0.0476,-6.989499 -0.0583,-0.138948 -0.13951,-0.707371 -0.18038,-1.263163 -0.0408,-0.555791 -0.16202,-1.616848 -0.26922,-2.357903 -0.1072,-0.741055 -0.20565,-3.106769 -0.21878,-5.257156 -0.0198,-3.231801 -0.0677,-3.952278 -0.27652,-4.154857 -0.27736,-0.269075 -0.93249,-0.220412 -4.12633,0.306548 -1.38518,0.228548 -2.4292,0.260412 -5.87999,0.179443 -2.30766,-0.0541 -4.26769,-0.142895 -4.35562,-0.197232 -0.0879,-0.05432 -2.0651,-0.127264 -4.39373,-0.162043 -2.32864,-0.03474 -4.57494,-0.09379 -4.99178,-0.131179 -0.41685,-0.03737 -3.86528,-0.114632 -7.66319,-0.171706 -7.36367,-0.110664 -8.25799,-0.157769 -8.61462,-0.453749 -0.31921,-0.264917 -0.28315,-0.88714 0.07,-1.206678 0.24837,-0.22477 0.64452,-0.258054 2.40001,-0.201633 1.1564,0.03716 3.46676,0.111453 5.13413,0.165075 6.2638,0.201442 10.04697,0.29019 13.64216,0.320011 2.04812,0.01695 4.15721,0.120369 4.7158,0.231159 1.345,0.266769 8.1131,0.29277 9.43162,0.03621 0.55579,-0.108138 1.35158,-0.263759 1.76843,-0.345823 0.41684,-0.0821 1.13684,-0.197085 1.6,-0.255579 0.46316,-0.05853 1.16829,-0.212191 1.56696,-0.341539 1.36004,-0.441275 1.75039,0.129127 1.51179,2.209082 -0.22262,1.940491 -0.1241,7.186174 0.18661,9.936879 0.40996,3.629381 0.70878,7.998523 0.61434,8.982138 l -0.10242,1.066319 2.82715,-0.105053 c 1.55493,-0.05779 3.88821,-0.17539 5.18506,-0.261306 1.4139,-0.09368 2.79619,-0.09547 3.45264,-0.0042 3.64091,0.505002 11.73803,0.714424 17.01059,0.43996 3.86483,-0.20118 12.03317,-0.198517 14.06321,0.0042 1.01895,0.102001 1.90948,0.154317 1.97895,0.11638 0.30562,-0.166906 0.0603,-0.405896 -0.84211,-0.820319 -0.53263,-0.244622 -1.0821,-0.512897 -1.22105,-0.596181 -0.13895,-0.08326 -0.71888,-0.397054 -1.28873,-0.697287 -2.23285,-1.176362 -3.56574,-1.993797 -3.6626,-2.246197 -0.17797,-0.463813 -0.10971,-0.850404 0.19964,-1.130341 0.33859,-0.306423 0.8791,-0.228338 1.55168,0.224158 0.38197,0.25697 2.28176,1.463879 3.1158,1.979408 0.18526,0.114516 0.45052,0.251558 0.58947,0.304559 0.13895,0.05295 0.4538,0.204084 0.69968,0.335769 0.24587,0.131685 0.589,0.239422 0.76253,0.239422 0.1735,0 0.48741,0.120422 0.69754,0.267591 0.21011,0.147179 0.7312,0.355601 1.15793,0.463159 0.89674,0.226022 1.4987,0.876572 1.32309,1.429879 -0.0609,0.191653 -0.2464,0.39157 -0.41238,0.444244 -0.16598,0.05263 -0.55832,0.492349 -0.87189,0.977035 -0.31355,0.484696 -1.44648,1.790743 -2.5176,2.902326 -1.07113,1.111583 -2.05807,2.184177 -2.19321,2.383546 -0.13512,0.199379 -0.58807,0.805697 -1.00655,1.347373 -1.25697,1.627048 -2.0181,2.87079 -2.0181,3.297717 0,0.450802 -0.79731,1.308237 -1.21649,1.308237 -0.49917,0 -0.8149,-0.205106 -1.06742,-0.693445 -0.24604,-0.475802 -0.22971,-0.514191 0.94057,-2.211176 2.36413,-3.428192 3.80558,-5.271799 4.86315,-6.219928 1.02943,-0.922919 0.90432,-1.326868 -0.48822,-1.576259 -0.41684,-0.07463 -1.44001,-0.105053 -2.27369,-0.06758 -1.48796,0.06684 -1.98997,0.06516 -6.40003,-0.02263 -1.20421,-0.024 -3.59159,0.01211 -5.30528,0.08011 -3.82782,0.151969 -4.54526,0.168559 -6.56844,0.151927 -0.88001,-0.0074 -2.32001,-0.0084 -3.20002,-0.0032 -0.88,0.0053 -2.66106,-0.135569 -3.95791,-0.313938 -2.95472,-0.40638 -9.81618,-0.389707 -11.84221,0.02874 -1.00319,0.207211 -1.2858,0.215117 -1.49464,0.04179 -0.63156,-0.524139 -0.68169,0.03726 -0.69046,7.733386 -0.007,6.74102 0.019,7.47038 0.3147,8.58947 0.40096,1.51763 0.40871,2.25961 0.0283,2.70919 -0.41075,0.4855 -3.12972,0.73219 -8.63161,0.78316 -2.36211,0.0219 -4.59791,0.0817 -4.96844,0.13286 -0.37053,0.0512 -0.93895,0.0241 -1.26316,-0.0601 z M 27.312966,72.702015 c -0.202731,-0.18887 -0.368601,-0.46355 -0.368601,-0.61038 0,-0.14684 -0.267285,-0.85896 -0.593965,-1.582487 -0.788704,-1.746796 -1.182365,-4.954555 -1.15624,-9.421666 0.02134,-3.649182 0.338586,-5.933959 1.192673,-8.589505 0.134068,-0.416844 0.425385,-1.351184 0.647373,-2.076313 0.399751,-1.305794 0.885252,-2.03785 1.940233,-2.925558 0.46066,-0.387623 0.502198,-0.393191 1.002251,-0.134611 0.62625,0.323854 0.575565,0.76095 -0.169212,1.459216 -0.263435,0.24699 -0.589649,0.625939 -0.724921,0.842108 -0.341218,0.545297 -1.295647,3.392728 -1.298083,3.872677 -0.0012,0.216738 -0.121611,0.810908 -0.267802,1.320384 -0.532748,1.856617 -0.733461,3.773793 -0.73175,6.989499 10e-4,1.806344 0.102095,3.896846 0.232209,4.800018 0.290371,2.015575 1.101713,4.13552 1.809857,4.728958 0.448122,0.37553 0.492301,0.48246 0.32698,0.79137 -0.232984,0.43532 -0.841565,0.87969 -1.204789,0.87969 -0.147187,0 -0.433482,-0.15452 -0.636213,-0.3434 z m 14.665876,-2.561869 c -0.54258,-0.693465 -0.271926,-1.70768 0.707457,-2.651009 0.4864,-0.468497 0.718593,-0.93012 1.14364,-2.273693 0.486938,-1.539195 0.533885,-1.883628 0.539699,-3.959541 0.0048,-1.728217 -0.06886,-2.536325 -0.307207,-3.368433 -0.879569,-3.070685 -1.156794,-3.877583 -1.46825,-4.273531 -0.187026,-0.23777 -0.56191,-0.921614 -0.833078,-1.519659 -0.271167,-0.598044 -0.571673,-1.135962 -0.667792,-1.195362 -0.09612,-0.05937 -0.31946,-0.387085 -0.496316,-0.72816 -0.410255,-0.791224 -1.903989,-2.34843 -2.45289,-2.557126 -0.31533,-0.119884 -0.420753,-0.282443 -0.420753,-0.648781 0,-0.786897 0.349499,-0.941845 1.211027,-0.536875 1.836599,0.863308 2.953124,2.258071 4.859096,6.070001 0.705676,1.411352 0.984608,2.233597 1.714005,5.05265 0.309683,1.196899 0.368706,1.873354 0.360032,4.12633 -0.01021,2.664642 -0.01734,2.714505 -0.633618,4.463175 -0.732068,2.077207 -1.490788,3.657645 -1.907873,3.974162 -0.377331,0.286337 -1.132041,0.300822 -1.347179,0.02589 z M 18.490833,68.825773 c -0.541206,-0.457433 -0.549695,-0.484328 -0.298862,-0.946646 0.234668,-0.432527 0.360813,-0.483496 1.385981,-0.560044 0.946454,-0.07063 1.202857,-0.159337 1.594473,-0.551391 0.423289,-0.42376 0.464869,-0.573213 0.447418,-1.608227 -0.0221,-1.311057 -0.414432,-2.351524 -1.299062,-3.445192 -0.316312,-0.391043 -0.679623,-0.913929 -0.807357,-1.161941 -0.352113,-0.683686 -2.158233,-2.664862 -2.429393,-2.664862 -0.131202,0 -0.285095,0.208422 -0.341984,0.46316 -0.584878,2.618967 -1.161269,4.318089 -1.89969,5.60002 -0.346828,0.602107 -0.778401,1.38651 -0.959053,1.743122 -0.511804,1.010299 -2.189949,2.753273 -2.865537,2.976232 -0.815433,0.269117 -1.1300397,0.0042 -0.982662,-0.826877 0.08248,-0.465222 0.360389,-0.839045 1.181857,-1.589763 0.929166,-0.84914 1.223946,-1.280721 2.185701,-3.200012 1.155204,-2.305356 1.637626,-3.813888 1.902855,-5.950243 0.148366,-1.195036 0.131987,-1.309615 -0.334172,-2.337703 -0.269602,-0.594592 -0.490184,-1.193762 -0.490184,-1.331489 0,-0.262896 0.492547,-0.599097 0.877712,-0.599097 0.332075,0 1.20618,0.849961 1.734036,1.686143 0.554591,0.878529 0.434745,0.722476 2.068168,2.692894 0.729532,0.880045 1.427303,1.789522 1.550601,2.02106 0.123299,0.231538 0.42977,0.686245 0.681047,1.010456 0.556831,0.718456 1.248319,2.066103 1.469117,2.863169 0.08981,0.324211 0.260773,0.909519 0.37992,1.300678 0.263504,0.865087 -0.0096,2.930095 -0.47041,3.55755 -0.352305,0.479665 -1.871303,1.121057 -2.940356,1.241552 -0.681684,0.07684 -0.855295,0.02726 -1.340164,-0.382549 z m 14.467798,-0.176611 c -0.276973,-0.16118 -0.299344,-0.484412 -0.274512,-3.966246 0.01691,-2.371335 -0.03683,-3.854635 -0.143529,-3.96133 -0.109017,-0.109022 -0.283454,-0.113653 -0.483387,-0.01284 -0.408649,0.206043 -2.400455,0.09779 -2.694769,-0.146484 -0.355418,-0.29497 -0.274142,-0.95432 0.150361,-1.219794 0.208422,-0.130338 0.976395,-0.27858 1.706608,-0.329433 0.730212,-0.05084 1.401357,-0.166148 1.491436,-0.256222 0.09656,-0.09653 0.17554,-2.03605 0.192435,-4.725386 0.02569,-4.089615 0.05904,-4.591985 0.322258,-4.855207 0.396249,-0.396243 0.828097,-0.117527 0.996391,0.643087 0.06978,0.315369 0.150446,2.370335 0.179258,4.566595 0.02881,2.196261 0.09158,4.032394 0.139485,4.080299 0.04791,0.04789 0.726761,0.01558 1.508574,-0.07189 1.871793,-0.209432 3.087433,-0.04158 3.15593,0.435781 0.07678,0.535055 -0.233776,0.683666 -2.236132,1.070078 -2.548797,0.491864 -2.537508,0.481822 -2.672169,2.378935 -0.06071,0.855213 -0.110372,2.533535 -0.110372,3.729613 0,1.196068 -0.07845,2.321272 -0.174346,2.500441 -0.191669,0.358138 -0.588179,0.410854 -1.05352,0.140053 z M 193.76604,67.663864 c -1.44974,-0.656592 -1.89435,-1.598438 -3.0249,-6.407961 -0.48414,-2.059618 -0.78979,-2.453861 -1.76114,-2.271629 -1.29018,0.242043 -3.03082,1.418479 -4.35812,2.945495 -0.81034,0.932256 -1.0482,1.335352 -1.13686,1.926565 -0.13447,0.896687 -0.62618,1.436679 -1.05519,1.158836 -0.44668,-0.289265 -0.32021,-1.977818 0.23019,-3.073633 0.44547,-0.88694 2.83038,-3.376991 3.23652,-3.379212 0.11809,-6.74e-4 0.72441,-0.256454 1.34737,-0.568476 0.66013,-0.330643 1.53949,-0.617097 2.10789,-0.686655 0.96823,-0.118495 0.97996,-0.114674 1.62362,0.528992 0.67808,0.678097 0.86956,1.164067 1.27781,3.243264 0.38615,1.966607 1.07319,3.917983 1.56035,4.431785 0.24291,0.256222 0.72696,0.542665 1.07562,0.636549 0.56839,0.153054 0.75306,0.110727 1.7859,-0.409412 1.26401,-0.636539 1.98062,-1.368384 4.38799,-4.481174 0.59906,-0.774603 1.54509,-0.614265 1.54509,0.261864 0,0.344191 -0.6087,1.265531 -1.3283,2.010534 -0.17895,0.185264 -0.79622,0.905266 -1.37171,1.600006 -1.28751,1.554268 -2.47876,2.423251 -3.66621,2.674399 -1.18819,0.251317 -1.67209,0.223927 -2.47592,-0.140137 z m 136.75031,-1.428227 c -0.317,-0.483791 -0.12056,-1.015782 0.44087,-1.193973 0.19192,-0.06095 0.7958,-0.729202 1.34193,-1.485089 0.54616,-0.755898 1.14812,-1.577037 1.33771,-1.824754 0.50987,-0.666213 1.27307,-2.284398 1.57483,-3.339086 0.58574,-2.047144 0.8578,-6.062917 0.542,-8.000029 -0.24642,-1.511543 -0.9116,-3.577403 -1.65933,-5.15344 -0.32528,-0.685624 -0.792,-1.701322 -1.03715,-2.257114 -0.24516,-0.555791 -0.6572,-1.237899 -0.91562,-1.515795 -0.82639,-0.888571 -1.56636,-2.059954 -1.5049,-2.382219 0.20898,-1.095793 1.96281,0.247706 3.26448,2.500694 0.41228,0.713581 0.74959,1.340436 0.74959,1.393015 0,0.05263 0.21782,0.567697 0.48403,1.144699 2.10046,4.552501 2.57271,7.716155 1.87003,12.527119 -0.37749,2.584557 -0.4318,2.767842 -1.38734,4.683775 -0.86434,1.73308 -1.54493,2.733105 -2.82909,4.156963 -1.17766,1.305752 -1.77616,1.502058 -2.27204,0.745234 z m -13.36418,-0.558665 c -0.49821,-0.411444 -1.8487,-2.818905 -2.14934,-3.831593 -0.55652,-1.87448 -0.73449,-3.043811 -0.78767,-5.175198 -0.0545,-2.187587 0.0387,-3.016348 0.6499,-5.77221 0.14379,-0.648424 0.30177,-1.406321 0.35107,-1.684217 0.10464,-0.590234 0.42784,-1.418458 1.4129,-3.621066 0.39357,-0.880003 0.80102,-1.828859 0.90546,-2.108576 0.10442,-0.279706 0.62738,-1.132341 1.16211,-1.894744 1.03737,-1.479079 1.46516,-1.705922 2.03327,-1.078172 0.37516,0.414549 0.36464,0.453033 -0.29569,1.081846 -0.31592,0.300854 -0.8246,1.115425 -1.13037,1.810165 -0.30579,0.694739 -0.76718,1.6263 -1.02532,2.070133 -0.72884,1.253068 -1.77945,4.260563 -2.05435,5.880811 -0.13689,0.806698 -0.33631,1.630112 -0.44319,1.829807 -0.25727,0.480707 -0.0755,5.348051 0.24222,6.485097 0.60544,2.166987 0.94007,2.836169 1.4542,2.908253 0.53235,0.07463 0.83649,0.327117 0.83649,0.694403 0,0.159695 0.11411,0.519086 0.25357,0.798655 0.22389,0.44877 0.22461,0.577634 0.006,1.100194 -0.34764,0.831992 -0.82247,1.001151 -1.42155,0.506412 z M 293.491,63.466743 c -0.33681,-0.37217 -0.62573,-1.973376 -0.44391,-2.460346 0.0698,-0.186979 0.21782,-0.870498 0.32892,-1.518921 0.37801,-2.206082 1.30986,-4.481417 2.26031,-5.519062 0.84411,-0.921551 1.38953,-0.86994 2.56612,0.242843 l 0.92115,0.871171 1.18665,-1.208015 c 1.06897,-1.088193 1.25168,-1.208015 1.84213,-1.208015 0.52455,0 0.7732,0.117748 1.24494,0.589476 0.6886,0.688613 0.74085,0.696666 1.6174,0.249485 1.37774,-0.702865 2.73488,-0.596855 3.29458,0.257359 0.55022,0.839751 0.95068,2.920674 1.02669,5.335041 l 0.0725,2.305029 -0.45097,0.295485 c -0.40593,0.26598 -0.49529,0.270549 -0.89472,0.04569 -0.44108,-0.248233 -0.44353,-0.260906 -0.40749,-2.09525 0.0347,-1.765154 -0.11205,-3.059032 -0.48144,-4.24551 -0.20502,-0.658497 -0.70935,-0.729582 -1.38812,-0.195654 -0.68632,0.539855 -0.92241,1.15332 -1.30044,3.37916 -0.42328,2.492157 -0.49594,2.695115 -1.07608,3.005601 -0.4265,0.228253 -0.47988,0.218042 -0.77672,-0.148548 -0.43565,-0.538013 -0.42131,-2.122913 0.0364,-4.024647 0.33006,-1.371247 0.33662,-1.520142 0.0928,-2.103702 -0.34929,-0.835982 -0.73249,-0.806771 -1.5026,0.114527 -0.91495,1.094562 -1.15457,1.90788 -1.29468,4.394332 -0.16174,2.870684 -0.57589,3.781824 -1.45666,3.204716 l -0.4227,-0.276969 0.0512,-2.979674 c 0.0444,-2.589588 0.0123,-3.050674 -0.24532,-3.522044 -0.54255,-0.992551 -1.46523,-1.085352 -1.72597,-0.173591 -0.0596,0.208517 -0.24696,0.682287 -0.41627,1.052815 -0.56273,1.231415 -1.01843,2.9748 -1.20568,4.612585 -0.10179,0.890456 -0.21162,1.713754 -0.24402,1.829544 -0.0862,0.30818 -0.48051,0.256958 -0.80804,-0.104948 z m -7.00992,-1.447805 c -0.23215,-0.124043 -0.83846,-0.308654 -1.34737,-0.410254 -0.50889,-0.10158 -1.2739,-0.256022 -1.70008,-0.34317 -0.42616,-0.08716 -1.97985,-0.163517 -3.45265,-0.169717 -1.47277,-0.0063 -4.48011,-0.07916 -6.68294,-0.1622 -4.35643,-0.164169 -4.83699,-0.27417 -4.83699,-1.107236 0,-0.71995 1.0657,-0.960919 2.61053,-0.590265 0.37053,0.08895 2.64422,0.164779 5.05265,0.168632 5.86276,0.0095 9.35849,0.248264 10.24417,0.700108 0.42229,0.215443 0.84031,0.306812 1.13443,0.24799 0.55802,-0.111611 1.01062,0.286538 0.69009,0.607055 -0.10723,0.107232 -0.19496,0.364812 -0.19496,0.572402 0,0.207591 -0.0568,0.409318 -0.12631,0.448297 -0.389,0.218221 -1.02125,0.235664 -1.39057,0.03832 z m 37.42068,-1.052236 c -0.23032,-0.193264 -0.45239,-0.720434 -0.62311,-1.479226 -0.49789,-2.212914 -0.53833,-2.755694 -0.299,-4.013289 0.34647,-1.82069 0.28718,-2.025649 -0.62367,-2.155344 -0.96625,-0.13758 -2.02106,-0.750487 -2.02106,-1.174341 0,-0.176117 0.0947,-0.327338 0.21053,-0.336054 0.11579,-0.0084 0.73171,-0.04 1.36869,-0.06947 0.75564,-0.03495 1.2478,-0.143243 1.4161,-0.311517 0.25407,-0.254096 0.35973,-1.041256 0.64374,-4.796344 0.11085,-1.465732 0.14698,-1.582764 0.53409,-1.729943 0.8198,-0.311685 0.89702,-0.03316 0.78062,2.815842 -0.058,1.420563 -0.11638,2.71742 -0.12965,2.881895 -0.0206,0.255885 0.12172,0.299032 0.98643,0.299032 0.55579,0 1.57895,-0.05011 2.27369,-0.111369 1.58959,-0.140137 1.80494,0.02863 0.99164,0.776835 -0.47177,0.434012 -0.81216,0.584718 -1.5158,0.671086 -1.32526,0.162675 -3,0.888488 -3.08214,1.335774 -0.43023,2.343008 -0.45002,2.975653 -0.15607,4.987755 0.21123,1.445879 0.24718,2.120586 0.12342,2.316787 -0.25592,0.405728 -0.47687,0.428833 -0.87845,0.09189 z M 283.7825,55.129597 c -0.62671,-0.609381 -1.50377,-2.237135 -2.03085,-3.769088 -0.55219,-1.604984 -0.57021,-1.614279 -3.68107,-1.898743 -2.70958,-0.24777 -2.79073,-0.218559 -3.45327,1.242888 -0.30016,0.662119 -0.60025,1.431216 -0.66689,1.709112 -0.17069,0.711813 -0.93286,1.768427 -1.27563,1.768427 -0.47349,0 -0.89681,-0.600433 -0.79682,-1.130204 0.19075,-1.010582 0.65388,-2.439125 1.14572,-3.533939 0.28325,-0.630518 0.81346,-2.055881 1.17823,-3.167464 0.36478,-1.111583 0.75196,-2.17264 0.86043,-2.357904 0.10845,-0.185263 0.25453,-0.640002 0.32463,-1.01053 0.29798,-1.575142 0.67246,-2.532746 1.2155,-3.108085 0.31002,-0.328453 0.73228,-0.843508 0.93838,-1.144562 0.24972,-0.364769 0.51138,-0.54737 0.78432,-0.54737 0.49338,0 1.08328,0.547181 1.08328,1.004814 0,0.182127 0.10379,0.580023 0.23063,0.884214 0.12685,0.304201 0.32056,0.81835 0.43045,1.142562 0.1099,0.324212 0.43091,1.271584 0.71337,2.105271 0.28245,0.833687 0.58455,1.603185 0.67136,1.709995 0.18229,0.224307 0.35694,0.763772 0.89143,2.753179 0.63234,2.35364 1.42227,4.345163 2.21248,5.577989 0.40977,0.639276 0.74503,1.260941 0.74503,1.381478 0,0.238222 -0.60933,0.956351 -0.81147,0.956351 -0.0685,0 -0.38772,-0.25578 -0.70924,-0.568391 z m -3.50086,-7.924492 c -0.0293,-0.271064 -0.16185,-0.703087 -0.29474,-0.960056 -0.13288,-0.25697 -0.2416,-0.574508 -0.2416,-0.705656 0,-0.370012 -1.51711,-3.48356 -1.69741,-3.48356 -0.22341,0 -0.74016,0.888351 -0.95552,1.642617 -0.0991,0.347096 -0.34703,1.203067 -0.55099,1.902165 -0.59699,2.046449 -0.54402,2.097839 2.16201,2.097534 l 1.63139,-1.69e-4 -0.0532,-0.492854 z m -93.44752,6.370602 c -0.18908,-0.288559 -0.23352,-0.511297 -0.13021,-0.652634 0.0863,-0.118022 0.54783,-0.811424 1.02569,-1.5409 0.92425,-1.410848 1.33498,-2.005913 2.19504,-3.180138 l 0.53757,-0.73394 -0.58423,-0.76514 c -0.43018,-0.563381 -0.90969,-0.921687 -1.8184,-1.358762 -1.43501,-0.690213 -1.58212,-0.705645 -2.45932,-0.258138 -1.33185,0.679465 -3.20268,3.030737 -3.20268,4.025141 0,0.159948 -0.0962,0.422412 -0.21384,0.583255 -0.19943,0.272706 -0.2576,0.274159 -0.8624,0.02147 -0.6146,-0.256801 -0.64351,-0.302243 -0.55175,-0.867603 0.11661,-0.718666 0.57375,-1.643416 1.49,-3.014242 0.47809,-0.715298 1.04326,-1.27011 1.88416,-1.849639 1.09732,-0.756255 1.28225,-0.826813 2.13831,-0.815908 1.38846,0.01768 3.17352,0.77194 4.21487,1.780933 0.46074,0.446423 0.94251,0.811666 1.07063,0.811666 0.12811,0 0.51948,-0.397896 0.86972,-0.884214 0.56851,-0.789434 1.25685,-1.658006 2.00211,-2.526325 0.35086,-0.408812 0.70232,-0.368212 1.02084,0.117927 0.29552,0.450991 0.26364,0.512454 -1.35799,2.618925 -0.3209,0.416844 -0.77196,1.111057 -1.00233,1.542701 l -0.41889,0.784803 0.66459,0.600402 c 0.87074,0.786666 1.35125,0.890561 2.47724,0.535623 0.75771,-0.238843 1.16367,-0.536223 2.32612,-1.703922 0.79166,-0.795214 1.54796,-1.729764 1.72739,-2.134461 0.40966,-0.924014 0.75629,-1.208299 1.30524,-1.070519 0.49365,0.123895 0.66237,0.439664 0.52503,0.982593 -0.16666,0.65876 -1.39423,2.350577 -2.75365,3.795014 -1.06717,1.133919 -1.48637,1.457405 -2.23719,1.726322 -1.60644,0.575402 -3.10958,0.358854 -4.26651,-0.614634 -0.26264,-0.22099 -0.6091,-0.401802 -0.76992,-0.401802 -0.66818,0 -2.6346,2.890706 -2.57441,3.784477 0.0306,0.455149 -0.048,0.569076 -0.56264,0.814466 -0.85918,0.409718 -1.36955,0.364075 -1.70819,-0.152779 z m 2.70379,-24.744175 c -0.24549,-0.374664 -0.25656,-0.635549 -0.0947,-2.231587 0.25766,-2.541546 0.23732,-4.762638 -0.0581,-6.34536 -0.16914,-0.90615 -0.20364,-1.528574 -0.10389,-1.874154 0.0822,-0.28459 0.11404,-1.042488 0.0708,-1.684217 -0.0944,-1.401942 0.15654,-1.928459 0.7642,-1.603248 0.20108,0.107622 0.36562,0.292202 0.36562,0.410191 0,0.11798 0.10473,0.35776 0.23277,0.532845 0.21297,0.291264 0.29534,0.299474 0.96842,0.09653 0.4046,-0.121969 1.09075,-0.364422 1.52477,-0.53877 0.94277,-0.378728 1.63132,-0.40096 2.40512,-0.07768 1.41391,0.590771 1.47729,2.677073 0.16076,5.291367 -0.4295,0.852845 -0.94322,1.639995 -1.14164,1.749238 -0.1984,0.109242 -0.96703,0.240148 -1.70809,0.290917 l -1.34737,0.09232 -0.13887,1.515795 c -0.0764,0.833687 -0.15454,2.132281 -0.17371,2.885768 -0.0217,0.85074 -0.12046,1.473121 -0.26072,1.642112 -0.35344,0.425885 -1.14014,0.344222 -1.46535,-0.152117 z m 4.21668,-8.154493 c 0.2197,-0.2064 0.54482,-0.892076 0.74794,-1.577405 0.41821,-1.411026 0.43812,-1.694249 0.13673,-1.944386 -0.33606,-0.278907 -2.15763,0.404927 -2.907,1.091319 -0.61201,0.560581 -0.62164,0.588782 -0.52411,1.533753 0.0664,0.643771 0.19971,1.038046 0.4023,1.190173 0.43352,0.325538 1.66459,0.157053 2.14414,-0.293454 z m -30.41114,7.862955 c -1.00972,-0.931171 -1.19239,-1.341268 -1.19947,-2.693094 -0.005,-0.984751 0.0813,-1.40792 0.44402,-2.174397 0.56202,-1.187425 0.71161,-1.310078 1.74739,-1.432753 0.71591,-0.08484 0.95226,-0.03137 1.63681,0.369791 0.94267,0.552444 1.35921,1.171068 1.61361,2.396483 0.25124,1.210183 -0.15145,2.55703 -1.0314,3.44976 -0.58023,0.588654 -0.69034,0.631581 -1.61996,0.631581 -0.89127,0 -1.06062,-0.05832 -1.591,-0.547371 z m 2.21705,-1.39492 c 0.31208,-0.332181 0.41561,-0.660761 0.46813,-1.485816 0.0595,-0.933077 0.0186,-1.116036 -0.34196,-1.53529 l -0.40942,-0.475981 -0.69881,0.740729 c -0.61703,0.654034 -0.69932,0.835266 -0.70305,1.548395 -0.003,0.636392 0.0835,0.895319 0.40918,1.221057 0.52266,0.522644 0.77508,0.520055 1.27593,-0.01316 z m 10.67201,1.039224 c -0.45344,-0.496675 -1.06213,-1.19773 -1.35265,-1.5579 l -0.5282,-0.654834 -0.41689,0.926319 c -0.22929,0.509476 -0.61708,1.138889 -0.86176,1.39869 -0.38336,0.407054 -0.55308,0.465275 -1.22744,0.421054 -1.10802,-0.07263 -1.32788,-0.448981 -1.64966,-2.823516 -0.3138,-2.315787 -0.33144,-3.40636 -0.0595,-3.67835 0.24013,-0.240138 1.08364,-0.269664 1.22382,-0.04284 0.0541,0.08758 0.16435,1.042161 0.24489,2.121249 0.0807,1.081331 0.23506,2.049303 0.34388,2.156524 0.33048,0.325591 0.64608,-0.314959 0.76271,-1.548016 0.0583,-0.616339 0.12093,-1.231689 0.13919,-1.367458 0.0182,-0.135758 0.2404,-0.363127 0.49368,-0.505265 0.62277,-0.349464 0.83052,-0.199032 2.10162,1.521816 0.57682,0.780877 1.20185,1.609259 1.38898,1.840839 l 0.34025,0.421054 0.31776,-0.373423 c 0.17477,-0.205379 0.63274,-1.38012 1.01772,-2.610535 0.83694,-2.674884 1.61485,-4.882502 2.00492,-5.689769 0.24452,-0.506043 0.36772,-0.589475 0.87043,-0.589475 0.43835,0 0.60085,0.07926 0.6463,0.315296 0.0565,0.293622 -0.27195,1.261257 -0.69345,2.042607 -0.21146,0.392044 -0.59885,1.73148 -1.30612,4.516174 -0.27797,1.094415 -0.76859,2.512525 -1.09031,3.151349 -0.91601,1.818985 -1.48788,1.947354 -2.71023,0.608402 z m 36.81781,0.543918 c -1.09066,-0.309696 -1.56783,-0.678023 -1.47856,-1.141278 0.0659,-0.342001 0.88128,-0.523507 1.52386,-0.339222 0.73587,0.211043 1.63892,-0.08863 1.63892,-0.543823 0,-0.184959 -0.40093,-0.766445 -0.89098,-1.292205 -0.49004,-0.525759 -1.33232,-1.505395 -1.87175,-2.176976 -1.2112,-1.507953 -1.78466,-1.600069 -1.78466,-0.286675 0,0.396507 -0.16105,0.833972 -0.94077,2.555631 -0.42885,0.946961 -1.10007,1.481731 -2.36874,1.88728 -0.66804,0.213548 -0.72589,0.202896 -1.30751,-0.240727 -0.80586,-0.614655 -0.95983,-1.214362 -0.41892,-1.631553 0.2224,-0.171517 0.5808,-0.461434 0.79646,-0.644255 l 0.39214,-0.332423 -0.39466,-0.716792 c -0.26743,-0.485696 -0.52656,-0.735539 -0.80374,-0.774908 -0.44469,-0.06316 -0.84902,0.339223 -0.84902,0.844919 0,0.506044 -1.15452,2.140745 -1.88629,2.670852 -0.54282,0.393212 -0.86771,0.500244 -1.51849,0.500244 -0.45535,0 -0.98584,-0.08453 -1.17885,-0.187822 -0.30919,-0.165464 -0.44319,-0.08674 -1.12578,0.661708 -0.89491,0.981182 -1.28903,1.210331 -2.08176,1.210331 -0.39645,0 -0.6961,-0.133064 -0.97951,-0.434939 -0.37483,-0.399286 -0.40493,-0.553149 -0.36712,-1.876996 0.0475,-1.661269 0.44021,-3.085727 0.9944,-3.606361 0.53271,-0.500454 1.82226,-0.608107 2.80206,-0.233916 0.763,0.29139 1.01539,0.607276 1.21502,1.520616 0.12912,0.590676 0.53783,1.094741 0.88766,1.094741 0.2722,0 1.55445,-1.327511 1.55445,-1.609322 0,-0.09779 0.19187,-0.437949 0.42639,-0.755824 0.69584,-0.943172 0.93853,-2.013797 0.70683,-3.11838 -0.21987,-1.048298 -0.10021,-1.245941 0.75718,-1.250762 0.50551,-0.0032 0.71523,0.302148 1.21421,1.765848 0.5343,1.567269 2.00997,3.216759 2.50804,2.803421 0.36461,-0.302601 0.67038,-3.010716 0.41601,-3.684592 -0.17231,-0.456518 -0.15826,-0.581202 0.0974,-0.863677 0.52204,-0.576844 1.10043,-0.606865 1.64476,-0.08537 0.26501,0.253906 0.48186,0.552929 0.48186,0.664497 0,0.268012 1.25276,1.785754 3.07369,3.723793 0.81053,0.862656 1.47369,1.668901 1.47369,1.791638 0,0.122737 0.19948,0.406907 0.44327,0.631476 0.53366,0.49156 1.06373,1.586069 1.06882,2.206903 0.003,0.345917 -0.16606,0.565812 -0.72373,0.942172 -0.95565,0.64496 -1.78835,0.738318 -3.14626,0.352727 z M 197.91029,25.51511 c 0.34608,-0.678097 0.4252,-1.73168 0.14312,-1.906007 -0.61196,-0.378223 -1.77157,2.464209 -1.22736,3.008442 0.16864,0.168633 0.72341,-0.395443 1.08424,-1.102435 z m -45.93151,2.902 c -0.52243,-0.211117 -0.5628,-0.473591 -0.31357,-2.039123 0.12406,-0.77933 0.35763,-2.25064 0.51905,-3.269591 0.37881,-2.391398 0.34718,-3.749972 -0.10808,-4.642365 -0.19941,-0.390875 -0.32847,-0.918624 -0.299,-1.222688 0.0425,-0.438644 0.13294,-0.54435 0.50218,-0.587023 0.36067,-0.04169 0.53673,0.07505 0.88421,0.586465 0.23865,0.35118 0.43504,0.75356 0.43644,0.894161 0.002,0.140601 0.11175,0.558802 0.24524,0.92933 0.31507,0.874582 0.31471,2.231924 -0.002,3.705276 -0.13895,0.648424 -0.30018,1.726596 -0.35831,2.395946 -0.0897,1.032698 -0.0641,1.232952 0.16903,1.322405 0.32088,0.123127 1.51325,-0.09453 3.36874,-0.615076 1.18326,-0.331928 1.42034,-0.349054 2.27369,-0.164285 1.21405,0.262875 1.4463,0.386159 1.50851,0.800687 0.0875,0.582981 -0.72674,0.973625 -2.07161,0.993909 -0.64843,0.0095 -1.67159,0.147485 -2.2737,0.306022 -2.29109,0.603255 -3.93764,0.825866 -4.48185,0.60595 z m 30.27589,-3.967173 c -0.42556,-0.540991 -0.42812,-0.566696 -0.0999,-1.000972 0.22359,-0.295801 0.47299,-0.335896 2.22622,-0.357885 1.08593,-0.01358 2.14496,0.03968 2.35338,0.118421 0.86957,0.32857 0.16249,1.243184 -1.07642,1.392363 -2.89652,0.348759 -3.01361,0.343538 -3.40334,-0.151927 z"
     id="path3733"
     inkscape:connector-curvature="0"
     sodipodi:nodetypes="ccccccccsccccscscscccscscccccccccccccccccccccccccccccccccscscccccscsccscsccccsccccccccccccccccccccccccccccscccccccsccssscccccccccccccccccccsccccccccccccccccccccccsccccccccccccccccccccccccccscccccccccccccccccccccccccccssccccccscsccccccccccsccccccccccccccsccccccscccccccccccccccccccccccccsccscccccscscccccccssssccccscccccccscccccccccsccccsccsccsscsccsccsccccscscccccscccccccccccscccccscccsccscccccccccccscccccccccccccccccccccccccccccccccccccccscccsscscccccccccsccccccccsccccccccccscccccccscccscccccccscccccccccccccccccsccccccccssccccccccccccccccccccscscscccccccsccscccccccscccsccsccccccccccccssccccsccssscsccccccccsccccccsccscccscscccccccscccccccccccscccccccccscccccscccccccccccccccccccccscccccccscccsccccccccccccccccccccccccccccccccscccccscccccccscccccccsccccsccccsccscccccccssccccccsscccssccccccccccccccsccccccsscccscccccccccccsccccccccccscccccccccccccccccccccccccccscccccccccccccsccccccccccccccccscccccccccsccsccccccccscsccsccsccssccccccccssscccccccccccccccccccaccccccccccccccc" />
</svg>
