<?xml version="1.0" encoding="UTF-8" standalone="no"?>
<!-- Created with Inkscape (http://www.inkscape.org/) -->

<svg
   xmlns:dc="http://purl.org/dc/elements/1.1/"
   xmlns:cc="http://creativecommons.org/ns#"
   xmlns:rdf="http://www.w3.org/1999/02/22-rdf-syntax-ns#"
   xmlns:svg="http://www.w3.org/2000/svg"
   xmlns="http://www.w3.org/2000/svg"
   xmlns:sodipodi="http://sodipodi.sourceforge.net/DTD/sodipodi-0.dtd"
   xmlns:inkscape="http://www.inkscape.org/namespaces/inkscape"
   version="1.1"
   id="svg101"
   width="249.99995"
   height="144.63374"
   viewBox="0 0 249.99995 144.63375"
   sodipodi:docname="AM_diagram.svg"
   inkscape:version="0.92.0 r">
  <metadata
     id="metadata107">
    <rdf:RDF>
      <cc:Work
         rdf:about="">
        <dc:format>image/svg+xml</dc:format>
        <dc:type
           rdf:resource="http://purl.org/dc/dcmitype/StillImage" />
        <dc:title></dc:title>
      </cc:Work>
    </rdf:RDF>
  </metadata>
  <defs
     id="defs105" />
  <sodipodi:namedview
     pagecolor="#ffffff"
     bordercolor="#666666"
     borderopacity="1"
     objecttolerance="10"
     gridtolerance="10"
     guidetolerance="10"
     inkscape:pageopacity="0"
     inkscape:pageshadow="2"
     inkscape:window-width="1008"
     inkscape:window-height="594"
     id="namedview103"
     showgrid="false"
     fit-margin-top="15"
     fit-margin-left="10"
     fit-margin-right="10"
     fit-margin-bottom="15"
     inkscape:zoom="1.6603774"
     inkscape:cx="260"
     inkscape:cy="88.198928"
     inkscape:window-x="269"
     inkscape:window-y="77"
     inkscape:window-maximized="0"
     inkscape:current-layer="svg101" />
  <path
     style="fill:#181818;stroke-width:0.16567074"
     d="m 170.77542,129.41536 c -0.32874,-0.39613 -0.6704,-2.02552 -0.93521,-4.4602 -0.14076,-1.29357 -0.33254,-2.61298 -0.42629,-2.93191 -0.0938,-0.31883 -0.20874,-1.66078 -0.25552,-2.982 -0.0712,-2.00909 -0.13693,-2.4757 -0.40189,-2.85116 -0.37901,-0.53701 -0.39713,-0.84764 -0.0779,-1.33789 0.17262,-0.26521 0.26119,-1.10188 0.31933,-3.01766 0.10041,-3.30792 0.53103,-5.45263 1.28602,-6.40587 0.62727,-0.792 1.1029,-1.13215 1.58308,-1.13215 1.09321,0 0.89154,2.75275 -0.26426,3.60727 -0.47771,0.35319 -0.51399,0.4713 -0.85022,2.76975 -0.146,0.99717 -0.0713,1.74086 0.17454,1.74086 0.0725,0 0.44435,-0.26094 0.82606,-0.57986 0.38174,-0.31892 0.86852,-0.57985 1.08177,-0.57985 0.62049,0 1.2007,0.28534 1.31547,0.64694 0.14536,0.45803 -0.18157,1.00976 -0.59833,1.00976 -0.2013,0 -0.84957,0.49103 -1.56805,1.1877 -1.2182,1.18119 -1.22487,1.19248 -1.22487,2.06273 0,0.48124 0.0733,1.2328 0.16274,1.67012 0.0896,0.43733 0.24314,1.6897 0.34145,2.78312 0.36704,4.08357 0.64819,6.64902 0.80785,7.37237 0.21951,0.99444 0.22482,0.94816 -0.15243,1.32535 -0.38527,0.38525 -0.87244,0.42895 -1.14333,0.10258 z m 19.12123,-4.30947 c -0.35648,-0.35653 -0.38661,-0.4944 -0.29856,-1.36677 0.0975,-0.96547 0.83254,-2.65142 1.66226,-3.8125 0.90239,-1.26286 1.99622,-4.59551 2.28422,-6.95956 0.35929,-2.94918 -0.18039,-6.58903 -1.32916,-8.96424 -0.73603,-1.52183 -2.41937,-3.60252 -3.41555,-4.221774 -0.83099,-0.51656 -1.03635,-0.99141 -0.61224,-1.41554 0.67248,-0.67246 2.0883,0.24453 3.87575,2.510284 0.49257,0.62439 0.89558,1.25325 0.89558,1.39753 0,0.14428 0.14122,0.4162 0.31384,0.60433 0.47429,0.5169 1.28181,2.69939 1.41379,3.82111 0.0642,0.54671 0.19046,1.27756 0.28027,1.62412 0.25245,0.97379 0.19038,4.83931 -0.0976,6.07955 -0.13754,0.59228 -0.35819,1.59871 -0.49031,2.23657 -0.26547,1.28134 -0.76723,2.50991 -1.59012,3.89321 -1.1706,1.96798 -1.52914,2.84781 -1.50983,3.70491 0.0288,1.28277 -0.58345,1.66761 -1.38233,0.86877 z m -44.24396,-3.48086 c -0.92166,-0.40157 -1.85521,-1.73356 -2.2914,-3.26956 -0.21633,-0.76181 -0.43837,-1.68335 -0.4934,-2.04785 -0.11395,-0.75461 0.14506,-4.34527 0.37647,-5.2186 0.0845,-0.31892 0.27531,-1.12956 0.42404,-1.80147 0.14874,-0.67188 0.4784,-1.79138 0.73254,-2.48777 0.25417,-0.69637 0.51346,-1.53984 0.5762,-1.87435 0.0834,-0.4445 0.3404,-0.81167 0.95481,-1.36408 0.46239,-0.41572 0.92957,-0.75586 1.03816,-0.75586 0.49102,0 0.80247,0.87723 0.44408,1.25082 -0.45841,0.47786 -1.51435,3.01059 -1.82694,4.38198 -0.19731,0.86564 -0.46409,1.87207 -0.59284,2.23657 -0.1288,0.36446 -0.31426,1.63187 -0.41221,2.81636 -0.16204,1.95969 -0.14858,2.26819 0.14966,3.42426 0.53314,2.06666 0.83896,2.52379 2.08648,3.11919 1.14527,0.54657 1.28399,0.7926 0.82021,1.45472 -0.30092,0.42964 -1.17403,0.48924 -1.98593,0.1357 z m -9.72589,-0.42411 c -0.48533,-0.38494 -0.58791,-0.85106 -0.2485,-1.12912 0.11385,-0.0933 0.72893,-0.22003 1.36677,-0.28158 1.42411,-0.1374 2.11527,-0.34039 2.4612,-0.72266 0.2454,-0.27116 0.20484,-0.38854 -0.55617,-1.60905 -0.45148,-0.72406 -0.82559,-1.39105 -0.83135,-1.48219 -0.0152,-0.24274 -1.85293,-2.59465 -2.1875,-2.79973 -0.5706,-0.34984 -1.2884,1.09601 -1.2884,2.59536 0,0.84097 -0.0755,1.16695 -0.35197,1.51836 -1.17926,1.49911 -4.13935,2.22742 -5.63556,1.38652 -0.63487,-0.35683 -0.65892,-0.35816 -1.15805,-0.0634 -0.78357,0.46284 -2.09364,0.75484 -3.39626,0.75703 -1.10738,0 -1.21337,-0.0305 -1.69046,-0.51862 -0.75599,-0.7733 -1.02135,-1.46473 -1.02135,-2.66142 0,-1.16201 0.46363,-2.76934 1.04935,-3.63787 0.50809,-0.7534 2.02281,-1.62779 2.82134,-1.62865 0.70044,-0.002 1.92778,0.59593 1.92778,0.93719 0,0.11776 -0.19391,0.34123 -0.4309,0.49656 -0.35156,0.23029 -0.52069,0.24838 -0.91864,0.0981 -0.85283,-0.3219 -1.51692,0.0971 -2.131,1.34446 -0.81384,1.65313 -0.86656,2.79205 -0.16417,3.54596 0.39114,0.41986 1.00122,0.46379 2.15452,0.15504 1.159,-0.31017 1.79223,-0.84778 2.00802,-1.70481 0.19757,-0.78469 0.92865,-1.55988 1.4711,-1.55988 0.74851,0 1.08315,1.05232 0.56837,1.78727 -0.33921,0.4843 -0.17304,0.96163 0.40492,1.16311 0.35095,0.12236 0.68141,0.0857 1.36001,-0.15011 1.04863,-0.36466 1.68268,-0.99578 1.6096,-1.60215 -0.0531,-0.44055 -0.1172,-0.48947 -1.2617,-0.96235 -0.3928,-0.16224 -0.78418,-0.42589 -0.86976,-0.58578 -0.65499,-1.22387 0.68846,-2.6764 1.73984,-1.88117 0.17687,0.13386 0.52371,0.24323 0.77073,0.24323 0.35485,0 0.48734,-0.10948 0.63103,-0.52171 0.10005,-0.28697 0.18187,-0.7019 0.18187,-0.92209 0,-0.88651 0.57909,-1.30042 1.15969,-0.8289 0.73783,0.59922 2.52849,2.8674 3.2329,4.09512 0.44441,0.7745 1.11932,1.78091 1.49985,2.23648 0.9509,1.13854 1.23141,1.75228 1.23141,2.69441 0,0.66368 -0.0802,0.88162 -0.45561,1.23743 -0.58565,0.55517 -2.14927,1.09897 -3.5205,1.22442 -0.94388,0.0864 -1.13311,0.054 -1.53245,-0.26294 z m 38.79811,-0.28346 c -1.02121,-0.92263 -1.19869,-1.36935 -0.99079,-2.49394 0.19664,-1.0636 1.26752,-2.96933 2.02836,-3.60945 0.35742,-0.30077 0.68385,-0.41164 1.21218,-0.41164 0.39767,0 0.77173,0.0788 0.83123,0.17509 0.23058,0.37303 -0.10637,0.98701 -0.71257,1.29826 -0.46999,0.24133 -0.74796,0.57418 -1.15705,1.38556 -0.62088,1.23148 -0.67352,1.81046 -0.20708,2.2769 0.43007,0.43005 1.02996,0.41938 1.93882,-0.0345 0.62599,-0.31266 0.75476,-0.33068 0.88537,-0.1242 0.42699,0.67505 -0.14904,1.49534 -1.31887,1.87795 -1.27696,0.41766 -1.74049,0.35485 -2.5096,-0.33993 z m -68.3759,-0.0555 c -0.68938,-0.42031 -0.77227,-0.64731 -0.45706,-1.25181 0.13943,-0.26742 0.25396,-0.73082 0.25453,-1.02993 0,-0.29904 0.12167,-0.82094 0.26914,-1.15966 0.14747,-0.33883 0.36182,-1.02601 0.47636,-1.52714 0.38071,-1.66607 0.91123,-3.54337 1.47475,-5.21863 0.30647,-0.9112 0.65086,-2.06675 0.76525,-2.5679 0.11441,-0.50116 0.38432,-1.26283 0.59982,-1.69262 0.21549,-0.42977 0.39179,-0.93641 0.39179,-1.1258 0,-0.43056 0.70806,-1.15768 1.12733,-1.15768 0.39903,0 1.851,1.66653 2.30943,2.65073 0.88746,1.90528 1.03636,2.28289 1.03636,2.62844 0,0.55185 0.42811,1.27606 0.99152,1.67722 0.5377,0.38289 0.64189,0.83708 0.26394,1.15072 -0.2745,0.22781 -0.21004,1.47925 0.15847,3.07569 0.27919,1.20947 0.49411,4.19201 0.3449,4.78648 -0.0849,0.33819 -0.21023,0.43207 -0.57662,0.43207 -0.67003,0 -0.97801,-0.43738 -0.99152,-1.40811 -0.027,-1.94262 -0.9349,-6.54401 -1.29107,-6.54401 -0.0561,0 -0.78192,0.2888 -1.61307,0.64185 -0.83113,0.35306 -1.67697,0.6929 -1.87961,0.75532 -0.52016,0.16012 -1.01556,0.92483 -1.20591,1.8614 -0.37988,1.8691 -1.59725,5.36017 -1.86757,5.3557 -0.0204,0 -0.28196,-0.1498 -0.58116,-0.33233 z m 5.51412,-9.58075 c 1.28627,-0.44404 1.32368,-0.47197 1.2678,-0.94617 -0.0733,-0.6222 -1.03567,-2.5961 -1.30922,-2.68525 -0.11928,-0.0389 -0.20709,0.0734 -0.20709,0.26491 0,0.18284 -0.18727,0.55502 -0.4162,0.82705 -0.67303,0.79988 -1.31907,3.01677 -0.87525,3.00345 0.11803,-0.005 0.81101,-0.21234 1.53996,-0.46399 z m 35.70204,7.92559 c -0.65317,-0.65312 -0.46375,-0.98662 1.94664,-3.42663 2.16922,-2.19591 2.31158,-2.3818 2.98207,-3.8936 1.03502,-2.33376 0.97099,-3.78571 -0.17727,-4.01788 -1.34291,-0.27154 -1.55164,-0.16259 -2.38244,1.24388 -0.36858,0.62392 -0.88728,0.59331 -1.11825,-0.0661 -0.1386,-0.39571 -0.0772,-0.63583 0.39381,-1.54464 0.72097,-1.39052 1.07617,-1.6251 2.2516,-1.48696 1.05268,0.12374 2.51298,0.73252 2.95736,1.23291 0.59247,0.66718 0.50031,2.46693 -0.2538,4.95616 -0.23285,0.7686 -1.69964,2.9779 -2.57609,3.88027 -1.05961,1.09084 -0.9419,1.22967 0.98334,1.16021 1.69773,-0.061 2.11052,0.0547 2.54284,0.71452 0.20204,0.30835 0.21928,0.47383 0.077,0.73966 -0.16576,0.30976 -0.33707,0.34273 -1.79273,0.34548 -0.88521,0 -2.3177,0.11213 -3.18333,0.24547 -2.05453,0.31666 -2.2576,0.31032 -2.65073,-0.0828 z m 35.94193,0.0882 c -0.23255,-0.1265 -0.61559,-0.58945 -0.85125,-1.02882 -0.73747,-1.375 -1.00498,-2.60982 -0.99133,-4.57617 0.0152,-2.12778 -0.006,-2.14904 -1.60402,-1.62904 -1.28489,0.41817 -1.73088,0.44353 -2.00435,0.11408 -0.58052,-0.6995 0.25252,-1.43954 2.33524,-2.07451 0.61052,-0.18612 1.14517,-0.45241 1.20113,-0.5982 0.0556,-0.14444 0.10084,-0.91103 0.10084,-1.70337 0,-1.03577 0.0725,-1.54412 0.25792,-1.80885 0.55725,-0.79559 1.11223,-0.26873 1.14889,1.09073 0.0437,1.62112 0.0772,1.82369 0.34457,2.09116 0.16567,0.16568 0.55487,0.26035 1.07017,0.26035 0.66983,0 0.88256,0.0785 1.23068,0.45389 0.47335,0.51048 0.50236,0.66759 0.19734,1.06891 -0.16708,0.21978 -0.44924,0.2737 -1.30765,0.24985 -0.60204,-0.0169 -1.15463,0.0296 -1.22796,0.10289 -0.19123,0.19126 -0.13354,3.3304 0.0827,4.48779 0.10061,0.53841 0.37835,1.49089 0.61741,2.11654 0.58314,1.52597 0.40742,1.93088 -0.60016,1.38283 z m -24.917,-1.10305 c -0.39631,-0.47099 -0.44372,-0.64052 -0.3623,-1.29591 0.0516,-0.41477 0.14076,-1.64867 0.19821,-2.74209 0.1219,-2.31907 -0.0124,-2.71628 -0.81205,-2.41204 -0.69279,0.26341 -1.16529,0.21269 -1.39136,-0.14935 -0.29742,-0.47625 -0.0957,-0.80253 0.76507,-1.2374 1.10148,-0.55646 2.50406,-0.81501 4.49384,-0.82835 1.42411,-0.009 1.8597,0.0483 2.40222,0.31965 0.82573,0.41288 0.93543,0.85723 0.33065,1.33946 -0.41521,0.33108 -0.43756,0.40626 -0.27297,0.91878 0.22024,0.68584 0.4756,2.83353 0.51134,4.30038 0.0282,1.15842 -0.18324,1.5591 -0.76397,1.44719 -0.42452,-0.0817 -0.70992,-0.75875 -0.721,-1.71029 -0.005,-0.45565 -0.0822,-1.16389 -0.17072,-1.57388 -0.0887,-0.41007 -0.24419,-1.26742 -0.34574,-1.90519 -0.10154,-0.63787 -0.25863,-1.25292 -0.34903,-1.36682 -0.18455,-0.23253 -1.57826,-0.27768 -1.91826,-0.0623 -0.21027,0.13325 -0.2833,1.14483 -0.41082,5.6903 -0.0248,0.88373 -0.10304,1.18551 -0.37918,1.46169 l -0.34794,0.34788 z m -24.55927,-19.927974 -0.46484,-0.39971 -0.0274,-2.51238 c -0.0242,-2.22061 -0.0623,-2.53805 -0.32927,-2.73317 -0.28805,-0.21061 -0.28913,-0.26148 -0.0232,-1.10543 0.15328,-0.48654 0.4051,-1.87109 0.55959,-3.07678 0.23265,-1.81548 0.24771,-2.39904 0.0877,-3.39624 -0.19491,-1.21496 -0.29841,-3.18658 -0.41698,-7.94336 -0.0884,-3.54582 -0.20885,-3.694417 -1.21481,-1.49852 -0.81592,1.78111 -1.0589,2.02487 -1.67491,1.68024 -0.59291,-0.33166 -0.62744,-0.82296 -0.12417,-1.76566 0.2316,-0.433777 0.49797,-0.999536 0.59198,-1.257234 0.094,-0.257699 0.50304,-1.015672 0.90897,-1.684397 0.40595,-0.668725 0.87693,-1.627102 1.04662,-2.129742 0.16967,-0.502649 0.40695,-1.032487 0.52724,-1.177436 0.12029,-0.1449 0.18944,-0.284773 0.15369,-0.31073 -0.0671,-0.04863 -1.97527,-0.395066 -3.29562,-0.59837 -0.41003,-0.06317 -1.1183,-0.306237 -1.57387,-0.540221 -0.45559,-0.233975 -1.08928,-0.502492 -1.40819,-0.596693 -2.02511,-0.598222 -2.47116,-0.896713 -4.7515,-3.179635 -1.33199,-1.333508 -1.61201,-1.866828 -2.69652,-5.135794 -0.16629,-0.501137 -0.37488,-1.582153 -0.46354,-2.402226 -0.17448,-1.613098 -0.5501,-2.733551 -0.91646,-2.733551 -0.12651,0 -1.24055,0.519539 -2.47558,1.154554 -1.23505,0.635 -2.93296,1.38293 -3.77309,1.662059 -1.78671,0.593614 -2.29661,0.842334 -2.68988,1.312101 -0.32722,0.390877 -1.18027,0.460756 -1.85763,0.152112 -0.3536,-0.161098 -0.42196,-0.303756 -0.42196,-0.880489 0,-0.625091 0.0539,-0.713936 0.58717,-0.968251 0.32294,-0.153996 0.86344,-0.347596 1.20111,-0.430242 1.76461,-0.431833 5.38939,-1.935159 6.24594,-2.59043 0.28418,-0.217396 0.2958,-0.275432 0.0828,-0.413739 -0.13622,-0.08847 -0.50863,-0.121287 -0.82752,-0.07299 -0.31893,0.0483 -2.48094,0.12098 -4.80445,0.161384 -3.36526,0.05857 -4.39311,0.129874 -5.05295,0.351118 -1.08621,0.364044 -8.352482,0.478262 -13.08801,0.205742 -4.469655,-0.257216 -7.058667,-0.263226 -8.449211,-0.01964 -2.656138,0.465397 -6.849354,0.84045 -8.780539,0.785342 -1.09342,-0.03128 -4.376663,-0.09292 -7.296075,-0.137233 -4.439188,-0.0673 -5.42116,-0.125733 -5.99931,-0.357144 -0.814194,-0.325772 -1.008424,-0.754386 -0.614388,-1.355744 l 0.282532,-0.431218 2.671852,0.13616 c 1.469518,0.07498 3.971922,0.124506 5.560899,0.110089 1.588969,-0.0138 3.15456,0.04494 3.479083,0.131715 0.516212,0.138152 5.983207,-0.02898 7.96239,-0.243296 0.318918,-0.0345 1.362638,-0.152566 2.319386,-0.262169 0.998121,-0.11439 3.222385,-0.178051 5.218629,-0.149347 8.115123,0.116687 15.741642,0.04922 16.326332,-0.14444 0.37235,-0.12328 2.36939,-0.22149 5.45141,-0.268149 4.28544,-0.06486 5.52865,-0.17894 5.03392,-0.461794 -0.0762,-0.04356 -0.77237,-0.28497 -1.54688,-0.536371 -1.57001,-0.509588 -2.59205,-1.017907 -2.7207,-1.353146 -0.13813,-0.360005 0.0766,-0.714217 0.59563,-0.982638 0.44511,-0.230179 0.56119,-0.222772 1.39435,0.08896 0.49986,0.187019 1.05926,0.340031 1.24312,0.340031 0.18385,0 0.82597,0.260936 1.42695,0.579856 0.60097,0.318903 1.29608,0.57984 1.54469,0.57984 0.2486,0 0.8739,0.193151 1.38956,0.429219 0.69352,0.317517 0.99383,0.382501 1.15385,0.249684 0.11897,-0.09875 0.38683,-0.906935 0.59523,-1.795987 0.20841,-0.889066 0.47598,-1.802862 0.59462,-2.03066 0.11864,-0.227792 0.39994,-0.836221 0.62508,-1.352072 0.78961,-1.80911 1.76515,-3.252295 3.13055,-4.631231 0.75647,-0.763971 1.70881,-1.79353 2.11633,-2.287895 0.59836,-0.72586 1.00675,-1.02165 2.12198,-1.53689 1.89301,-0.874565 3.78745,-1.295897 5.52785,-1.229395 1.44243,0.05512 2.05194,0.163668 4.93987,0.879686 0.95675,0.237212 2.04994,0.482229 2.42931,0.544495 0.37939,0.06225 0.88967,0.244165 1.134,0.404254 0.24431,0.160075 0.67942,0.37789 0.96692,0.484029 0.69284,0.255784 1.91671,1.135871 1.92464,1.384013 0.003,0.108364 0.29886,0.535074 0.65648,0.94824 1.0397,1.201299 3.49157,6.419866 3.49157,7.431501 0,0.303439 0.0682,0.622532 0.15163,0.709095 0.0834,0.08656 0.17664,0.34346 0.2071,0.570899 0.046,0.342802 0.23961,0.480028 1.13234,0.802534 1.16743,0.421754 0.97436,0.420885 5.96413,0.02679 3.08484,-0.243647 15.04614,0.07597 18.4723,0.493592 1.251,0.152505 6.6705,0.404976 7.20666,0.335731 0.13662,-0.01762 2.49756,-0.02152 5.24639,-0.0092 2.78251,0.0138 5.90348,-0.06335 7.041,-0.172296 3.45345,-0.330776 4.22756,-0.323157 4.69712,0.04619 0.23582,0.185483 0.41093,0.494588 0.41093,0.725371 0,0.245761 0.096,0.402161 0.24674,0.402161 0.47209,0 2.4176,-0.870412 2.36003,-1.05587 -0.0318,-0.102672 -0.61282,-0.360217 -1.29093,-0.572347 -0.67817,-0.212107 -1.53413,-0.520347 -1.90211,-0.684939 -0.36805,-0.164615 -1.58288,-0.53397 -2.69966,-0.820818 -3.4019,-0.873758 -4.16924,-1.263941 -4.16924,-2.119879 0,-0.603175 0.65001,-0.818954 1.52756,-0.507058 0.38995,0.138598 1.19357,0.380146 1.78582,0.536767 0.59228,0.156621 1.32917,0.393236 1.63755,0.525827 0.7474,0.32134 2.09791,0.772865 3.91243,1.308073 2.0359,0.600514 4.39028,1.936423 4.39028,2.491128 0,0.492369 -1.46808,1.335564 -3.41866,1.963511 -1.08112,0.34802 -2.18929,0.732504 -2.46266,0.854374 -0.75312,0.335769 -2.40345,0.855186 -3.14773,0.990702 -0.3645,0.06639 -1.19697,0.3335 -1.84999,0.593645 -1.39898,0.557305 -1.72804,0.581486 -2.11375,0.155311 -0.63152,-0.69782 -0.0202,-1.483424 1.47867,-1.90029 0.4556,-0.126654 1.27565,-0.354292 1.82236,-0.50577 0.54671,-0.151494 1.05967,-0.340938 1.13988,-0.421009 0.25224,-0.251833 -0.96683,-0.371404 -1.71971,-0.168682 -0.39452,0.10626 -0.98233,0.141527 -1.31032,0.07866 -0.3272,-0.0627 -3.8379,-0.138153 -7.80157,-0.167762 -7.28097,-0.05428 -11.86886,-0.185901 -12.13118,-0.348036 -0.19383,-0.119753 -8.00863,-0.445571 -10.48288,-0.437 -2.50658,0.0092 -8.40994,0.218885 -8.54827,0.304382 -0.0571,0.03542 -1.17659,0.106571 -2.48753,0.158303 -1.86161,0.07346 -2.42558,0.149345 -2.57564,0.346794 -0.10568,0.139072 -0.23945,0.71369 -0.29727,1.27702 -0.14737,1.435462 -0.55496,3.00624 -1.08258,4.171983 -0.24745,0.54671 -0.60684,1.516883 -0.79861,2.15593 -0.35328,1.177173 -1.73432,3.637163 -2.66418,4.745639 -0.56691,0.675806 -2.28965,1.930251 -3.47021,2.52692 -1.08325,0.547474 -3.10946,1.218096 -4.05423,1.34182 -0.43813,0.05734 -0.83345,0.200346 -0.87848,0.317737 -0.1012,0.263645 0.71076,2.353302 1.12373,2.892053 0.16657,0.217317 0.30281,0.535021 0.30281,0.706026 0,0.171013 0.44773,0.77602 0.99494,1.34444 1.18515,1.231124 1.36979,1.70453 0.83407,2.138343 -0.37978,0.30752 -1.11217,0.39892 -1.41482,0.17659 -0.35567,-0.26132 -1.74699,-2.218333 -2.16861,-3.050333 -0.6233,-1.230032 -1.20512,-2.124346 -1.38207,-2.124346 -0.0827,0 -0.27865,0.386523 -0.43558,0.858943 -0.25126,0.756503 -0.26326,1.07755 -0.10074,2.69215 0.10156,1.008263 0.22665,3.651096 0.27806,5.872956 0.0515,2.22187 0.15781,4.16022 0.23644,4.30745 0.18881,0.35348 0.10524,3.95903 -0.12294,5.30479 -0.1491,0.87935 -0.13685,1.1443 0.0716,1.54747 0.16374,0.31666 0.21653,0.69808 0.15121,1.09273 -0.0552,0.33341 -0.10557,0.90442 -0.1119,1.26891 -0.006,0.36448 -0.0916,0.90007 -0.18952,1.19021 -0.13198,0.39129 -0.12691,0.58901 0.0197,0.76562 0.32119,0.38701 0.71594,1.923 0.59571,2.31791 -0.15824,0.51966 -0.57079,0.94489 -0.91674,0.94489 -0.16306,0 -0.50562,-0.17988 -0.76128,-0.39971 z m 2.1859,-31.734306 c 2.12444,-0.209357 3.60316,-0.678097 5.74931,-1.822487 0.88599,-0.472453 1.51213,-0.956693 2.04792,-1.583845 0.84608,-0.990331 0.86078,-1.252244 0.0951,-1.691692 -0.2639,-0.151496 -0.76632,-0.670836 -1.11651,-1.154156 -0.35019,-0.483337 -0.77123,-0.92147 -0.93567,-0.973672 -0.16443,-0.05216 -0.42054,-0.29426 -0.56909,-0.537904 -0.14858,-0.243677 -0.76166,-0.93656 -1.36239,-1.539776 -0.60073,-0.6032 -1.71459,-1.740119 -2.47525,-2.526474 -0.76064,-0.786355 -1.45811,-1.429742 -1.54995,-1.429742 -0.30895,0 -1.20426,0.865797 -1.80206,1.74268 -0.32628,0.478615 -0.8664,1.195572 -1.20024,1.593226 -0.33387,0.397653 -1.05715,1.282159 -1.60727,1.965563 -0.55015,0.683379 -1.27741,1.563869 -1.61615,1.95661 -0.89899,1.042335 -2.19175,3.46978 -2.2892,4.298503 -0.0683,0.58043 -0.0297,0.723334 0.21523,0.798486 0.16411,0.05027 0.70843,0.28405 1.20958,0.51934 1.50012,0.704367 3.10109,0.789976 7.20666,0.38534 z m -9.02906,-5.011667 c 0.86564,-1.289979 2.28211,-3.180579 3.14774,-4.201303 2.85733,-3.369305 4.30744,-5.294913 4.30744,-5.719907 0,-0.42918 -6.57888,-6.962971 -7.21914,-7.169651 -0.17537,-0.05661 -0.49405,-0.360811 -0.70815,-0.675973 -0.49264,-0.72521 -1.46158,-1.47182 -1.76099,-1.356935 -0.46805,0.179611 -2.73538,3.807416 -2.73861,4.381869 -6.5e-4,0.154633 -0.26178,1.090015 -0.57983,2.078622 -0.31805,0.98859 -0.57827,2.124443 -0.57827,2.524106 0,0.399633 -0.0879,1.055194 -0.19529,1.45679 -0.16126,0.602968 -0.1446,0.985765 0.0957,2.197512 0.16008,0.807055 0.32859,1.691021 0.37448,1.964368 0.15445,0.919943 1.26386,4.137257 1.59955,4.63878 0.51077,0.763049 2.26842,2.391753 2.48705,2.3046 0.10695,-0.04263 0.90264,-1.132915 1.76829,-2.422878 z m 19.01495,-1.828335 c 0.0929,-0.113933 0.28014,-0.583888 0.41588,-1.044414 0.1357,-0.460526 0.39391,-1.206046 0.57362,-1.656706 0.96001,-2.407089 1.23418,-3.805367 1.20962,-6.168387 -0.0155,-1.491367 -0.10384,-2.288609 -0.33026,-2.982066 -1.13213,-3.467307 -3.19294,-7.239277 -3.75091,-6.865385 -0.0989,0.06624 -0.57456,0.716822 -1.05716,1.445783 -0.4826,0.728937 -1.01678,1.527353 -1.18708,1.774241 -0.1703,0.24689 -0.30964,0.488916 -0.30964,0.537832 0,0.109446 -1.53924,2.27906 -2.17962,3.072214 -0.25749,0.318928 -0.95242,1.231062 -1.54429,2.026996 l -1.07613,1.447133 1.44569,1.61776 c 0.79514,0.889779 2.15473,2.34111 3.02128,3.2252 0.8666,0.884072 2.01661,2.095548 2.55562,2.692135 0.81974,0.907317 1.06709,1.084746 1.51215,1.084746 0.29271,0 0.60824,-0.09323 0.70123,-0.207082 z m -9.67983,-10.602963 c 1.4019,-2.027197 1.78153,-2.532808 2.1774,-2.899877 0.22993,-0.21321 0.60506,-0.738279 0.83362,-1.166815 0.59966,-1.124312 1.85748,-3.11102 2.80071,-4.423666 l 0.81632,-1.136035 -0.54607,-0.421129 c -0.58943,-0.454555 -1.54251,-0.83882 -2.09036,-0.842836 -0.18759,-0.0015 -0.48582,-0.111954 -0.66269,-0.245722 -0.17687,-0.133783 -0.65707,-0.250061 -1.0671,-0.258386 -0.41003,-0.0083 -1.11828,-0.08405 -1.57385,-0.168287 -2.24634,-0.415288 -3.58994,-0.474867 -5.11322,-0.226726 -2.49183,0.405914 -2.29426,0.300855 -2.1666,1.15214 0.14408,0.960746 -0.0806,1.235534 -1.01028,1.235534 -0.8117,0 -2.19057,0.532758 -2.33186,0.900984 -0.119,0.310111 1.15911,1.781628 2.40173,2.765144 0.50321,0.398278 2.22311,2.046093 3.82203,3.661817 1.59892,1.615712 2.95249,2.939007 3.00793,2.940652 0.0554,0.0015 0.37147,-0.388415 0.70229,-0.866792 z M 45.71081,60.360572 c -0.363418,-0.363416 -0.236254,-1.273337 0.23956,-1.714313 0.241103,-0.223453 0.497295,-0.40627 0.569326,-0.40627 0.07204,0 0.377975,-0.764151 0.679903,-1.69814 0.609087,-1.884082 0.659381,-2.724962 0.441199,-7.374992 -0.227887,-4.856708 -0.888763,-7.865248 -2.210264,-10.061838 -0.383732,-0.637831 -0.816379,-1.383347 -0.961451,-1.65671 -0.145069,-0.273357 -0.640424,-0.907045 -1.10079,-1.408207 -0.460375,-0.501146 -0.837332,-1.000673 -0.8377,-1.110038 0,-0.109376 -0.119232,-0.26522 -0.264155,-0.346318 -0.434173,-0.242982 -0.232685,-0.936368 0.289659,-0.996819 0.35627,-0.04119 0.664195,0.172893 1.612608,1.121298 0.644739,0.64473 1.295499,1.413186 1.446146,1.707652 0.150635,0.294482 0.487129,0.806818 0.747753,1.138534 1.09068,1.388192 2.217193,4.495267 2.484315,6.852075 0.35793,3.158112 0.495157,5.901025 0.42683,8.532026 -0.06561,2.526951 -0.130716,3.077447 -0.506824,4.286922 -0.237351,0.763255 -0.622399,1.713369 -0.855646,2.111392 -0.597585,1.019697 -1.694288,1.52991 -2.200469,1.023746 z M 31.368454,60.049514 c -0.611523,-0.481021 -0.750504,-0.800491 -1.023773,-2.353295 -0.26728,-1.518739 -0.312336,-7.351202 -0.06876,-8.899463 0.07884,-0.501153 0.326548,-2.15643 0.550438,-3.678364 0.223892,-1.521951 0.486519,-3.012988 0.583607,-3.313419 0.09707,-0.300432 0.290849,-1.210908 0.430596,-2.023277 0.355551,-2.066946 0.540627,-2.692366 1.120334,-3.786055 0.337157,-0.6361 0.636634,-0.988307 0.895628,-1.053299 0.783015,-0.196531 1.28633,0.353992 0.895629,0.979624 -0.417259,0.668119 -1.267112,3.582969 -1.72506,5.916614 -0.622302,3.171237 -0.789785,4.259059 -1.084041,7.041012 -0.365986,3.460261 -0.381459,4.1339 -0.154115,6.709611 0.234454,2.656117 0.500944,3.211871 1.546248,3.224586 0.421105,0.0049 0.505234,0.07787 0.550846,0.476281 0.08249,0.720606 -0.368573,1.10363 -1.299696,1.10363 -0.539201,0 -0.915563,-0.106407 -1.217908,-0.344186 z m -20.743872,-0.09399 c 0.05747,-0.149804 -0.0047,-0.39307 -0.137984,-0.540484 -0.374992,-0.414353 -0.6101288,-2.227213 -0.418224,-3.224427 0.439131,-2.281958 0.717003,-3.264672 1.201684,-4.24987 0.445653,-0.905862 0.657078,-1.143576 1.356306,-1.524884 1.426407,-0.777846 2.260597,-0.619547 3.115752,0.591252 0.200062,0.283254 0.262463,0.247542 0.868033,-0.497014 0.358856,-0.441214 0.802143,-0.930183 0.985084,-1.086617 0.448785,-0.38377 1.287752,-0.37317 1.644259,0.02075 0.157396,0.173901 0.504436,0.406602 0.77119,0.517111 0.266777,0.110504 0.485047,0.301066 0.485047,0.423485 0,0.12236 0.1491,0.30239 0.331338,0.39991 0.399298,0.213684 0.896505,-0.006 1.169226,-0.514851 0.212179,-0.396439 1.107016,-0.81052 1.751551,-0.81052 0.703857,0 1.829579,0.758888 2.279735,1.536864 0.990727,1.712181 1.641964,5.054957 1.255514,6.444557 -0.136266,0.490023 -0.269596,0.631079 -0.682056,0.721682 -0.416775,0.09154 -0.591766,0.0336 -0.935617,-0.310352 -0.389526,-0.389521 -0.408211,-0.472765 -0.2365,-1.05303 0.230407,-0.77849 0.121486,-1.71778 -0.404177,-3.48527 -0.58265,-1.959109 -0.96054,-2.242854 -1.878907,-1.410806 -0.554158,0.502076 -1.054623,1.970841 -1.241439,3.64334 -0.190627,1.706616 -0.647534,2.527905 -1.406358,2.527905 -0.304724,0 -0.513465,-0.1311 -0.667643,-0.419134 -0.193008,-0.360632 -0.181999,-0.582335 0.07883,-1.588005 0.268024,-1.033344 0.279088,-1.306492 0.09548,-2.355844 -0.295687,-1.689858 -0.900185,-2.584572 -1.572032,-2.326757 -0.740151,0.284004 -1.878401,3.014856 -2.326505,5.581633 -0.278883,1.597498 -0.596786,2.141924 -1.209154,2.070715 -0.662856,-0.07697 -0.796771,-0.663041 -0.53545,-2.342904 0.243366,-1.564399 0.161782,-4.145797 -0.149408,-4.727239 -0.197041,-0.368184 -0.203885,-0.368842 -0.726683,-0.069 -1.02763,0.589446 -1.646074,2.417072 -1.939687,5.732175 -0.106387,1.201118 -0.270019,2.277041 -0.363647,2.390924 -0.256543,0.31211 -0.683217,0.262093 -0.557565,-0.0653 z m 27.480364,-1.347505 c -0.110205,-0.07196 -0.408405,-0.575616 -0.662679,-1.119229 l -0.462309,-0.9884 0.02888,-3.699093 c 0.02567,-3.283784 1e-5,-3.688006 -0.228416,-3.600347 -0.305905,0.117377 -1.405944,0.368086 -2.166273,0.493708 -0.459779,0.07597 -0.571767,0.02756 -0.727605,-0.314456 -0.378322,-0.830364 0.311057,-1.325238 2.513553,-1.804366 1.010037,-0.219734 1.069781,-0.371657 1.15969,-2.94869 0.04558,-1.305935 0.04385,-2.8963 -0.004,-3.534126 -0.110619,-1.48224 0.138063,-2.299339 0.721532,-2.370736 0.756608,-0.0926 0.851745,0.365205 0.854009,4.109486 l 0.0023,3.395432 0.660596,-0.05668 c 0.363308,-0.03116 0.867878,-0.163895 1.121243,-0.29492 0.401764,-0.207745 0.47251,-0.207354 0.553288,0.0031 0.157051,0.409289 -0.223454,0.884088 -1.356496,1.692603 -0.598336,0.426971 -1.15598,0.955368 -1.239175,1.174215 -0.08321,0.218848 -0.189588,1.195874 -0.236404,2.171166 -0.04683,0.975292 -0.126149,2.206865 -0.176317,2.736833 -0.09683,1.023161 0.102685,2.337275 0.552906,3.641695 0.202445,0.586549 0.228026,0.868776 0.0976,1.076876 -0.198122,0.316103 -0.702125,0.43429 -1.005981,0.235906 z M 235.26675,56.475552 c -0.0654,-0.260319 -0.0221,-0.580814 0.10546,-0.78694 0.61939,-0.998231 1.28685,-2.911403 2.23105,-6.39473 l 0.78587,-2.899235 -0.0894,-2.816408 c -0.0979,-3.083535 -0.33095,-4.287662 -1.05039,-5.426326 -1.95145,-3.08865 -2.65475,-4.022374 -3.55816,-4.723944 -1.35731,-1.054051 -1.50032,-1.69518 -0.37819,-1.69518 0.72339,0 2.48551,1.334312 3.25263,2.46294 0.28697,0.422202 0.76618,1.057135 1.0649,1.410955 0.95391,1.129888 1.88178,3.31583 1.88178,4.433299 0,0.318998 0.12175,0.937129 0.27043,1.373627 0.2201,0.645945 0.25449,1.244932 0.18484,3.218682 -0.0925,2.61837 -0.18798,3.073473 -1.57059,7.477993 -1.22727,3.90962 -1.70256,4.804444 -2.55193,4.804444 -0.36834,0 -0.49169,-0.09369 -0.5784,-0.439177 z m -25.7076,0.07467 c -0.34182,-0.341846 -0.2195,-0.819355 0.34733,-1.355501 1.30522,-1.23464 2.84673,-4.174793 3.66235,-6.985234 0.41502,-1.430124 0.42353,-1.536007 0.18589,-2.319396 -0.37251,-1.228024 -0.33187,-1.49333 0.26675,-1.741292 0.47441,-0.196516 0.59262,-0.174388 1.36678,0.255815 2.49191,1.384796 5.16656,3.98283 5.5783,5.418461 0.20015,0.69783 0.20107,1.982473 6.5e-4,2.50649 -0.68211,1.794092 -3.99764,3.283312 -4.97476,2.234496 -0.42411,-0.455201 -0.42557,-0.709366 -0.006,-1.128457 0.22774,-0.227761 0.55221,-0.331324 1.038,-0.331324 0.89809,0 1.75641,-0.457792 2.1162,-1.128594 0.4349,-0.81095 0.15403,-2.017884 -0.70737,-3.03944 -0.37198,-0.44115 -0.72872,-0.802096 -0.79276,-0.802096 -0.0641,0 -0.46368,-0.305685 -0.88813,-0.6793 -0.78939,-0.694861 -1.26296,-0.762468 -1.26296,-0.180278 0,0.449075 -1.02611,3.530766 -1.70617,5.124022 -1.20868,2.831808 -3.39562,4.980852 -4.22484,4.151628 z m 14.2948,-0.824967 c -0.61969,-0.200438 -1.06915,-0.872835 -1.58588,-2.372483 -0.37358,-1.084249 -0.39881,-1.380628 -0.38791,-4.555937 0.0103,-3.247471 0.16408,-4.711892 0.72655,-6.958176 0.0799,-0.318918 0.19453,-0.915329 0.25481,-1.32537 0.0603,-0.410034 0.32172,-1.427288 0.58098,-2.26058 0.25924,-0.833293 0.52351,-1.877015 0.58724,-2.319395 0.13738,-0.954356 0.46511,-1.384168 1.05515,-1.384168 0.44121,0 0.93697,0.541495 0.7592,0.829179 -0.17946,0.290419 -1.28593,4.392677 -1.49669,5.549157 -0.11623,0.637822 -0.29082,1.569722 -0.38795,2.070867 -0.79095,4.08121 -0.89589,6.830417 -0.34,8.907861 0.56968,2.129081 0.94877,2.573932 1.65146,1.938012 0.45168,-0.408756 0.88702,-0.193874 0.77161,0.38088 -0.1809,0.900773 -0.44855,1.373239 -0.86844,1.532874 -0.49776,0.18926 -0.64515,0.18561 -1.32013,-0.03266 z m 4.79014,-2.871307 -0.4381,-0.438104 0.0618,-3.1763 0.0617,-3.176277 -0.41417,0.0083 c -0.2278,0.0047 -0.75795,0.05756 -1.1781,0.117927 -0.94965,0.136361 -1.40825,-0.128737 -1.24831,-0.721662 0.1478,-0.548332 0.77192,-0.958028 1.98204,-1.301229 l 1.02423,-0.290481 v -2.582399 c 0,-2.700136 0.0883,-3.059819 0.7037,-2.864524 0.51558,0.163645 0.6873,0.785104 0.80822,2.924809 0.0751,1.328659 0.18127,2.031945 0.31447,2.083061 0.11052,0.04244 0.85104,-0.04464 1.64534,-0.193448 1.35869,-0.254593 1.46298,-0.253639 1.76123,0.01628 0.67097,0.607208 0.2778,0.932492 -2.08324,1.723627 -1.25988,0.422132 -1.33819,0.477287 -1.54094,1.085122 -0.13938,0.41777 -0.22574,1.766419 -0.2485,3.879455 -0.0346,3.211582 -0.0381,3.23952 -0.40417,3.291546 -0.22898,0.03252 -0.53561,-0.11393 -0.80734,-0.385634 z M 114.86723,29.14167 c -0.48149,-0.51929 -0.66897,-1.53583 -0.5132,-2.78264 0.0967,-0.77377 0.0554,-0.98247 -0.3217,-1.62593 -0.50464,-0.86112 -0.88215,-1.23187 -1.33423,-1.31036 -0.51159,-0.08881 -0.7549,0.55187 -1.5111,3.97863 -0.25523,1.15662 -0.36959,1.40865 -0.69522,1.53246 -0.67449,0.25644 -0.98128,0.17086 -1.18948,-0.33182 -0.16278,-0.39294 -0.15225,-0.57007 0.0581,-0.97662 0.14125,-0.27316 0.30547,-0.82131 0.36491,-1.21813 0.34875,-2.32845 1.24267,-4.4439 2.01259,-4.76281 0.66629,-0.27599 1.68078,-0.0031 2.42736,0.65204 0.30698,0.26952 0.62891,0.49004 0.71546,0.49004 0.0865,0 0.41048,-0.3914 0.71992,-0.86977 0.30943,-0.47837 0.88795,-1.18661 1.28562,-1.57387 1.00569,-0.97936 1.64566,-0.9796 2.5141,-0.0015 0.61183,0.68944 0.63507,0.69911 1.19399,0.49701 0.89141,-0.32233 1.64558,-0.24895 2.16831,0.21099 0.55046,0.48435 1.27351,1.96448 1.27578,2.6117 6.6e-4,0.25351 0.10178,0.70082 0.22412,0.99403 0.12238,0.29321 0.27809,0.82995 0.34605,1.19274 0.20034,1.06977 0.35991,1.26835 0.84252,1.04846 0.79267,-0.36117 2.55893,-3.7677 2.56298,-4.94322 0.003,-0.83329 0.39478,-1.32081 1.06169,-1.32081 0.71336,0 0.94025,0.48142 0.8121,1.7231 -0.0688,0.66791 -0.0155,1.1342 0.1923,1.6783 0.30311,0.79368 0.99762,1.73439 1.28048,1.73439 0.092,0 0.42087,0.12032 0.73078,0.26738 0.43463,0.20625 0.56347,0.36913 0.56347,0.71239 0,0.24474 -0.0895,0.53446 -0.19882,0.64381 -0.53347,0.53346 -2.53658,-0.06593 -3.4334,-1.02733 -0.2209,-0.2368 -0.45653,-0.43056 -0.52362,-0.43056 -0.067,0 -0.43824,0.51254 -0.82481,1.13899 -0.78601,1.27376 -1.64725,1.84309 -2.78816,1.84309 -0.95529,0 -1.61503,-0.9363 -2.29054,-3.25068 -0.28931,-0.99125 -0.56948,-2.0105 -0.62258,-2.26496 -0.10672,-0.51148 -0.50757,-0.75656 -0.78449,-0.47965 -0.0982,0.0982 -0.27939,1.15272 -0.40267,2.34339 -0.31923,3.0831 -0.86106,4.01456 -1.86326,3.20303 -0.51816,-0.41959 -0.68179,-2.4674 -0.28923,-3.61955 0.149,-0.43729 0.2709,-1.05674 0.2709,-1.37656 0,-0.58537 -0.59683,-1.68063 -0.91119,-1.67212 -0.25206,0.007 -1.49956,2.29128 -1.73786,3.18241 -0.16303,0.60976 -0.16734,0.94548 -0.0192,1.49104 0.1976,0.72746 0.16859,2.56211 -0.0459,2.90931 -0.21035,0.340362 -0.90052,0.214952 -1.3227,-0.24035 z m 37.45928,-0.81187 c -0.24965,-0.23149 -0.45384,-0.54833 -0.45375,-0.70411 0,-0.57149 0.50504,-2.80559 0.93576,-4.14157 0.30422,-0.94363 0.38926,-1.42675 0.27182,-1.54418 -0.26625,-0.26626 -2.10274,-0.26844 -2.42383,-0.0031 -0.15845,0.13104 -0.27493,0.46801 -0.27493,0.79535 0,0.81282 -1.23515,3.10257 -2.00062,3.70885 -1.39345,1.10363 -3.05811,1.44191 -4.3792,0.88993 -0.52363,-0.21879 -0.80808,-0.23054 -1.80122,-0.07446 -0.64866,0.10195 -1.49456,0.29896 -1.87984,0.43779 -0.38526,0.13883 -0.84602,0.20623 -1.02392,0.14977 -0.1779,-0.05646 -0.82896,-0.59346 -1.4468,-1.19332 l -1.12332,-1.09064 -0.47278,0.55972 c -0.26003,0.30785 -0.59593,0.76484 -0.74642,1.01553 -0.446,0.74296 -1.39313,0.80778 -1.61442,0.1105 -0.10891,-0.34305 0.46922,-1.48919 1.19035,-2.35998 0.46893,-0.56627 0.4753,-0.72943 0.0747,-1.9169 -0.17225,-0.51051 -0.40682,-1.33823 -0.52125,-1.83939 -0.11442,-0.50116 -0.36149,-1.22878 -0.54902,-1.61696 -0.31424,-0.65052 -0.3199,-0.7268 -0.0725,-0.97409 0.67597,-0.67597 1.51806,0.21586 2.22402,2.35538 0.65708,1.99136 0.65777,1.99153 2.07258,0.4927 1.10695,-1.17267 1.85586,-1.74808 2.27518,-1.74808 0.2967,0 0.68272,0.51553 0.68272,0.91175 0,0.237 -0.17946,0.51972 -0.45558,0.71763 -0.7567,0.54243 -2.69215,2.45823 -2.69215,2.66484 0,0.1062 0.35286,0.57033 0.78412,1.03138 l 0.78413,0.83829 0.95375,-0.10791 c 1.24285,-0.14062 1.91892,-0.38449 2.01521,-0.72694 0.0426,-0.15184 0.12865,-0.67754 0.19107,-1.16823 0.11327,-0.89149 0.89007,-2.99793 1.27866,-3.46763 0.30574,-0.36957 1.4583,-0.85106 2.04719,-0.85521 0.28383,-0.0023 0.7125,0.15088 0.95259,0.33973 0.51391,0.40424 0.58372,1.26857 0.20432,2.52925 -0.22143,0.73575 -1.25217,2.46846 -1.59418,2.67983 -0.0889,0.05497 -0.16168,0.20734 -0.16168,0.33864 0,0.48202 0.92298,0.26086 1.78902,-0.4287 1.07221,-0.8537 1.42284,-1.77724 1.26433,-3.33007 -0.0969,-0.94949 -0.0715,-1.08819 0.25341,-1.38153 0.45121,-0.40739 1.79854,-0.48767 3.89994,-0.23238 1.91638,0.23281 2.40287,0.47277 2.40025,1.18398 -0.003,0.62033 -0.49979,2.6161 -0.9798,3.93042 -0.42449,1.16229 -0.44519,1.96706 -0.0537,2.08803 0.57124,0.17651 0.78774,0.3532 0.83719,0.68322 0.0842,0.56171 -0.39688,0.87351 -1.34771,0.87351 -0.69101,0 -0.94865,-0.08256 -1.31353,-0.42088 z m -6.58371,-6.47282 c 0,-0.31598 -0.43817,-0.29112 -0.56212,0.03196 -0.0552,0.14414 -0.0981,0.42371 -0.0951,0.62127 0.005,0.35804 0.006,0.35793 0.33135,-0.03197 0.1792,-0.2151 0.32582,-0.49467 0.32582,-0.62126 z m -17.33413,-5.4389 C 127.7649,16.13791 127.62536,15.9216 127.75508,15.40476 127.84218,15.05789 127.95377,15 128.53567,15 c 0.57027,0 0.78422,0.10517 1.33571,0.65668 0.36118,0.36118 0.60894,0.73394 0.55058,0.82836 -0.15007,0.24281 -1.39675,0.20135 -2.01329,-0.06694 z"
     id="path123"
     inkscape:connector-curvature="0"
     sodipodi:nodetypes="ccccccccsccscscscsccccccccccccccscccccccccsccccccscccccccccccccccscccccsccsccccccscccccccscscccscccccccsccccccccccccccccssscsccccsssccccccccsccccccccccccccccccccccccccccscccsscccccccccccccccccccccccccccccccccccccccccscccccsccsccccscccccccsccsccccccccccccccccscscccccccccscccccsccsscccccssccccsccccsccccccccccccccccccccccccsccccsccccccccsccscccccccccccscsccccccccscccccsccccccccccccccsccccccscccccccccccccscccccccscsccccccccscccccccccccccccccccscccccsccccccsccsccscccssscccccccccccccccccccccccccccccccccsscccccccccsccscccscccccccccccsccscsccccccccccsccccccccccccccccccscsccccccccccccccccccccscsccccccccsccscsccscsccccccscccccccccccscccccscccccccccccsscsscccccccccsccccccccsccscccsccscccc" />
</svg>
