<?xml version="1.0" encoding="UTF-8" standalone="no"?>
<!-- Created with Inkscape (http://www.inkscape.org/) -->

<svg
   xmlns:dc="http://purl.org/dc/elements/1.1/"
   xmlns:cc="http://creativecommons.org/ns#"
   xmlns:rdf="http://www.w3.org/1999/02/22-rdf-syntax-ns#"
   xmlns:svg="http://www.w3.org/2000/svg"
   xmlns="http://www.w3.org/2000/svg"
   xmlns:sodipodi="http://sodipodi.sourceforge.net/DTD/sodipodi-0.dtd"
   xmlns:inkscape="http://www.inkscape.org/namespaces/inkscape"
   version="1.1"
   id="svg2"
   width="411.39621"
   height="282.55914"
   viewBox="0 0 411.39621 282.55914"
   sodipodi:docname="AM_demodulation_diagram_cb.svg"
   inkscape:version="0.92.0 r">
  <metadata
     id="metadata8">
    <rdf:RDF>
      <cc:Work
         rdf:about="">
        <dc:format>image/svg+xml</dc:format>
        <dc:type
           rdf:resource="http://purl.org/dc/dcmitype/StillImage" />
        <dc:title></dc:title>
      </cc:Work>
    </rdf:RDF>
  </metadata>
  <defs
     id="defs6" />
  <sodipodi:namedview
     pagecolor="#ffffff"
     bordercolor="#666666"
     borderopacity="1"
     objecttolerance="10"
     gridtolerance="10"
     guidetolerance="10"
     inkscape:pageopacity="0"
     inkscape:pageshadow="2"
     inkscape:window-width="640"
     inkscape:window-height="480"
     id="namedview4"
     showgrid="false"
     fit-margin-top="15"
     fit-margin-left="20"
     fit-margin-right="20"
     fit-margin-bottom="15"
     inkscape:zoom="0.81439395"
     inkscape:cx="208.34425"
     inkscape:cy="141.46178"
     inkscape:window-x="196"
     inkscape:window-y="0"
     inkscape:window-maximized="0"
     inkscape:current-layer="svg2" />
  <path
     style="fill:#161616;stroke-width:0.16"
     d="m 168.70638,267.08509 c -0.22782,-0.27075 -0.41539,-0.57675 -0.41682,-0.68 -0.002,-0.10325 -0.14529,-1.41173 -0.31974,-2.90773 -0.17443,-1.496 -0.31728,-2.84778 -0.31741,-3.00397 -1.4e-4,-0.15617 -0.17649,-0.35096 -0.39189,-0.43285 -0.21539,-0.0819 -0.50438,-0.32097 -0.64217,-0.53128 -0.2244,-0.34246 -0.22549,-0.44236 -0.0106,-0.95689 0.13203,-0.31597 0.41675,-0.83488 0.63272,-1.15312 0.38216,-0.56315 0.39315,-0.66295 0.4112,-3.73026 0.0308,-5.23697 0.118,-6.74179 0.45142,-7.79163 0.22315,-0.70262 0.38962,-0.9728 0.62093,-1.00773 0.5787,-0.0874 0.71694,0.30527 0.52674,1.49599 -0.28365,1.77555 -0.0313,1.69539 2.0187,-0.64131 0.52085,-0.59368 1.06832,-0.725 1.67312,-0.40132 0.6335,0.33904 0.1224,1.8638 -0.67843,2.02396 -0.706,0.1412 -1.84427,1.57552 -2.28851,2.88369 -0.58263,1.71568 -0.702,4.59792 -0.1537,3.71075 0.21085,-0.34116 2.04443,-1.42403 2.41125,-1.42403 0.54373,0 0.85416,0.58122 0.72304,1.35379 -0.0917,0.54047 -0.178,0.64829 -0.58587,0.73221 -0.77199,0.15888 -1.13938,0.42326 -1.92036,1.38198 -1.19468,1.46661 -1.24188,1.61567 -1.15144,3.63599 0.0437,0.97681 0.19492,2.82003 0.33596,4.09603 0.24955,2.25768 0.22204,3.23056 -0.1029,3.64 -0.23594,0.29728 -0.36886,0.25021 -0.82533,-0.29227 z m 18.66138,-0.5568 c -0.60879,-0.4264 -0.43256,-0.86675 1.0444,-2.60978 1.36025,-1.60529 2.74664,-3.59753 2.75558,-3.95981 0.005,-0.19476 0.5821,-1.72817 0.82277,-2.18548 0.3263,-0.62005 0.7787,-3.4644 0.78014,-4.90503 0.002,-1.60964 -0.2363,-4.04912 -0.4848,-4.97083 -0.083,-0.308 -0.28878,-1.136 -0.45721,-1.84 -0.16845,-0.704 -0.64727,-2.072 -1.06405,-3.04 -1.58013,-3.67 -1.97706,-5.36 -1.25887,-5.36 0.40847,0 0.86644,0.31379 0.86644,0.59365 0,0.14432 0.46044,1.27578 1.0232,2.51437 0.56276,1.23859 1.11308,2.53998 1.22292,2.89198 0.10986,0.352 0.30172,0.92219 0.42636,1.26711 0.12464,0.34491 0.32507,1.13691 0.44539,1.76 0.12032,0.62308 0.30718,1.49289 0.41525,1.93289 0.11995,0.48842 0.19393,1.92171 0.18995,3.68 -0.006,2.69446 -0.0375,2.99338 -0.488,4.64 -0.95991,3.50882 -1.83011,5.24936 -3.74427,7.48912 -0.54586,0.63869 -0.9308,1.24051 -0.9308,1.4552 0,0.43552 -0.46085,0.89568 -0.897,0.89568 -0.17148,0 -0.47182,-0.11208 -0.6674,-0.24907 z m -43.76008,-5.37261 c -0.61029,-0.45522 -0.85078,-0.97883 -1.32844,-2.89235 -0.32155,-1.28813 -0.43056,-2.21147 -0.50142,-4.24707 -0.0814,-2.33723 -0.0547,-2.74301 0.26282,-4 0.63691,-2.52136 0.67999,-2.67355 0.90689,-3.20432 0.12355,-0.28899 0.22463,-0.61407 0.22463,-0.72237 0,-0.10832 0.13392,-0.44789 0.2976,-0.75458 0.16368,-0.3067 0.35243,-0.7319 0.41944,-0.94491 0.16005,-0.50875 1.08026,-1.93696 1.47843,-2.29456 0.17259,-0.15502 0.59522,-0.29902 0.93916,-0.32 0.61066,-0.0373 0.6265,-0.0246 0.67361,0.53803 0.0393,0.46975 -0.027,0.62549 -0.35883,0.84293 -0.69687,0.45661 -2.11761,3.55243 -2.76087,6.01599 -0.79371,3.03974 -0.81939,5.24539 -0.096,8.2447 0.22281,0.92385 0.3766,1.21544 0.87877,1.66625 0.77162,0.69271 0.8244,1.34741 0.15993,1.984 -0.53452,0.51212 -0.61912,0.51836 -1.19572,0.0883 z m 31.9816,-0.95344 c -0.97168,-0.76432 -1.31519,-2.26488 -0.79192,-3.45946 1.19412,-2.72611 2.08606,-3.95313 2.97128,-4.08758 0.6687,-0.10158 1.01945,0.0851 1.152,0.61325 0.12848,0.51189 -0.13445,0.86891 -0.63994,0.86891 -0.48326,0 -1.08085,0.7845 -1.59293,2.09118 -0.79133,2.01925 -0.47414,2.59509 1.38687,2.51776 l 1.17752,-0.0489 v 0.48 c 0,0.42294 -0.1046,0.53118 -0.88,0.91069 -1.11344,0.54493 -2.17967,0.58869 -2.78288,0.11419 z m -18.23398,-0.42742 c -0.086,-0.13911 -0.13179,-2.51941 -0.11577,-6.0132 0.006,-1.30667 -0.0562,-2.49467 -0.13822,-2.64 -0.11129,-0.19722 -0.37998,-0.26426 -1.05901,-0.26426 -1.14443,0 -1.43892,-0.31048 -0.93485,-0.98561 0.44752,-0.59941 0.89717,-0.69199 3.66471,-0.75444 2.11926,-0.0478 2.54972,-0.10574 3.68,-0.49513 1.07825,-0.37146 1.44299,-0.42595 2.31408,-0.34573 0.87619,0.0807 1.10828,0.17035 1.52,0.5872 l 0.48592,0.49197 -0.3764,0.30981 c -0.27424,0.22571 -0.49138,0.27811 -0.8,0.19308 -0.66058,-0.18201 -1.43503,-0.0908 -2.44864,0.28821 -0.79688,0.29802 -0.92045,0.39771 -0.85456,0.68952 0.0423,0.18762 0.15011,0.66512 0.23945,1.06112 0.0893,0.396 0.20514,1.548 0.25733,2.56 0.11576,2.2452 -0.10158,3.14616 -0.74258,3.0781 -0.75483,-0.0802 -0.79443,-0.14328 -0.79873,-1.27308 -0.002,-0.59676 -0.0851,-1.80502 -0.18402,-2.68502 -0.0989,-0.88 -0.17049,-1.87326 -0.15901,-2.20723 l 0.0209,-0.60725 -1.07688,0.0473 -1.07686,0.0472 0.0558,4.04882 c 0.0639,4.64177 0.003,4.99118 -0.86573,4.99118 -0.29213,0 -0.56523,-0.0552 -0.60689,-0.12254 z m -9.50498,-0.62404 c -0.61403,-0.24737 -0.52702,-1.49342 0.10428,-1.49342 1.03903,0 3.51189,-4.73787 4.86799,-9.32683 0.22393,-0.75778 0.0437,-1.0877 -0.69931,-1.28024 -0.61389,-0.15907 -1.55464,0.0774 -2.27782,0.57254 -0.56148,0.38445 -1.2333,0.26253 -1.2333,-0.22382 0,-1.03355 1.4585,-1.90165 3.19502,-1.90165 1.56266,0 2.35018,0.33707 2.56102,1.09615 0.3061,1.10201 0.062,2.63675 -0.57703,3.62816 -0.11498,0.17836 -0.39054,0.8803 -0.61236,1.55984 -0.49153,1.50576 -1.13971,2.95479 -1.90852,4.26655 -0.31797,0.54255 -0.57813,1.05834 -0.57813,1.14621 0,0.10235 0.48323,0.12058 1.34438,0.0507 1.74124,-0.1413 2.45668,-0.008 2.68837,0.50036 0.25899,0.56844 -0.17213,0.98204 -1.12428,1.0786 -0.41166,0.0417 -1.03647,0.15462 -1.38847,0.25084 -0.63529,0.17365 -3.97499,0.23186 -4.36184,0.076 z m -35.46673,-0.62484 c -0.40388,-0.40388 -0.29933,-0.845 0.50603,-2.13516 0.97453,-1.56113 2.33484,-4.35652 2.74739,-5.64574 0.17735,-0.55422 0.43015,-1.29568 0.56178,-1.64768 0.13163,-0.352 0.24248,-0.87577 0.24634,-1.16397 0.005,-0.4078 0.0954,-0.55755 0.40564,-0.6755 0.21923,-0.0834 0.50686,-0.11002 0.63916,-0.0592 0.27736,0.10643 1.33626,2.05811 1.94166,3.57872 0.22773,0.572 0.54572,1.184 0.70665,1.36 0.46622,0.50989 0.67514,1.21047 0.65604,2.2 -0.0137,0.71016 0.0358,0.92 0.21706,0.92 0.29597,0 2.40067,-1.97283 2.9018,-2.72 0.20659,-0.308 0.50237,-0.73581 0.65731,-0.9507 0.15494,-0.21488 0.31771,-0.78944 0.36171,-1.27682 0.0718,-0.79547 0.12587,-0.90219 0.52844,-1.04315 0.52677,-0.18446 0.8794,-0.0152 1.22104,0.58626 0.19652,0.34596 0.19858,0.56769 0.0143,1.54419 -0.32767,1.73662 0.16944,4.00756 0.79291,3.62224 0.0939,-0.058 0.37491,-0.55023 0.62445,-1.09376 1.09,-2.37424 1.36435,-2.83683 2.14017,-3.60859 0.87442,-0.86984 1.6822,-1.18189 2.11967,-0.81882 0.13063,0.10842 0.32124,0.47658 0.42358,0.81813 0.10233,0.34157 0.26854,0.62102 0.36935,0.62102 0.1008,0 0.43141,-0.25763 0.73467,-0.57251 0.84789,-0.88035 1.41377,-1.06299 2.39282,-0.77224 1.0892,0.32346 2.07182,1.0169 2.61362,1.84442 0.38864,0.5936 0.47077,0.92969 0.59969,2.45406 0.21218,2.50894 0.21457,2.47187 -0.18649,2.89877 -0.44273,0.47126 -0.84317,0.49257 -1.26825,0.0675 -0.28139,-0.28139 -0.32,-0.53333 -0.32,-2.08795 0,-1.96077 -0.13663,-2.39467 -0.9766,-3.10146 -0.70159,-0.59035 -1.32673,-0.50968 -1.93985,0.25036 -0.61081,0.75715 -0.77001,1.40478 -0.93282,3.79481 -0.17742,2.60442 -0.53678,3.20926 -1.58476,2.66733 l -0.50291,-0.26007 0.0384,-2.5915 c 0.0504,-3.40093 -0.13519,-4.17168 -0.84919,-3.5272 -0.36417,0.32872 -1.20828,1.94615 -1.65733,3.17568 -0.42721,1.16974 -0.77679,1.59638 -1.50489,1.83669 -0.51152,0.16881 -0.7809,0.17475 -1.27061,0.028 -0.77637,-0.23259 -0.85773,-0.33666 -1.30163,-1.66472 -0.19854,-0.594 -0.4117,-1.08 -0.47369,-1.08 -0.062,0 -0.34201,0.252 -0.62228,0.56 -0.28028,0.308 -0.57341,0.56 -0.65141,0.56 -0.078,0 -0.4903,0.35589 -0.91622,0.79085 -1.51211,1.54421 -4.45119,2.65485 -5.3928,2.03789 -0.63168,-0.41389 -0.62907,-0.85506 0.009,-1.56159 0.31197,-0.34531 0.7567,-0.71768 0.98829,-0.82749 0.23159,-0.10982 0.54917,-0.46164 0.70574,-0.78185 0.23798,-0.48671 0.2572,-0.70478 0.11716,-1.32966 -0.18938,-0.84506 -1.41296,-3.00444 -1.65644,-2.92328 -0.0877,0.0292 -0.25439,0.32745 -0.37046,0.66273 -0.11608,0.33528 -0.35103,0.90722 -0.52213,1.27099 -0.17109,0.36378 -0.43317,1.00189 -0.58239,1.41805 -0.14922,0.41614 -0.44211,0.98814 -0.65086,1.27109 -0.20875,0.28294 -0.37955,0.60635 -0.37955,0.71867 0,0.42866 -1.71609,2.6136 -2.05276,2.6136 -0.0904,0 -0.27752,-0.11314 -0.41581,-0.25142 z m 70.33805,-1.26743 c -0.18004,-0.22889 -0.36956,-0.6108 -0.42113,-0.84867 -0.22173,-1.02254 -0.34755,-3.40424 -0.23839,-4.51248 0.24176,-2.45456 0.28266,-3.46541 0.14896,-3.68173 -0.10318,-0.16697 -0.47145,-0.2118 -1.48022,-0.18022 -1.46472,0.0459 -1.79045,-0.10962 -1.69099,-0.80709 0.0399,-0.27985 0.18485,-0.38856 0.61229,-0.45918 0.308,-0.0509 0.71726,-0.17786 0.90948,-0.28215 0.19221,-0.1043 0.5974,-0.18963 0.9004,-0.18963 0.30301,0 0.62021,-0.09 0.70488,-0.2 0.0847,-0.11 0.24487,-0.91984 0.35599,-1.79965 0.22611,-1.79024 0.46504,-2.39486 1.00189,-2.53524 0.72,-0.18829 0.82382,0.16131 0.59763,2.01212 -0.25469,2.08384 -0.20343,2.24615 0.69022,2.18504 0.75411,-0.0515 1.96304,0.13268 2.40922,0.36714 0.17531,0.0921 0.27008,0.28978 0.24,0.50056 -0.0439,0.30782 -0.23579,0.3821 -1.64971,0.63872 -1.07448,0.19502 -1.6818,0.38562 -1.84903,0.58032 -0.25577,0.29779 -0.39097,2.2212 -0.39097,5.56226 0,1.44319 0.01,1.4815 0.52,2.00761 0.286,0.29499 0.52,0.68694 0.52,0.87101 0,0.4787 -0.47824,0.9679 -1.06157,1.08595 -0.41591,0.0842 -0.55749,0.0304 -0.82895,-0.31469 z m -78.74948,-1.51507 c -2.30407,-0.1267 -2.87218,-0.38466 -2.87755,-1.30649 -0.004,-0.6328 0.35313,-0.83868 1.23884,-0.71476 3.20047,0.44778 4.19418,0.52533 5.47871,0.42757 0.59817,-0.0455 1.40625,0.15415 1.60807,0.39733 0.2638,0.31785 0.0326,0.84104 -0.49147,1.11203 -0.49022,0.2535 -1.55208,0.27157 -4.9566,0.0843 z m 21.29792,-13.82701 c -0.46418,-0.49409 -0.34353,-0.95164 0.32381,-1.22808 0.38158,-0.15804 0.60591,-0.16188 1.00604,-0.0172 0.28322,0.10242 0.63159,0.18621 0.77414,0.18621 0.65073,0 0.32345,0.82797 -0.44191,1.11799 -0.92726,0.35134 -1.2887,0.33854 -1.66208,-0.0589 z m 21.10208,-2.7062 -0.4,-0.20242 v -6.07522 c 0,-3.34137 -0.065,-6.17614 -0.14443,-6.29947 -0.0794,-0.12334 -0.16149,-2.62939 -0.18234,-5.56902 -0.0209,-2.93962 -0.0744,-5.38119 -0.11887,-5.42571 -0.10662,-0.10661 -1.39436,2.2304 -1.39436,2.53051 0,0.12768 -0.252,0.58657 -0.56,1.01979 -0.308,0.4332 -0.56,0.88115 -0.56,0.99544 0,0.44774 -0.76928,0.99323 -1.40073,0.99323 -1.12278,0 -1.29136,-0.528 -0.4202,-1.31611 0.41326,-0.37387 0.98598,-1.35339 2,-3.42062 0.78151,-1.59322 1.42093,-2.97026 1.42093,-3.0601 0,-0.0898 0.175,-0.55906 0.38889,-1.0427 0.21389,-0.48365 0.43704,-1.136 0.49588,-1.44965 0.10566,-0.56319 0.10033,-0.57011 -0.42889,-0.55719 -1.05424,0.0258 -2.78545,-0.21088 -3.73252,-0.5102 -0.52985,-0.16748 -1.44705,-0.42412 -2.03822,-0.57032 -0.59117,-0.14623 -1.42629,-0.45648 -1.85581,-0.68948 -0.97374,-0.5282 -2.42933,-1.50675 -2.42933,-1.63315 0,-0.10926 -1.27403,-1.80424 -2.57852,-3.43048 -0.49413,-0.616 -1.2369,-1.696 -1.6506,-2.4 -0.4137,-0.704 -0.95772,-1.568 -1.20892,-1.92 -0.2512,-0.352 -0.49164,-0.82 -0.5343,-1.04 -0.0427,-0.22 -0.19131,-0.724 -0.33032,-1.12 -0.13901,-0.396 -0.29115,-0.918 -0.33809,-1.16 -0.0469,-0.242 -0.17712,-0.44 -0.28928,-0.44 -0.25989,0 -2.29117,2.03152 -4.80284,4.80341 -1.66404,1.83645 -2.00388,2.30195 -2.24865,3.08013 -0.53517,1.70144 -1.9024,2.15216 -2.25591,0.74369 -0.0687,-0.2739 -0.0226,-0.47782 0.13837,-0.61142 0.13284,-0.11024 0.35403,-0.5369 0.49155,-0.94813 0.13751,-0.41121 0.6141,-1.17968 1.05909,-1.70768 0.44499,-0.528 1.07443,-1.27569 1.39875,-1.66155 0.32432,-0.38584 1.25567,-1.39067 2.06967,-2.23296 0.814,-0.84229 1.48,-1.61507 1.48,-1.71731 0,-0.13162 -1.01607,-0.2228 -3.48,-0.31227 -5.43495,-0.19739 -5.67607,-0.19911 -6.44,-0.0458 -1.68503,0.33808 -3.00991,0.38576 -4.96,0.17847 -1.1,-0.11691 -2.108,-0.22018 -2.24,-0.22946 -0.132,-0.009 -0.78,0.0456 -1.44,0.12202 -0.66,0.0764 -2.136,0.11718 -3.28,0.0906 -1.144,-0.0265 -3.609019,-0.0398 -5.477829,-0.0294 -2.846535,0.0158 -3.455875,-0.0218 -3.755605,-0.23176 -0.19677,-0.13783 -0.5812,-0.2506 -0.85428,-0.2506 -0.7612,0 -1.12632,-0.52184 -1.28742,-1.84 -0.13179,-1.0784 -0.17994,-7.94384 -0.0696,-9.92 0.0625,-1.11968 -0.0927,-4.85096 -0.25957,-6.24 -0.0634,-0.528 -0.13287,-2.796 -0.15429,-5.04 -0.0214,-2.244 -0.0776,-4.44 -0.12479,-4.88 -0.0472,-0.44 -0.16246,-1.448 -0.25612,-2.24 -0.56857,-4.80833 -0.70175,-8.67415 -0.47678,-13.84 0.0824,-1.892 0.19195,-6.32 0.24345,-9.83999 0.0515,-3.52 0.10696,-7.12 0.12322,-8 l 0.0296,-1.6 -2.16,0.0117 c -1.188,0.006 -4.104,0.0377 -6.48,0.0693 -3.14745,0.042 -4.48007,0.004 -4.90976,-0.14076 -0.46613,-0.15677 -0.86862,-0.15774 -1.92,-0.005 -1.51457,0.22057 -4.03728,0.20417 -5.57024,-0.0362 -0.572,-0.0897 -2.47262,-0.18235 -4.22359,-0.2059 -2.91885,-0.0393 -3.20242,-0.0682 -3.40994,-0.34818 -0.24812,-0.33475 -0.17131,-1.08216 0.15114,-1.47068 0.164,-0.19761 0.58506,-0.21858 2.59905,-0.12944 1.32184,0.0585 2.76334,0.13416 3.20334,0.16813 2.98694,0.23057 5.36092,0.31567 6.88,0.24662 0.968,-0.044 2.3,-0.004 2.96,0.0891 2.16225,0.30467 8.05832,0.11799 11.84,-0.37487 l 0.88,-0.11469 0.0275,-1.75976 c 0.11636,-7.4476 0.25027,-12.5291 0.38579,-14.63977 0.0876,-1.364 0.14626,-3.92 0.13041,-5.68 -0.0159,-1.76 0.0177,-3.452 0.0746,-3.76 0.0569,-0.308 0.14045,-1.496 0.18575,-2.64 0.0453,-1.143996 0.12538,-2.727996 0.17797,-3.519996 0.0965,-1.45417 0.13487,-8.3399 0.0636,-11.440001 -0.0212,-0.924 -0.0223,-3.192 -0.002,-5.04 0.02,-1.848 -0.0624,-4.727999 -0.18307,-6.399999 -0.12064,-1.672 -0.21906,-3.379911 -0.21872,-3.795355 6.4e-4,-0.852524 0.30481,-1.280959 0.89996,-1.267864 0.4213,0.0093 3.09573,0.351168 6.378515,0.815428 2.338159,0.330669 5.771289,0.332068 8.559999,0.0035 1.01229,-0.119273 2.15286,-0.119593 3.84,-0.0011 2.23141,0.156748 4.29275,0.06069 5.06612,-0.236083 0.14068,-0.05398 1.75835,-0.128856 3.59483,-0.166382 4.03013,-0.08235 4.21941,-0.09201 4.21773,-0.215117 -0.003,-0.186194 -3.02242,-1.77699 -3.37343,-1.77699 -0.33139,0 -1.42524,-0.983932 -1.42524,-1.282016 0,-0.16232 0.11508,-0.410205 0.25573,-0.550855 0.37716,-0.377161 1.19944,-0.176193 2.70427,0.660931 0.704,0.391631 1.46,0.807912 1.68,0.925071 0.6375,0.339494 2.9131,1.045297 3.06583,0.950902 0.24307,-0.150224 0.5634,-1.081147 0.75949,-2.207153 0.25757,-1.479087 1.22123,-5.095619 1.64589,-6.17688 0.51335,-1.307072 1.25939,-2.402581 2.18265,-3.205069 0.81868,-0.711597 0.98151,-1.05556 0.65448,-1.382585 -0.0944,-0.09441 -0.14841,-0.409266 -0.12,-0.699679 0.0418,-0.427696 0.14286,-0.555891 0.53166,-0.674686 0.264,-0.08067 0.70688,-0.24821 0.98418,-0.372322 0.2773,-0.124112 0.60379,-0.225659 0.72554,-0.225659 0.3187,0 2.09213,-0.637992 2.33879,-0.841379 0.21431,-0.17671 0.74,-0.294194 3.03728,-0.678784 0.72919,-0.122074 1.45446,-0.262787 1.61171,-0.312696 0.63905,-0.202827 2.41055,-0.2432 2.84668,-0.06488 0.2507,0.102504 0.77982,0.204976 1.17582,0.227717 0.396,0.02274 1.044,0.113514 1.44,0.20172 0.396,0.08821 1.008,0.212398 1.36,0.275982 0.352,0.06358 0.748,0.207954 0.88,0.32082 0.132,0.112865 1.02494,0.35356 1.98432,0.534876 0.95938,0.181317 2.00338,0.463722 2.32,0.627567 0.31662,0.163843 0.75783,0.342801 0.98045,0.397684 0.53851,0.132754 2.47268,1.629325 3.7152,2.87465 1.09923,1.101707 2.89177,3.495803 3.23099,4.315222 0.2596,0.627155 0.83368,3.623442 0.97947,5.112189 l 0.10485,1.070691 0.90236,0.08861 c 0.49629,0.04873 1.51436,0.163944 2.26236,0.256022 1.844,0.226996 7.75008,0.226748 10.4,-4.8e-4 1.188,-0.101849 3.348,-0.172438 4.8,-0.156862 1.452,0.01558 3.612,-0.0439 4.8,-0.132171 2.39793,-0.178171 6.37864,-0.158853 8.04,0.03902 0.94614,0.112686 1.08,0.09615 1.08,-0.133467 0,-0.144152 -0.0608,-0.262095 -0.13512,-0.262095 -0.0743,0 -0.32405,-0.162 -0.55496,-0.36 -0.23093,-0.198 -0.87213,-0.531864 -1.4249,-0.74192 -0.55277,-0.210057 -1.13102,-0.491216 -1.28502,-0.624798 -0.5229,-0.453574 -0.27263,-1.473281 0.3616,-1.473281 0.65836,0 4.67328,2.254471 5.62065,3.156137 0.34621,0.329494 0.70298,0.530682 0.88,0.49625 0.27531,-0.05355 0.29453,-0.220394 0.25506,-2.215149 -0.0808,-4.082174 -0.37392,-10.478573 -0.51682,-11.277238 -0.0787,-0.44 -0.14582,-1.756477 -0.14913,-2.925504 -0.003,-1.169029 -0.079,-2.261813 -0.1681,-2.42841 -0.37434,-0.699436 0.27526,-1.445278 1.26154,-1.448451 0.40435,-0.0013 1.2004,-0.112012 1.76899,-0.246025 0.56857,-0.134013 1.57657,-0.228682 2.24,-0.210375 0.66341,0.01831 2.06776,-0.0124 3.12077,-0.06823 1.38692,-0.07354 2.22473,-0.03806 3.04,0.128732 1.37641,0.281592 5.52684,0.334053 7.53116,0.09519 1.62864,-0.194089 4.26079,-0.09963 4.76656,0.171056 0.91967,0.492183 4.30501,0.631162 7.46771,0.306575 4.01613,-0.412175 6.778,-0.929384 7.50898,-1.406191 0.37101,-0.241996 0.40523,-0.233337 0.7407,0.187368 0.42909,0.538144 0.52717,1.812069 0.54845,7.124261 0.0104,2.586502 0.0798,3.852577 0.24661,4.497171 0.14117,0.545475 0.22299,1.549005 0.20872,2.56 -0.0214,1.515133 0.20709,3.792717 0.47875,4.772134 0.0948,0.341907 0.25407,0.41396 1.30789,0.591803 1.22766,0.207183 5.00778,0.189864 10.3199,-0.04728 3.57304,-0.159509 3.80908,-0.154318 7.0289,0.154591 1.57789,0.151382 3.10398,0.231136 3.39131,0.177232 0.28735,-0.0539 1.12426,-0.01792 1.85981,0.07996 0.95901,0.12762 1.5839,0.12964 2.20869,0.0071 0.47921,-0.09395 2.07427,-0.204835 3.54459,-0.246396 l 2.6733,-0.07557 0.26329,0.401838 c 0.23397,0.357094 0.24163,0.566939 0.0688,1.884605 -0.28757,2.192217 -0.34487,16.599807 -0.0727,18.282762 0.14003,0.86594 0.16965,1.82345 0.0915,2.96 -0.15387,2.23872 -0.0631,9.72415 0.15431,12.720006 0.0958,1.32 0.1863,2.6819 0.20116,3.02645 0.0149,0.34455 0.1072,0.65327 0.20517,0.68604 0.23335,0.0781 0.97938,-0.78195 1.75791,-2.0265 1.26339,-2.01965 1.54304,-2.32145 2.20193,-2.37632 0.3324,-0.0277 0.70735,0.0351 0.8332,0.1396 0.39112,0.3246 0.27143,1.01036 -0.26545,1.52079 -0.27186,0.25847 -0.60372,0.67955 -0.73746,0.93574 -0.13374,0.2562 -0.42019,0.6522 -0.63654,0.88 -0.21637,0.22781 -0.52658,0.6662 -0.68938,0.9742 -0.1628,0.308 -0.55392,0.91977 -0.86917,1.35949 -0.31525,0.43971 -0.57317,0.9213 -0.57317,1.07019 0,0.33363 0.86578,0.47906 2.48,0.41659 0.616,-0.0238 1.516,-0.0256 2,-0.004 0.484,0.0216 1.384,-0.0251 2,-0.10381 0.616,-0.0787 2.86572,-0.29526 4.99938,-0.4812 2.84312,-0.24776 4.10392,-0.42341 4.72,-0.65757 1.15968,-0.44077 1.80762,-0.41982 2.12776,0.0688 0.23238,0.35465 0.23258,0.52515 0.002,1.96 -0.29642,1.8467 -0.31179,2.91605 -0.0917,6.37156 0.0897,1.408 0.19869,3.568 0.24224,4.8 0.0435,1.232 0.16222,2.744 0.26371,3.36 0.10151,0.616 0.17208,1.38846 0.15682,1.71659 -0.0266,0.57247 0.21904,2.45987 0.39611,3.04341 0.10269,0.33846 0.35074,0.35805 0.6908,0.0546 0.20571,-0.18359 0.52736,-0.19754 1.73321,-0.0752 2.04437,0.2075 8.0184,0.10611 8.46682,-0.14369 0.21646,-0.12059 0.97043,-0.18633 2,-0.17438 0.90891,0.0105 2.15656,-0.007 2.77256,-0.0393 1.31659,-0.0688 5.89392,-0.0606 8.676,0.0154 1.7961,0.0491 1.98416,0.0834 2.30067,0.42033 l 0.34469,0.3669 -0.44232,0.52768 c -0.37443,0.44668 -0.58022,0.54268 -1.34069,0.62544 -0.49409,0.0538 -1.47272,0.0315 -2.17472,-0.0495 -1.774,-0.20475 -12.47221,-0.0284 -12.92333,0.21303 -0.25395,0.1359 -1.54513,0.15514 -4.8334,0.072 l -4.4869,-0.11343 -0.33352,-0.41573 c -0.43541,-0.54274 -0.77885,-0.36013 -0.62971,0.33484 0.0591,0.27558 0.14438,1.50905 0.18944,2.74105 0.1451,3.96745 0.17082,4.31261 0.35565,4.77533 0.10283,0.25744 0.21598,1.82196 0.26037,3.59999 0.0432,1.72958 0.12798,3.46868 0.18848,3.86468 0.0605,0.396 0.12547,1.008 0.14443,1.36 0.019,0.352 0.0811,0.856 0.13813,1.12 0.0818,0.37871 0.0201,0.56851 -0.29221,0.89944 -0.39186,0.41517 -0.41427,0.41863 -2.20847,0.34043 -1.37083,-0.0597 -2.34744,0.004 -4.0071,0.26056 -2.37792,0.36795 -3.72946,0.41234 -5.50979,0.18099 -0.62938,-0.0818 -2.42631,-0.19503 -3.9932,-0.25164 -1.56688,-0.0566 -3.02567,-0.17015 -3.24173,-0.2523 -0.43411,-0.16505 -2.10077,0.10722 -2.10077,0.3432 0,0.0759 0.35829,0.50583 0.79621,0.95542 0.82944,0.85156 2.72379,3.61147 2.72379,3.96834 0,0.37922 0.83287,2.18841 1.21829,2.64648 0.73955,0.87891 0.34288,2.2962 -0.60509,2.16194 -0.42781,-0.0606 -1.53411,-1.6029 -1.73873,-2.42397 -0.3448,-1.38365 -1.38167,-3.46885 -1.72487,-3.46885 -0.33361,0 -0.54051,2.584 -0.58288,7.28007 -0.0368,4.07899 0,5.13045 0.20435,5.91993 0.1928,0.743 0.24277,1.72732 0.22108,4.3545 -0.0154,1.86698 -0.0963,3.69838 -0.17976,4.06979 -0.0834,0.37141 -0.0964,0.78789 -0.0288,0.92551 0.11624,0.23668 0.0218,1.56449 -0.23096,3.24891 -0.0783,0.52145 -0.0513,0.83414 0.0863,0.9999 0.1101,0.13266 0.22983,0.76323 0.26607,1.4013 0.0362,0.63805 0.0955,1.55609 0.13166,2.04009 0.0362,0.484 0.0965,2.104 0.13416,3.6 0.0376,1.496 0.11613,2.83255 0.17446,2.9701 0.15746,0.37122 -0.45796,0.84915 -1.06891,0.8301 -4.74029,-0.14783 -9.79582,0.0192 -15.63629,0.5167 -1.73172,0.1475 -2.88771,0.17536 -3.36,0.081 -1.16595,-0.23306 -2.405,-0.17976 -4.09451,0.1761 -1.15381,0.24304 -1.86864,0.30707 -2.62549,0.23521 -0.572,-0.0543 -1.832,-0.13336 -2.8,-0.17568 -0.968,-0.0423 -1.94652,-0.11537 -2.17451,-0.16233 -0.24173,-0.0498 -0.48493,0.002 -0.58345,0.12172 -0.093,0.11392 -0.29106,0.92712 -0.44028,1.80712 -0.22416,1.32199 -0.24195,1.85023 -0.10235,3.04 0.3277,2.79312 0.41589,4.84808 0.40711,9.48546 -0.008,4.12272 -0.0404,4.71701 -0.27141,4.94801 -0.32243,0.32244 -3.02255,0.43266 -4.99511,0.20391 -1.80428,-0.20923 -5.80156,-0.37464 -8.72,-0.36083 -1.364,0.006 -3.272,0.0104 -4.24,0.009 -4.44907,-0.007 -5.5436,0.0158 -7.01552,0.14707 -0.86652,0.0773 -2.23452,0.0968 -3.04,0.0434 -0.80545,-0.0534 -1.96848,-0.0436 -2.58447,0.0219 -1.1361,0.12075 -7.38519,0.37406 -8.386,0.33994 -1.06108,-0.0362 -1.10743,-0.21319 -0.95264,-3.63775 0.0756,-1.672 0.19168,-3.74381 0.25803,-4.60401 0.0663,-0.86021 0.0705,-3.27221 0.009,-5.36 -0.0613,-2.08779 -0.14432,-6.74799 -0.18453,-10.35599 -0.0402,-3.608 -0.1531,-7.28 -0.25086,-8.16 -0.0978,-0.88 -0.19703,-2.752 -0.22063,-4.16 l -0.0429,-2.56 -0.75182,-0.0486 c -0.78325,-0.0507 -1.23786,-0.42576 -1.23786,-1.02132 0,-0.31415 0.45688,-0.61004 0.94194,-0.61004 0.18443,0 0.54363,-0.27456 0.83729,-0.64 0.64391,-0.80123 1.37354,-0.88785 1.85949,-0.22075 0.33511,0.46003 0.15882,0.46831 2.68128,-0.12581 1.70283,-0.40105 6.09112,-0.86713 6.9519,-0.73835 0.48845,0.0731 1.6441,0.16546 2.5681,0.20528 3.38158,0.14571 4.59146,0.22549 6.08,0.4009 2.14326,0.25256 7.27766,-0.0461 11.28,-0.65619 0.528,-0.0805 1.71909,-0.21026 2.64686,-0.2884 0.92778,-0.0782 2.26426,-0.25986 2.96994,-0.40378 1.16178,-0.23696 1.33883,-0.2384 1.87312,-0.0152 0.47051,0.19659 0.59222,0.33528 0.60069,0.6844 0.006,0.24082 0.0393,0.94186 0.0744,1.55786 0.0351,0.616 0.10062,2.236 0.1456,3.6 0.12611,3.82518 0.3805,8.09748 0.57163,9.6 0.0951,0.748 0.26008,2.36644 0.36651,3.59654 l 0.19351,2.23656 1.11885,0.19362 c 0.61537,0.10648 1.63982,0.19803 2.27656,0.20344 0.63675,0.005 1.47208,0.0939 1.85632,0.19668 0.70531,0.18864 0.91689,0.16416 3.30598,-0.38244 0.396,-0.0906 2.05845,-0.1504 3.69434,-0.13288 1.70028,0.0182 3.40931,-0.047 3.98982,-0.15228 0.55853,-0.10128 1.84808,-0.18558 2.86566,-0.18732 1.0176,-0.002 2.21018,-0.0684 2.65018,-0.14804 0.44,-0.0796 2.32088,-0.1732 4.17973,-0.20788 1.85885,-0.0347 3.51566,-0.1358 3.68179,-0.22471 0.93802,-0.50201 1.09501,-1.51561 0.82264,-5.31129 -0.0853,-1.188 -0.16656,-2.52 -0.18067,-2.96 -0.0141,-0.44 -0.0708,-0.872 -0.12591,-0.96 -0.13664,-0.21812 0.12856,-5.56117 0.32648,-6.57776 0.17584,-0.90314 -0.0175,-5.38818 -0.3027,-7.02224 -0.21584,-1.23666 -0.22435,-8.765 -0.011,-9.7171 0.0896,-0.40002 0.176,-1.59437 0.1919,-2.65411 0.024,-1.60236 -0.0185,-1.99913 -0.25248,-2.35629 -0.23768,-0.36273 -0.31523,-0.39552 -0.4991,-0.21099 -0.39845,0.3999 -2.74576,5.16305 -3.04776,6.18449 -0.31709,1.0725 -0.76179,1.53363 -1.3924,1.44388 -0.43003,-0.0612 -0.55669,-0.86627 -0.25627,-1.62886 0.34185,-0.86777 1.25608,-2.88421 1.49661,-3.30102 0.1915,-0.33185 2.31443,-4.35371 2.45145,-4.64425 0.1804,-0.38253 -3.55171,-0.79292 -4.3611,-0.47955 -0.26331,0.10194 -1.41531,0.2135 -2.56,0.24791 -1.14467,0.0344 -2.83723,0.1439 -3.76123,0.24333 -0.924,0.0994 -2.4,0.14164 -3.28,0.0938 -0.88,-0.0478 -1.744,-0.0931 -1.92,-0.10061 -0.43922,-0.0188 -3.50917,0.14059 -4.43709,0.23034 -0.62491,0.0605 -0.83443,0.008 -1.2,-0.3 -0.43826,-0.3693 -0.44274,-0.39236 -0.42562,-2.19212 0.0155,-1.6318 0.15319,-4.51714 0.50283,-10.53888 0.17231,-2.96735 0.14453,-4.78548 -0.1112,-7.28 -0.25358,-2.47362 -0.24732,-7.38129 0.0104,-8.19687 0.0898,-0.28428 0.10991,-0.60337 0.0446,-0.70908 -0.0653,-0.10571 -0.10686,-1.06112 -0.0923,-2.12313 0.0146,-1.06201 -0.07,-2.54292 -0.18787,-3.29092 -0.15162,-0.96179 -0.17451,-1.75821 -0.0782,-2.72 0.0749,-0.748 0.16278,-1.66951 0.19536,-2.04779 0.0912,-1.05937 0.84298,-1.43766 1.83627,-0.92401 0.65557,0.33901 6.05541,0.39929 7.4628,0.0833 0.352,-0.079 1.216,-0.14604 1.92,-0.14891 0.704,-0.003 1.928,-0.0863 2.72,-0.18535 0.792,-0.0991 2.56042,-0.17061 3.92983,-0.15898 3.00809,0.0255 3.36164,-0.0981 2.66094,-0.93089 -0.23693,-0.28157 -0.43077,-0.57387 -0.43077,-0.64957 0,-0.0757 -0.4923,-0.6388 -1.094,-1.25134 -0.60169,-0.61253 -1.21033,-1.35887 -1.35253,-1.65853 -0.14219,-0.29966 -0.39592,-0.66916 -0.56384,-0.82113 -0.16792,-0.15196 -0.43822,-0.57103 -0.60065,-0.93127 l -0.29536,-0.65497 0.44211,-0.38028 c 0.6899,-0.59343 0.3367,-0.89996 3.30675,2.86968 1.30005,1.65003 1.68367,2.04023 1.96634,2 0.41253,-0.0587 0.39505,0.71386 0.20016,-8.849976 -0.0717,-3.52 -0.10667,-6.616 -0.0776,-6.88 0.029,-0.264 0.0412,-1.236 0.0271,-2.16 -0.1099,-7.180335 -0.18862,-10.672935 -0.26686,-11.839998 -0.0835,-1.245537 -0.10379,-5.261769 -0.0384,-7.599999 l 0.0268,-0.96 -1.36,-0.0538 c -0.748,-0.02959 -2.044,0.02935 -2.88,0.130967 -1.13662,0.138161 -2.20605,0.139795 -4.24,0.0065 -1.496,-0.09806 -3.404,-0.210912 -4.24,-0.250786 -0.836,-0.03987 -1.988,-0.142069 -2.56,-0.227099 -0.68355,-0.101614 -1.42387,-0.09895 -2.16,0.0078 -0.616,0.0893 -3.28,0.155078 -5.92,0.146168 -7.02934,-0.02372 -6.97659,-0.0251 -7.23494,0.189299 -0.17013,0.141202 -0.20626,0.355136 -0.12896,0.763583 0.0591,0.312083 0.13918,1.215422 0.17803,2.007422 0.0388,0.792 0.16358,2.16 0.2772,3.04 0.13082,1.013382 0.18522,2.773235 0.14837,4.8 -0.10199,5.60834 -0.058,7.929133 0.19574,10.320003 0.065,0.61231 0.0428,1.21582 -0.0538,1.46754 -0.15558,0.40511 -0.23393,0.43196 -1.49289,0.51179 -0.73079,0.0463 -1.43671,0.0941 -1.56871,0.10617 -0.132,0.0121 -1.68,-0.0198 -3.44,-0.0707 -2.93318,-0.0849 -4.60705,-0.0995 -10.56,-0.0923 -1.144,10e-4 -2.368,-0.0389 -2.72,-0.0895 -0.352,-0.0506 -1.288,-0.0328 -2.08,0.0394 -0.83166,0.0759 -2.55528,0.063 -4.08,-0.0306 -3.22145,-0.19763 -6.44564,-0.0834 -7.84,0.27774 -2.49171,0.64538 -3.65984,0.82006 -5.55067,0.83002 -1.34161,0.007 -2.01253,-0.0512 -2.14877,-0.18648 -0.23824,-0.23664 -0.30888,-3.53611 -0.10272,-4.79778 0.075,-0.459 0.16007,-1.826999 0.18904,-3.040001 0.029,-1.213 0.14039,-2.895716 0.24759,-3.739367 0.14131,-1.112165 0.15035,-1.902415 0.0329,-2.874167 -0.0891,-0.737137 -0.11042,-1.450878 -0.0473,-1.586086 0.0631,-0.13521 0.0754,-1.181072 0.0273,-2.324139 -0.10776,-2.563247 -0.20819,-2.635606 -1.5497,-1.116538 -0.51572,0.583995 -1.26168,1.304157 -1.65768,1.600357 -0.396,0.296202 -1.14032,0.866134 -1.65406,1.266517 -1.05808,0.824635 -1.57685,0.913718 -1.95552,0.335801 -0.3244,-0.495096 -0.18046,-0.984348 0.39389,-1.338873 1.14675,-0.70784 4.3267,-3.745973 4.33277,-4.139517 0.002,-0.104806 -0.0783,-0.240745 -0.17754,-0.302086 -0.40248,-0.248749 -7.19238,-0.33909 -10.29954,-0.137037 -1.92286,0.125042 -2.51918,0.133595 -4.56,0.06542 -0.748,-0.02499 -2.188,0.0038 -3.2,0.06388 -4.28363,0.254496 -9.35209,0.26155 -12.14513,0.0169 -1.53544,-0.134492 -2.88608,-0.32284 -3.00139,-0.418548 -0.26218,-0.217575 -0.31708,-0.06262 -0.43349,1.223558 -0.0479,0.528845 -0.19027,1.254112 -0.31643,1.611705 -0.12616,0.357594 -0.42138,1.566208 -0.65604,2.68581 -0.61784,2.947805 -2.28467,7.326533 -2.92625,7.687201 -0.31242,0.175621 -1.48927,1.163813 -2.985,2.506475 -1.16103,1.04221 -3.8222,2.527555 -4.57627,2.554275 -0.69637,0.0247 -2.15769,0.57643 -2.20852,0.83389 -0.0479,0.24256 0.50823,1.72636 1.44138,3.84583 0.66009,1.49929 0.44684,2.35328 -0.58765,2.35328 -0.70142,0 -1.04452,-0.43155 -1.18888,-1.49535 -0.066,-0.48617 -0.19287,-0.9786 -0.28198,-1.0943 -0.0891,-0.11569 -0.32968,-0.64235 -0.53459,-1.17035 -0.50076,-1.29034 -1.10386,-2.32 -1.35889,-2.32 -0.15801,0 -0.22384,0.51516 -0.27091,2.12 -0.0342,1.166 -0.021,2.336 0.0294,2.6 0.13416,0.70301 0.0503,7.168417 -0.15988,12.319996 -0.10051,2.464 -0.19778,5.056 -0.21615,5.76 -0.0184,0.704 -0.12368,1.442 -0.23401,1.64 -0.24393,0.43776 -0.76913,0.46067 -1.29489,0.0565 -0.37925,-0.29156 -0.38387,-0.32613 -0.28325,-2.11644 0.0563,-1.00103 0.17575,-2.07774 0.26552,-2.3927 0.31033,-1.08874 0.47312,-16.699316 0.17968,-17.229956 -0.1052,-0.19023 -0.60479,0.75948 -1.4112,2.68262 -0.66923,1.59598 -1.20444,2.12337 -1.88847,1.86088 -0.49919,-0.19156 -0.43668,-0.62476 0.30014,-2.07981 0.40872,-0.80715 0.74313,-1.55449 0.74313,-1.66076 0,-0.19598 0.46669,-1.24847 1.33599,-3.01301 0.54295,-1.10206 0.49713,-1.50644 -0.17096,-1.50903 -0.43867,-0.002 -2.61649,-0.94618 -3.41468,-1.480889 -0.22532,-0.150936 -0.72932,-0.372416 -1.12,-0.49218 -0.39069,-0.119764 -1.07035,-0.439845 -1.51035,-0.711292 -0.44,-0.271448 -1.32817,-0.786473 -1.97372,-1.144504 -0.64555,-0.358028 -1.5072,-0.920612 -1.91477,-1.250185 -1.33529,-1.079778 -3.87131,-3.728085 -3.87131,-4.042798 0,-0.167991 -0.0988,-0.54188 -0.21947,-0.830866 -0.40602,-0.972035 -0.7677,-2.117358 -1.07541,-3.405429 -0.37736,-1.579675 -0.55446,-2 -0.8427,-2 -0.28528,0 -0.84068,0.736066 -1.62985,2.16 -0.3414,0.616 -0.83939,1.416124 -1.10665,1.778053 -0.52026,0.704552 -0.83824,1.21723 -1.62139,2.614163 -0.44334,0.790808 -0.56683,0.897895 -1.17394,1.017955 -0.54836,0.108442 -0.73719,0.08105 -0.98454,-0.142795 -0.44194,-0.39995 -0.37817,-0.90635 0.21395,-1.698817 0.82521,-1.104439 1.72,-2.459882 1.72,-2.605488 0,-0.07343 0.28136,-0.500162 0.62524,-0.948291 0.85668,-1.116367 1.40917,-2.28437 1.18608,-2.507456 -0.28094,-0.280938 -6.43223,-0.268597 -7.97132,0.016 -1.24969,0.231075 -3.00142,0.2522 -7.20116,0.08684 -1.04825,-0.04127 -2.40837,0.02196 -3.36,0.156223 -2.35932,0.332854 -8.320669,0.0636 -9.217414,-0.416322 -0.16747,-0.08962 -0.89779,-0.142053 -1.62296,-0.116507 l -1.31847,0.04644 0.0296,3.52 c 0.13382,15.893725 0.13569,20.390915 0.009,21.919995 -0.0801,0.968 -0.16802,2.552 -0.19532,3.520007 -0.0273,0.967999 -0.13502,2.839999 -0.23939,4.159999 -0.10436,1.32 -0.18975,2.58 -0.18975,2.8 0,0.22 0.008,1.5018 0.0171,2.84845 0.009,1.34665 -0.0171,2.50371 -0.0588,2.57125 -0.11859,0.19187 -0.28025,9.41544 -0.24434,13.9403 0.0664,8.36806 -0.0985,19.35319 -0.34359,22.87999 -0.12167,1.75122 -0.13891,3.74426 -0.0512,5.92 0.0727,1.804 0.14444,4.036 0.15941,4.96 0.015,0.924 0.19471,3.084 0.39946,4.8 0.29362,2.46088 0.36362,3.77666 0.33133,6.22836 -0.0225,1.7096 0.0365,3.88334 0.13125,4.83056 0.0947,0.9472 0.20622,4.40236 0.24784,7.67812 0.0636,5.00389 0.11417,5.9985 0.31649,6.22205 0.16832,0.186 0.24156,0.62359 0.24327,1.45351 0.001,0.65307 0.0568,1.27289 0.12325,1.37739 0.31908,0.50181 2.36787,0.70472 3.788875,0.37525 0.40397,-0.0937 1.47966,-0.0803 2.960009,0.0367 2.56247,0.20251 2.73378,0.20429 5.58717,0.0576 1.18728,-0.061 2.66255,-0.0262 3.67999,0.087 2.04511,0.22744 2.72371,0.22694 4.49826,-0.003 1.54377,-0.20029 9.12414,-0.27707 9.81171,-0.0994 0.24845,0.0642 0.52021,0.0482 0.60392,-0.0355 0.14842,-0.14842 -0.30986,-0.61663 -2.70964,-2.76837 -0.75158,-0.67391 -0.98197,-0.98399 -0.98371,-1.32397 -0.002,-0.45094 0.44004,-0.75603 1.09619,-0.75603 0.28152,0 1.78975,1.40016 2.30037,2.13553 0.34967,0.50359 2.93847,2.08276 3.23059,1.97066 0.11908,-0.0457 0.26089,-0.43027 0.31514,-0.85464 0.23341,-1.82587 0.43674,-3.53474 0.48796,-4.10109 0.0303,-0.33525 0.15762,-0.73125 0.28287,-0.88 0.12526,-0.14875 0.32382,-0.59446 0.44125,-0.99046 0.57833,-1.95031 1.21216,-3.60136 1.5278,-3.97976 0.19279,-0.23114 0.4722,-0.65752 0.62091,-0.94752 0.66826,-1.30319 2.25752,-3.44103 2.82377,-3.79848 0.33219,-0.2097 0.64919,-0.45445 0.70447,-0.54389 0.20358,-0.32939 1.79572,-1.25282 2.77263,-1.6081 0.98381,-0.35777 1.01816,-0.35952 1.54115,-0.0779 0.52133,0.28075 0.55673,0.27937 1.39377,-0.0544 0.75533,-0.30119 1.29275,-0.35397 4.45885,-0.43794 5.02429,-0.13326 5.27087,-0.13153 6.08,0.0429 1.1234,0.24214 2.68786,0.94371 3.29694,1.47848 0.30481,0.26763 0.64292,0.48659 0.75137,0.48659 0.10845,0 0.56757,0.324 1.02025,0.72 0.45269,0.396 0.92376,0.72 1.04682,0.72 0.12306,0 0.60332,0.324 1.06724,0.72 0.46394,0.396 0.89887,0.72 0.96655,0.72 0.0677,0 0.47577,0.43493 0.90692,0.96653 0.43116,0.53158 0.98191,1.20708 1.22391,1.50112 0.242,0.29403 0.44,0.6914 0.44,0.88305 0,0.19695 0.33961,0.70952 0.78105,1.17888 0.75277,0.80035 1.22735,1.71983 1.58474,3.07042 0.29154,1.10173 0.67949,2.21533 1.0033,2.88 0.17148,0.352 0.312,0.856 0.31225,1.12 0.002,0.9312 0.29768,1.63249 0.77455,1.83001 0.57827,0.23952 2.39641,0.2649 16.26411,0.22695 2.86491,-0.008 6.26545,-0.15083 8.96,-0.37679 1.32,-0.11068 2.7539,-0.21 3.18645,-0.2207 0.43254,-0.0107 0.81209,-0.0961 0.84345,-0.18986 0.0314,-0.0937 -0.28653,-0.4111 -0.70645,-0.70531 -0.4199,-0.29419 -0.94913,-0.70518 -1.17608,-0.91331 -0.22694,-0.20813 -0.87163,-0.61198 -1.43264,-0.89746 -1.53516,-0.7812 -2.02136,-1.87488 -1.03353,-2.32497 0.42206,-0.19231 1.01374,0.0594 2.0788,0.88445 0.65821,0.50985 0.68485,0.52953 1.68,1.24033 0.484,0.34571 1.168,0.88464 1.52,1.19762 0.352,0.31297 0.892,0.7023 1.2,0.86517 0.73065,0.38638 1.1743,0.98574 1.06169,1.43436 -0.0484,0.19296 -0.39712,0.67247 -0.77488,1.06556 -0.37774,0.39308 -1.05036,1.25678 -1.4947,1.91932 -0.7788,1.16124 -1.37778,1.86589 -2.9833,3.50963 -0.41316,0.423 -0.79716,0.97741 -0.85337,1.23204 -0.19693,0.89236 -0.21139,0.90777 -0.75021,0.8 -0.66304,-0.13261 -1.24523,-0.68876 -1.24523,-1.18951 0,-0.24768 0.22537,-0.61653 0.6,-0.98195 0.33,-0.3219 0.96,-1.03778 1.4,-1.59081 0.44,-0.55304 1.106,-1.36103 1.48,-1.79549 0.37953,-0.44091 0.68,-0.95474 0.68,-1.16288 0,-0.32055 -0.10085,-0.38674 -0.71826,-0.47136 -0.39505,-0.0541 -0.91705,-0.0216 -1.16,0.0722 -0.26704,0.10317 -1.70731,0.16269 -3.64174,0.15051 -1.76,-0.011 -3.884,0.0685 -4.72,0.17695 -1.74227,0.22589 -2.42413,0.23429 -4.32,0.0532 -1.52216,-0.14537 -6.93579,-0.14284 -9.78618,0.005 -1.08573,0.0562 -2.41707,0.0211 -3.18345,-0.0838 -1.06359,-0.14563 -1.35479,-0.13976 -1.5121,0.0305 -0.18994,0.20552 -1.0403,4.04874 -1.03896,4.69544 0.002,0.64523 -1.20072,3.16987 -1.74293,3.66056 -0.18501,0.16744 -0.33638,0.40672 -0.33638,0.53173 0,0.272 -3.64979,3.8333 -4.37312,4.26709 -0.27879,0.16718 -0.76069,0.47176 -1.0709,0.67681 -0.31021,0.20508 -0.88621,0.47648 -1.28,0.60314 -0.39379,0.12667 -1.32798,0.4553 -2.07598,0.73029 -2.03911,0.74965 -2.804,0.94101 -4.56,1.14083 -2.33816,0.26608 -2.28442,0.22315 -1.50556,1.20294 0.27194,0.3421 0.7839,1.234 1.13768,1.982 0.35379,0.748 0.80757,1.54 1.00841,1.76 0.63947,0.7005 1.48475,2.15516 2.23309,3.84298 0.39951,0.90106 0.72638,1.72445 0.72638,1.82976 0,0.10531 -0.17265,0.35368 -0.38368,0.55192 -0.35976,0.33798 -0.41284,0.34536 -0.85165,0.11845 -0.63605,-0.32891 -0.74742,-0.4965 -1.15439,-1.73701 -0.19377,-0.59066 -0.52736,-1.33186 -0.7413,-1.6471 -0.21394,-0.31527 -0.38898,-0.61391 -0.38898,-0.66367 0,-0.0498 -0.36835,-0.49349 -0.81856,-0.98609 -0.4502,-0.4926 -0.89376,-1.06069 -0.98568,-1.26244 -0.3347,-0.73459 -0.55198,-0.40947 -0.63703,0.9532 -0.13504,2.16368 0.006,8.75452 0.21308,9.96 0.12421,0.72293 0.19466,3.12714 0.19871,6.78138 0.006,5.34808 -0.0103,5.67347 -0.2927,5.88 -0.36957,0.27024 -0.68061,0.27322 -1.19782,0.0115 z m 61.24392,-30.28882 c 0.28816,-0.044 2.44815,-0.1048 4.79999,-0.13509 2.43732,-0.0314 4.68604,-0.13729 5.22941,-0.24629 0.57354,-0.11504 1.30658,-0.14534 1.84,-0.0761 0.48767,0.0633 2.86667,0.13699 5.28667,0.16371 5.55714,0.0614 9.38629,0.19461 10.72,0.37303 1.83258,0.24515 2.47349,0.21745 2.77901,-0.12015 0.5808,-0.64177 0.7025,-5.74153 0.28056,-11.75665 -0.16112,-2.29696 -0.1436,-3.0241 0.16159,-6.70226 0.13249,-1.59693 0.1347,-2.44776 0.008,-3.12 -0.0957,-0.50835 -0.22066,-1.60829 -0.27759,-2.44429 -0.0569,-0.836 -0.19712,-1.808 -0.31152,-2.16 -0.11438,-0.352 -0.18507,-1.108 -0.15709,-1.68 0.028,-0.572 -0.011,-1.328 -0.0868,-1.68 -0.0757,-0.352 -0.17736,-2.008 -0.22586,-3.68 -0.0485,-1.672 -0.15128,-3.472 -0.22841,-4 -0.0771,-0.528 -0.10949,-1.04072 -0.0719,-1.13937 0.0376,-0.0986 -0.0576,-0.3053 -0.21155,-0.45922 -0.30687,-0.30686 -0.31916,-0.30632 -3.73855,0.16781 -1.92366,0.26674 -3.34867,0.39366 -8,0.71259 -2.15721,0.14792 -3.36933,0.14893 -5.28,0.004 -3.83755,-0.29025 -8.25189,-0.52881 -9.84,-0.53177 -1.65113,-0.003 -4.78008,0.28262 -5.84,0.53323 -0.396,0.0936 -1.152,0.24531 -1.68,0.33707 -0.528,0.0918 -1.04646,0.23763 -1.15216,0.32414 -0.3514,0.28765 -0.40376,1.52396 -0.20676,4.88351 0.26025,4.43867 0.43486,12.70947 0.32697,15.48761 -0.0273,0.704 0.0267,1.568 0.12002,1.92 0.0958,0.36127 0.17902,2.45175 0.19107,4.8 0.0249,4.84621 0.0252,4.83479 -0.19741,6.05181 -0.12649,0.69149 -0.11785,1.34461 0.0335,2.53242 0.17651,1.38512 0.24979,1.61801 0.54437,1.73001 0.33914,0.12895 4.18794,0.062 5.1843,-0.0902 z m 13.55607,-5.49454 c -0.264,-0.0596 -0.70443,-0.19783 -0.97875,-0.30719 -0.56445,-0.22499 -1.97161,-1.89672 -2.30833,-2.74232 -0.31664,-0.79512 -1.32666,-1.83573 -2.35018,-2.42133 -0.846,-0.48403 -0.89512,-0.49295 -1.39614,-0.25404 -0.73181,0.34899 -2.22092,2.38444 -2.42544,3.31537 -0.17663,0.80395 -0.1956,0.82018 -0.8997,0.76927 l -0.68146,-0.0493 0.0398,-0.72 c 0.0507,-0.91961 1.35475,-3.53128 2.0847,-4.17531 1.58488,-1.39833 2.6805,-1.42569 4.59474,-0.11472 1.0308,0.70595 1.38693,1.07354 2.10101,2.16859 0.47289,0.7252 0.8598,1.39075 0.8598,1.47899 0,0.29 1.27922,1.0942 1.91007,1.20077 0.76736,0.12965 1.67211,-0.29185 2.34509,-1.09251 0.71145,-0.84645 1.69811,-2.29152 2.07308,-3.03629 0.30957,-0.61488 0.38829,-0.66952 0.96442,-0.66952 0.61155,0 0.62861,0.0154 0.67768,0.61135 0.039,0.47427 -0.0506,0.7415 -0.4,1.19179 -0.24768,0.31923 -0.77434,1.06422 -1.17034,1.65553 -1.81433,2.70916 -3.22307,3.60103 -5.04,3.19084 z M 216.71551,188.625 c -0.4704,-0.43596 -0.54476,-0.9077 -0.18955,-1.2025 0.12859,-0.10672 0.28227,-0.34954 0.34151,-0.53958 0.0592,-0.19005 0.30369,-0.63356 0.54324,-0.98556 0.23956,-0.352 0.73069,-1.15121 1.09141,-1.77604 l 0.65586,-1.13605 -0.36223,-1.03663 c -0.42329,-1.21142 -0.87502,-2.02923 -1.25163,-2.26603 -0.31259,-0.19653 -1.05907,0.15061 -1.89691,0.88213 -0.28514,0.24894 -0.57675,0.45262 -0.64805,0.45262 -0.14949,0 -2.08272,2.45263 -2.38009,3.01956 -0.10951,0.20875 -0.15892,0.58046 -0.1098,0.82603 0.13645,0.68229 -0.24411,0.9171 -0.9448,0.58297 -0.50758,-0.24204 -0.55232,-0.32105 -0.55232,-0.97555 0,-0.90961 0.13671,-1.25366 0.927,-2.33301 1.23292,-1.68385 1.71878,-2.19996 2.673,-2.83947 1.27863,-0.85693 1.64224,-1.03488 2.39935,-1.17425 1.14046,-0.20996 2.21942,0.56009 2.64776,1.88966 0.45299,1.40613 0.69472,1.33882 1.93432,-0.53867 0.56021,-0.8485 1.22694,-1.8565 1.4816,-2.24 0.40952,-0.61669 0.53233,-0.69727 1.06288,-0.69727 0.80867,0 0.92009,0.34914 0.34969,1.09572 -0.45619,0.5971 -1.03289,1.46683 -1.57278,2.37195 -0.16654,0.27923 -0.64962,1.04897 -1.07349,1.71057 -0.89097,1.39064 -0.88245,1.4526 0.34146,2.4773 0.73323,0.6139 0.81357,0.64299 1.35937,0.49229 0.58912,-0.16267 2.04904,-1.63211 2.74984,-2.76779 0.7608,-1.2329 1.70994,-2.00557 2.22216,-1.80901 0.48613,0.18653 0.2565,0.79309 -0.90216,2.38293 -1.90932,2.61988 -2.08844,2.82772 -2.88081,3.34275 -0.70482,0.45814 -0.82978,0.48653 -1.698,0.38576 -0.72157,-0.0837 -1.15392,-0.2561 -1.87919,-0.74904 l -0.942,-0.64026 -0.52809,0.60944 c -0.29045,0.3352 -0.81543,1.18723 -1.16659,1.89343 -0.57626,1.1588 -0.97311,1.68396 -1.27253,1.68396 -0.0583,0 -0.29658,-0.17656 -0.52943,-0.39236 z m -64.2508,19.69567 c 0.5789,-0.23283 1.1438,-0.42331 1.25531,-0.42331 0.11152,0 0.39387,-0.10389 0.62745,-0.23088 0.23358,-0.12697 0.89269,-0.42936 1.46469,-0.67195 0.99657,-0.42267 1.40355,-0.67226 2.36423,-1.4499 l 0.43577,-0.35274 -0.32,-0.5607 c -0.176,-0.30837 -1.184,-1.45047 -2.24,-2.53797 -1.64908,-1.69827 -3.6023,-3.79864 -5.84685,-6.28734 -0.31177,-0.34568 -0.80929,-0.98223 -1.1056,-1.41455 l -0.53876,-0.78605 -0.41439,0.49612 c -0.56033,0.6708 -1.13138,1.44643 -2.32355,3.15596 -0.55231,0.792 -1.30308,1.764 -1.66836,2.16 -1.08658,1.17794 -1.85762,2.11413 -2.39502,2.908 -0.27849,0.41141 -0.60092,0.84341 -0.71653,0.96 -0.1156,0.11661 -0.54642,0.72797 -0.95736,1.35859 -0.58629,0.89968 -0.85355,1.16994 -1.24113,1.25508 -0.35969,0.079 -0.578,0.0324 -0.8032,-0.1714 -0.53792,-0.48681 -0.45969,-0.69489 0.84591,-2.24976 0.32734,-0.38984 0.82589,-1.04894 1.10788,-1.46465 0.53652,-0.79096 1.90394,-2.40826 3.24409,-3.8369 0.43393,-0.46257 0.97022,-1.14657 1.19176,-1.52 0.22155,-0.37342 0.9639,-1.43496 1.64967,-2.35896 0.68577,-0.924 1.24615,-1.824 1.24527,-2 -8e-4,-0.176 -0.25307,-0.644 -0.56043,-1.04 -0.30736,-0.396 -0.70735,-0.95168 -0.88887,-1.23483 -0.18153,-0.28317 -0.55982,-0.65685 -0.84066,-0.83041 -0.28084,-0.17357 -1.04376,-0.93663 -1.69538,-1.69568 -0.65161,-0.75906 -1.3341,-1.50138 -1.51662,-1.64959 -0.18253,-0.14822 -0.52049,-0.52149 -0.75102,-0.82949 -0.53803,-0.71884 -1.82201,-2.00283 -2.54085,-2.54086 -0.308,-0.23053 -0.7033,-0.59914 -0.87845,-0.81914 -0.80589,-1.01227 -2.30873,-2.2387 -2.74413,-2.23944 -0.2467,0 -0.56416,0.32604 -1.13437,1.16644 -0.43549,0.64184 -0.84317,1.37168 -0.90596,1.62187 -0.0628,0.25017 -0.28418,0.67902 -0.49197,0.95301 -0.35236,0.46459 -0.66877,1.30043 -1.30908,3.45812 -0.14363,0.484 -0.32095,1.06 -0.39405,1.28 -0.2352,0.70786 -0.53732,4.50655 -0.50255,6.31864 0.0363,1.89407 0.14369,2.28695 0.95372,3.49064 0.28976,0.43058 0.52684,0.87263 0.52684,0.98232 0,0.1097 0.15102,0.37245 0.3356,0.58392 0.18459,0.21146 0.48243,0.67248 0.66187,1.02448 0.17944,0.352 0.5035,0.85194 0.72013,1.11098 0.21663,0.25904 0.45899,0.64225 0.53858,0.85158 0.16051,0.42218 1.38148,1.97439 2.65053,3.3696 0.71569,0.78685 1.02723,0.98792 2.32,1.49736 2.37097,0.93434 3.8352,1.26611 6.27704,1.42235 1.22306,0.0783 2.26495,0.18349 2.31531,0.23386 0.0504,0.0503 0.95767,0.0622 2.01625,0.0262 1.61238,-0.0547 2.09548,-0.13403 2.97724,-0.48864 z m 8.39005,-5.24705 c 0.31556,-0.27707 0.687,-0.72275 0.82541,-0.99043 0.13842,-0.26767 0.37967,-0.59898 0.53613,-0.73624 0.44059,-0.38658 1.39307,-2.70956 1.51283,-3.68959 0.0591,-0.484 0.17544,-1.132 0.25843,-1.44 0.16173,-0.60012 0.39002,-3.62627 0.3606,-4.7798 -0.0174,-0.68284 -0.19972,-1.4464 -0.616,-2.5802 -0.11309,-0.308 -0.29509,-0.884 -0.40444,-1.28 -0.4916,-1.7802 -0.96099,-2.75222 -2.04753,-4.24 -0.25706,-0.352 -0.55923,-0.82 -0.67149,-1.04 -0.25394,-0.49769 -0.92378,-1.31785 -1.21429,-1.48676 -0.37568,-0.21844 -0.78467,0.14841 -1.70135,1.52601 -0.48821,0.73368 -1.00313,1.42981 -1.14427,1.54695 -0.14115,0.11715 -0.25663,0.28164 -0.25663,0.36555 0,0.29769 -1.44078,1.99582 -3.38695,3.99193 -1.97061,2.02117 -3.33305,3.57959 -3.33305,3.81247 0,0.28694 2.3744,3.15761 3.84649,4.65045 0.87643,0.88876 1.59351,1.67438 1.59351,1.74579 0,0.10483 0.78928,0.98043 2.09819,2.32761 1.35299,1.39256 2.85883,2.8 2.99576,2.8 0.0962,0 0.4331,-0.22669 0.74865,-0.50374 z m -11.53803,-13.05626 c 0.21372,-0.33 1.18586,-1.45969 2.16031,-2.51041 0.97445,-1.05074 2.04249,-2.2604 2.37342,-2.68813 0.33093,-0.42774 0.8717,-1.10243 1.2017,-1.49931 0.33,-0.39688 0.6,-0.79083 0.6,-0.87546 0,-0.0846 0.27493,-0.45822 0.61095,-0.83025 0.33603,-0.37205 0.8039,-1.05287 1.03971,-1.51293 l 0.42876,-0.83651 -0.43971,-0.26784 c -0.24184,-0.14732 -0.82741,-0.52688 -1.30125,-0.84349 -0.47385,-0.31663 -1.15785,-0.77375 -1.52,-1.01586 -0.36216,-0.24211 -1.12646,-0.67411 -1.69846,-0.96 l -1.04,-0.51981 h -2.64 c -3.19536,-0.002 -6.89264,0.21704 -7.1419,0.42104 -0.1624,0.13292 -1.10339,0.3754 -3.0112,0.77594 -0.34821,0.0731 -0.86215,0.0958 -1.1421,0.0503 -0.58823,-0.0955 -1.5048,0.47017 -1.5048,0.92864 0,0.15126 0.37666,0.58772 0.83702,0.96992 0.88729,0.73662 4.30607,4.16896 6.44298,6.46854 0.704,0.75758 1.91786,2.03643 2.69747,2.84189 0.77961,0.80545 1.59815,1.69846 1.81899,1.98446 0.22083,0.286 0.50007,0.52 0.62052,0.52 0.12045,0 0.39387,-0.27 0.60759,-0.6 z m 136.17542,-42.59654 c 0.88,-0.0762 2.068,-0.25573 2.64,-0.39894 0.572,-0.14321 1.42484,-0.34209 1.89519,-0.44196 1.26035,-0.26759 1.27907,-0.35757 1.09011,-5.24256 -0.063,-1.62799 -0.18157,-3.39199 -0.26354,-3.91999 -0.1398,-0.90054 -0.24254,-2.90229 -0.40238,-7.84 -0.037,-1.144 -0.11371,-2.66382 -0.17038,-3.37738 -0.0567,-0.71356 -0.12592,-1.93756 -0.15384,-2.72 -0.10645,-2.9828 -0.26688,-5.12028 -0.41903,-5.58262 -0.0869,-0.264 -0.19451,-2.064 -0.23918,-4 -0.0447,-1.936 -0.13311,-3.772 -0.1965,-4.08 l -0.11523,-0.56 -2.23261,0.0505 c -1.22793,0.0277 -2.44861,0.11581 -2.71261,0.19567 -0.39728,0.12017 -3.3402,0.38738 -4.88,0.44308 -0.22,0.008 -0.94,0.094 -1.6,0.19118 -0.80465,0.1185 -1.83254,0.13041 -3.12,0.0362 -1.056,-0.0773 -3.17732,-0.0868 -4.71408,-0.0212 -1.74128,0.0744 -2.90345,0.0608 -3.08433,-0.036 -0.17584,-0.0941 -1.21893,-0.11495 -2.64592,-0.0529 -1.29562,0.0563 -3.18367,0.12315 -4.19567,0.14845 -1.012,0.0253 -2.668,0.16218 -3.68,0.30415 -1.012,0.14197 -2.236,0.22564 -2.72,0.18594 -0.484,-0.0397 -1.57395,-0.12082 -2.42212,-0.18027 l -1.54213,-0.1081 -0.27834,0.42478 c -0.21987,0.33559 -0.25264,0.58369 -0.15598,1.18164 0.0673,0.41628 0.11342,1.15147 0.10253,1.63377 -0.0109,0.48229 0.0987,1.29922 0.24352,1.81539 0.24489,0.87278 0.24473,0.96998 -0.002,1.38818 -0.22682,0.38397 -0.26684,1.00719 -0.27389,4.26461 -0.0114,5.22762 -0.0167,5.06113 0.2691,8.29492 0.14,1.584 0.24943,3.024 0.24315,3.2 -0.0716,2.01332 -0.19203,4.11976 -0.26393,4.61816 -0.0491,0.33999 -0.12685,1.63599 -0.17288,2.88 -0.046,1.24401 -0.14283,2.83783 -0.21511,3.54183 -0.11046,1.07608 -0.0814,1.4394 0.18252,2.28048 0.25254,0.80486 0.39136,1.0199 0.70998,1.09987 0.37872,0.0951 8.72418,-0.0668 10.05589,-0.19506 0.87622,-0.0844 4.93773,-0.27671 5.92,-0.28034 0.44,-0.002 1.844,0.0925 3.12,0.20923 1.276,0.1167 3.256,0.23629 4.4,0.26574 4.47238,0.11516 6.57979,0.22459 7.04,0.36555 0.61277,0.1877 2.90433,0.19601 4.96,0.018 z m 0.364,-5.69278 c -0.13108,-0.1311 -2.79934,-0.57596 -3.68846,-0.61497 -0.53678,-0.0235 -0.86669,-0.13575 -1.1077,-0.37675 -0.3148,-0.3148 -0.32683,-0.39786 -0.14539,-1.00348 0.15443,-0.51541 0.31735,-0.71021 0.74255,-0.88787 0.2996,-0.12519 0.6804,-0.2276 0.8462,-0.2276 0.91442,0 1.89028,-1.2822 2.28733,-3.00535 0.24258,-1.05274 0.0738,-1.32003 -0.65907,-1.04343 -0.62645,0.23646 -1.1011,0.0976 -1.21482,-0.35544 -0.21048,-0.83861 0.54936,-1.39434 2.17536,-1.59101 1.17324,-0.1419 1.45594,0.0723 1.56276,1.18383 0.0893,0.92978 -0.21192,2.50547 -0.55685,2.91247 -0.12168,0.14359 -0.29666,0.53959 -0.38883,0.88 -0.0922,0.34041 -0.28149,0.86255 -0.42071,1.16032 -0.23733,0.5076 -0.23446,0.55504 0.0458,0.76 0.16443,0.12023 0.42398,0.21861 0.57676,0.21861 0.39418,0 0.94104,0.75869 0.94104,1.30553 0,0.34912 -0.10054,0.50061 -0.41041,0.61842 -0.48128,0.18299 -0.47053,0.18176 -0.58559,0.0667 z m -10.14096,-4.78053 c -0.4966,-0.34783 -0.76515,-2.14612 -0.64515,-4.32019 0.17477,-3.16612 0.14901,-9.56738 -0.0457,-11.3647 -0.10456,-0.9651 -0.30232,-1.99117 -0.43944,-2.28015 -0.22734,-0.47907 -0.22622,-0.56067 0.0126,-0.92526 0.69919,-1.06709 1.79887,0.13462 1.97676,2.16016 0.027,0.308 0.0747,3.62 0.10598,7.36 0.0383,4.58886 0.12198,7.12688 0.25726,7.80528 0.19298,0.96776 0.18661,1.02003 -0.17035,1.4 -0.42803,0.45562 -0.5987,0.48236 -1.052,0.16486 z m -17.06779,-0.2112 c -0.21033,-0.23241 -0.24419,-0.61321 -0.19565,-2.2 0.035,-1.14343 -0.0386,-2.66255 -0.18204,-3.75894 -0.29338,-2.24204 -0.43386,-8.49381 -0.22063,-9.81786 0.20466,-1.27073 0.41493,-1.48176 1.16443,-1.1686 0.74312,0.3105 0.84772,0.81356 0.50727,2.4399 -0.21696,1.03647 -0.24376,1.71707 -0.14747,3.74656 0.19532,4.11708 0.21187,4.35302 0.39822,5.68 0.0989,0.704 0.2025,1.99649 0.23027,2.87221 0.0495,1.56024 0.0415,1.60122 -0.39725,2.04 -0.51856,0.51857 -0.8018,0.55938 -1.15715,0.16673 z m 20.38819,-0.56103 c -0.28531,-0.46163 -0.31699,-0.74416 -0.27358,-2.44 0.027,-1.05485 0.13189,-2.50658 0.2331,-3.22605 0.24186,-1.71908 0.28135,-8.67188 0.0557,-9.81186 -0.0958,-0.484 -0.21461,-1.2242 -0.26403,-1.64487 -0.0834,-0.70999 -0.0606,-0.776 0.31814,-0.92 0.61381,-0.23338 0.83614,-0.19124 1.09776,0.20803 0.65622,1.00153 0.7691,7.14248 0.2345,12.75684 -0.0964,1.012 -0.12799,2.416 -0.0703,3.12 0.17458,2.12904 -0.55894,3.20774 -1.33138,1.95791 z m -16.33481,-0.1018 c -0.26877,-0.50219 -0.45666,-5.49555 -0.29259,-7.77611 0.0823,-1.144 0.10081,-3.376 0.0412,-4.96 -0.0597,-1.584 -0.11943,-3.276 -0.13283,-3.76 l -0.0244,-0.88 h 0.62391 c 0.58345,0 0.63857,0.0415 0.85045,0.64 0.22508,0.63585 0.28758,4.68882 0.17516,11.36 -0.0258,1.53024 0.0339,2.71891 0.16479,3.28 0.41686,1.78746 0.41557,1.81318 -0.10688,2.12 -0.61997,0.36407 -1.09586,0.35532 -1.2988,-0.0239 z m 6.47137,-6.75953 c -0.176,-0.089 -0.48547,-0.41832 -0.68772,-0.7319 -0.5952,-0.92283 -0.29229,-1.59878 1.08772,-2.42729 0.75058,-0.45061 1.00776,-0.42616 1.67444,0.15918 0.64166,0.56339 0.68913,0.89588 0.26216,1.836 -0.51727,1.13888 -1.45861,1.60783 -2.3366,1.16401 z M 202.05472,89.336004 c 0.16582,-0.0888 0.8631,-0.20701 1.54947,-0.26278 0.68638,-0.0558 1.60469,-0.23992 2.04069,-0.4092 0.60974,-0.23674 1.34833,-0.32604 3.2,-0.38689 1.32399,-0.0435 2.50249,-0.11051 2.61886,-0.14887 0.11638,-0.0384 0.34177,-8e-5 0.50088,0.0851 0.31926,0.17087 7.64675,0.37578 11.04753,0.30894 1.188,-0.0233 2.52,-0.0359 2.96,-0.0279 7.81767,0.14239 10.96172,0.1095 11.18736,-0.11703 0.20221,-0.203 0.25178,-1.32539 0.32151,-7.279998 0.0498,-4.249693 0.0202,-7.452204 -0.0747,-8.08 -0.0864,-0.572 -0.19145,-2.408 -0.23339,-4.079999 -0.0419,-1.672 -0.15312,-3.904 -0.24709,-4.96 -0.63572,-7.143626 -0.91486,-11.550214 -0.85236,-13.456241 0.0845,-2.577404 0.0571,-2.621653 -1.42983,-2.307781 -0.98723,0.208393 -2.41101,0.361315 -5.15149,0.553301 -0.792,0.05548 -1.80227,0.178321 -2.24505,0.272971 -0.83731,0.178989 -3.91714,-0.110456 -6.07495,-0.570928 -0.528,-0.112674 -1.104,-0.212381 -1.28,-0.22157 -0.176,-0.0092 -0.55801,-0.0644 -0.84891,-0.122697 -0.3112,-0.06236 -0.96977,0.0011 -1.6,0.154308 -1.37993,0.335356 -3.3679,0.310244 -7.55109,-0.09539 -1.99494,-0.193443 -3.81283,-0.284122 -4.63999,-0.23145 -2.4109,0.153522 -4.38599,0.438635 -4.95623,0.715455 -0.74286,0.360624 -0.8611,0.962568 -0.7288,3.710017 0.0572,1.188 0.16832,3.528 0.24691,5.2 0.0786,1.672 0.22112,4.26311 0.31671,5.758024 0.12923,2.020737 0.12621,3.108472 -0.0117,4.24 -0.10205,0.837086 -0.20991,4.077975 -0.23967,7.201975 -0.0755,7.926018 -0.17625,10.965835 -0.37564,11.338423 -0.0944,0.1763 -0.17156,0.8776 -0.17156,1.55846 0,1.60683 0.17503,1.82312 1.47532,1.82312 0.52014,0 1.0814,-0.0726 1.24724,-0.16137 z m 6.79966,-9.916181 c -0.22942,-0.253504 -0.26808,-0.480546 -0.19166,-1.125749 0.12225,-1.032232 0.72988,-2.143762 1.84635,-3.377488 1.25923,-1.391507 1.89108,-1.640819 4.11872,-1.625134 1.92233,0.01354 2.35321,0.142742 3.17147,0.95106 0.25325,0.250172 0.63501,0.814856 0.84835,1.254856 0.40518,0.835672 0.96765,1.723274 1.39408,2.2 0.43571,0.487093 1.35862,0.359583 2.42566,-0.335134 1.16455,-0.758203 3.19813,-2.631822 3.509,-3.232986 0.26595,-0.514288 1.071,-0.774633 1.44236,-0.466441 0.4208,0.349241 0.25832,0.892665 -0.50732,1.696673 -3.67087,3.854792 -4.42196,4.363287 -6.46087,4.374071 -0.55361,0.0029 -0.82326,-0.09041 -1.15809,-0.400893 -0.51479,-0.477338 -1.45162,-1.905499 -1.80546,-2.752386 -0.32811,-0.78526 -0.81834,-1.302953 -1.54901,-1.635769 -0.49739,-0.226562 -0.78409,-0.246296 -1.76,-0.121152 -1.49925,0.192257 -1.82224,0.370195 -2.89969,1.597428 -0.94647,1.078045 -1.22612,1.615824 -1.22612,2.357933 0,0.294499 -0.12819,0.550299 -0.3556,0.709584 -0.45311,0.317381 -0.49614,0.313882 -0.84217,-0.06847 z m 5.85118,-10.66175 c -0.37987,-0.482924 -0.32173,-0.941877 0.23063,-1.820704 2.055,-3.269615 2.40774,-4.159434 1.87363,-4.726375 -0.16911,-0.179505 -0.67091,-1.079505 -1.11511,-2 -0.4442,-0.920494 -0.94676,-1.799265 -1.11681,-1.952825 -0.29538,-0.266744 -0.34703,-0.260936 -1.15783,0.130203 -1.96249,0.946742 -3.38118,2.91248 -3.619,5.014512 -0.0957,0.845699 -0.17317,1.028845 -0.49789,1.176801 -0.31902,0.145357 -0.44,0.11982 -0.70962,-0.149804 -0.3015,-0.301498 -0.31305,-0.410752 -0.15948,-1.508773 0.25675,-1.835806 1.25097,-3.918322 2.18289,-4.572369 0.22835,-0.160253 0.63275,-0.464882 0.89867,-0.676952 0.26594,-0.212069 0.91901,-0.591538 1.45128,-0.843261 0.75915,-0.359029 1.09181,-0.434408 1.54325,-0.349717 1.13688,0.21328 1.46773,0.565085 2.49486,2.652814 0.56786,1.154207 1.07407,1.985437 1.22618,2.013445 0.19301,0.03554 0.72096,-0.871866 2.07069,-3.55896 1.1123,-2.21439 1.92099,-3.641365 2.09491,-3.696563 0.3664,-0.116293 0.93534,0.189355 0.93534,0.502491 0,0.319603 -0.90212,2.278306 -2.45819,5.337195 l -1.25821,2.473354 0.44578,0.383432 c 0.3735,0.321281 0.55152,0.366555 1.09819,0.279305 0.35883,-0.05727 0.79643,-0.210878 0.97243,-0.341352 0.83445,-0.618601 1.38532,-1.009555 1.48767,-1.055825 0.21246,-0.09604 2.31705,-2.451739 2.93646,-3.286822 0.74709,-1.007215 1.96751,-2.283954 2.1832,-2.283954 0.0857,0 0.2748,0.181522 0.42018,0.403379 0.24613,0.375637 0.24566,0.442672 -0.007,0.974671 -0.14909,0.314209 -0.60352,0.942689 -1.00983,1.39662 -0.4063,0.453931 -0.92588,1.07733 -1.15462,1.38533 -1.33891,1.802776 -3.0097,3.355454 -4.42472,4.111941 -0.82814,0.442732 -2.24648,0.495902 -3.15067,0.118108 -0.32903,-0.137473 -0.68887,-0.215164 -0.79967,-0.172648 -0.57446,0.220444 -2.1612,3.295335 -2.1612,4.188133 0,0.924254 -1.14324,1.222192 -1.74659,0.45517 z m -65.1334,16.838457 c 0.308,-0.122148 0.956,-0.31304 1.44,-0.424204 0.93574,-0.214921 2.41917,-1.143084 3.68,-2.302542 0.396,-0.364162 0.99,-0.866475 1.32,-1.116254 0.33,-0.249778 0.6,-0.516587 0.6,-0.592909 0,-0.207934 -1.77786,-2.383253 -1.94781,-2.383253 -0.25592,0 -1.71249,-1.397776 -3.66808,-3.52 -2.95236,-3.203934 -3.49851,-3.824385 -3.94348,-4.48 -0.26878,-0.396 -0.71864,-0.935999 -0.9997,-1.199999 l -0.51102,-0.48 -0.26496,0.370678 c -0.53367,0.746621 -2.73568,3.32939 -3.43529,4.029321 -0.39583,0.396 -0.82759,0.936 -0.95947,1.2 -0.13188,0.264 -0.43055,0.658229 -0.66369,0.876064 -0.23315,0.217836 -0.71239,0.901835 -1.06499,1.52 -0.90497,1.586546 -1.26163,2.185131 -1.57535,2.643936 -0.15043,0.22 -0.32697,0.616 -0.3923,0.88 -0.0653,0.264 -0.22824,0.601463 -0.362,0.749919 -0.32354,0.359071 -0.18615,0.5369 0.79946,1.034727 0.45577,0.23021 1.00039,0.55284 1.21025,0.716957 0.20987,0.164119 0.4908,0.298397 0.62428,0.298397 0.13349,0 0.82073,0.333408 1.52722,0.740907 1.56203,0.900981 2.85662,1.239448 4.20583,1.099603 0.79952,-0.08287 1.06994,-0.0461 1.47566,0.200631 0.61629,0.374785 2.12741,0.446575 2.90544,0.138021 z m -14.46097,-5.419162 c 0.26499,-0.286 0.60419,-0.7 0.75377,-0.92 0.84268,-1.239384 2.01646,-3.0592 2.40368,-3.726624 0.48918,-0.843176 1.27442,-1.773526 4.28206,-5.073376 0.98551,-1.081259 1.74146,-2.085361 1.74146,-2.313137 0,-0.287248 -0.75732,-1.262986 -1.99227,-2.566862 -0.58344,-0.616 -1.40014,-1.48 -1.81489,-1.92 -1.77055,-1.87832 -6.78573,-6.48 -7.06228,-6.48 -0.17605,0 -1.23801,1.181698 -1.60977,1.791275 -0.667,1.093677 -1.11772,2.144654 -1.11923,2.609781 -8e-4,0.264581 -0.079,0.732581 -0.17373,1.04 -0.0947,0.307419 -0.26875,0.918944 -0.38679,1.358944 -0.11805,0.44 -0.32055,1.088 -0.45001,1.44 -0.33095,0.899851 -0.58206,3.9322 -0.44385,5.359999 0.10188,1.052607 0.34606,2.069944 0.99846,4.16 0.31479,1.008463 1.20897,2.793547 1.55525,3.104799 0.18651,0.167638 0.33911,0.397572 0.33911,0.510964 0,0.113392 0.2957,0.444234 0.65712,0.735204 0.36141,0.290968 0.88341,0.724923 1.16,0.964344 0.27658,0.239419 0.54275,0.437419 0.59149,0.44 0.0487,0.0026 0.30543,-0.229311 0.57042,-0.515311 z m 23.37273,-2 c 0.55702,-1.013547 1.32824,-3.2283 1.32824,-3.81442 0,-0.205468 0.15307,-0.782717 0.34017,-1.28278 0.62455,-1.669243 0.96506,-5.023689 0.76162,-7.502799 -0.27754,-3.381994 -0.47928,-4.106581 -1.52927,-5.492397 -1.13818,-1.502227 -3.94127,-4.267603 -4.32581,-4.267603 -0.23319,0 -1.73275,1.712853 -2.06925,2.363578 -0.14249,0.275556 -0.5294,0.900479 -0.85979,1.388716 -0.33039,0.488239 -0.78199,1.247706 -1.00354,1.687706 -0.22156,0.44 -0.59445,1.016 -0.82865,1.28 -0.2342,0.264 -0.64485,0.912 -0.91256,1.44 -0.26772,0.528 -0.65339,1.14 -0.85706,1.36 -0.77163,0.833497 -1.53619,2.13722 -1.45143,2.474961 0.097,0.386595 1.28341,2.023256 1.97531,2.725038 0.26029,0.264 1.23365,1.344 2.16302,2.4 2.28694,2.598535 5.23366,5.554349 5.936,5.95433 0.60002,0.341705 0.81631,0.225795 1.333,-0.71433 z M 146.66001,65.177564 c 0.22809,-0.396107 0.63462,-0.983998 0.90342,-1.306424 0.2688,-0.322426 0.66873,-0.934426 0.88873,-1.36 0.22,-0.425574 0.562,-0.977296 0.76,-1.226048 0.198,-0.24875 0.36,-0.545934 0.36,-0.660408 0,-0.114474 0.10761,-0.297446 0.23915,-0.406608 0.13153,-0.109162 0.71646,-1.071978 1.29984,-2.139592 0.58339,-1.067613 1.23177,-2.170312 1.44086,-2.45044 0.20908,-0.280128 0.38015,-0.583595 0.38015,-0.674369 0,-0.258287 -0.46884,-0.440703 -1.65341,-0.643319 -0.60138,-0.102864 -1.21338,-0.249222 -1.36,-0.325241 -0.53913,-0.27952 -2.05299,-0.697655 -2.98659,-0.824909 -3.65565,-0.498286 -4.2711,-0.513211 -6.36864,-0.154446 -2.5269,0.432203 -4.06386,1.068814 -4.14041,1.714966 -0.0391,0.329992 -0.1813,0.473568 -0.61095,0.616829 -1.04306,0.347795 -0.88366,0.714888 1.17309,2.701528 1.01258,0.978057 2.41179,2.246286 3.10937,2.818286 0.69758,0.572 1.51238,1.364 1.81068,1.76 0.92031,1.221752 2.9256,3.380174 3.34686,3.602428 0.49113,0.259125 0.78289,0.04314 1.40785,-1.042233 z M 345.17215,146.2254 c -0.84296,-0.36152 -5.08888,-0.60301 -6.88267,-0.39146 -1.54805,0.18257 -1.58117,0.1795 -1.86667,-0.17308 -0.54283,-0.67037 -0.4025,-0.86834 1.01337,-1.42944 0.68492,-0.27142 1.1933,-0.65588 2.09748,-1.58616 1.91265,-1.96788 3.06483,-4.01535 3.33801,-5.93181 0.19832,-1.39134 -0.0378,-1.77608 -1.09027,-1.77608 -1.01845,0 -2.27022,0.72334 -3.51488,2.03106 -0.87632,0.92075 -1.02269,1.01574 -1.32,0.85663 -0.4203,-0.22495 -0.41973,-0.4696 0.003,-1.36953 0.43147,-0.91792 1.72566,-2.09342 3.03672,-2.75823 0.8691,-0.44069 1.19784,-0.52005 2.15422,-0.52 1.06776,6e-5 1.15634,0.0287 1.64268,0.53044 0.28273,0.29171 0.58112,0.76418 0.66307,1.04994 0.17819,0.6213 -0.0572,2.97092 -0.39829,3.97554 -0.26211,0.77207 -2.22592,3.75996 -2.8604,4.35203 -0.44338,0.41375 -0.52586,0.72512 -0.23906,0.90238 0.0971,0.06 1.21418,0.16626 2.48229,0.23605 2.73373,0.15045 3.35776,0.38556 3.31723,1.24977 -0.0131,0.27999 -0.0649,0.61592 -0.11497,0.7465 -0.11027,0.28736 -0.79786,0.28992 -1.46115,0.005 z m -178.23547,-1.73868 c -0.25104,-0.38313 -0.49886,-2.6164 -0.69875,-6.2968 -0.0909,-1.674 -0.15352,-1.99975 -0.44577,-2.32 -0.66184,-0.7252 -0.76292,-1.08373 -0.4137,-1.46765 0.59352,-0.65253 0.6721,-1.04084 0.75547,-3.7329 0.0459,-1.4806 0.14949,-2.944 0.23029,-3.252 0.13261,-0.50544 0.82074,-2.59681 1.13949,-3.4632 0.12897,-0.35055 1.69427,-1.1768 2.22937,-1.1768 1.04042,0 0.854,2.75354 -0.19702,2.91046 -0.64006,0.0956 -0.88816,0.7298 -0.97386,2.48954 -0.059,1.21137 -0.0298,1.64 0.11175,1.64 0.10536,0 0.50957,-0.324 0.89821,-0.72 0.72508,-0.73882 1.3318,-0.9242 1.728,-0.528 0.1056,0.1056 0.192,0.57615 0.192,1.04568 v 0.85369 l -0.69436,0.29763 c -0.41451,0.17768 -0.83208,0.51393 -1.03608,0.83432 -0.18793,0.29517 -0.50547,0.76056 -0.70563,1.03419 -1.08835,1.48783 -1.00409,1.05274 -1.00221,5.17539 0.002,2.28234 0.0807,4.22585 0.20207,4.93105 0.17278,1.00387 0.16648,1.22942 -0.0458,1.64 -0.30719,0.59404 -0.92003,0.64477 -1.27343,0.1054 z M 52.007756,142.20829 c -0.48387,-0.33891 -0.44823,-0.62114 0.17729,-1.404 1.31402,-1.64455 2.0295,-3.47908 2.41292,-6.18692 0.59974,-4.23557 0.7118,-7.86372 0.28416,-9.2 -0.0845,-0.264 -0.24022,-1.164 -0.34608,-2 -0.20358,-1.60783 -0.66048,-3.24806 -1.02174,-3.66796 -0.11926,-0.13863 -0.29608,-0.48833 -0.39294,-0.77712 -0.0969,-0.28879 -0.42208,-0.82879 -0.72273,-1.2 -0.30065,-0.37121 -0.65713,-0.89092 -0.79219,-1.15492 -0.13506,-0.264 -0.61981,-0.82208 -1.07723,-1.24017 -0.67903,-0.62066 -0.81423,-0.82964 -0.73666,-1.13869 0.0722,-0.28755 0.23896,-0.40189 0.69393,-0.47572 0.52292,-0.0849 0.66789,-0.0317 1.14236,0.41869 0.45512,0.43205 2.06526,2.43448 2.457,3.05562 0.53425,0.84711 1.43107,3.09772 1.57011,3.94027 0.73767,4.47023 0.81354,5.14202 0.81315,7.2 -4.8e-4,2.30362 -0.67832,8.20291 -1.07978,9.39682 -0.80746,2.40139 -1.56521,3.83454 -2.28327,4.31844 -0.64293,0.43328 -0.64459,0.43345 -1.0983,0.11566 z m 132.544754,-1.55092 c -0.48949,-0.77618 -0.47656,-1.05607 0.0589,-1.2757 0.39028,-0.16009 0.58261,-0.41206 0.88869,-1.1643 0.33655,-0.82707 1.01864,-2.8572 1.50522,-4.48 0.37182,-1.24007 0.53043,-4.072 0.32949,-5.8828 -0.39388,-3.5491 -0.75256,-4.70885 -1.94474,-6.28787 -0.63709,-0.84382 -1.08962,-1.78124 -1.09549,-2.26933 -0.002,-0.11 0.158,-0.2 0.35407,-0.2 0.38256,0 1.89614,1.496 2.67102,2.64 1.58534,2.34054 2.09016,8.38833 1.03381,12.38532 -0.76146,2.88117 -2.16771,6.44903 -2.66687,6.76621 -0.37201,0.2364 -0.90801,0.12698 -1.13409,-0.23153 z m -147.588324,-0.3576 c -0.63563,-0.53486 -1.21511,-2.2154 -1.62835,-4.7224 -0.0798,-0.484 -0.21363,-1.10499 -0.29745,-1.37997 -0.0964,-0.31635 -0.0965,-0.78644 -3.2e-4,-1.28 0.0837,-0.42902 0.1161,-1.10403 0.0721,-1.50003 -0.14798,-1.3314 0.62506,-6.92065 1.24714,-9.01718 0.13428,-0.45255 0.42795,-1.57882 0.65261,-2.50282 0.50839,-2.09104 0.82794,-2.97444 1.31666,-3.64 0.41972,-0.57159 0.97935,-0.68336 1.3859,-0.2768 0.21593,0.21592 0.21673,0.31911 0.007,0.92 -0.12981,0.37224 -0.40534,1.0368 -0.61229,1.4768 -0.59066,1.25582 -1.43198,4.6496 -1.77593,7.16387 -0.12311,0.89987 -0.31013,1.92413 -0.41562,2.27613 -0.12229,0.40806 -0.1912,1.82865 -0.19015,3.92 0.001,2.62592 0.0567,3.47143 0.27793,4.24 0.15195,0.528 0.3332,1.18847 0.40279,1.46772 0.0696,0.27925 0.35036,0.83941 0.62396,1.2448 0.49762,0.73735 0.67079,1.44458 0.44368,1.81205 -0.20245,0.32757 -1.00858,0.21963 -1.50986,-0.20217 z m -16.7406,-0.33383 c -0.41004,-0.41004 -0.30137,-0.64575 0.70688,-1.53325 1.52584,-1.34309 2.02207,-2.31052 3.25907,-6.3537 0.14444,-0.4721 0.26262,-0.96738 0.26262,-1.1006 0,-0.36836 -0.78236,-2.75191 -1.15687,-3.52452 -0.41529,-0.85675 -0.23676,-1.39098 0.52041,-1.55728 0.78091,-0.17152 1.08735,0.0918 3.81806,3.2805 0.91408,1.06739 1.39534,1.78489 1.98563,2.96028 0.26517,0.528 0.61083,1.14523 0.76815,1.37163 0.42131,0.60635 1.04924,2.36405 1.17738,3.29574 0.0977,0.71044 0.0519,0.93165 -0.36297,1.75284 -0.6817,1.34931 -0.90805,1.50618 -2.32835,1.6136 -1.45934,0.11037 -2.02144,-0.14362 -2.02144,-0.91339 0,-0.60081 0.61114,-0.93864 1.52317,-0.84199 0.86128,0.0913 1.22792,-0.31 1.31657,-1.44091 0.0598,-0.76286 -0.0141,-0.99444 -0.82945,-2.59752 -1.16038,-2.28162 -2.26585,-3.90535 -2.48555,-3.65085 -0.14935,0.173 -0.74876,1.91481 -0.88112,2.56041 -0.0575,0.28027 -0.35177,1.09597 -0.65404,1.81267 -0.30227,0.71671 -0.54958,1.39633 -0.54958,1.51028 0,0.36274 -0.79731,1.64988 -1.51972,2.45338 -0.91123,1.01351 -2.03872,1.41281 -2.54885,0.90268 z m 122.708574,-1.11756 c -1.04246,-0.53646 -1.81757,-2.09992 -2.01829,-4.07101 -0.33685,-3.30801 -0.27853,-4.70392 0.33759,-8.08 0.35297,-1.9341 1.67154,-5.32492 2.48581,-6.39249 0.50565,-0.66294 2.11882,-1.32766 2.26945,-0.93514 0.10867,0.28318 -0.29331,1.04266 -0.9144,1.72763 -0.23938,0.264 -0.66558,1.056 -0.94711,1.76 -0.28152,0.704 -0.61362,1.496 -0.73799,1.76 -0.33021,0.70094 -0.84888,3.00609 -1.00802,4.48 -0.076,0.704 -0.0797,2.216 -0.008,3.36 0.18802,3.00998 0.69699,4.44746 1.72558,4.87351 0.25996,0.10768 0.51546,0.30734 0.56778,0.44368 0.12914,0.33653 -0.31886,0.98287 -0.81092,1.16995 -0.48813,0.18558 -0.37042,0.19761 -0.94121,-0.0961 z m 242.74479,-0.20361 c -0.4389,-0.48498 -0.32637,-0.944 0.3352,-1.36726 1.21869,-0.7797 2.44659,-2.62201 2.9268,-4.39128 0.15955,-0.58787 0.40707,-1.46486 0.55003,-1.94886 0.30832,-1.0438 0.60378,-4.5775 0.46823,-5.6 -0.23079,-1.74088 -0.54799,-3.36086 -0.78594,-4.01389 -0.1415,-0.38837 -0.31622,-0.88611 -0.38826,-1.10611 -0.32796,-1.0017 -1.29592,-2.48425 -2.44846,-3.75017 -0.15533,-0.1706 -0.2824,-0.36149 -0.2824,-0.4242 0,-0.0627 -0.252,-0.26271 -0.56,-0.44443 -0.43053,-0.25402 -0.56,-0.43524 -0.56,-0.78381 0,-0.24937 0.0864,-0.53979 0.192,-0.64539 0.27266,-0.27266 0.88645,-0.23783 1.05299,0.0597 0.0775,0.13847 0.31226,0.33719 0.5217,0.44161 0.46774,0.23319 1.95077,2.03577 2.39136,2.90664 0.17808,0.352 0.3876,0.748 0.46558,0.88 0.47368,0.80175 1.20736,2.58654 1.31543,3.2 0.0698,0.396 0.2198,1.152 0.3334,1.68 0.26444,1.22883 0.25271,5.07289 -0.0202,6.64 -0.27566,1.58268 -0.92726,3.57745 -1.77843,5.44429 -0.82347,1.80608 -1.24979,2.42039 -2.11431,3.04664 -0.74472,0.53948 -1.23745,0.59333 -1.6147,0.17647 z m -204.63961,-0.99618 c -0.9401,-0.73948 -1.53555,-3.32355 -1.69395,-7.35122 l -0.0912,-2.32 -0.4764,-0.0541 c -0.26202,-0.0298 -0.88762,0.0331 -1.39024,0.13979 -1.14192,0.24233 -1.69535,0.11517 -1.9056,-0.43783 -0.24436,-0.64272 0.0807,-0.83644 1.86798,-1.11314 2.43408,-0.37685 2.3004,-0.17213 2.2875,-3.50342 -0.0117,-3.03743 0.0597,-3.32576 0.80306,-3.23935 0.39918,0.0464 0.41734,0.0958 0.51781,1.40809 0.0573,0.748 0.11128,1.98834 0.12,2.75631 0.0144,1.26766 0.0491,1.41649 0.37589,1.6153 0.198,0.12045 0.75414,0.23081 1.23585,0.24526 0.50874,0.0153 0.97055,0.12096 1.10176,0.25217 0.19455,0.19454 0.1641,0.28318 -0.21921,0.63843 -0.33487,0.31034 -0.61548,0.41253 -1.13285,0.41253 -0.48629,0 -0.80656,0.10544 -1.09349,0.36 -0.38675,0.34313 -0.4069,0.44622 -0.43005,2.2 -0.0133,1.012 0.0592,2.38 0.16133,3.04 0.10208,0.66 0.22957,1.632 0.2833,2.16 0.0537,0.528 0.26956,1.30326 0.47964,1.72281 0.29924,0.59759 0.34519,0.83152 0.21221,1.08 -0.2163,0.40418 -0.48872,0.40106 -1.01331,-0.0116 z m -48.70518,-0.40679 c -0.42414,-0.31041 -0.46436,-0.87643 -0.1016,-1.43006 0.26677,-0.40715 0.91436,-0.53732 1.10871,-0.22286 0.1488,0.24075 2.45797,0.0346 2.90726,-0.25951 0.1949,-0.1276 0.43323,-0.37935 0.52961,-0.55944 0.18311,-0.34215 -0.11318,-0.96485 -1.51905,-3.19256 -0.30545,-0.484 -0.74509,-1.24 -0.97698,-1.68 -0.40194,-0.76264 -1.29046,-1.84 -1.51749,-1.84 -0.0587,0 -0.30759,0.45 -0.55305,1 -0.24546,0.55 -0.61529,1.25071 -0.82185,1.55714 -0.27055,0.40135 -0.37556,0.78233 -0.37556,1.36247 0,1.97073 -2.4686,4.44776 -4.16,4.17422 -0.308,-0.0498 -0.86701,-0.13678 -1.24224,-0.19326 -0.49927,-0.0752 -0.84823,-0.26869 -1.30118,-0.72164 -0.34041,-0.34041 -0.66656,-0.61893 -0.72477,-0.61893 -0.0582,0 -0.53662,0.3585 -1.06314,0.79668 -0.52652,0.43817 -1.11233,0.87964 -1.30179,0.98104 -0.4234,0.2266 -2.52302,0.0778 -3.04184,-0.21558 -0.8136,-0.46005 -1.79941,-1.27977 -2.06573,-1.7177 -0.43135,-0.70929 -0.56569,-2.70419 -0.25142,-3.73355 0.13952,-0.45699 0.32834,-1.12232 0.41961,-1.47851 0.23143,-0.90324 1.09452,-2.14784 1.68082,-2.42381 0.27042,-0.12729 0.74368,-0.36683 1.05168,-0.53232 0.80612,-0.43312 1.35199,-0.39861 1.7527,0.11081 0.51655,0.65669 0.39291,0.80253 -1.0327,1.21808 -0.64564,0.18819 -0.89262,0.36841 -1.28,0.93402 -0.68608,1.00173 -0.88226,1.63641 -0.98999,3.20289 l -0.0951,1.38205 0.62252,0.65435 c 0.85481,0.89853 1.84446,1.16455 2.77361,0.74556 0.74031,-0.33383 1.83804,-1.44293 2,-2.02072 0.0591,-0.21081 0.20605,-0.63529 0.32657,-0.94329 0.12052,-0.308 0.25992,-0.75081 0.30977,-0.98402 0.0622,-0.29112 0.24713,-0.47856 0.58998,-0.59808 0.27464,-0.0957 0.55477,-0.13982 0.62252,-0.0979 0.19782,0.12226 0.33465,1.0416 0.31613,2.12408 -0.0229,1.34082 0.3656,1.99645 1.34575,2.27087 1.00063,0.28016 1.92952,-0.14502 2.63122,-1.20438 0.58648,-0.88543 0.57625,-1.13071 -0.0443,-1.06219 -0.72809,0.0804 -2.22479,-0.29861 -2.6239,-0.66443 -0.49402,-0.45281 -0.8248,-1.10701 -0.8248,-1.63126 0,-0.98068 1.47356,-2.15264 2.7066,-2.15264 0.58068,0 0.77096,0.0934 1.31999,0.64793 0.5294,0.53473 0.68281,0.61364 0.878,0.45166 0.49794,-0.41326 0.69541,-1.08512 0.69541,-2.36602 0,-1.40299 0.1371,-1.61357 1.05059,-1.61357 0.84549,0 2.63588,2.34087 4.1839,5.47032 0.29119,0.58868 0.77789,1.39581 1.08155,1.79361 0.30365,0.39781 0.74034,1.09477 0.97041,1.5488 0.34622,0.68324 0.40024,0.95319 0.31341,1.56639 -0.22202,1.56793 -1.34665,2.18878 -4.23986,2.34061 -1.40312,0.0736 -1.73933,0.0447 -2.04,-0.1753 z m -3.55751,-7.18744 c 0.16504,-0.19886 0.14956,-0.30058 -0.0852,-0.56 -0.4357,-0.48144 -1.35728,-0.38086 -1.35728,0.14812 0,0.62014 1.02641,0.91322 1.44249,0.41188 z m 44.55751,7.29627 c -0.76562,-0.18734 -1.82424,-0.93474 -1.93197,-1.36401 -0.21399,-0.85253 0.96163,-3.11153 1.92398,-3.69707 1.31144,-0.79792 1.86773,-0.88652 2.23891,-0.35658 0.38052,0.54325 0.30796,0.72834 -0.43092,1.0992 -1.1046,0.55442 -1.88,1.4393 -1.88,2.14541 0,0.36883 0.96398,0.72499 1.6576,0.61243 0.58513,-0.095 1.0632,0.12433 1.0616,0.48695 0,0.0992 -0.16244,0.37176 -0.36,0.60563 -0.39624,0.46908 -1.41772,0.67884 -2.2792,0.46804 z m 141.55999,-0.49825 c -0.29704,-0.1194 -0.36,-0.26811 -0.36,-0.85032 0,-1.65557 1.36144,-3.48407 3.86568,-5.19184 1.49562,-1.01994 2.58943,-2.78737 2.04171,-3.2991 -0.12507,-0.11685 -1.09139,-0.51604 -2.14739,-0.8871 -2.63814,-0.92699 -2.88593,-1.026 -3.18141,-1.27123 -0.3335,-0.27677 -0.33131,-0.87985 0.004,-1.21557 0.31343,-0.31344 0.65631,-0.24805 2.16381,0.41261 0.58675,0.25715 1.18173,0.46754 1.32218,0.46754 0.14045,0 0.38037,0.0701 0.53318,0.15575 0.1528,0.0857 0.88983,0.38439 1.63783,0.66382 1.50619,0.56268 1.92,0.90798 1.92,1.60215 0,0.63636 -0.99469,2.5637 -1.61138,3.12224 -0.27693,0.25082 -0.82301,0.76204 -1.21352,1.13604 -0.3905,0.374 -0.78173,0.68 -0.86941,0.68 -0.31677,0 -1.70248,1.45193 -1.98621,2.08113 -0.28812,0.63896 -0.28758,0.64704 0.0688,1.02635 0.29316,0.31206 0.32702,0.4424 0.18422,0.70921 -0.39664,0.74114 -1.44365,1.03166 -2.37246,0.65832 z m -270.231564,-0.7151 c -0.63255,-0.44306 -0.86837,-1.60417 -0.93405,-4.59894 l -0.0605,-2.76097 -0.98263,0.0534 c -1.23169,0.0669 -1.70264,-0.0483 -1.8294,-0.44773 -0.14455,-0.45542 0.18594,-0.96567 0.62545,-0.96567 0.40575,0 2.01153,-0.46446 2.22004,-0.64213 0.20442,-0.17418 0.44026,-2.71814 0.56108,-6.05222 0.1092,-3.01351 0.12221,-3.1025 0.4979,-3.40671 0.21218,-0.17181 0.50006,-0.28954 0.63975,-0.26162 0.22374,0.0447 0.24765,0.42145 0.20081,3.16471 -0.0292,1.71267 -0.10389,3.74878 -0.16588,4.52468 -0.0808,1.01131 -0.0592,1.45517 0.0764,1.56768 0.10401,0.0863 0.84102,0.14256 1.6378,0.12498 1.51619,-0.0335 1.94485,0.11241 1.94485,0.66181 0,0.45038 -0.6337,0.74696 -2.14887,1.0057 -0.77688,0.13266 -1.47883,0.33838 -1.55987,0.45716 -0.20649,0.30264 -0.0515,4.98191 0.20162,6.08491 0.32257,1.40591 -0.0918,2.07418 -0.92445,1.49096 z m 100.525794,-0.25219 c -0.71765,-0.85288 -0.53621,-1.14179 1.46505,-2.3328 2.13604,-1.27123 2.85312,-1.96238 3.54302,-3.41492 0.535,-1.12643 0.57019,-1.29905 0.57383,-2.81541 0.004,-1.73159 -0.14555,-2.14531 -0.77571,-2.14375 -0.37217,9.6e-4 -0.65767,0.17068 -2.25412,1.3403 -0.94758,0.69425 -1.10959,0.76138 -1.45625,0.60343 -0.66311,-0.30213 -0.48193,-0.76476 0.76996,-1.96598 1.42547,-1.36778 2.27931,-1.78968 3.43752,-1.69857 1.43548,0.11293 1.80248,0.79914 1.80248,3.37028 0,2.73709 -1.2002,5.60043 -2.80574,6.69375 -0.30364,0.20677 -0.55257,0.46595 -0.55317,0.57595 -10e-4,0.22485 0.18342,0.23113 1.43891,0.0489 0.78037,-0.11327 0.95796,-0.0825 1.56867,0.27196 0.57072,0.33123 0.68033,0.47157 0.64,0.8194 -0.0466,0.40174 -0.0938,0.4211 -1.1032,0.4521 -0.57998,0.0178 -1.60466,0.17981 -2.27705,0.36 -0.71295,0.19106 -1.71804,0.32762 -2.41126,0.32762 -1.13096,0 -1.20884,-0.0239 -1.60294,-0.49228 z m 9.67193,-0.29623 c -0.11986,-0.22395 -0.1422,-1.20195 -0.0706,-3.08959 0.0745,-1.96417 0.0487,-2.96663 -0.0893,-3.47071 -0.18285,-0.66776 -0.17244,-0.72561 0.17983,-0.99879 0.57966,-0.44953 0.80981,-0.29615 1.12234,0.74797 0.35738,1.19397 0.41899,5.97715 0.0855,6.63963 -0.2655,0.52744 -0.9836,0.62775 -1.22778,0.17149 z m 5.39385,-0.67746 c -0.242,-0.0884 -0.44776,-0.2447 -0.45725,-0.34737 -0.009,-0.10266 -0.008,-1.75422 0.004,-3.67013 0.0171,-2.7986 -0.0213,-3.49982 -0.19557,-3.56668 -0.11928,-0.0458 -1.72311,-0.0982 -3.56406,-0.11654 l -3.34712,-0.0333 -0.0525,-0.4595 c -0.0289,-0.25272 0.0224,-0.5344 0.11396,-0.62596 0.3352,-0.3352 2.1119,-0.47908 6.17855,-0.50033 3.4564,-0.0181 4.33212,-0.07 5.17769,-0.30695 0.55975,-0.15686 1.05543,-0.24747 1.10154,-0.20136 0.18469,0.18468 -0.31827,0.99628 -0.83735,1.35117 -0.66305,0.45333 -1.60713,0.8063 -2.1823,0.8159 -0.80957,0.0135 -0.85941,0.24449 -0.86158,3.99162 -0.002,1.90047 -0.0593,3.54541 -0.12944,3.65541 -0.14826,0.23264 -0.34215,0.23551 -0.94856,0.014 z m 194.95199,-1.76603 c -0.4404,-0.4404 0.0658,-4.37362 0.72451,-5.62995 0.44372,-0.84623 1.92367,-2.0226 2.51416,-1.99844 0.64224,0.0263 1.52933,0.2906 1.52933,0.45568 0,0.32955 0.5757,0.31375 1.03127,-0.0283 0.41966,-0.31511 0.67977,-0.36697 1.84052,-0.36697 h 1.3518 l 0.4082,-0.58498 c 0.71336,-1.02226 1.38356,-1.46334 2.3446,-1.54303 1.02035,-0.0846 1.15249,0.003 1.69785,1.12435 0.72208,1.48488 1.08682,3.50477 1.07687,5.96366 -0.009,2.2869 -0.59312,3.31836 -1.44301,2.54922 -0.35392,-0.32028 -0.41384,-1.36201 -0.13592,-2.36287 0.11699,-0.42129 0.11998,-0.8476 0.01,-1.36 -0.0884,-0.4105 -0.242,-1.20432 -0.34122,-1.76405 -0.48897,-2.75849 -0.91141,-2.90357 -2.44392,-0.83931 -0.66851,0.90047 -0.86043,1.4311 -1.04569,2.89125 -0.0911,0.71813 -0.18621,0.91644 -0.5325,1.11048 -0.37989,0.21288 -0.46506,0.20773 -0.8616,-0.0521 -0.43986,-0.2882 -0.44,-0.28895 -0.33442,-1.68756 0.085,-1.12654 0.0601,-1.43703 -0.12817,-1.59325 -0.39123,-0.32469 -0.87608,0.0811 -1.38677,1.16058 -0.25698,0.54318 -0.46728,1.11106 -0.46734,1.26197 -1.5e-4,0.30993 -0.45936,0.60563 -0.94055,0.60563 -0.55835,0 -0.82037,-0.5855 -0.71465,-1.59695 0.0753,-0.72074 0.0399,-0.95532 -0.1768,-1.17207 -0.34807,-0.34806 -0.43212,-0.34149 -0.87188,0.0682 -0.71484,0.66599 -1.29625,2.58419 -1.29625,4.27668 0,1.01591 -0.1768,1.30413 -0.8,1.30413 -0.2288,0 -0.5024,-0.0864 -0.608,-0.192 z m 19.088,0.056 c -0.78576,-0.2555 -1.42613,-1.01024 -1.70113,-2.00494 -0.193,-0.69801 -0.21924,-4.53055 -0.0412,-6.01911 0.11389,-0.95229 0.53338,-3.02519 0.92282,-4.56 0.27384,-1.07928 2.16636,-5.22347 2.60851,-5.71203 0.40054,-0.44259 0.78376,-0.62375 1.07944,-0.51028 0.35587,0.13656 0.31283,0.5524 -0.14123,1.36484 -0.21607,0.38656 -0.53386,1.13362 -0.70623,1.66015 -0.17238,0.52652 -0.60638,1.65085 -0.96446,2.4985 -0.35808,0.84765 -0.72367,2.03565 -0.81239,2.64 -0.78771,5.36519 -0.84896,7.21459 -0.27752,8.37882 0.36309,0.73971 0.91616,1.02125 1.28386,0.65354 0.22158,-0.22158 0.69941,-0.22413 0.83517,-0.004 0.17838,0.28863 -0.0694,0.9229 -0.52584,1.34615 -0.42787,0.39675 -0.91051,0.47992 -1.55978,0.26881 z m -26.40502,-1.704 c -0.25005,-0.80037 -0.18605,-0.767 -1.23776,-0.6455 -1.60291,0.18518 -4.82133,0.12741 -11.62063,-0.20859 -2.08644,-0.1031 -2.15193,-0.11736 -2.4644,-0.53676 -0.29758,-0.39941 -0.30259,-0.45891 -0.0688,-0.8158 0.29763,-0.45423 1.59892,-0.88574 1.91548,-0.63518 0.55524,0.43947 9.04159,0.77815 13.32109,0.53163 2.38117,-0.13717 2.64,-0.0826 2.64,0.5567 0,0.60511 -0.16488,0.86256 -0.92325,1.44162 -0.76043,0.58063 -1.43568,0.71548 -1.56177,0.31188 z m 32.12553,-0.2 c -0.48089,-0.42755 -0.77269,-2.60916 -0.54715,-4.09078 0.33066,-2.17214 0.33557,-2.31923 0.0844,-2.52765 -0.18621,-0.15454 -0.35368,-0.15672 -0.75968,-0.01 -0.82576,0.29859 -1.92158,0.24019 -2.24734,-0.11977 -0.64075,-0.70802 -0.073,-1.15838 1.81821,-1.44232 0.65393,-0.0982 1.29416,-0.26579 1.4227,-0.37247 0.19307,-0.16024 0.21568,-0.55036 0.12998,-2.24341 -0.0894,-1.76668 -0.15256,-2.11549 -0.45768,-2.5282 -0.27537,-0.37246 -0.31568,-0.53948 -0.18153,-0.75214 0.27147,-0.43039 1.1611,-0.35634 1.52145,0.12664 0.34962,0.46858 0.84026,3.04711 0.72119,3.79009 -0.11197,0.69864 0.18619,0.90876 1.15713,0.81546 0.58032,-0.0558 0.87501,-0.004 1.14872,0.2027 0.3445,0.25986 0.35221,0.30205 0.1201,0.65632 -0.16477,0.25146 -0.62944,0.50143 -1.38368,0.74435 -1.2817,0.4128 -1.12939,0.12241 -1.48296,2.82735 -0.1113,0.85143 -0.14536,2.08307 -0.0836,3.02472 0.0889,1.35607 0.065,1.63165 -0.16312,1.88373 -0.33056,0.36526 -0.42155,0.36696 -0.81712,0.0153 z m -34.69489,-4.96245 c -0.0959,-0.0647 -0.40191,-0.43436 -0.68,-0.82156 -0.45901,-0.6391 -0.50562,-0.81365 -0.50562,-1.89334 0,-1.24149 -0.51547,-3.65249 -0.85555,-4.00162 -0.14267,-0.14647 -0.33938,-0.15721 -0.74563,-0.0407 -0.30351,0.0871 -1.12939,0.20429 -1.83533,0.26055 -0.70592,0.0563 -1.37432,0.17408 -1.48534,0.26184 -0.31557,0.24942 -0.8066,1.47457 -0.92764,2.31452 -0.16699,1.15886 -0.47718,1.7828 -0.98171,1.97462 -0.39472,0.15007 -0.49005,0.11939 -0.81961,-0.26376 -0.32663,-0.37972 -0.35922,-0.53512 -0.26237,-1.25085 0.0608,-0.44949 0.28217,-1.41234 0.49189,-2.13967 0.20971,-0.72733 0.38129,-1.4064 0.38129,-1.50904 0,-0.2327 0.85954,-2.47177 1.40061,-3.64854 0.22254,-0.484 0.53248,-1.276 0.68875,-1.76 0.15627,-0.484 0.5061,-1.40946 0.77739,-2.05658 0.27128,-0.64712 0.49325,-1.3527 0.49325,-1.56795 0,-0.21525 0.10986,-0.60379 0.24411,-0.86342 0.56367,-1.09001 1.87837,-0.21697 2.04063,1.35509 0.0501,0.48564 0.27937,1.4432 0.50945,2.12792 0.78583,2.33858 0.8874,2.68518 0.8866,3.0254 -0.002,0.58278 0.46288,1.49927 0.76136,1.50309 0.15281,0.002 0.45432,0.13918 0.67,0.30493 0.50008,0.38434 0.50432,1.2258 0.01,1.89505 -0.34522,0.46693 -0.34664,0.4911 -0.0876,1.49553 0.1448,0.56152 0.36414,1.54414 0.48742,2.18361 0.12328,0.63948 0.33538,1.3215 0.47133,1.51561 0.33226,0.47435 0.3113,0.79707 -0.0844,1.30014 -0.32853,0.41765 -0.70621,0.52599 -1.04277,0.29913 z m -3.36605,-8.50893 c 0.81566,-0.18925 0.93467,-0.32952 0.76246,-0.89872 -0.0782,-0.25845 -0.23369,-0.8659 -0.34556,-1.3499 -0.25389,-1.09842 -0.64557,-1.9432 -0.86752,-1.87104 -0.21853,0.0711 -1.3173,2.90494 -1.4854,3.83104 -0.0772,0.4254 -0.0567,0.43987 0.61829,0.43618 0.38399,-0.002 0.97696,-0.0685 1.31773,-0.14756 z M 205.53216,43.564553 c -0.47007,-0.273782 -0.31655,-0.771912 0.48,-1.557571 0.70851,-0.698833 1.43563,-2.129512 1.88532,-3.709612 0.17231,-0.605448 0.38842,-0.8 0.88864,-0.8 0.57196,0 0.7853,0.375985 0.78839,1.389481 0.004,1.234365 0.24755,1.547584 1.32115,1.697522 0.818,0.114238 0.98624,0.08532 1.59545,-0.274245 0.59328,-0.350157 1.23048,-0.999526 1.61824,-1.649157 0.0645,-0.108021 0.006,-0.734985 -0.12998,-1.393256 -0.57704,-2.793616 -0.17254,-4.645726 1.07928,-4.941774 0.72704,-0.171941 1.60682,-0.02991 1.88408,0.304178 0.32226,0.388281 0.47371,1.694147 0.23978,2.067251 -0.11036,0.176 -0.24196,0.727582 -0.29247,1.225739 -0.0505,0.498157 -0.20205,1.074157 -0.33677,1.28 -0.33718,0.515187 -0.48006,1.566963 -0.28275,2.081264 0.0901,0.234851 0.36584,0.523384 0.61274,0.641182 1.03787,0.495189 0.39649,1.8352 -0.80352,1.678768 -0.33683,-0.04391 -0.7385,-0.193936 -0.89261,-0.333393 -0.40501,-0.366528 -0.75686,-0.315447 -1.55979,0.22644 -0.39117,0.264 -0.7996,0.479999 -0.9076,0.479999 -0.10802,0 -0.35923,0.11406 -0.55826,0.253466 -0.29053,0.20349 -0.45998,0.219264 -0.85947,0.08 -0.27368,-0.09541 -0.76381,-0.173466 -1.08915,-0.173466 -0.32535,0 -0.83048,-0.119195 -1.1225,-0.264878 -0.57254,-0.285621 -0.57659,-0.283342 -1.33672,0.752096 -0.31891,0.434408 -1.32123,1.112949 -1.63659,1.107917 -0.16769,-0.0027 -0.43089,-0.07825 -0.58489,-0.167951 z m 10.33588,-9.022058 c 0.0496,-0.129183 0.0213,-0.277432 -0.0629,-0.329444 -0.0842,-0.05201 -0.15301,-0.06021 -0.15301,-0.01821 0,0.042 -0.0437,0.190245 -0.0971,0.329441 -0.0534,0.139199 -0.0251,0.253087 0.0629,0.253087 0.088,0 0.20056,-0.105695 0.25013,-0.234875 z m 10.58411,8.953812 c -0.53873,-0.15979 -1.14172,-0.207226 -1.84638,-0.145248 -0.88968,0.07825 -1.10486,0.04469 -1.43678,-0.22408 -0.33816,-0.273827 -0.36892,-0.377166 -0.22989,-0.772491 0.0883,-0.251007 0.35717,-0.550635 0.59753,-0.665843 0.32928,-0.157818 0.4182,-0.295997 0.36055,-0.560373 -0.3841,-1.761581 -0.39866,-2.216144 -0.0903,-2.820493 0.40749,-0.798741 1.00784,-1.041949 2.20335,-0.892581 1.22164,0.152636 1.68459,0.415356 1.93057,1.095597 0.19075,0.527533 0.16576,0.64372 -0.38449,1.787475 -0.5388,1.119946 -0.56695,1.244834 -0.3332,1.478576 0.37147,0.371474 1.42112,0.02963 1.87764,-0.611492 0.53368,-0.749484 0.82373,-2.035959 0.59911,-2.657167 -0.14199,-0.392659 -0.13925,-0.56407 0.0118,-0.746227 0.51245,-0.617451 3.93209,-0.888931 4.71723,-0.374493 0.71528,0.468664 0.84626,0.948786 0.44456,1.629602 -0.39478,0.669117 -0.45376,1.895518 -0.1464,3.044681 0.24787,0.926791 0.0607,1.275619 -0.68427,1.275619 -0.44466,0 -0.62584,-0.119864 -1.07872,-0.713619 -0.57192,-0.749837 -0.58872,-0.91872 -0.31912,-3.20638 0.0359,-0.304612 -0.034,-0.41157 -0.29293,-0.448516 -0.41861,-0.05972 -0.85622,0.352312 -0.87082,0.819944 -0.0177,0.565479 -1.78392,3.361215 -2.27166,3.595719 -0.67352,0.323824 -1.87795,0.372654 -2.75746,0.11179 z m -0.4018,-3.676019 c 0.36539,-0.591203 0.32057,-0.882918 -0.13564,-0.882918 -0.40003,0 -0.66256,0.319094 -0.66256,0.805332 0,0.80866 0.32674,0.84042 0.7982,0.07759 z m -28.33386,3.261422 c -0.21595,-0.215957 -0.3055,-0.458456 -0.25112,-0.68 0.0465,-0.189387 0.1601,-0.63234 0.25245,-0.98434 0.0924,-0.352 0.24029,-1.746991 0.32872,-3.09998 0.36514,-5.586049 0.15395,-5.24474 3.25275,-5.257263 3.2112,-0.01298 4.25495,0.386848 3.52805,1.351478 -0.3039,0.403275 -0.4331,0.446787 -1.35555,0.456498 -2.94475,0.031 -2.82895,0.0061 -3.10547,0.667929 -0.13759,0.329264 -0.29308,1.15548 -0.34556,1.836038 -0.11331,1.469322 0.035,1.618976 1.10812,1.118092 1.90545,-0.889396 3.56328,-1.012058 3.56328,-0.263645 0,0.356251 -0.95975,0.891931 -3.2,1.786078 -0.792,0.316109 -1.53,0.644317 -1.64,0.729351 -0.11194,0.08653 -0.2,0.501107 -0.2,0.941494 0,1.458126 -1.08908,2.244849 -1.93567,1.39827 z m 21.75525,-0.569357 c -0.16563,-0.199894 -0.22341,-0.933427 -0.23514,-2.985124 l -0.0155,-2.720107 -0.86445,-0.259656 c -0.73216,-0.219924 -0.87195,-0.323703 -0.91347,-0.678199 -0.0434,-0.370323 0.0396,-0.449732 0.72,-0.689276 1.29499,-0.4559 1.24042,-0.373655 1.34002,-2.019311 0.10805,-1.785088 0.29435,-2.22331 0.9452,-2.22331 0.25571,0 0.52317,0.09 0.59437,0.2 0.0712,0.11 0.12944,1.064 0.12944,2.12 v 1.92 l 0.72,0.190385 c 1.41846,0.375077 1.65771,0.469559 1.81321,0.716104 0.0867,0.137509 0.10994,0.374528 0.0515,0.526711 -0.0918,0.239219 -0.29571,0.269254 -1.50547,0.221748 l -1.39932,-0.05495 v 2.8 c 0,1.54 -0.0582,2.889999 -0.12944,2.999999 -0.18644,0.288074 -0.99313,0.246148 -1.25097,-0.06502 z M 209.15336,34.79117 c -0.75839,-0.344392 -1.1812,-0.866082 -1.1812,-1.457402 0,-0.533777 0.27369,-0.796398 0.83,-0.796398 0.34952,0 0.54044,0.147086 0.88271,0.68 0.70632,1.099728 0.99568,1.678269 0.89151,1.782437 -0.17866,0.178659 -0.75683,0.09389 -1.42302,-0.208637 z m 29.23041,-6.035378 c -0.18238,-0.231867 -0.33162,-0.581219 -0.33162,-0.776339 0,-0.520313 0.63207,-1.37079 1.40412,-1.889302 0.37523,-0.252005 0.67588,-0.581789 0.67588,-0.741355 0,-0.158084 -0.216,-0.559224 -0.48,-0.891426 -0.264,-0.332201 -0.48,-0.648133 -0.48,-0.702072 0,-0.05394 -0.28516,-0.410038 -0.63371,-0.791333 -0.63017,-0.689414 -0.96629,-0.756364 -0.96629,-0.192478 0,0.641821 -0.79712,2.600723 -1.28878,3.167149 -0.58901,0.678588 -1.10053,0.993936 -1.90739,1.175915 -0.6408,0.144523 -0.92875,-0.04486 -1.54659,-1.017181 -0.20968,-0.33 -0.49343,-0.6 -0.63053,-0.6 -0.13712,0 -0.58621,0.27947 -0.998,0.621046 -1.44813,1.20122 -2.78051,1.247282 -3.17434,0.109741 -0.30597,-0.883731 -0.0258,-2.535323 0.55455,-3.268857 0.74912,-0.946898 0.90134,-1.099392 1.31108,-1.31337 0.51626,-0.269608 3.37053,-0.478776 3.64,-0.266747 0.24877,0.195742 0.25429,0.71064 0.0171,1.597398 -0.16136,0.603319 -0.14215,0.763663 0.16326,1.362296 0.40187,0.787749 0.88506,0.896754 1.41175,0.318493 0.51976,-0.570638 0.63628,-0.907545 0.84396,-2.44 0.3121,-2.302982 0.54469,-2.677521 1.56636,-2.522325 0.64916,0.09861 1.70214,1.132117 2.73288,2.682325 1.0455,1.572418 1.36888,1.911159 1.57433,1.649096 0.388,-0.494921 0.56437,-1.458248 0.61714,-3.370701 0.031,-1.122883 0.10037,-2.112883 0.15421,-2.199999 0.24574,-0.397628 1.519,0.0339 1.519,0.514819 0,0.200296 1.16882,2.018028 1.72295,2.679502 0.75342,0.899373 1.51789,2.082685 2.05597,3.182408 0.39798,0.813393 0.4087,0.900779 0.21985,1.790685 -0.19574,0.92235 -0.21117,0.941539 -1.0931,1.359115 -0.81375,0.385288 -0.94907,0.405568 -1.49781,0.224469 -1.07082,-0.353404 -1.41867,-1.109394 -0.51046,-1.109394 0.60001,0 1.32593,-0.437886 1.43299,-0.864394 0.0931,-0.371035 -0.39269,-1.566897 -0.71829,-1.768131 -0.0839,-0.05183 -0.38037,-0.492555 -0.65891,-0.979387 -0.31021,-0.542176 -0.59799,-0.866344 -0.74271,-0.836619 -0.12993,0.02669 -0.37371,0.444531 -0.54171,0.928531 -0.168,0.484 -0.47769,1.24 -0.68819,1.68 -0.21051,0.44 -0.51998,1.088 -0.68773,1.44 -0.69137,1.45079 -1.12366,1.953162 -1.91181,2.221709 -1.12974,0.384944 -1.73467,0.338558 -2.12942,-0.163287 z m -7.46645,-4.555726 c 1.06123,-1.180344 0.94226,-1.786392 -0.23153,-1.179398 -0.51047,0.263969 -1.18903,1.409454 -1.04983,1.772214 0.15727,0.40981 0.5385,0.233434 1.28136,-0.592816 z m -30.80696,3.320965 c -0.56089,-0.333741 -0.73158,-0.344975 -4.75195,-0.312752 -5.24163,0.04201 -4.89334,0.21775 -4.65923,-2.350909 0.0922,-1.012 0.19094,-2.842056 0.21934,-4.066792 0.0448,-1.933326 0.0901,-2.254891 0.34322,-2.44 0.98026,-0.716777 1.5755,0.216826 1.44443,2.265469 -0.29888,4.671496 -0.29781,4.485797 -0.0273,4.710291 0.20205,0.167678 0.87966,0.197699 3.12971,0.138658 1.70805,-0.04482 2.93343,-0.01379 3.02378,0.07657 0.28537,0.285381 0.49981,-0.06236 0.50171,-0.813635 0.002,-0.795437 0.3069,-2.131702 0.61976,-2.716282 0.32496,-0.607214 1.10259,-0.896985 2.32042,-0.864664 1.06328,0.02822 1.13278,0.05548 1.97384,0.774007 0.47945,0.409617 1.01744,1.044641 1.1955,1.411165 l 0.32378,0.666406 -0.41162,0.812283 c -0.2264,0.446755 -0.63794,0.981987 -0.91454,1.189405 -0.27661,0.207417 -0.7016,0.572349 -0.94442,0.810957 -0.48709,0.47864 -1.89654,1.094683 -2.45054,1.071084 -0.19476,-0.0083 -0.61589,-0.17086 -0.93588,-0.361257 z m 2.18842,-1.844407 c 0.77438,-0.351755 1.51338,-1.180563 1.51338,-1.697307 0,-0.564198 -0.84932,-1.201947 -1.60066,-1.201947 -0.88624,0 -1.27934,0.543403 -1.27934,1.768491 0,1.535789 0.16833,1.675069 1.36662,1.130763 z m 7.89651,2.01494 c -0.14126,-0.107596 -0.52147,-0.609306 -0.84491,-1.114911 -0.32342,-0.505606 -0.62472,-0.919283 -0.66952,-0.919283 -0.0448,0 -0.37661,0.150576 -0.73734,0.334613 -0.65077,0.331997 -0.65917,0.332187 -1.07364,0.02433 -0.3039,-0.225734 -0.47376,-0.567595 -0.62339,-1.254613 -0.37945,-1.742337 -0.73344,-4.319507 -0.63025,-4.588424 0.0562,-0.146504 0.29523,-0.314812 0.53112,-0.374019 0.60032,-0.15067 0.96724,0.388803 1.09857,1.615171 0.14123,1.318791 0.2388,1.452607 0.89291,1.224583 0.2866,-0.0999 0.57557,-0.181642 0.64218,-0.181642 0.18058,0 1.22662,1.503763 1.49821,2.153743 0.25515,0.610667 0.63414,0.735931 0.86609,0.286257 0.0794,-0.154 0.23799,-0.892 0.35232,-1.64 0.22088,-1.444894 0.47419,-1.92 1.02371,-1.92 0.91936,0 1.43812,1.145167 0.86823,1.916679 -0.16384,0.221827 -0.40168,0.943321 -0.52853,1.603321 -0.38202,1.987859 -1.04899,3.043885 -1.91678,3.034912 -0.27066,-0.0028 -0.6077,-0.09312 -0.74898,-0.200717 z m 12.24082,-0.07664 c -0.94104,-0.62835 -1.48026,-6.274923 -0.82544,-8.644018 0.35257,-1.27562 1.68249,-3.00553 2.7838,-3.621064 0.74592,-0.416906 1.38826,-0.454858 2.49944,-0.147679 0.45919,0.126941 1.09197,1.613811 1.30416,3.064504 0.11546,0.789259 -0.23889,1.752322 -0.90452,2.458326 -0.61754,0.655002 -1.94559,1.260884 -2.84727,1.298983 -0.49552,0.02094 -0.82181,0.115019 -0.87446,0.252141 -0.0462,0.120308 -0.0193,0.804308 0.0598,1.52 0.19229,1.740451 0.13643,3.368867 -0.1264,3.685572 -0.22159,0.266981 -0.76698,0.334951 -1.06907,0.133235 z m 2.86814,-7.67883 c 1.03722,-0.710024 1.27437,-1.121342 1.16851,-2.026664 -0.0991,-0.847835 -0.27062,-1.045777 -0.90921,-1.049606 -0.4445,-0.0027 -1.06512,0.581352 -1.81572,1.708621 -0.38174,0.573332 -0.43049,0.767726 -0.3347,1.334702 0.11194,0.662515 0.1131,0.663454 0.69557,0.557795 0.32089,-0.05821 0.85889,-0.294392 1.19555,-0.524848 z m -9.79973,5.253651 c -0.40595,-0.405955 -0.42587,-0.845192 -0.0524,-1.155115 0.49885,-0.413937 2.01412,-0.909096 3.08,-1.006486 0.89471,-0.08175 1.12768,-0.04443 1.66757,0.267102 0.76039,0.438781 0.82802,0.599197 0.43183,1.024455 -0.23112,0.248075 -0.59183,0.35316 -1.48242,0.431873 -1.06685,0.09429 -2.3429,0.371008 -3.04461,0.660232 -0.17001,0.07008 -0.38885,-0.01091 -0.6,-0.222061 z"
     id="path12"
     inkscape:connector-curvature="0" />
</svg>
