<?xml version="1.0" encoding="UTF-8" standalone="no"?>
<!-- Created with Inkscape (http://www.inkscape.org/) -->

<svg
   xmlns:dc="http://purl.org/dc/elements/1.1/"
   xmlns:cc="http://creativecommons.org/ns#"
   xmlns:rdf="http://www.w3.org/1999/02/22-rdf-syntax-ns#"
   xmlns:svg="http://www.w3.org/2000/svg"
   xmlns="http://www.w3.org/2000/svg"
   xmlns:sodipodi="http://sodipodi.sourceforge.net/DTD/sodipodi-0.dtd"
   xmlns:inkscape="http://www.inkscape.org/namespaces/inkscape"
   version="1.1"
   id="svg101"
   width="530"
   height="186.39783"
   viewBox="0 0 529.99999 186.39784"
   sodipodi:docname="AM_diagram.svg"
   inkscape:version="0.92.0 r">
  <metadata
     id="metadata107">
    <rdf:RDF>
      <cc:Work
         rdf:about="">
        <dc:format>image/svg+xml</dc:format>
        <dc:type
           rdf:resource="http://purl.org/dc/dcmitype/StillImage" />
        <dc:title></dc:title>
      </cc:Work>
    </rdf:RDF>
  </metadata>
  <defs
     id="defs105" />
  <sodipodi:namedview
     pagecolor="#ffffff"
     bordercolor="#666666"
     borderopacity="1"
     objecttolerance="10"
     gridtolerance="10"
     guidetolerance="10"
     inkscape:pageopacity="0"
     inkscape:pageshadow="2"
     inkscape:window-width="1008"
     inkscape:window-height="594"
     id="namedview103"
     showgrid="false"
     fit-margin-top="20"
     fit-margin-left="15"
     fit-margin-right="15"
     fit-margin-bottom="20"
     inkscape:zoom="1.6603774"
     inkscape:cx="265"
     inkscape:cy="93.198914"
     inkscape:window-x="142"
     inkscape:window-y="0"
     inkscape:window-maximized="0"
     inkscape:current-layer="svg101" />
  <path
     style="fill:#181818;stroke-width:0.21157674"
     d="m 220.325,166.11893 c -0.41986,-0.5059 -0.85617,-2.5868 -1.19436,-5.6961 -0.17969,-1.652 -0.42468,-3.337 -0.54442,-3.7443 -0.11976,-0.4072 -0.26659,-2.121 -0.32632,-3.8083 -0.0909,-2.5658 -0.17483,-3.1617 -0.51324,-3.6412 -0.48404,-0.6858 -0.50718,-1.0825 -0.0996,-1.7086 0.22046,-0.3387 0.33355,-1.4072 0.40783,-3.85383 0.1283,-4.22451 0.67815,-6.9635 1.64235,-8.18089 0.80109,-1.01146 1.4085,-1.44586 2.02174,-1.44586 1.39613,0 1.13858,3.51552 -0.33748,4.60683 -0.61009,0.45105 -0.65641,0.6019 -1.08583,3.53722 -0.18633,1.27346 -0.0911,2.22323 0.22293,2.22323 0.0927,0 0.56746,-0.33324 1.05497,-0.74053 0.48749,-0.40729 1.10916,-0.74052 1.38149,-0.74052 0.79243,0 1.53341,0.36441 1.67997,0.82619 0.18566,0.58496 -0.23188,1.28956 -0.76412,1.28956 -0.25707,0 -1.08498,0.6271 -2.00254,1.5168 -1.55574,1.5085 -1.56426,1.5229 -1.56426,2.6343 0,0.6146 0.0935,1.5744 0.20782,2.1329 0.11432,0.5585 0.31053,2.1579 0.43606,3.5543 0.46877,5.2151 0.8278,8.4914 1.03171,9.4152 0.28033,1.27 0.28712,1.2109 -0.19456,1.6926 -0.49203,0.492 -1.11419,0.5478 -1.46015,0.131 z m 24.41956,-5.5036 c -0.45526,-0.4553 -0.49375,-0.6314 -0.38128,-1.7455 0.12447,-1.233 1.06322,-3.3861 2.12284,-4.8689 1.15246,-1.6128 2.54938,-5.8689 2.91717,-8.888 0.45885,-3.76638 -0.23037,-8.41479 -1.69746,-11.44815 -0.93997,-1.94353 -3.08975,-4.60075 -4.36196,-5.39161 -1.06125,-0.65969 -1.32352,-1.26611 -0.78189,-1.80776 0.85882,-0.8588 2.66693,0.31229 4.94967,3.20587 0.62907,0.79738 1.14374,1.60052 1.14374,1.78476 0,0.18425 0.18036,0.53154 0.4008,0.77179 0.60572,0.66012 1.63699,3.44737 1.80555,4.8799 0.0821,0.6982 0.24323,1.63157 0.35794,2.07417 0.32238,1.24361 0.24311,6.18023 -0.12467,7.76413 -0.17563,0.7564 -0.45742,2.0417 -0.62616,2.8563 -0.33905,1.6364 -0.97984,3.2054 -2.03073,4.972 -1.49498,2.5133 -1.95287,3.6369 -1.92821,4.7315 0.0369,1.6382 -0.74511,2.1297 -1.76535,1.1095 z m -56.50362,-4.4454 c -1.17703,-0.5128 -2.36926,-2.2139 -2.92631,-4.1755 -0.27628,-0.9729 -0.55983,-2.1498 -0.6301,-2.6153 -0.14549,-0.9637 0.18528,-5.54932 0.48075,-6.66462 0.1079,-0.4073 0.35161,-1.44257 0.54156,-2.30065 0.18998,-0.85806 0.61096,-2.28776 0.93553,-3.17711 0.32457,-0.88933 0.65571,-1.96652 0.73585,-2.39372 0.10649,-0.56766 0.43472,-1.03658 1.21938,-1.74205 0.5905,-0.53092 1.18713,-0.96532 1.32582,-0.96532 0.62708,0 1.02482,1.1203 0.56713,1.59741 -0.58543,0.61028 -1.93397,3.8448 -2.33317,5.59621 -0.25197,1.10548 -0.59268,2.39081 -0.75712,2.85629 -0.16445,0.46546 -0.40133,2.08406 -0.52642,3.59676 -0.20693,2.5027 -0.1897,2.8967 0.1912,4.3731 0.68089,2.6393 1.07143,3.2231 2.66463,3.9835 1.46262,0.698 1.63979,1.0122 1.04749,1.8578 -0.38431,0.5487 -1.49935,0.6248 -2.53622,0.1732 z m -12.42084,-0.5416 c -0.6198,-0.4916 -0.75081,-1.0869 -0.31737,-1.442 0.14547,-0.1191 0.93094,-0.281 1.74551,-0.3596 1.81871,-0.1755 2.7014,-0.4347 3.14318,-0.9229 0.3134,-0.3463 0.26159,-0.4962 -0.71028,-2.0549 -0.57658,-0.9247 -1.05436,-1.7765 -1.06172,-1.8929 -0.0196,-0.31 -2.36637,-3.3136 -2.79363,-3.5755 -0.72872,-0.4468 -1.64541,1.3997 -1.64541,3.3145 0,1.074 -0.0965,1.4903 -0.4495,1.9391 -1.50601,1.9145 -5.28633,2.8446 -7.19713,1.7707 -0.81078,-0.4557 -0.8415,-0.4574 -1.47893,-0.081 -1.0007,0.5911 -2.67376,0.964 -4.33735,0.9668 -1.41421,0 -1.54958,-0.039 -2.15885,-0.6623 -0.96548,-0.9876 -1.30438,-1.8706 -1.30438,-3.3989 0,-1.484 0.59211,-3.5367 1.34012,-4.6459 0.64887,-0.96216 2.58332,-2.07883 3.60312,-2.07992 0.89451,-0.002 2.46195,0.76105 2.46195,1.19688 0,0.15043 -0.24763,0.43577 -0.5503,0.63414 -0.44897,0.2941 -0.66499,0.3172 -1.1732,0.1254 -1.08913,-0.41111 -1.93723,0.124 -2.72147,1.717 -1.03935,2.1112 -1.10668,3.5657 -0.20967,4.5285 0.49954,0.5362 1.27867,0.5923 2.75154,0.198 1.48015,-0.3961 2.28882,-1.0827 2.56441,-2.1772 0.25232,-1.0021 1.18598,-1.9921 1.87874,-1.9921 0.95593,0 1.3833,1.3439 0.72584,2.2825 -0.43319,0.6185 -0.22096,1.2281 0.51713,1.4854 0.4482,0.1562 0.87025,0.1096 1.73686,-0.1918 1.3392,-0.4657 2.14894,-1.2717 2.05561,-2.0461 -0.0678,-0.5626 -0.14966,-0.6251 -1.6113,-1.229 -0.50164,-0.2072 -1.00149,-0.5439 -1.11077,-0.7481 -0.83648,-1.563 0.87922,-3.41801 2.22195,-2.40243 0.22588,0.17085 0.66881,0.31064 0.98429,0.31064 0.45315,0 0.62237,-0.13991 0.80587,-0.66629 0.12775,-0.36648 0.23226,-0.89639 0.23226,-1.17759 0,-1.13215 0.73957,-1.66075 1.48105,-1.05857 0.94227,0.76525 3.2291,3.66194 4.1287,5.22984 0.56754,0.9891 1.42949,2.2744 1.91544,2.8562 1.21438,1.454 1.57262,2.2378 1.57262,3.441 0,0.8476 -0.10249,1.1259 -0.58184,1.5803 -0.74795,0.709 -2.74481,1.4035 -4.496,1.5637 -1.20543,0.1103 -1.4471,0.069 -1.95709,-0.3358 z m 49.54875,-0.362 c -1.30418,-1.1783 -1.53084,-1.7488 -1.26533,-3.185 0.2511,-1.3583 1.61875,-3.7921 2.59039,-4.6096 0.45647,-0.3841 0.87336,-0.5257 1.54808,-0.5257 0.50786,0 0.98556,0.1006 1.06155,0.2236 0.29446,0.4764 -0.13589,1.2605 -0.91001,1.658 -0.60022,0.3082 -0.95522,0.7333 -1.47765,1.7695 -0.79292,1.5727 -0.86015,2.3121 -0.26446,2.9078 0.54923,0.5492 1.31535,0.5356 2.47602,-0.044 0.79946,-0.3993 0.96392,-0.4223 1.13071,-0.1587 0.54531,0.8621 -0.19034,1.9097 -1.68429,2.3983 -1.63081,0.5334 -2.22279,0.4532 -3.20501,-0.4341 z m -87.3223,-0.071 c -0.88042,-0.5368 -0.98627,-0.8267 -0.58371,-1.5987 0.17806,-0.3415 0.32433,-0.9333 0.32504,-1.3153 0,-0.3819 0.15539,-1.0484 0.34373,-1.481 0.18832,-0.4327 0.46208,-1.3103 0.60834,-1.9503 0.48622,-2.1277 1.16373,-4.5252 1.88339,-6.66466 0.3914,-1.16368 0.83121,-2.63943 0.97731,-3.27945 0.14611,-0.64001 0.49082,-1.61275 0.76602,-2.16162 0.2752,-0.54888 0.50036,-1.19588 0.50036,-1.43776 0,-0.54986 0.90425,-1.47846 1.43969,-1.47846 0.50961,0 2.3639,2.12832 2.94936,3.38522 1.13337,2.43321 1.32352,2.91546 1.32352,3.35676 0,0.70476 0.54676,1.62964 1.26627,2.14198 0.6867,0.48898 0.81976,1.06901 0.33709,1.46957 -0.35058,0.29092 -0.26825,1.88912 0.20237,3.92792 0.35656,1.5446 0.63102,5.3536 0.44047,6.1128 -0.1084,0.4319 -0.26849,0.5518 -0.7364,0.5518 -0.85568,0 -1.249,-0.5586 -1.26627,-1.7983 -0.0346,-2.4809 -1.19394,-8.3573 -1.64881,-8.3573 -0.0716,0 -0.99859,0.3688 -2.06003,0.8197 -1.06144,0.4509 -2.14164,0.8849 -2.40045,0.9646 -0.66428,0.2045 -1.29695,1.1811 -1.54005,2.3772 -0.48513,2.387 -2.03982,6.8454 -2.38505,6.8397 -0.0261,0 -0.36008,-0.1914 -0.74219,-0.4244 z m 7.04203,-12.2355 c 1.64269,-0.56709 1.69045,-0.60275 1.6191,-1.20835 -0.0936,-0.7946 -1.32266,-3.31545 -1.67199,-3.42933 -0.15236,-0.0497 -0.26447,0.0938 -0.26447,0.33834 0,0.2335 -0.23918,0.7088 -0.53153,1.05622 -0.85953,1.02151 -1.68458,3.85269 -1.11777,3.83568 0.15072,-0.005 1.03572,-0.27118 1.96666,-0.59256 z m 45.59479,10.1217 c -0.83416,-0.8341 -0.59225,-1.26 2.48603,-4.3761 2.7703,-2.8044 2.9521,-3.0418 3.80838,-4.97251 1.32183,-2.98042 1.24003,-4.83469 -0.22638,-5.13121 -1.71502,-0.34678 -1.98159,-0.20762 -3.04261,1.58856 -0.4707,0.79681 -1.13315,0.75771 -1.42809,-0.0843 -0.17701,-0.50534 -0.0988,-0.812 0.50293,-1.97262 0.92072,-1.77583 1.37436,-2.07542 2.87548,-1.899 1.34439,0.15802 3.20931,0.9355 3.77682,1.57454 0.75665,0.85205 0.63895,3.1505 -0.32412,6.32949 -0.29734,0.98155 -2.17059,3.80305 -3.2899,4.95545 -1.3532,1.3931 -1.20291,1.5704 1.25581,1.4817 2.16816,-0.078 2.69532,0.07 3.24744,0.9125 0.25803,0.3938 0.28004,0.6051 0.0983,0.9446 -0.21169,0.3956 -0.43047,0.4377 -2.28948,0.4412 -1.13049,0 -2.95993,0.1431 -4.06542,0.3135 -2.62383,0.4044 -2.88315,0.3963 -3.38522,-0.1058 z m 45.90115,0.1126 c -0.29698,-0.1616 -0.78618,-0.7528 -1.08712,-1.3139 -0.94184,-1.756 -1.28347,-3.333 -1.26602,-5.8442 0.0188,-2.71735 -0.008,-2.74452 -2.04848,-2.08043 -1.64095,0.53403 -2.21051,0.56643 -2.55974,0.14561 -0.74139,-0.89332 0.32248,-1.83842 2.98231,-2.64934 0.77968,-0.2377 1.46249,-0.57777 1.53394,-0.76396 0.0708,-0.18456 0.12877,-1.16347 0.12877,-2.17536 0,-1.32275 0.0926,-1.97196 0.32936,-2.31005 0.71168,-1.01606 1.42043,-0.34319 1.46726,1.39294 0.0558,2.07034 0.0984,2.32902 0.44004,2.67062 0.21158,0.21157 0.70862,0.33248 1.36671,0.33248 0.85544,0 1.1271,0.1002 1.57168,0.57967 0.60452,0.65193 0.64156,0.85257 0.25202,1.36508 -0.21336,0.2807 -0.57371,0.34955 -1.66997,0.3191 -0.76888,-0.0214 -1.47458,0.0378 -1.56821,0.13142 -0.24425,0.24424 -0.17049,4.25322 0.10542,5.73132 0.12839,0.6876 0.48321,1.904 0.78851,2.703 0.7447,1.9488 0.52029,2.4659 -0.76648,1.766 z m -31.8213,-1.4087 c -0.50613,-0.6015 -0.56665,-0.818 -0.46268,-1.655 0.0658,-0.5297 0.1797,-2.1055 0.25313,-3.5019 0.1557,-2.96167 -0.0151,-3.46896 -1.03707,-3.0804 -0.88477,0.3364 -1.48818,0.27162 -1.77691,-0.19073 -0.37984,-0.60823 -0.12222,-1.0249 0.97707,-1.58027 1.40669,-0.71066 3.19791,-1.04085 5.73905,-1.05789 1.81871,-0.0122 2.37502,0.0618 3.06786,0.40824 1.05454,0.52727 1.19463,1.09475 0.42227,1.71061 -0.53027,0.42281 -0.5588,0.51883 -0.34861,1.17335 0.28127,0.87589 0.60739,3.61869 0.65304,5.49199 0.036,1.4794 -0.23404,1.9911 -0.97567,1.8482 -0.54216,-0.1044 -0.90662,-0.969 -0.92079,-2.1842 -0.007,-0.5819 -0.1049,-1.4864 -0.21803,-2.01 -0.11315,-0.5237 -0.31184,-1.6186 -0.44153,-2.4331 -0.12973,-0.81462 -0.3303,-1.6001 -0.44574,-1.74555 -0.23568,-0.29696 -2.01559,-0.35464 -2.44981,-0.0794 -0.26852,0.17024 -0.36179,1.46205 -0.52463,7.26705 -0.0317,1.1286 -0.13168,1.514 -0.48427,1.8667 l -0.44434,0.4443 z m -31.36445,-25.44985 -0.59364,-0.51046 -0.0349,-3.20856 c -0.0309,-2.83593 -0.0797,-3.24132 -0.42052,-3.49051 -0.36786,-0.26898 -0.36923,-0.33393 -0.0297,-1.41172 0.19575,-0.62137 0.51734,-2.38957 0.71464,-3.92933 0.29711,-2.31853 0.31635,-3.06381 0.11203,-4.33732 -0.24892,-1.55161 -0.3811,-4.06956 -0.53253,-10.1444 -0.11289,-4.52834 -0.26673,-4.71812 -1.55141,-1.91374 -1.04201,2.27463 -1.35231,2.58592 -2.13903,2.14581 -0.75718,-0.42358 -0.8013,-1.051 -0.15855,-2.25491 0.29575,-0.55397 0.63595,-1.27649 0.75599,-1.6056 0.12005,-0.3291 0.64243,-1.2971 1.16084,-2.15113 0.51844,-0.85401 1.11991,-2.07796 1.33662,-2.71988 0.21671,-0.64192 0.51972,-1.31857 0.67334,-1.50369 0.15362,-0.18511 0.24194,-0.36367 0.19627,-0.39682 -0.0855,-0.062 -2.52261,-0.50455 -4.2088,-0.76418 -0.52365,-0.0806 -1.42814,-0.39109 -2.00997,-0.68991 -0.58184,-0.29881 -1.39112,-0.64173 -1.79841,-0.76204 -2.58624,-0.76398 -3.15588,-1.14518 -6.06807,-4.06068 -1.70109,-1.70302 -2.0587,-2.38412 -3.44373,-6.55888 -0.21235,-0.64001 -0.47874,-2.02055 -0.59199,-3.06786 -0.2228,-2.06009 -0.70252,-3.49101 -1.1704,-3.49101 -0.16157,0 -1.58427,0.66351 -3.16154,1.47448 -1.57728,0.81096 -3.74564,1.76613 -4.81858,2.1226 -2.2818,0.75809 -2.93299,1.07574 -3.43522,1.67567 -0.41791,0.4992 -1.50731,0.58843 -2.37235,0.19427 -0.4516,-0.20574 -0.5389,-0.38793 -0.5389,-1.12447 0,-0.7983 0.0688,-0.91177 0.74987,-1.23655 0.41243,-0.19667 1.1027,-0.44391 1.53393,-0.54945 2.25357,-0.55149 6.88274,-2.47139 7.97664,-3.30822 0.36293,-0.27764 0.37776,-0.35175 0.10578,-0.52839 -0.17398,-0.11302 -0.64956,-0.15496 -1.05684,-0.0932 -0.40729,0.0617 -3.16837,0.15447 -6.13573,0.20609 -4.29774,0.0748 -5.6104,0.16597 -6.45308,0.44841 -1.38719,0.46492 -10.66688,0.6108 -16.71457,0.26276 -5.70815,-0.3285 -9.01457,-0.33617 -10.79042,-0.025 -3.39214,0.59435 -8.74726,1.07332 -11.21356,1.00294 -1.3964,-0.0399 -5.5894,-0.11874 -9.31776,-0.1753 -5.66925,-0.086 -6.92332,-0.16066 -7.66167,-0.4561 -1.0398,-0.41603 -1.28785,-0.96341 -0.78463,-1.73141 l 0.36082,-0.55071 3.4122,0.17398 c 1.87671,0.0957 5.07251,0.1589 7.10178,0.14049 2.02926,-0.0184 4.02866,0.0573 4.44311,0.16814 0.65925,0.17638 7.6411,-0.037 10.1687,-0.31071 0.40729,-0.0441 1.74022,-0.19478 2.96207,-0.33482 1.27469,-0.14609 4.11529,-0.22738 6.66467,-0.19075 10.36375,0.14894 20.10353,0.0628 20.85022,-0.18441 0.47553,-0.15741 3.02594,-0.28288 6.96195,-0.34247 5.4729,-0.0829 7.06059,-0.22852 6.4288,-0.58974 -0.0974,-0.0557 -0.9864,-0.36394 -1.97552,-0.685 -2.00503,-0.65079 -3.31029,-1.29996 -3.47458,-1.72809 -0.17642,-0.45976 0.0978,-0.91212 0.76068,-1.25492 0.56845,-0.29396 0.71667,-0.2845 1.7807,0.11361 0.63837,0.23884 1.35277,0.43425 1.58758,0.43425 0.2348,0 1.05486,0.33324 1.82234,0.74053 0.7675,0.40727 1.65522,0.74051 1.97271,0.74051 0.31751,0 1.11608,0.24667 1.77459,0.54815 0.88572,0.4055 1.26921,0.48849 1.47358,0.31887 0.15194,-0.1261 0.49401,-1.15824 0.76017,-2.29364 0.26614,-1.13542 0.60788,-2.30242 0.7594,-2.59334 0.15151,-0.29091 0.51074,-1.06793 0.79827,-1.72672 1.0084,-2.3104 2.25426,-4.15348 3.99798,-5.91451 0.96609,-0.97566 2.18233,-2.2905 2.70277,-2.92185 0.76416,-0.92699 1.28571,-1.30474 2.70997,-1.96275 2.41754,-1.1169 4.83691,-1.65498 7.05956,-1.57005 1.8421,0.0704 2.62052,0.20902 6.30868,1.12344 1.22186,0.30294 2.61796,0.61585 3.10247,0.69537 0.48449,0.0795 1.13618,0.31182 1.4482,0.51627 0.312,0.20443 0.86769,0.4826 1.23485,0.61815 0.88483,0.32666 2.44782,1.45061 2.45795,1.76751 0.004,0.13839 0.38168,0.68334 0.83836,1.21099 1.32783,1.53417 4.45908,8.19876 4.45908,9.49071 0,0.38752 0.0871,0.79503 0.19365,0.90558 0.10653,0.11054 0.22554,0.43863 0.26448,0.72909 0.0587,0.43779 0.30597,0.61304 1.44606,1.02491 1.49095,0.53862 1.24436,0.53751 7.61676,0.0342 3.93963,-0.31116 19.2153,0.097 23.59081,0.63036 1.59765,0.19476 8.51886,0.51718 9.20359,0.42876 0.17455,-0.0225 3.1896,-0.0275 6.7001,-0.0111 3.55353,0.0167 7.53933,-0.0809 8.99202,-0.22003 4.41038,-0.42243 5.39898,-0.4127 5.99866,0.059 0.30117,0.23688 0.52478,0.63163 0.52478,0.92637 0,0.31386 0.12254,0.51359 0.31514,0.51359 0.60289,0 3.08747,-1.1116 3.01396,-1.34844 -0.0407,-0.13112 -0.78261,-0.46003 -1.64865,-0.73094 -0.86607,-0.27088 -1.95921,-0.66453 -2.42918,-0.87473 -0.47,-0.21023 -2.02147,-0.68193 -3.44771,-1.04826 -4.34452,-1.11587 -5.32451,-1.61417 -5.32451,-2.70728 0,-0.77031 0.83016,-1.04588 1.95086,-0.64756 0.49799,0.177 1.52429,0.48548 2.28066,0.6855 0.75639,0.20002 1.69746,0.5022 2.09128,0.67153 0.95452,0.41038 2.67923,0.98702 4.99655,1.67053 2.60004,0.76691 5.60678,2.47299 5.60678,3.18139 0,0.62881 -1.87484,1.70565 -4.36595,2.50758 -1.38066,0.44447 -2.79592,0.93548 -3.14502,1.09112 -0.96183,0.42881 -3.06945,1.09216 -4.01996,1.26522 -0.46548,0.0848 -1.52865,0.42592 -2.36259,0.75814 -1.78664,0.71174 -2.20689,0.74262 -2.69947,0.19834 -0.80649,-0.89118 -0.0258,-1.89446 1.88841,-2.42683 0.58183,-0.16181 1.62913,-0.45248 2.32734,-0.64593 0.6982,-0.19347 1.35327,-0.43541 1.45572,-0.53765 0.32216,-0.32162 -1.23474,-0.47433 -2.19623,-0.21543 -0.50382,0.13566 -1.25451,0.18071 -1.6734,0.1004 -0.41788,-0.0801 -4.90136,-0.1765 -9.96333,-0.21425 -9.29848,-0.0693 -15.15763,-0.23742 -15.49264,-0.44447 -0.24753,-0.15299 -10.22773,-0.56905 -13.38759,-0.5581 -3.20113,0.0111 -10.74024,0.27953 -10.91693,0.38872 -0.0731,0.0452 -1.50263,0.13613 -3.17681,0.20218 -2.37744,0.0938 -3.09769,0.19075 -3.28933,0.44288 -0.13494,0.17755 -0.30578,0.91144 -0.37963,1.63088 -0.18822,1.83322 -0.70876,3.83924 -1.38257,5.328 -0.31602,0.6982 -0.77496,1.93721 -1.0199,2.75333 -0.45117,1.50335 -2.21486,4.64498 -3.40239,6.06061 -0.72399,0.86306 -2.92408,2.46511 -4.43177,3.2271 -1.38343,0.69919 -3.97109,1.55563 -5.17764,1.71364 -0.55953,0.0733 -1.06438,0.25586 -1.1219,0.40577 -0.12921,0.33671 0.90771,3.00539 1.4351,3.69343 0.21271,0.27752 0.38675,0.68326 0.38675,0.90165 0,0.2184 0.57177,0.99104 1.27061,1.71698 1.51353,1.57226 1.74934,2.17684 1.06518,2.73085 -0.48501,0.39274 -1.42035,0.50948 -1.80685,0.22553 -0.45423,-0.33372 -2.23108,-2.83302 -2.76952,-3.89557 -0.796,-1.57085 -1.53906,-2.71297 -1.76503,-2.71297 -0.10555,0 -0.35587,0.49363 -0.55626,1.09694 -0.3209,0.96614 -0.33623,1.37613 -0.12861,3.43813 0.12966,1.28765 0.28945,4.66279 0.3551,7.50032 0.0657,2.83753 0.20153,5.31298 0.30196,5.50099 0.24113,0.45145 0.13442,5.05605 -0.15702,6.77471 -0.19042,1.12301 -0.17476,1.46137 0.0915,1.97626 0.20912,0.40441 0.27653,0.89153 0.1931,1.39551 -0.0705,0.42582 -0.1348,1.15505 -0.14293,1.62053 -0.008,0.46546 -0.11703,1.14946 -0.24202,1.52 -0.16857,0.49972 -0.16208,0.75222 0.0251,0.97777 0.4102,0.49425 0.91433,2.45585 0.76078,2.96019 -0.20207,0.66366 -0.72894,1.2067 -1.17076,1.2067 -0.20823,0 -0.64572,-0.22971 -0.97221,-0.51046 z m 2.7916,-40.52762 c 2.7131,-0.26738 4.60155,-0.86601 7.34238,-2.3275 1.13152,-0.60336 1.93115,-1.22178 2.61541,-2.0227 1.08051,-1.26476 1.0993,-1.59923 0.1214,-2.16046 -0.33702,-0.19344 -0.97867,-0.85671 -1.42588,-1.47396 -0.44722,-0.61726 -0.98495,-1.1768 -1.19495,-1.24347 -0.21,-0.0666 -0.53706,-0.37579 -0.7268,-0.68696 -0.18973,-0.3112 -0.97267,-1.19607 -1.73987,-1.96643 -0.76718,-0.77034 -2.18969,-2.22229 -3.16112,-3.22654 -0.9714,-1.00425 -1.86215,-1.82591 -1.97943,-1.82591 -0.39457,0 -1.53796,1.10571 -2.30139,2.22557 -0.4167,0.61123 -1.10648,1.52684 -1.53284,2.03469 -0.42637,0.50785 -1.35006,1.63744 -2.05263,2.5102 -0.70258,0.87275 -1.63136,1.99721 -2.06397,2.49879 -1.14808,1.33115 -2.79906,4.43122 -2.92353,5.48957 -0.0872,0.74127 -0.038,0.92376 0.27488,1.01973 0.20959,0.0643 0.90472,0.36276 1.54475,0.66326 1.91579,0.89954 3.96037,1.00887 9.20359,0.49212 z m -11.53094,-6.40038 c 1.10549,-1.64742 2.91447,-4.06188 4.01995,-5.36544 3.64908,-4.30291 5.501,-6.76209 5.501,-7.30484 0,-0.5481 -8.40183,-8.89236 -9.2195,-9.15631 -0.22398,-0.0723 -0.63096,-0.46079 -0.90437,-0.86328 -0.62916,-0.92616 -1.86659,-1.87965 -2.24897,-1.73293 -0.59774,0.22938 -3.4933,4.86242 -3.49743,5.59605 -0.002,0.19748 -0.33434,1.39205 -0.74052,2.65459 -0.40617,1.26252 -0.7385,2.7131 -0.7385,3.22351 0,0.51038 -0.11223,1.34759 -0.2494,1.86045 -0.20595,0.77006 -0.18466,1.25893 0.12227,2.80643 0.20443,1.03068 0.41963,2.15959 0.47824,2.50869 0.19724,1.17484 1.61405,5.28366 2.04278,5.92415 0.6523,0.97448 2.89697,3.05449 3.17619,2.94319 0.13656,-0.0544 1.15276,-1.44685 2.25826,-3.09426 z m 24.28382,-2.33495 c 0.11875,-0.14546 0.35777,-0.74568 0.53115,-1.3338 0.17337,-0.58813 0.50304,-1.54023 0.73257,-2.11577 1.226,-3.07407 1.57616,-4.85981 1.54476,-7.87759 -0.0198,-1.90462 -0.13258,-2.92277 -0.42175,-3.80838 -1.44582,-4.42807 -4.07769,-9.24522 -4.79027,-8.76773 -0.12624,0.0846 -0.73377,0.91545 -1.35009,1.8464 -0.61632,0.93092 -1.29853,1.95057 -1.51601,2.26587 -0.21749,0.3153 -0.39543,0.62439 -0.39543,0.68686 0,0.13978 -1.96576,2.91057 -2.78358,3.9235 -0.32882,0.4073 -1.21632,1.57218 -1.97219,2.58866 l -1.37432,1.84812 1.84629,2.06604 c 1.01546,1.13632 2.75176,2.98981 3.85845,4.11886 1.1067,1.12905 2.57538,2.67621 3.26376,3.43812 1.04688,1.15873 1.36274,1.3853 1.93117,1.3853 0.37379,0 0.77675,-0.11901 0.89549,-0.26446 z M 176.58123,63.53171 c 1.79035,-2.58892 2.27519,-3.23463 2.78074,-3.70341 0.29366,-0.27229 0.77274,-0.94285 1.06463,-1.49013 0.76581,-1.43585 2.37215,-3.97306 3.57674,-5.64943 l 1.04253,-1.45082 -0.6974,-0.53782 c -0.75274,-0.58051 -1.9699,-1.07125 -2.66956,-1.07638 -0.23959,-0.002 -0.62043,-0.14297 -0.84632,-0.31381 -0.22588,-0.17085 -0.83914,-0.31935 -1.36279,-0.32998 -0.52366,-0.0106 -1.42815,-0.10735 -2.00997,-0.21492 -2.86875,-0.53036 -4.58466,-0.60645 -6.53003,-0.28955 -3.1823,0.51839 -2.92999,0.38422 -2.76695,1.47139 0.184,1.22696 -0.10295,1.57789 -1.29023,1.57789 -1.03662,0 -2.79754,0.68038 -2.97799,1.15064 -0.15197,0.39604 1.4803,2.2753 3.06723,3.53134 0.64264,0.50864 2.83912,2.61305 4.8811,4.67648 2.04197,2.06341 3.77059,3.75338 3.8414,3.75548 0.0708,0.002 0.4744,-0.49604 0.89687,-1.10697 z M 478.28382,79.957 c -0.23385,-0.0996 -0.94444,-2.21779 -1.55321,-4.62988 -0.14685,-0.58184 -0.29852,-1.86717 -0.33704,-2.85628 -0.16935,-4.34727 -0.2726,-4.89615 -1.05593,-5.61365 -0.39505,-0.36186 -0.71827,-0.76117 -0.71827,-0.88736 0,-0.12618 0.33323,-0.62828 0.74051,-1.11576 0.66231,-0.79273 0.74052,-1.01807 0.74052,-2.13343 0,-0.68589 0.17887,-1.93841 0.39748,-2.78338 0.21864,-0.84495 0.56306,-2.48838 0.76541,-3.65204 0.86026,-4.94734 4.40547,-11.10778 6.39226,-11.10778 0.83121,0 0.86837,0.93192 0.0765,1.91736 -0.53262,0.66277 -0.68521,1.07036 -0.73707,1.96871 -0.036,0.62308 -0.21395,1.40796 -0.3955,1.74416 -0.18158,0.3362 -0.38355,0.78137 -0.44885,0.98927 -0.0653,0.20789 -0.4081,0.54113 -0.76183,0.74051 -0.66936,0.3773 -1.08343,1.37738 -1.68318,4.06513 -0.14282,0.64002 -0.39357,1.62685 -0.5572,2.19295 -0.46707,1.61599 -0.45536,1.63747 0.81328,1.49001 0.94008,-0.10925 1.2002,-0.0584 1.69262,0.33089 1.05719,0.83576 0.62164,1.84127 -0.95627,2.20757 -0.39058,0.0907 -0.90211,0.56543 -1.53392,1.42368 -0.91379,1.24128 -0.94795,1.34208 -0.94873,2.79832 0,0.83087 0.19385,2.60557 0.43171,3.94379 0.2379,1.33823 0.63149,3.53938 0.87469,4.89147 0.5276,2.93352 0.39928,4.07373 -0.46607,4.14134 -0.2872,0.0224 -0.63454,-0.007 -0.77188,-0.0656 z M 60.60599,77.92952 c -0.46412,-0.46412 -0.30172,-1.62618 0.30594,-2.18935 0.30791,-0.28537 0.63509,-0.51884 0.72708,-0.51884 0.092,0 0.48271,-0.9759 0.8683,-2.16867 0.77786,-2.40616 0.84209,-3.48003 0.56345,-9.41855 -0.29103,-6.20246 -1.13503,-10.04464 -2.82271,-12.84989 -0.49006,-0.81457 -1.04259,-1.76666 -1.22786,-2.11577 -0.18526,-0.3491 -0.81788,-1.15838 -1.40581,-1.79841 -0.58794,-0.64001 -1.06935,-1.27795 -1.06982,-1.41762 0,-0.13967 -0.15228,-0.33871 -0.33735,-0.44228 -0.55448,-0.31031 -0.29716,-1.19583 0.36992,-1.27303 0.45499,-0.0526 0.84824,0.2208 2.05945,1.432 0.82339,0.82338 1.65447,1.80477 1.84686,2.18083 0.19238,0.37608 0.62211,1.03038 0.95495,1.45401 1.3929,1.77285 2.83156,5.74087 3.1727,8.75073 0.45711,4.0332 0.63236,7.53615 0.5451,10.89619 -0.0838,3.22714 -0.16693,3.93017 -0.64726,5.4748 -0.30312,0.97472 -0.79486,2.18811 -1.09274,2.69643 -0.76317,1.30224 -2.16376,1.95384 -2.8102,1.30742 z M 42.28948,77.53227 c -0.78097,-0.61431 -0.95846,-1.0223 -1.30745,-3.00537 -0.34134,-1.93957 -0.39888,-9.38816 -0.0878,-11.36544 0.1007,-0.64002 0.41703,-2.75396 0.70296,-4.69761 0.28593,-1.94367 0.62133,-3.84786 0.74532,-4.23154 0.12398,-0.38368 0.37144,-1.54644 0.54991,-2.58391 0.45407,-2.63968 0.69043,-3.4384 1.43077,-4.83514 0.43058,-0.81236 0.81304,-1.26216 1.1438,-1.34516 0.99998,-0.25099 1.64276,0.45208 1.1438,1.25107 -0.53288,0.85325 -1.61822,4.57578 -2.20306,7.55606 -0.79474,4.04996 -1.00863,5.43921 -1.38442,8.99202 -0.4674,4.41907 -0.48716,5.27938 -0.19682,8.56879 0.29942,3.3921 0.63975,4.10185 1.9747,4.11809 0.53779,0.006 0.64523,0.0994 0.70348,0.60826 0.10535,0.92028 -0.4707,1.40943 -1.65983,1.40943 -0.68861,0 -1.16926,-0.13583 -1.55538,-0.43955 z M 15.79765,77.41229 c 0.0734,-0.19139 -0.006,-0.50199 -0.17622,-0.69024 -0.4789,-0.52917 -0.77919,-2.84436 -0.53411,-4.1179 0.56081,-2.91426 0.91568,-4.16928 1.53466,-5.42747 0.56914,-1.15688 0.83915,-1.46045 1.73213,-1.94742 1.82165,-0.99338 2.88699,-0.79122 3.9791,0.75509 0.2555,0.36174 0.33519,0.31612 1.10856,-0.63473 0.45829,-0.56348 1.02441,-1.18794 1.25804,-1.38772 0.57314,-0.49011 1.64458,-0.47657 2.09987,0.0265 0.20101,0.22209 0.64421,0.51927 0.98488,0.6604 0.3407,0.14112 0.61945,0.38449 0.61945,0.54083 0,0.15633 0.19042,0.38617 0.42315,0.51072 0.50994,0.2729 1.14492,-0.007 1.49321,-0.65751 0.27097,-0.50629 1.41376,-1.03511 2.23689,-1.03511 0.89889,0 2.33654,0.96917 2.91143,1.96271 1.26525,2.18661 2.09694,6.45565 1.60341,8.23029 -0.17403,0.6258 -0.3443,0.80595 -0.87105,0.92165 -0.53226,0.11691 -0.75574,0.0428 -1.19487,-0.39634 -0.49746,-0.49746 -0.52132,-0.60378 -0.30203,-1.34481 0.29425,-0.99422 0.15515,-2.19377 -0.51617,-4.45101 -0.7441,-2.50197 -1.2267,-2.86433 -2.39954,-1.80173 -0.70771,0.64119 -1.34685,2.51694 -1.58543,4.65287 -0.24345,2.17951 -0.82696,3.22837 -1.79605,3.22837 -0.38916,0 -0.65574,-0.16735 -0.85264,-0.53529 -0.24649,-0.46054 -0.23243,-0.74368 0.10068,-2.02801 0.34229,-1.31968 0.35642,-1.6685 0.12193,-3.00863 -0.37762,-2.1581 -1.14962,-3.30074 -2.00763,-2.97149 -0.94524,0.36271 -2.39889,3.85025 -2.97116,7.12826 -0.35616,2.04015 -0.76215,2.73544 -1.5442,2.64449 -0.84653,-0.0984 -1.01755,-0.84676 -0.68382,-2.9921 0.3108,-1.99788 0.20661,-5.29456 -0.1908,-6.03711 -0.25164,-0.4702 -0.26038,-0.47104 -0.92804,-0.0881 -1.31238,0.75278 -2.10219,3.08682 -2.47716,7.32051 -0.13586,1.53393 -0.34484,2.908 -0.46441,3.05344 -0.32763,0.39858 -0.87253,0.3347 -0.71206,-0.0835 z m 35.09495,-1.7209 c -0.14074,-0.0919 -0.52157,-0.73511 -0.8463,-1.42934 l -0.59041,-1.26228 0.0369,-4.72409 c 0.0328,-4.19369 1e-5,-4.70992 -0.29171,-4.59797 -0.39067,0.14991 -1.79552,0.47008 -2.76653,0.63051 -0.58718,0.097 -0.7302,0.0352 -0.92922,-0.40159 -0.48315,-1.06045 0.39725,-1.69245 3.21004,-2.30434 1.28991,-0.28062 1.36621,-0.47464 1.48103,-3.76575 0.0582,-1.6678 0.056,-3.69884 -0.005,-4.5134 -0.14127,-1.89296 0.17631,-2.93647 0.92146,-3.02765 0.96626,-0.11825 1.08776,0.4664 1.09065,5.24819 l 0.003,4.33628 0.84364,-0.0724 c 0.46398,-0.0398 1.10836,-0.20931 1.43193,-0.37664 0.51309,-0.26531 0.60344,-0.26481 0.7066,0.004 0.20057,0.5227 -0.28537,1.12906 -1.73237,2.16161 -0.76413,0.54528 -1.47629,1.22009 -1.58254,1.49958 -0.10627,0.27949 -0.24212,1.52724 -0.30191,2.77277 -0.0598,1.24555 -0.16111,2.81838 -0.22517,3.4952 -0.12366,1.30666 0.13114,2.98492 0.70611,4.65078 0.25854,0.74907 0.29121,1.1095 0.12464,1.37526 -0.25302,0.40369 -0.89668,0.55463 -1.28473,0.30127 z m 251.79374,-2.72336 c -0.0834,-0.33244 -0.0285,-0.74174 0.13479,-1.00498 0.79101,-1.27484 1.64344,-3.71813 2.84925,-8.16666 l 1.00364,-3.70259 -0.11414,-3.59681 c -0.12498,-3.93796 -0.42265,-5.47574 -1.34143,-6.92992 -2.49218,-3.94449 -3.39036,-5.13694 -4.54411,-6.03291 -1.73342,-1.34612 -1.91606,-2.1649 -0.48297,-2.1649 0.92381,0 3.17423,1.70404 4.1539,3.1454 0.36648,0.53919 0.97847,1.35006 1.35997,1.80192 1.21824,1.44297 2.40322,4.23462 2.40322,5.66173 0,0.40739 0.15541,1.1968 0.34536,1.75425 0.28109,0.82493 0.32501,1.58989 0.23605,4.11055 -0.11801,3.3439 -0.24007,3.92511 -2.00578,9.55009 -1.56732,4.99294 -2.17433,6.13571 -3.25907,6.13571 -0.47039,0 -0.62793,-0.11961 -0.73868,-0.56088 z m -32.83094,0.0954 c -0.43657,-0.43657 -0.28033,-1.0464 0.44355,-1.7311 1.66688,-1.57675 3.63554,-5.33159 4.67715,-8.92079 0.53001,-1.8264 0.54087,-1.96162 0.23739,-2.96208 -0.47573,-1.5683 -0.42381,-1.90712 0.34067,-2.22379 0.6059,-0.25097 0.75685,-0.22271 1.74551,0.3267 3.1824,1.76851 6.59818,5.08644 7.12401,6.91987 0.25559,0.8912 0.25679,2.5318 0.002,3.20101 -0.87114,2.29123 -5.10536,4.19311 -6.35324,2.85367 -0.54162,-0.58134 -0.54347,-0.90592 -0.008,-1.44114 0.29088,-0.29088 0.70525,-0.42314 1.32566,-0.42314 1.1469,0 2.24309,-0.58464 2.70256,-1.44132 0.55542,-1.03566 0.19672,-2.57702 -0.90335,-3.88164 -0.47508,-0.56339 -0.93067,-1.02435 -1.01243,-1.02435 -0.0818,0 -0.59217,-0.39039 -1.13423,-0.86753 -1.00814,-0.8874 -1.61294,-0.97374 -1.61294,-0.23023 0,0.57351 -1.31043,4.50911 -2.17892,6.54384 -1.5436,3.61649 -4.33652,6.36102 -5.39552,5.30202 z m 18.25574,-1.05356 c -0.79138,-0.25597 -1.36541,-1.1147 -2.0253,-3.02987 -0.47711,-1.38469 -0.50932,-1.7632 -0.4954,-5.81836 0.0141,-4.14732 0.20954,-6.01752 0.92786,-8.88623 0.102,-0.40729 0.24844,-1.16896 0.32541,-1.69262 0.077,-0.52365 0.41088,-1.82278 0.74199,-2.88697 0.33107,-1.06419 0.66856,-2.39712 0.74993,-2.96208 0.17557,-1.2188 0.59401,-1.76771 1.34755,-1.76771 0.56345,0 1.19661,0.69154 0.96956,1.05894 -0.22921,0.37089 -1.64225,5.60985 -1.91142,7.08678 -0.14843,0.81456 -0.3714,2.00468 -0.49543,2.64469 -1.01012,5.21208 -1.14414,8.72307 -0.43423,11.37615 0.72756,2.71904 1.21167,3.28715 2.10908,2.47502 0.57681,-0.52202 1.13282,-0.24758 0.98542,0.48642 -0.23103,1.15037 -0.57284,1.75376 -1.10906,1.95762 -0.63572,0.24171 -0.82392,0.23704 -1.68596,-0.0418 z m 103.21014,-0.16503 c -0.81508,-0.49698 -1.20348,-1.20307 -1.52789,-2.77753 -0.17981,-0.87261 -0.18198,-1.34349 -0.008,-1.7984 0.22643,-0.59322 0.2465,-0.6009 0.5368,-0.20556 0.16585,0.22589 0.30454,0.74954 0.30819,1.16367 0.005,0.55975 0.14586,0.85443 0.54917,1.14835 0.45775,0.33362 0.58573,0.35015 0.81923,0.1058 0.50266,-0.52603 2.18142,-5.21431 2.64167,-7.37742 0.13616,-0.64002 0.39572,-1.68732 0.57674,-2.32734 0.35247,-1.24604 0.4889,-5.12086 0.23947,-6.80181 -0.0802,-0.54089 -0.25607,-2.11185 -0.39072,-3.49102 -0.13465,-1.37916 -0.36599,-3.03122 -0.5141,-3.67123 -0.35044,-1.51428 -1.43003,-3.95839 -2.46637,-5.58372 -1.58731,-2.48945 -1.75919,-3.12047 -0.93596,-3.43635 0.7867,-0.3019 2.33173,1.64717 4.13842,5.22062 0.99117,1.96046 1.16934,2.6012 1.46836,5.28048 0.11038,0.98912 0.30738,2.32205 0.43777,2.96208 0.36667,1.79957 0.31708,8.08197 -0.0768,9.73252 -0.18052,0.7564 -0.38828,1.74029 -0.4617,2.18644 -0.21909,1.3313 -1.99456,6.46443 -2.76531,7.99494 -0.61125,1.21381 -1.35953,2.09226 -1.77963,2.08928 -0.0614,0 -0.41643,-0.18665 -0.78897,-0.4138 z m 116.41528,-0.84437 c -0.47137,-0.91153 -0.40642,-1.24223 0.25903,-1.31881 0.85967,-0.0989 2.13481,-2.74151 3.75875,-7.78949 1.58617,-4.9306 1.87734,-14.18896 0.52567,-16.71462 -0.11638,-0.21739 -0.21156,-0.5931 -0.21156,-0.8349 0,-1.00929 -1.49604,-3.54957 -2.98469,-5.06806 -1.48214,-1.5118 -1.62043,-1.81607 -1.00254,-2.20583 0.52221,-0.32941 1.32359,-0.002 2.42778,0.99152 1.53206,1.37868 2.50833,2.9513 3.32549,5.35699 0.9965,2.93354 1.28375,5.26028 1.12414,9.10494 -0.2518,6.06513 -0.66023,8.09487 -2.69435,13.38992 -1.82847,4.75968 -2.40964,5.71257 -3.48424,5.71257 -0.58408,0 -0.78186,-0.11833 -1.04348,-0.62423 z m -177.962,-1.39218 c -0.15638,-0.62308 0.4423,-3.01638 1.40092,-5.60035 0.36693,-0.98912 0.84187,-2.41726 1.05543,-3.17365 0.21354,-0.75638 0.78018,-2.66057 1.25921,-4.23153 0.47906,-1.57096 1.01726,-3.47394 1.19605,-4.22886 0.19058,-0.80471 0.70357,-1.98642 1.23995,-2.85628 0.50316,-0.81604 0.98016,-1.79638 1.06,-2.17851 0.1893,-0.90633 0.9959,-1.45769 1.74315,-1.19159 0.57274,0.20395 0.7132,0.58765 1.96881,5.3774 0.25929,0.98912 0.74467,2.71777 1.07863,3.84145 0.33396,1.12368 0.60718,2.18289 0.60718,2.35382 0,0.74984 3.19139,7.2542 4.15231,8.46279 0.83429,1.04934 0.85398,1.18669 0.27544,1.92217 -0.73378,0.93287 -1.84109,0.65092 -3.21173,-0.81777 -0.49885,-0.53455 -0.57408,-0.76182 -0.47664,-1.43993 0.12079,-0.84057 -0.2139,-2.08741 -0.94505,-3.52053 -0.68831,-1.34925 -0.85195,-1.43857 -2.25635,-1.23162 -0.68232,0.10054 -2.19266,0.24956 -3.35633,0.33116 l -2.11578,0.14835 -0.66184,1.90419 c -1.21293,3.48957 -2.22035,6.12358 -2.44611,6.39561 -0.12279,0.14798 -0.49544,0.26906 -0.82809,0.26906 -0.47059,0 -0.6346,-0.11879 -0.73916,-0.53538 z m 10.57829,-10.44912 c 0.21673,-0.1799 0.17571,-0.58979 -0.20803,-2.07789 -0.26291,-1.01958 -0.67594,-2.41613 -0.91785,-3.10346 -0.24195,-0.68733 -0.43987,-1.46661 -0.43987,-1.73174 0,-0.26512 -0.0976,-0.73884 -0.21695,-1.05268 -0.20754,-0.54587 -0.23447,-0.5548 -0.62012,-0.2058 -0.35989,0.3257 -0.67395,1.19474 -2.14943,5.94744 -0.54174,1.74502 -0.51699,1.95318 0.25541,2.14769 1.07109,0.26973 4.00114,0.32184 4.29684,0.0764 z m 13.08335,9.71696 c -0.44351,-0.71014 -0.66399,-3.01994 -0.45836,-4.8015 0.65688,-5.69121 1.02358,-7.21721 1.90997,-7.94792 0.79892,-0.65859 1.47619,-0.47109 2.67488,0.74051 0.60444,0.61093 1.28311,1.34766 1.50817,1.63716 l 0.40922,0.52638 1.20236,-1.13713 1.20236,-1.13715 1.62869,0.13583 1.6287,0.13583 0.78788,-1.0553 c 0.87053,-1.16606 1.39377,-1.38969 2.76909,-1.18346 2.1139,0.317 2.99981,2.64978 2.9503,7.7688 -0.0322,3.3366 -0.196,3.98868 -1.0016,3.98868 -0.95308,0 -1.06844,-0.4367 -0.99992,-3.78574 0.0361,-1.7652 -0.0288,-3.32711 -0.15055,-3.62499 -0.11767,-0.28787 -0.26838,-0.77888 -0.33488,-1.09113 -0.13069,-0.6136 -0.71926,-0.91443 -1.37925,-0.70495 -0.72252,0.22933 -1.46502,2.12893 -1.69657,4.34055 -0.11573,1.10548 -0.21208,2.50833 -0.21411,3.11742 -0.003,0.934 -0.10327,1.21563 -0.63981,1.79839 l -0.63614,0.69097 -0.44393,-0.52689 c -0.41401,-0.49136 -0.43416,-0.684 -0.29896,-2.85628 0.29626,-4.76097 -0.83599,-6.06617 -2.75473,-3.17546 -0.8453,1.2735 -1.03288,1.96768 -1.26849,4.69443 -0.21799,2.52272 -0.98636,3.60958 -1.86522,2.63843 -0.30916,-0.34161 -0.33538,-0.76529 -0.21338,-3.44981 0.15119,-3.32759 -0.0588,-4.83621 -0.80509,-5.78504 -0.48394,-0.61521 -1.15623,-0.69766 -1.3139,-0.16113 -0.44558,1.51628 -0.78881,4.13189 -0.90201,6.87388 -0.0733,1.7759 -0.22719,3.34792 -0.34193,3.49338 -0.302,0.38285 -0.65174,0.32531 -0.95279,-0.15676 z m 72.55642,0.21124 c -1.19729,-0.28321 -2.19017,-1.26031 -2.53302,-2.49276 -0.53726,-1.93127 0.0884,-2.33805 1.12186,-0.72945 0.86609,1.34801 1.87548,1.74833 3.06071,1.21387 1.70094,-0.76701 1.77933,-2.43852 0.21154,-4.50993 -0.45037,-0.59503 -0.97247,-1.37897 -1.16025,-1.7421 -0.27195,-0.5259 -1.51924,-2.29275 -1.92466,-2.72642 -0.13658,-0.14605 -1.13944,0.88132 -1.13944,1.16727 0,0.14521 -0.38084,0.58998 -0.8463,0.98842 -0.46546,0.39842 -0.8463,0.87626 -0.8463,1.06187 0,0.18561 -0.0816,0.38792 -0.18134,0.44955 -0.0998,0.0616 -0.23441,0.62637 -0.29928,1.25496 -0.20625,1.99814 -1.1077,3.21024 -3.23573,4.35082 -1.56626,0.83946 -3.79103,0.42273 -5.43116,-1.01733 -0.86541,-0.75984 -1.32546,-0.82558 -1.64175,-0.23461 -0.29319,0.54785 -1.23937,1.02748 -2.48662,1.26049 -0.83067,0.15518 -1.26604,0.0977 -2.58892,-0.34175 -2.08701,-0.6933 -2.33542,-0.87143 -3.05229,-2.18857 -0.57034,-1.04791 -0.59837,-1.21519 -0.47392,-2.82895 0.25264,-3.27614 1.69873,-6.33617 3.49782,-7.4016 0.79378,-0.47008 2.34824,-0.95502 3.1129,-0.97114 0.60032,-0.0127 1.15549,0.63987 1.01184,1.18925 -0.1178,0.45036 -0.88095,0.91718 -1.49943,0.91718 -0.6516,0 -2.30466,1.2584 -2.79192,2.12535 -0.51712,0.92009 -1.28284,3.72149 -1.287,4.70851 -0.009,2.0766 3.17489,3.50387 5.12597,2.29804 0.88474,-0.5468 1.15459,-0.93713 1.93702,-2.8016 0.65336,-1.55692 1.5709,-2.35792 2.15022,-1.87711 0.24986,0.20735 0.28391,0.63081 0.17591,2.18641 -0.15219,2.19174 -0.0381,2.41345 1.51507,2.94431 1.23807,0.42316 2.3363,0.0468 3.21605,-1.10207 0.85013,-1.11016 0.87929,-1.6466 0.1058,-1.94461 -1.38871,-0.53501 -2.09336,-1.03615 -2.53543,-1.80315 -0.92273,-1.60092 -0.41862,-3.25303 0.99259,-3.25303 0.44348,0 0.8904,0.25226 1.53393,0.86584 1.38887,1.3242 1.51428,1.35496 2.39011,0.58596 0.9924,-0.87134 1.37429,-1.64223 1.37429,-2.77423 0,-1.08746 0.27631,-1.42903 1.15308,-1.42539 0.66948,0.003 0.78415,0.12432 3.98869,4.22885 1.48246,1.8988 2.94583,4.27233 3.24924,5.27015 0.15598,0.51306 0.28363,1.39347 0.28363,1.95648 0,0.88197 -0.10761,1.14275 -0.7775,1.88426 -0.42764,0.47333 -1.04178,0.99726 -1.36475,1.16429 -0.62823,0.32485 -1.9639,0.36508 -3.11126,0.0937 z m -131.764,-0.74443 -0.55951,-0.5595 0.079,-4.05642 0.079,-4.0564 -0.52894,0.0105 c -0.29091,0.006 -0.96796,0.0735 -1.50455,0.15061 -1.21279,0.17415 -1.79846,-0.16441 -1.59422,-0.92163 0.18885,-0.70027 0.98584,-1.22349 2.53125,-1.66179 l 1.30805,-0.37097 v -3.29797 c 0,-3.44832 0.11285,-3.90767 0.89868,-3.65826 0.65844,0.20899 0.87775,1.00265 1.03218,3.73525 0.0959,1.69682 0.23149,2.59498 0.40161,2.66026 0.14128,0.0542 1.08684,-0.057 2.10125,-0.24705 1.73517,-0.32514 1.86836,-0.32392 2.24924,0.0208 0.85689,0.77546 0.3548,1.19088 -2.66049,2.20123 -1.60897,0.5391 -1.70899,0.60954 -1.96791,1.3858 -0.17797,0.53353 -0.2883,2.25588 -0.31737,4.95442 -0.0442,4.10147 -0.0486,4.13716 -0.51613,4.2036 -0.29244,0.0416 -0.68405,-0.1455 -1.03106,-0.49249 z m 144.74006,-0.19177 c -0.8261,-0.36873 -1.64692,-1.25589 -2.30183,-2.48789 -1.31715,-2.47775 -1.51834,-4.66625 -0.85233,-9.27211 0.69871,-4.83215 0.51635,-4.21551 2.75598,-9.31966 1.39255,-3.17367 3.72479,-6.12543 4.83975,-6.12543 1.10199,0 0.88856,1.07699 -0.62367,3.14726 -1.20795,1.65371 -1.71009,2.55599 -2.3414,4.2072 -0.29985,0.78429 -0.86409,2.14004 -1.25384,3.01279 -1.6567,3.70984 -2.14035,8.20694 -1.22301,11.37246 0.64535,2.22702 1.21852,3.13311 2.30496,3.6438 1.02401,0.48135 1.22249,1.14464 0.53003,1.77131 -0.46234,0.41841 -0.97821,0.43254 -1.83464,0.0503 z m 46.84314,-0.13591 c -1.24629,-0.74841 -1.46712,-1.32406 -1.26749,-3.30434 0.20584,-2.04169 0.85671,-3.3781 2.52546,-5.18527 1.67106,-1.80965 3.28762,-2.14304 3.84672,-0.79331 0.31473,0.75989 0.27036,0.81424 -1.01287,1.24016 -0.88534,0.29385 -1.1311,0.524 -2.09735,1.96412 -0.86757,1.29307 -1.12533,1.87817 -1.24327,2.82203 -0.22552,1.80496 -0.0713,1.8875 2.71627,1.45336 1.23844,-0.1929 2.39779,-0.29466 2.57634,-0.22614 0.62813,0.24104 0.37839,1.15416 -0.46882,1.71412 -0.65361,0.43201 -1.14754,0.54628 -2.80338,0.64852 -1.81169,0.11185 -2.08512,0.079 -2.77161,-0.33325 z m -28.00081,-1.09232 c -0.18115,-0.25863 -0.32936,-0.9038 -0.32936,-1.4337 0,-1.3213 0.38352,-4.30474 0.73438,-5.71283 0.15948,-0.64003 0.32132,-1.78254 0.35964,-2.53892 l 0.0696,-1.37525 -0.74053,0.0734 c -0.40727,0.0404 -1.15922,0.21557 -1.671,0.38926 -1.25296,0.42529 -1.97744,0.089 -1.88323,-0.87425 0.0541,-0.55273 0.23177,-0.72702 1.2269,-1.20343 0.64002,-0.3064 1.87774,-0.71077 2.75049,-0.89859 2.97663,-0.64061 7.08675,-1.38331 7.61677,-1.37634 0.29091,0.004 1.58322,-0.0566 2.87179,-0.13436 l 2.34288,-0.14129 0.36353,0.55482 c 0.19994,0.30516 0.30594,0.64802 0.23553,0.76193 -0.29877,0.48344 -1.46743,0.84593 -3.41585,1.05953 -2.18815,0.23989 -7.16418,1.02368 -7.62735,1.20141 -0.1938,0.0744 -0.27153,0.66223 -0.27153,2.05357 0,1.20296 -0.16973,2.71328 -0.44325,3.94444 -0.2482,1.11703 -0.44236,2.73765 -0.44122,3.68242 0.002,0.92807 -0.0884,1.85636 -0.19892,2.06287 -0.28068,0.52446 -1.15298,0.47113 -1.54932,-0.0947 z m -80.24907,-0.63102 c -1.01398,-0.82312 -1.33236,-1.41881 -1.93786,-3.62583 -0.68227,-2.48694 -0.52495,-5.71686 0.50655,-10.40066 0.43568,-1.97823 0.88794,-4.07284 1.00504,-4.65469 0.11711,-0.58184 0.42742,-1.77196 0.68958,-2.64471 0.26215,-0.87275 0.58082,-1.97104 0.70815,-2.44065 0.371,-1.36833 1.589,-2.30919 2.04154,-1.57699 0.15564,0.25182 -0.36792,2.78841 -1.06939,5.18132 -0.27292,0.93093 -0.59649,2.26437 -0.71905,2.96319 -0.12254,0.69884 -0.32164,1.60333 -0.44243,2.00999 -0.681,2.29304 -1.09833,5.13804 -1.11712,7.61563 -0.0192,2.53791 0.008,2.71051 0.6737,4.27412 0.61809,1.45164 0.82031,1.71339 1.85381,2.39939 1.52132,1.00979 1.47743,1.44834 -0.1536,1.53462 -1.06562,0.0564 -1.26344,-0.005 -2.03892,-0.63473 z m 67.93029,0.48757 c -1.2301,-0.15221 -1.97464,-0.68934 -1.97464,-1.42456 0,-0.46992 0.47963,-1.07368 3.6348,-4.57526 2.09276,-2.32256 4.29915,-7.53903 3.88562,-9.18663 -0.15254,-0.60775 -0.71272,-0.90773 -1.77261,-0.94925 -0.77619,-0.0304 -1.58341,0.32934 -3.05021,1.35945 -0.49509,0.34769 -1.08905,-0.0237 -1.17487,-0.73459 -0.0827,-0.68521 0.79145,-1.73407 1.94201,-2.33007 1.68308,-0.87185 4.72399,-0.4677 5.51029,0.73236 0.45574,0.69552 0.67047,3.46207 0.35055,4.51628 -0.2342,0.77167 -0.5829,1.56177 -1.99981,4.5313 -0.30539,0.64002 -1.27303,2.0614 -2.15034,3.15863 -0.87728,1.09722 -1.56452,2.14453 -1.52718,2.32735 0.0897,0.43923 2.42429,0.39778 3.70776,-0.0658 1.05627,-0.38155 1.53021,-0.26578 1.53021,0.37378 0,0.64323 -0.51234,1.30302 -1.20815,1.55585 -1.65261,0.6005 -4.11581,0.90766 -5.70343,0.7112 z m -130.19129,-0.8695 c -0.33132,-0.61904 -0.11628,-1.35811 0.47211,-1.62276 0.69543,-0.31279 4.92148,-0.35038 5.50422,-0.0489 0.92822,0.48013 1.2204,0.85163 0.99746,1.26822 -0.24844,0.46423 -0.78803,0.55933 -4.15242,0.73185 -2.49414,0.1279 -2.58271,0.1176 -2.82137,-0.32836 z M 465.4312,65.15681 c -0.45291,-0.45289 -0.51422,-0.83765 -0.6356,-3.98855 l -0.10532,-2.73387 -0.80093,-0.82461 -0.80092,-0.82463 0.59365,-0.51435 c 1.15332,-0.99931 2.28968,-0.49185 2.77901,1.24102 0.17588,0.62285 0.36151,2.49849 0.42742,4.31936 0.10984,3.03318 0.0929,3.23109 -0.29394,3.43812 -0.55717,0.2982 -0.77363,0.27727 -1.16337,-0.11249 z m 35.50589,-0.48853 c -0.82034,-0.50702 -1.40075,-1.31285 -2.18039,-3.02709 l -0.60755,-1.33584 0.17381,-2.96208 c 0.0956,-1.62913 0.27958,-3.66941 0.40886,-4.53393 0.12926,-0.86451 0.19134,-1.68568 0.13796,-1.82481 -0.14448,-0.37651 -1.39486,-0.51231 -2.30974,-0.25085 -0.70755,0.20221 -0.85592,0.17763 -1.23872,-0.20518 -0.51623,-0.51622 -0.3862,-1.18542 0.32027,-1.64833 0.25695,-0.16836 1.11312,-0.39759 1.9026,-0.50938 0.78948,-0.11181 1.54874,-0.29734 1.68726,-0.41231 0.13853,-0.11496 0.37915,-0.66867 0.53469,-1.23047 0.58411,-2.10954 0.70982,-2.40549 1.11368,-2.62163 0.48253,-0.25825 1.15731,-0.096 1.31555,0.3164 0.0606,0.15781 -0.0766,0.88672 -0.30474,1.61978 -0.22814,0.73307 -0.36914,1.4519 -0.31329,1.59743 0.0984,0.25632 1.8803,0.54688 3.59626,0.58641 0.45526,0.0105 0.85941,0.11428 0.89813,0.23065 0.0387,0.11637 -0.2575,0.56862 -0.65823,1.005 -0.69875,0.7608 -0.7852,0.79341 -2.10475,0.79341 -2.20469,0 -2.34341,0.12507 -2.66143,2.39977 -0.80879,5.78508 -0.40199,8.42746 1.62166,10.53381 0.93491,0.97312 0.91858,1.74173 -0.0389,1.82855 -0.3498,0.0317 -0.93024,-0.12509 -1.29304,-0.34931 z M 385.68192,62.57979 c -0.0912,-0.32555 -0.28265,-2.82429 -0.466,-6.08282 -0.0327,-0.58184 -0.0672,-1.07592 -0.0765,-1.09794 -0.009,-0.022 -0.44743,0.10662 -0.97354,0.28588 -0.8707,0.29669 -1.00364,0.29509 -1.48104,-0.0177 -0.93913,-0.61533 -0.52497,-1.43929 1.08031,-2.14922 l 1.14582,-0.50672 -0.053,-4.71024 c -0.0291,-2.59062 0.0249,-4.92445 0.11999,-5.18627 0.18826,-0.51823 0.81384,-0.63341 1.14915,-0.21157 0.11562,0.14545 0.32462,2.12104 0.46445,4.3902 0.13983,2.26916 0.27111,4.31617 0.29174,4.54891 0.0433,0.48836 0.43358,0.50586 2.77293,0.12431 0.94697,-0.15444 1.5386,-0.16644 1.67116,-0.0339 0.30888,0.30888 -0.39807,1.25267 -1.1904,1.58919 -0.37249,0.15821 -1.07911,0.45326 -1.57022,0.65568 -1.58936,0.65506 -1.6607,0.83472 -1.36998,3.44938 0.32274,2.9024 0.32238,4.74586 0,5.06921 -0.39255,0.39256 -1.39288,0.31568 -1.51393,-0.11637 z m -70.44049,-1.06088 c -0.46944,-0.51874 -0.45811,-0.94274 0.0417,-1.56038 0.38822,-0.47977 0.51556,-0.49948 3.22654,-0.49948 2.73983,0 2.8243,0.0135 2.8881,0.46172 0.0362,0.25395 -0.0818,0.74698 -0.26208,1.09564 -0.31968,0.61821 -0.36582,0.63355 -1.86414,0.61994 -0.84496,-0.008 -2.01585,0.0529 -2.60195,0.13458 -0.89549,0.12482 -1.12353,0.0846 -1.42814,-0.25202 z M 148.9251,38.0602 c -0.61491,-0.66317 -0.85435,-1.96139 -0.65541,-3.55368 0.12347,-0.98818 0.0707,-1.2547 -0.41084,-2.07646 -0.64447,-1.09973 -1.1266,-1.57322 -1.70392,-1.67345 -0.65336,-0.11342 -0.96411,0.70478 -1.92983,5.08108 -0.32595,1.4771 -0.47199,1.79897 -0.88786,1.95708 -0.86138,0.32751 -1.2532,0.21821 -1.51909,-0.42376 -0.20787,-0.50182 -0.19443,-0.72803 0.0741,-1.24724 0.18039,-0.34884 0.39009,-1.04888 0.466,-1.55566 0.44541,-2.97364 1.58703,-5.67527 2.57028,-6.08254 0.85092,-0.35247 2.1465,-0.004 3.09997,0.83271 0.39203,0.3442 0.80319,0.62583 0.9137,0.62583 0.11049,0 0.52422,-0.49985 0.91941,-1.11078 0.39516,-0.61092 1.134,-1.51541 1.64187,-2.00998 1.28434,-1.25072 2.10165,-1.25104 3.21073,-0.002 0.78137,0.88048 0.81105,0.89283 1.52482,0.63473 1.1384,-0.41165 2.10156,-0.31793 2.76913,0.26945 0.70301,0.61857 1.62639,2.50883 1.62929,3.33539 0.002,0.32375 0.12993,0.895 0.28623,1.26946 0.15629,0.37446 0.35515,1.05992 0.44194,1.52324 0.25585,1.3662 0.45963,1.6198 1.07596,1.33898 1.01233,-0.46124 3.268,-4.8117 3.27319,-6.31294 0.004,-1.06419 0.50415,-1.6868 1.35586,-1.6868 0.91103,0 1.2008,0.61482 1.03714,2.20055 -0.088,0.85298 -0.0198,1.44848 0.24556,2.14335 0.3871,1.0136 1.27406,2.21497 1.63529,2.21497 0.11752,0 0.5375,0.15367 0.93329,0.34147 0.55505,0.2634 0.71959,0.47142 0.71959,0.90979 0,0.31256 -0.11425,0.68256 -0.25389,0.8222 -0.6813,0.68129 -3.23946,-0.0842 -4.38478,-1.31199 -0.28211,-0.30241 -0.58303,-0.54986 -0.66871,-0.54986 -0.0857,0 -0.55968,0.65456 -1.05336,1.45459 -1.0038,1.62671 -2.10369,2.35379 -3.56073,2.35379 -1.22,0 -2.06255,-1.19574 -2.92523,-4.15141 -0.36949,-1.26592 -0.72729,-2.56759 -0.7951,-2.89257 -0.13629,-0.6532 -0.64821,-0.96619 -1.00187,-0.61255 -0.12539,0.12541 -0.35681,1.47213 -0.51426,2.99272 -0.40767,3.93741 -1.09965,5.12697 -2.37954,4.09057 -0.66175,-0.53586 -0.87072,-3.1511 -0.36936,-4.6225 0.19027,-0.55846 0.34596,-1.34955 0.34596,-1.758 0,-0.74757 -0.76222,-2.14631 -1.16367,-2.13544 -0.32192,0.009 -1.91509,2.92617 -2.2194,4.06423 -0.20822,0.77871 -0.21373,1.20746 -0.0245,1.90419 0.25235,0.92904 0.21531,3.27205 -0.0587,3.71545 -0.26865,0.43468 -1.15005,0.27452 -1.68922,-0.30694 z m 47.83894,-1.03683 c -0.31883,-0.29563 -0.57959,-0.70027 -0.5795,-0.89921 0,-0.72984 0.645,-3.583 1.19506,-5.28916 0.38852,-1.20511 0.49712,-1.82209 0.34713,-1.97207 -0.34002,-0.34003 -2.68537,-0.34282 -3.09544,-0.004 -0.20236,0.16735 -0.35111,0.59768 -0.35111,1.01573 0,1.03805 -1.57739,3.96227 -2.55498,4.73654 -1.77956,1.40944 -3.90548,1.84145 -5.59264,1.13652 -0.66871,-0.27941 -1.03198,-0.29442 -2.3003,-0.0951 -0.8284,0.13021 -1.90872,0.3818 -2.40074,0.5591 -0.49201,0.1773 -1.08045,0.26337 -1.30764,0.19126 -0.2272,-0.0721 -1.05865,-0.7579 -1.84768,-1.52397 l -1.4346,-1.39285 -0.60379,0.71481 c -0.33209,0.39316 -0.76104,0.97677 -0.95324,1.29693 -0.56957,0.94883 -1.77914,1.03161 -2.06177,0.14112 -0.13906,-0.43811 0.59924,-1.90184 1.52019,-3.01391 0.59888,-0.72318 0.60699,-0.93156 0.0953,-2.44807 -0.21996,-0.65196 -0.51953,-1.70904 -0.66567,-2.34906 -0.14615,-0.64003 -0.46166,-1.56927 -0.70114,-2.06501 -0.40131,-0.83077 -0.40856,-0.92819 -0.0927,-1.244 0.86328,-0.86328 1.9387,0.27567 2.84027,3.00804 0.83915,2.54314 0.84003,2.54336 2.64687,0.62922 1.41369,-1.49761 2.3701,-2.23246 2.90562,-2.23246 0.37891,0 0.87192,0.65838 0.87192,1.16439 0,0.30267 -0.22922,0.66373 -0.58183,0.91648 -0.96638,0.69273 -3.43813,3.13938 -3.43813,3.40324 0,0.13562 0.45063,0.72836 1.0014,1.31717 l 1.0014,1.07057 1.21803,-0.1378 c 1.58722,-0.17958 2.45063,-0.49103 2.57359,-0.92837 0.0545,-0.19393 0.16432,-0.86528 0.24401,-1.49194 0.14477,-1.13851 1.13672,-3.82863 1.63297,-4.42848 0.39047,-0.47198 1.86239,-1.08688 2.61444,-1.09218 0.36249,-0.003 0.90995,0.19268 1.21657,0.43386 0.6563,0.51625 0.74546,1.62008 0.26092,3.23009 -0.28279,0.93962 -1.59915,3.15245 -2.03591,3.42239 -0.11355,0.0702 -0.20646,0.26479 -0.20646,0.43247 0,0.61559 1.17869,0.33314 2.28471,-0.54749 1.36932,-1.09026 1.81712,-2.2697 1.61467,-4.2528 -0.12379,-1.21259 -0.0913,-1.38973 0.32364,-1.76434 0.57624,-0.52028 2.29689,-0.6228 4.98057,-0.29677 2.44739,0.29731 3.06868,0.60377 3.06536,1.51204 -0.003,0.79222 -0.63828,3.341 -1.25131,5.01951 -0.5421,1.48436 -0.56852,2.51212 -0.0686,2.66661 0.7295,0.22542 1.00599,0.45107 1.06914,0.87253 0.10751,0.71736 -0.50685,1.11556 -1.72115,1.11556 -0.88249,0 -1.21151,-0.10543 -1.67749,-0.53751 z m -8.40802,-8.26638 c 0,-0.40354 -0.55958,-0.37179 -0.71788,0.0408 -0.0706,0.18407 -0.12525,0.54111 -0.12138,0.79341 0.007,0.45725 0.008,0.45712 0.42314,-0.0408 0.22887,-0.27471 0.41612,-0.63174 0.41612,-0.79341 z m -22.13727,-6.94598 c -0.82216,-0.3578 -1.00035,-0.63405 -0.83468,-1.2941 C 165.49524,20.07393 165.63782,20 166.38096,20 c 0.72827,0 1.00151,0.13432 1.70582,0.83864 0.46124,0.46126 0.77766,0.9373 0.70314,1.05789 -0.19166,0.31009 -1.78378,0.25714 -2.57117,-0.0855 z"
     id="path123"
     inkscape:connector-curvature="0" />
</svg>
