<?xml version="1.0" encoding="UTF-8" standalone="no"?>
<!-- Created with Inkscape (http://www.inkscape.org/) -->

<svg
   xmlns:dc="http://purl.org/dc/elements/1.1/"
   xmlns:cc="http://creativecommons.org/ns#"
   xmlns:rdf="http://www.w3.org/1999/02/22-rdf-syntax-ns#"
   xmlns:svg="http://www.w3.org/2000/svg"
   xmlns="http://www.w3.org/2000/svg"
   xmlns:sodipodi="http://sodipodi.sourceforge.net/DTD/sodipodi-0.dtd"
   xmlns:inkscape="http://www.inkscape.org/namespaces/inkscape"
   version="1.1"
   id="svg265"
   width="660.00006"
   height="261.42902"
   viewBox="0 0 660.00006 261.42902"
   sodipodi:docname="CB_spectrum.svg"
   inkscape:version="0.92.0 r">
  <metadata
     id="metadata271">
    <rdf:RDF>
      <cc:Work
         rdf:about="">
        <dc:format>image/svg+xml</dc:format>
        <dc:type
           rdf:resource="http://purl.org/dc/dcmitype/StillImage" />
        <dc:title></dc:title>
      </cc:Work>
    </rdf:RDF>
  </metadata>
  <defs
     id="defs269" />
  <sodipodi:namedview
     pagecolor="#ffffff"
     bordercolor="#666666"
     borderopacity="1"
     objecttolerance="10"
     gridtolerance="10"
     guidetolerance="10"
     inkscape:pageopacity="0"
     inkscape:pageshadow="2"
     inkscape:window-width="640"
     inkscape:window-height="480"
     id="namedview267"
     showgrid="false"
     fit-margin-top="20"
     fit-margin-left="15"
     fit-margin-right="15"
     fit-margin-bottom="20"
     inkscape:zoom="0.7757575"
     inkscape:cx="330.00003"
     inkscape:cy="130.71451"
     inkscape:window-x="0"
     inkscape:window-y="0"
     inkscape:window-maximized="0"
     inkscape:current-layer="svg265" />
  <path
     style="fill:#171717;stroke-width:0.17976104"
     d="m 97.776923,241.09945 c -0.69476,-0.7678 -1.04219,-2.0616 -1.21538,-4.5258 -0.0943,-1.342 -0.21413,-2.7635 -0.26626,-3.159 -0.0522,-0.3955 -0.0812,-2.7818 -0.0645,-5.303 0.0539,-8.152 -0.009,-7.347 0.65156,-8.3459 0.32134,-0.4859 0.58424,-0.9575 0.58424,-1.048 0,-0.1832 0.96468,-1.6188 1.50903,-2.2455 0.42665,-0.4913 1.199907,-0.5278 1.608907,-0.076 0.551,0.6089 0.26818,2.0082 -0.40585,2.0082 -0.442077,0 -0.580297,0.213 -1.165867,1.7976 -0.27405,0.7415 -0.57528,1.5542 -0.66942,1.806 -0.22607,0.6048 -0.12545,4.1677 0.12001,4.249 0.10332,0.035 0.37278,-0.1099 0.59875,-0.3204 0.55447,-0.5166 3.073597,-1.7781 3.552647,-1.7792 0.21149,0 0.56558,0.1459 0.78681,0.325 0.62291,0.5044 0.3415,0.9894 -0.89647,1.545 -0.92851,0.4166 -1.75722,1.0779 -3.915467,3.1243 -0.42444,0.4024 -0.4308,0.4525 -0.30467,2.3987 0.0709,1.0933 0.14838,2.4858 0.17223,3.0943 0.0238,0.6086 0.14474,1.6324 0.26859,2.2751 0.12385,0.6426 0.23748,1.5325 0.25249,1.9773 0.015,0.4449 0.082,0.8967 0.14887,1.0039 0.0669,0.1074 0.0306,0.4915 -0.0806,0.854 -0.22834,0.7439 -0.77405,0.8919 -1.26963,0.3442 z m 265.624357,-2.4622 c -0.32422,-0.2271 -0.39118,-0.5409 -0.52733,-2.4718 -0.23557,-3.3405 -0.14379,-9.4821 0.17281,-11.564 0.14992,-0.986 0.39805,-2.6016 0.55143,-3.5903 0.21036,-1.3562 0.29974,-3.8505 0.36396,-10.1565 0.0468,-4.5974 0.0197,-8.6015 -0.0602,-8.8982 l -0.14527,-0.5392 -3.85193,0.011 c -2.39309,0 -5.04334,0.1287 -6.99775,0.3305 -4.63392,0.4784 -6.78023,0.6734 -8.08925,0.7349 -4.54978,0.2136 -8.92483,0.4889 -10.06662,0.6335 -0.74152,0.093 -1.75267,0.1456 -2.24701,0.1151 -1.4285,-0.088 -6.81142,0.2323 -11.41482,0.6796 -4.62247,0.4491 -5.99203,0.4943 -16.11308,0.5321 -7.99493,0.029 -9.78519,0.081 -10.03207,0.2859 -0.52994,0.4398 -0.7632,1.1614 -1.7167,5.3113 -0.0908,0.3954 -0.16874,1.0891 -0.17304,1.5416 -0.008,0.9104 -0.53228,1.6042 -1.2108,1.6042 -0.71515,0 -0.84793,-0.4198 -0.64181,-2.0297 0.10384,-0.8116 0.27416,-1.7587 0.37836,-2.1048 0.43876,-1.4571 1.06932,-4.2296 0.99082,-4.3567 -0.0467,-0.076 -0.92765,-0.1373 -1.95765,-0.1373 -1.74844,0 -1.88927,0.027 -2.12191,0.4045 -0.54953,0.8919 -0.80666,4.3768 -0.39642,5.3732 0.1373,0.3335 -0.8579,1.5925 -1.25879,1.5925 -0.13255,0 -0.45635,-0.1853 -0.71957,-0.4116 l -0.47857,-0.4117 0.20603,-1.4309 c 0.4722,-3.2793 0.56406,-3.9781 0.60166,-4.5767 l 0.0395,-0.6292 -2.06725,0.016 c -1.13699,0.011 -4.00868,0.1148 -6.38152,0.2363 -2.4776,0.1268 -5.95959,0.1758 -8.17912,0.1151 -7.68898,-0.2103 -13.50618,-0.3204 -19.41419,-0.3674 -7.77271,-0.062 -16.31507,-0.232 -18.62979,-0.3712 -1.31282,-0.079 -1.85886,-0.05 -1.95366,0.1029 -0.0723,0.117 -0.16588,1.1556 -0.20784,2.3078 -0.0799,2.193 -0.21665,2.5445 -0.99002,2.5445 -0.67469,0 -0.93963,-0.8127 -0.94936,-2.912 -0.007,-1.5572 -0.0653,-1.9971 -0.27875,-2.112 -0.27869,-0.1501 -2.27846,-0.3044 -6.02897,-0.4654 -1.19026,-0.052 -2.60588,-0.1758 -3.14581,-0.2771 -0.53997,-0.1008 -1.38618,-0.2616 -1.88052,-0.3562 -0.49435,-0.095 -1.56245,-0.2449 -2.37359,-0.3342 -0.81113,-0.089 -1.70384,-0.2124 -1.98383,-0.2739 -0.27999,-0.062 -4.35417,-0.2199 -9.05374,-0.3519 -5.44443,-0.1531 -8.67954,-0.3124 -8.91635,-0.4391 -0.49795,-0.2665 -12.26861,-0.3137 -14.79316,-0.06 -1.03811,0.105 -2.73685,0.1994 -3.77498,0.2107 -1.03812,0.011 -2.29195,0.05 -2.78629,0.087 -0.49434,0.037 -2.33125,0.1233 -4.08202,0.1921 -2.67546,0.1052 -3.22777,0.1744 -3.4625,0.4337 -0.25106,0.2775 -0.7268,1.6555 -1.46048,4.2305 -0.17933,0.6293 -0.20489,1.0458 -0.0854,1.3893 0.35627,1.0233 -0.12413,2.4442 -1.18512,3.5053 l -0.62625,0.6262 -0.43633,-0.4099 c -0.31257,-0.2936 -0.43634,-0.6024 -0.43634,-1.0888 0,-0.8742 0.63199,-3.2526 1.59243,-5.9926 0.31059,-0.8861 0.5647,-1.8012 0.5647,-2.0337 0,-0.3679 -0.0751,-0.4154 -0.57876,-0.3663 -0.70954,0.069 -1.34834,0.9642 -1.83617,2.573 -0.17988,0.5931 -0.59992,1.756 -0.93343,2.5842 -0.3335,0.828 -0.60638,1.7259 -0.60638,1.9954 0,0.8158 -0.38393,1.6848 -0.97145,2.199 -0.30609,0.2678 -0.62849,0.4903 -0.71647,0.4943 -0.25114,0.012 -0.63696,-0.5839 -0.64325,-0.9926 -0.006,-0.3815 1.10451,-3.7827 1.75689,-5.3815 1.10014,-2.6963 1.18572,-2.9901 0.91985,-3.1569 -0.14062,-0.088 -0.37702,-0.1279 -0.52532,-0.088 -0.29018,0.078 -8.72779,0.3744 -10.06663,0.3535 -0.44491,-0.011 -1.21339,-0.034 -1.70774,-0.06 -0.49433,-0.026 -2.15262,-0.045 -3.68509,-0.043 -1.53246,0 -3.15031,-0.028 -3.59522,-0.069 -1.44546,-0.132 -1.6638,-0.1327 -5.21307,-0.019 -1.92793,0.062 -5.48138,0.1579 -7.89652,0.2137 -2.41516,0.056 -4.44032,0.1317 -4.50035,0.1687 -0.0843,0.053 -6.30746,0.096 -10.52265,0.075 -0.29662,0 -2.80428,0.053 -5.5726,0.1215 -2.76832,0.068 -5.85494,0.134 -6.859137,0.146 -1.00421,0.012 -1.87274,0.068 -1.93009,0.1244 -0.0573,0.057 -0.14515,0.9462 -0.19511,1.9774 -0.0989,2.0404 -0.24356,2.3243 -1.18451,2.3243 -0.79027,0 -0.92033,-0.3434 -0.86801,-2.2918 0.0261,-0.9736 -0.006,-1.8569 -0.0713,-1.9626 -0.17417,-0.2818 -1.44137,-0.4093 -5.1195,-0.5148 -1.80327,-0.052 -3.50061,-0.1821 -3.77189,-0.2896 -0.3354,-0.133 -4.58122,-0.2081 -13.27057,-0.2352 -7.02754,-0.022 -12.86597,-0.094 -12.97426,-0.1615 -0.10831,-0.067 -0.40497,-0.027 -0.65927,0.089 -0.33794,0.1541 -0.64383,0.1594 -1.13697,0.02 -0.99171,-0.2802 -3.00362,0.093 -3.37733,0.6269 -0.25969,0.3708 -0.37807,0.392 -1.66461,0.2973 -0.76177,-0.056 -1.61138,-0.1731 -1.888,-0.2603 -0.27663,-0.087 -1.71628,-0.2942 -3.19924,-0.4603 -2.57891,-0.2888 -2.74332,-0.2876 -3.77788,0.025 -0.98566,0.2984 -1.12445,0.3028 -1.56444,0.049 -0.95613,-0.5497 -6.50022,-0.7251 -10.81907,-0.3422 -1.4336,0.1271 -4.14351,0.2559 -6.022,0.2864 -1.8785,0.03 -4.62885,0.156 -6.11188,0.2793 -2.85026,0.2369 -4.40405,0.242 -4.63085,0.015 -0.25654,-0.2565 0.085,-1.309 0.47698,-1.4695 0.50056,-0.2052 5.71601,-0.5536 9.54671,-0.6379 3.54557,-0.078 5.02602,-0.1746 6.65116,-0.4342 1.55814,-0.2489 6.3695,-0.2691 7.76331,-0.033 1.5623,0.2651 3.07172,0.087 3.37444,-0.3984 0.20575,-0.3298 0.36693,-1.3208 0.52927,-3.254 0.0249,-0.2967 0.18787,-0.8387 0.36214,-1.2044 0.18222,-0.3825 0.2558,-0.7639 0.17318,-0.8975 -0.24671,-0.3992 -0.0617,-2.5956 0.3026,-3.5923 0.19138,-0.5235 0.34797,-1.1459 0.34797,-1.383 0,-0.2371 0.078,-0.7236 0.17323,-1.0811 0.62123,-2.3309 0.78766,-3.1457 0.90383,-4.425 0.0718,-0.791 0.18177,-1.5595 0.2443,-1.7078 0.0626,-0.1483 0.19116,-1.6044 0.28587,-3.2356 0.17089,-2.9439 0.25107,-3.3242 1.13692,-5.3929 0.14816,-0.346 0.32665,-1.2763 0.39662,-2.0673 0.0699,-0.7909 0.24742,-1.9234 0.39434,-2.5166 0.14693,-0.5933 0.33471,-1.3617 0.41728,-1.7077 0.0826,-0.3461 0.40844,-1.3168 0.72415,-2.1572 0.31569,-0.8404 0.72787,-2.1346 0.91596,-2.8761 0.18809,-0.7415 0.4553,-1.591 0.59379,-1.8875 0.30682,-0.6572 0.91407,-2.7022 1.201,-4.0447 0.11624,-0.5438 0.39312,-1.3122 0.61529,-1.7077 0.22218,-0.3954 0.45544,-1.0664 0.51834,-1.4909 0.0629,-0.4245 0.18496,-0.9098 0.27126,-1.0786 0.0863,-0.1686 0.34219,-0.9942 0.56866,-1.8346 0.22648,-0.8405 0.60813,-1.9729 0.8481,-2.5167 0.23998,-0.5438 0.54913,-1.4185 0.68701,-1.9439 0.13787,-0.5255 0.48437,-1.4264 0.77001,-2.0021 0.28563,-0.5757 0.5738,-1.3692 0.6404,-1.7634 0.0666,-0.3941 0.41298,-1.1516 0.76973,-1.6831 0.35674,-0.5315 0.66938,-1.2091 0.69476,-1.5057 0.0546,-0.6386 0.6947,-2.9905 0.93948,-3.452 0.0942,-0.1776 0.38779,-0.9701 0.65238,-1.761 0.53774,-1.6075 0.92277,-2.0473 3.0628,-3.4991 3.30891,-2.2445 5.52884,-2.7637 8.53864,-1.9969 2.16728,0.5522 3.79429,1.0337 4.84905,1.435 0.5413,0.2059 1.11406,0.3331 1.27281,0.2828 0.73892,-0.2345 5.33309,1.7826 7.68149,3.3728 0.7169,0.4853 2.19372,1.0139 3.90312,1.397 0.95964,0.2151 4.49158,0.2121 5.39283,0 0.39547,-0.096 1.42523,-0.2556 2.28835,-0.3566 1.65934,-0.1944 3.289117,-0.5661 3.888797,-0.8869 0.19827,-0.1062 0.62871,-0.1915 0.95653,-0.1897 0.94171,0.011 4.57424,-0.8813 6.35189,-1.5503 0.89175,-0.3356 1.71095,-0.6101 1.82044,-0.6101 0.10949,0 0.7955,-0.2351 1.52446,-0.5226 0.72897,-0.2875 1.77031,-0.6189 2.31408,-0.7364 0.54377,-0.1176 1.23136,-0.3186 1.52797,-0.4465 1.72341,-0.7435 2.46374,-0.9909 2.96337,-0.9909 0.3079,0 0.77827,-0.1102 1.04523,-0.2447 0.60426,-0.3046 4.70963,-0.5211 5.6825,-0.2997 0.38668,0.088 0.92943,0.3273 1.20611,0.532 0.27668,0.2045 0.64789,0.3744 0.82491,0.3775 0.17703,0 0.47889,0.1246 0.67081,0.2697 0.19192,0.1452 0.46181,0.264 0.59977,0.264 0.24415,0 1.58535,0.8718 2.24896,1.4618 0.18148,0.1613 0.65112,0.3447 1.04362,0.4075 0.39252,0.063 1.04677,0.3554 1.45391,0.6503 0.40715,0.295 0.86578,0.5363 1.01919,0.5363 0.3643,0 3.62186,3.3936 3.62186,3.773 0,0.1605 0.20223,0.5658 0.44941,0.9007 0.24717,0.3351 0.4494,0.6961 0.4494,0.8021 0,0.1062 0.19764,0.4839 0.4392,0.8394 0.24154,0.3554 0.60603,1.1226 0.80995,1.7046 0.20392,0.5819 0.53208,1.2773 0.72925,1.5451 0.19717,0.2679 0.35849,0.617 0.35849,0.7759 0,0.1588 0.0946,0.4654 0.21015,0.6813 0.30528,0.5704 1.13128,3.6581 1.78815,6.6843 0.1073,0.4944 0.26916,1.2224 0.35968,1.6179 0.53591,2.3414 1.03571,5.7463 1.42489,9.7071 0.10686,1.0875 0.28191,2.22 0.38899,2.5167 0.10709,0.2966 0.21518,0.9033 0.2402,1.3482 0.0617,1.0982 0.82499,5.6872 1.08152,6.5028 0.18799,0.5978 0.64364,3.3231 0.77615,4.6423 0.0744,0.7416 0.23133,1.5251 0.34853,1.7413 0.11721,0.2162 0.3005,1.0251 0.40731,1.7976 0.10683,0.7725 0.3406,1.6472 0.51951,1.9439 0.17892,0.2966 0.42652,1.1459 0.55022,1.8874 0.1237,0.7416 0.33473,1.7899 0.46896,2.3298 0.13422,0.5398 0.24405,1.7537 0.24405,2.6975 0,0.9439 0.0884,1.9987 0.1964,2.3442 0.31071,0.9934 0.70728,6.4129 0.58671,8.0184 -0.075,0.9989 -0.0455,1.4979 0.0937,1.5839 0.26116,0.1614 2.16078,0.1441 6.28858,-0.058 2.58332,-0.1261 3.36104,-0.2217 3.57912,-0.4398 0.28759,-0.2876 0.57777,-0.9896 1.05193,-2.545 0.1507,-0.4943 0.46074,-1.3842 0.68897,-1.9773 0.2282,-0.5933 0.46978,-1.5236 0.53681,-2.0674 0.12814,-1.0396 0.4974,-1.8015 0.86849,-1.7918 0.40689,0.01 0.88622,0.5061 0.89585,0.9262 0.0175,0.7646 -0.61029,3.2675 -1.20819,4.8165 -0.84301,2.184 -0.84238,2.1814 -0.61663,2.4535 0.11268,0.1358 0.3992,0.2469 0.63672,0.2469 0.43982,0 0.63911,-0.313 0.97311,-1.528 0.6788,-2.4695 0.8884,-3.1576 1.15145,-3.7801 0.35324,-0.836 1.17456,-4.4144 1.17456,-5.1175 0,-0.5201 0.48375,-1.0792 0.93366,-1.0792 0.47463,0 1.2576,0.7311 1.1302,1.0553 -0.0633,0.1611 -0.18864,0.6974 -0.27847,1.1917 -0.0899,0.4944 -0.41127,1.7483 -0.71428,2.7863 -0.30301,1.0381 -0.66184,2.3325 -0.79741,2.8763 -0.27977,1.1221 -0.68682,2.2706 -0.86955,2.4533 -0.0677,0.068 -0.12319,0.3243 -0.12319,0.5701 v 0.4469 l 2.11218,-0.1202 c 1.16171,-0.066 3.18402,-0.1719 4.49403,-0.235 2.59537,-0.125 2.56791,-0.1093 2.1096,-1.2061 -0.2453,-0.5872 -0.24201,-0.8338 0.0335,-2.4938 0.33174,-1.9991 0.61719,-2.4596 1.52921,-2.4673 0.60752,0 0.98119,0.3656 1.24018,1.2301 0.17292,0.5771 0.13355,0.9554 -0.26314,2.5285 -0.25656,1.0175 -0.41652,1.9307 -0.35547,2.0294 0.0727,0.1176 1.23714,0.1303 3.36883,0.037 1.79181,-0.079 3.5814,-0.1268 3.97686,-0.1072 0.39548,0.02 3.06493,0.067 5.93212,0.1057 2.8672,0.039 6.10289,0.1593 7.19044,0.2681 1.08755,0.1089 4.60638,0.2768 7.81962,0.3733 5.39391,0.1618 7.43079,0.3079 9.79696,0.7026 3.55453,0.5931 4.86,0.7504 7.63985,0.9207 1.7302,0.1059 3.51441,0.2365 3.96494,0.2901 1.2002,0.1428 1.25382,0.013 1.0399,-2.5219 -0.1684,-1.9948 -0.1577,-2.1586 0.16155,-2.4779 0.27955,-0.2795 0.43024,-0.3083 0.82666,-0.1575 0.65177,0.2478 0.83787,0.8292 0.83787,2.6175 0,1.7906 0.17484,2.3414 0.79224,2.4964 1.07951,0.2709 13.45145,0.5735 30.03678,0.7347 3.55927,0.035 8.69637,0.1223 11.4158,0.195 5.72384,0.153 5.5791,0.1893 5.21375,-1.3067 -0.11566,-0.4736 -0.22997,-1.1086 -0.25404,-1.4112 -0.024,-0.3025 -0.10512,-0.6494 -0.18015,-0.7707 -0.0836,-0.1353 0.12186,-0.5065 0.53099,-0.9593 l 0.6673,-0.7387 -0.11607,-1.2491 c -0.0638,-0.687 -0.19571,-1.3978 -0.29299,-1.5796 -0.24333,-0.4546 -0.22214,-1.3156 0.0387,-1.5766 0.11864,-0.1186 0.42603,-0.2157 0.6831,-0.2157 0.58031,0 0.89879,0.3026 0.89879,0.8538 0,0.2323 0.13275,0.679 0.29499,0.9928 0.19514,0.3774 0.32019,1.1805 0.36949,2.3729 0.0659,1.596 0.0218,1.9466 -0.38488,3.06 -0.87403,2.3928 -0.72934,2.5364 2.27669,2.2593 1.21406,-0.1119 2.97586,-0.2209 3.91511,-0.2423 l 1.70773,-0.039 0.48885,-1.9774 c 1.10057,-4.4516 1.7369,-6.3815 2.10428,-6.3815 0.16557,0 0.39467,-0.094 0.50912,-0.2081 0.3176,-0.3176 0.76262,0.1449 0.76262,0.7926 0,0.2972 -0.20805,1.1165 -0.46232,1.8205 -0.88044,2.4378 -1.58903,5.6598 -1.30938,5.9539 0.2795,0.2939 4.00247,0.3467 4.22897,0.06 0.2012,-0.2548 0.84407,-2.3347 1.04636,-3.3855 0.0666,-0.346 0.32605,-1.2358 0.57649,-1.9773 0.25046,-0.7415 0.51883,-1.6314 0.59638,-1.9775 0.2064,-0.9209 0.78959,-2.4413 1.06267,-2.7703 0.33828,-0.4076 0.85968,-0.3527 1.17166,0.1234 0.24057,0.3671 0.23292,0.5095 -0.0749,1.3931 -0.37397,1.0736 -0.87288,2.7137 -1.33843,4.3997 -0.16379,0.5932 -0.4166,1.4546 -0.56176,1.9143 -0.14518,0.4597 -0.31495,1.2079 -0.37729,1.6627 l -0.11336,0.8271 1.23782,0.033 c 0.68079,0.018 1.39959,0.019 1.59734,0 0.19773,-0.016 1.93691,-0.077 3.86485,-0.1363 1.92794,-0.059 3.57017,-0.1701 3.64941,-0.2463 0.0792,-0.077 0.0123,-0.4679 -0.14871,-0.8703 -0.22134,-0.5532 -0.2455,-0.8199 -0.0991,-1.0934 0.10651,-0.1991 0.19536,-1.1155 0.19743,-2.0365 0.005,-2.2401 0.80897,-6.9672 1.69098,-9.9436 0.57896,-1.9537 0.88927,-3.3543 1.35418,-6.1119 0.21669,-1.2853 0.4687,-2.5853 0.56001,-2.8889 0.0914,-0.3037 0.16647,-0.789 0.16704,-1.0786 0,-0.2896 0.0862,-0.8335 0.19042,-1.2087 0.10416,-0.3751 0.29549,-1.2649 0.42514,-1.9773 0.21084,-1.1584 0.97978,-4.217 1.81699,-7.2274 0.16496,-0.5932 0.398,-1.6082 0.51788,-2.2555 0.11988,-0.6472 0.29287,-1.2944 0.38445,-1.4381 0.25006,-0.3921 0.61308,-1.4763 0.61613,-1.84 0.002,-0.1763 0.20495,-0.7196 0.45213,-1.2074 0.24716,-0.4878 0.44939,-0.9797 0.44939,-1.0932 0,-0.1136 0.40447,-1.045 0.89881,-2.0699 0.49434,-1.0249 0.8988,-1.9131 0.8988,-1.9739 0,-0.061 0.14949,-0.3252 0.33219,-0.5876 0.18269,-0.2625 0.37685,-0.639 0.43143,-0.8367 0.32357,-1.1721 1.06663,-2.863 1.46734,-3.3393 0.256,-0.3042 0.46545,-0.7634 0.46545,-1.0203 0,-0.2569 0.2726,-1.0394 0.60576,-1.7388 0.33314,-0.6995 0.71466,-1.6358 0.84777,-2.0807 0.32337,-1.0808 2.11851,-4.586 3.16434,-6.1787 0.46275,-0.7048 1.618,-2.0646 2.56722,-3.0218 1.68287,-1.6971 1.74591,-1.7401 2.52842,-1.7254 0.44139,0.011 1.46169,-0.074 2.26735,-0.1846 1.02097,-0.1393 1.64735,-0.1436 2.06724,-0.015 0.33134,0.1019 1.04734,0.2513 1.59113,0.3318 1.54739,0.2291 2.71627,0.6118 3.59522,1.1771 0.4449,0.286 1.4965,0.8773 2.3369,1.3139 0.84038,0.4365 1.73019,0.9236 1.97736,1.0826 0.24718,0.1589 0.81342,0.4714 1.25834,0.6945 0.4449,0.223 0.93026,0.4833 1.07856,0.5784 0.48299,0.3097 2.52293,1.2727 2.69582,1.2727 0.0926,0 1.00778,0.4009 2.03369,0.8908 1.02591,0.49 2.42399,1.0644 3.10684,1.2765 0.68289,0.2121 1.76738,0.6133 2.41003,0.8915 1.13181,0.49 2.8509,1.0603 5.16242,1.7126 1.36021,0.3838 1.77783,0.1945 1.58053,-0.7166 -0.16184,-0.7475 -0.36736,-7.9347 -0.33544,-11.7312 0.0267,-3.1699 0.31747,-7.9296 0.60185,-9.8503 0.47405,-3.2015 0.55185,-4.0052 0.63263,-6.5337 0.0485,-1.5175 0.12445,-2.8177 0.16886,-2.8895 0.0444,-0.071 0.12984,-1.265 0.18988,-2.6516 l 0.10913,-2.5208 -0.45973,-0.3012 c -0.62249,-0.4079 -0.57792,-0.8791 0.13456,-1.4226 0.45407,-0.3463 0.64696,-0.68 0.8177,-1.4144 0.27849,-1.1981 0.47733,-4.2566 0.31801,-4.8915 -0.14252,-0.5677 -0.35359,-0.5929 -0.96186,-0.1144 -0.67222,0.5288 -1.93793,0.4851 -2.79363,-0.097 -0.55781,-0.3791 -0.67089,-0.5608 -0.67089,-1.0786 0,-0.702396 0.20066,-0.768396 1.21844,-0.400296 0.56576,0.204596 0.64205,0.188596 0.9565,-0.1996 0.43735,-0.5402 0.45143,-1.766 0.0271,-2.362 -0.17302,-0.243 -0.55726,-0.9256 -0.85386,-1.5169 -0.2966,-0.5912 -0.63562,-1.1031 -0.75334,-1.1375 -0.12253,-0.036 -0.30413,0.2691 -0.42466,0.7129 -0.33371,1.2288 -0.57218,1.8207 -0.9281,2.3034 -0.18224,0.2472 -0.59348,0.8102 -0.91388,1.2511 -1.04233,1.434496 -3.15785,1.794096 -3.33217,0.5664 -0.0452,-0.3178 0.14909,-0.6186 0.76399,-1.1831 0.45347,-0.4163 0.8245,-0.9115 0.8245,-1.1003 0,-0.4314 -1.3502,-1.9303 -1.64912,-1.8306 -0.12203,0.041 -0.27764,0.3112 -0.34583,0.601 -0.0681,0.2899 -0.27024,1.172 -0.44901,1.9602 -0.27624,1.2181 -0.43423,1.545 -1.05273,2.177796 -0.62644,0.641 -0.86803,0.7619 -1.73604,0.8686 -1.59784,0.1963 -2.904,-0.197 -3.31902,-0.9995 -0.14618,-0.282696 -0.31152,-0.513996 -0.3674,-0.513996 -0.0559,0 -0.41879,0.2715 -0.80642,0.603196 -0.60893,0.5213 -0.87464,0.6176 -1.95367,0.7081 -1.07126,0.09 -1.35861,0.047 -2.02021,-0.2986 -0.92769,-0.4849 -1.39982,-1.315396 -1.4002,-2.463196 0,-0.6333 0.15617,-1.0799 0.68337,-1.9518 0.95077,-1.5725 1.32093,-1.906 2.59137,-2.335 1.42729,-0.482 1.72176,-0.4717 1.96833,0.069 0.22364,0.4909 -0.0339,0.994 -0.50886,0.994 -0.57025,0 -1.64433,0.7396 -2.12164,1.4608 -0.6534,0.9873 -0.82887,2.2675 -0.35803,2.6118 0.5198,0.3801 1.26142,0.2849 1.8879,-0.2422 0.55531,-0.4673 0.57133,-0.5194 0.46699,-1.5179 -0.10059,-0.9627 -0.0756,-1.0596 0.36175,-1.4036 0.25843,-0.2033 0.53701,-0.3696 0.61912,-0.3696 0.36198,0 1.4104,1.1543 1.92457,2.119 0.56593,1.0618 1.10011,1.4762 1.9029,1.4762 0.77155,0 1.33101,-1.0218 1.7224,-3.1458 0.12752,-0.692 0.2975,-1.342 0.37774,-1.4443 0.17882,-0.2278 -0.0453,-1.2897 -0.38787,-1.8383 -0.18895,-0.3025 -0.20282,-0.4825 -0.0553,-0.7177 0.54481,-0.8691 2.00777,-0.083 3.93508,2.1139 0.69208,0.7889 1.3579,1.435 1.47959,1.4357 0.12171,7e-4 0.26727,-0.2212 0.32349,-0.493 0.0562,-0.272 0.1908,-0.794 0.29908,-1.1602 0.23781,-0.8041 0.091,-2.2542 -0.30571,-3.0215 -0.15955,-0.3085 -0.26498,-0.778 -0.23432,-1.0433 0.049,-0.4242 0.14245,-0.4881 0.77476,-0.5293 0.39548,-0.026 0.80574,0.015 0.91172,0.09 0.10596,0.076 0.55087,0.768 0.98869,1.5398 0.4378,0.7716 1.07913,1.8813 1.42517,2.4658 0.34605,0.5845 0.89274,1.5103 1.21491,2.0574 0.3222,0.5469 0.65524,0.9945 0.74012,0.9945 0.0848,0 0.12708,-0.4247 0.0938,-0.9437 -0.47657,-7.4259 -0.597,-16.0394 -0.25571,-18.2907 0.29868,-1.9701 0.41852,-19.6287 0.15189,-22.3802 -0.11497,-1.1865 -0.22724,-4.8671 -0.24947,-8.1792 -0.044,-6.5549 -0.19258,-9.2153 -0.50924,-9.1205 -0.16573,0.049 -1.51111,2.436 -2.31186,4.1006 -0.43422,0.9025 -1.68227,2.1438 -2.15568,2.1438 -1.13632,0 -1.06562,-1.0182 0.17473,-2.5163 0.45046,-0.544 0.93831,-1.2723 1.08415,-1.6183 0.14582,-0.346 0.60808,-1.3572 1.02722,-2.2469 0.41916,-0.8899 0.90313,-2.0462 1.07549,-2.5696 0.47992,-1.4574 1.12363,-2.4875 1.70492,-2.7283 0.8055,-0.3336 1.31618,0.1283 2.25115,2.0363 0.44297,0.904 1.12516,2.2099 1.51592,2.9021 1.06459,1.8853 1.82438,3.2944 2.41539,4.4795 0.58696,1.1768 0.53077,1.5052 -0.30875,1.8044 -0.69194,0.2464 -1.39517,-0.2217 -1.69348,-1.1275 -0.33385,-1.0137 -2.07586,-3.9163 -2.28557,-3.8082 -0.096,0.049 -0.15637,0.2921 -0.13414,0.5392 0.0223,0.2472 0.0806,3.1998 0.1299,6.5613 0.0492,3.3615 0.15457,8.1342 0.23415,10.6059 0.0796,2.4717 0.12643,6.8399 0.10416,9.7071 -0.0223,2.8672 -0.0458,5.9815 -0.0523,6.9208 -0.006,0.9392 -0.0947,2.1703 -0.19601,2.7357 -0.40605,2.2666 -0.51254,11.7183 -0.1399,12.4191 0.0949,0.1784 0.16091,0.9469 0.1467,1.7077 -0.0142,0.7607 0.0558,1.99 0.15541,2.7315 0.28878,2.1484 0.44392,10.792696 0.23712,13.212296 -0.10489,1.2274 -0.11681,2.2264 -0.0276,2.3179 0.0862,0.088 0.90953,0.2289 1.82963,0.3124 0.9201,0.083 1.99432,0.2291 2.38714,0.3237 1.1032,0.2658 1.51615,1.0841 0.85093,1.6862 -0.26975,0.2441 -0.62718,0.276 -2.19159,0.1955 -1.02812,-0.053 -2.01024,-0.1717 -2.18252,-0.2639 -0.44593,-0.2386 -1.18957,-0.2072 -1.35532,0.057 -0.0775,0.1236 -0.15884,0.9932 -0.18082,1.9324 -0.10966,4.6852 -0.52404,9.6072 -1.31663,15.6393 -0.15504,1.1799 -0.20555,9.0846 -0.0982,15.361 0.072,4.2094 -0.0296,4.0532 2.63732,4.0532 1.8807,0 3.58903,-0.4357 4.91023,-1.2523 0.32539,-0.2011 0.72807,-0.3656 0.89483,-0.3656 0.16678,0 0.83971,-0.3236 1.4954,-0.719 0.65572,-0.3956 1.34156,-0.7191 1.5241,-0.7191 0.50005,0 2.04402,-0.8338 2.79812,-1.511 0.36723,-0.3298 1.11257,-0.8701 1.65635,-1.2007 1.82659,-1.1105 3.13131,-2.1653 4.61544,-3.7314 1.90445,-2.0096 1.77974,-1.8909 2.96697,-2.8221 1.26911,-0.9953 1.72405,-1.1738 3.24056,-1.271 1.44162,-0.092 2.86758,0.3473 5.27195,1.626 2.41752,1.2859 4.19044,2.8204 4.90637,4.247 0.22035,0.4391 0.63463,1.1623 0.9206,1.6072 0.28599,0.445 0.52635,0.9022 0.53412,1.016 0.007,0.1138 0.36595,1.0845 0.79597,2.1571 0.43,1.0726 0.96765,2.5569 1.19474,3.2984 0.93174,3.0421 1.85568,5.7591 2.50636,7.3701 0.90732,2.2465 1.5604,4.1933 1.77901,5.3031 0.24499,1.2436 1.06843,4.1735 1.28857,4.5849 0.0998,0.1866 0.25334,0.8087 0.34105,1.3825 0.0877,0.5737 0.2891,1.4881 0.44753,2.0319 0.15843,0.5438 0.41455,1.5549 0.56916,2.247 0.1546,0.692 0.39761,1.6331 0.53998,2.0914 0.14237,0.4581 0.25885,1.1884 0.25885,1.6227 0,0.4344 0.11607,0.9555 0.25795,1.1581 0.14187,0.2025 0.33931,0.8879 0.4388,1.523 0.0994,0.6352 0.25833,1.4783 0.35307,1.8738 0.17384,0.7257 0.46197,2.0189 0.78105,3.5054 0.0956,0.4448 0.23827,1.3751 0.31732,2.0672 0.30556,2.6759 0.76551,6.178 1.00341,7.6398 0.13678,0.8404 0.2997,2.2156 0.3621,3.056 0.33458,4.5077 0.97945,7.1233 1.83782,7.4544 0.6169,0.2379 6.66336,0.3434 6.93143,0.121 0.13886,-0.1152 0.38974,-0.6737 0.55755,-1.241 0.16781,-0.5674 0.41181,-1.2337 0.54224,-1.4809 0.13043,-0.2471 0.33074,-0.8943 0.44514,-1.438 0.5109,-2.4286 1.32448,-3.8755 1.95667,-3.4797 0.56135,0.3514 0.48061,1.4228 -0.24867,3.2999 -0.13444,0.346 -0.36302,1.074 -0.50793,1.6178 -0.14492,0.5438 -0.3941,1.3448 -0.55373,1.7801 -0.34028,0.9279 -0.20751,1.146 0.64778,1.0642 0.57693,-0.056 0.65357,-0.1517 1.54298,-1.9455 0.51474,-1.0381 0.93943,-1.9938 0.94374,-2.1238 0.004,-0.13 0.16012,-0.6153 0.3462,-1.0786 0.1861,-0.4632 0.4372,-1.2062 0.55802,-1.6512 0.38921,-1.4333 0.50219,-1.6178 0.99113,-1.6178 0.91629,0 1.04555,1.647 0.2486,3.1675 -0.20101,0.3836 -0.54954,1.2636 -0.77449,1.9557 -0.22498,0.6921 -0.62971,1.6929 -0.89942,2.2239 -0.27033,0.5323 -0.42163,1.0344 -0.33716,1.1188 0.15105,0.1511 2.3283,0.3289 8.5035,0.6944 2.93455,0.1738 7.41811,0.1102 7.77461,-0.1101 0.25005,-0.1545 0.50635,-0.9623 0.67535,-2.1283 0.25973,-1.7924 0.48491,-2.6432 0.74266,-2.8066 0.41242,-0.2612 1.41449,-0.1869 1.52978,0.1137 0.0579,0.1507 0.004,1.2082 -0.11839,2.35 -0.15229,1.4138 -0.16501,2.1343 -0.0399,2.2595 0.21118,0.2111 9.06508,0.2148 10.64766,0 0.915,-0.1217 3.99893,-0.048 9.5144,0.2272 1.22877,0.062 4.06,0.1029 6.29165,0.093 2.23167,-0.01 5.47316,-0.019 7.20336,-0.021 4.71794,0 12.63738,-0.3519 12.90884,-0.5681 0.17358,-0.1383 0.22516,-0.7132 0.19581,-2.1818 -0.0474,-2.3687 0.11801,-2.8467 0.95583,-2.7629 0.94484,0.094 1.1917,0.6673 1.26331,2.9316 l 0.0626,1.9774 4.93506,0.032 c 2.71427,0.018 5.84443,0.1282 6.95591,0.246 1.32877,0.1408 6.19247,0.2222 14.20113,0.2377 13.80401,0.026 17.35862,-0.02 19.2808,-0.252 0.74152,-0.089 2.23423,-0.2465 3.31713,-0.3486 1.08291,-0.1018 2.04402,-0.2608 2.13578,-0.3526 0.10269,-0.1029 0.0986,-0.8462 -0.0105,-1.9319 -0.19968,-1.9876 -0.0859,-2.3206 0.72387,-2.1174 0.71638,0.1799 0.86174,0.4797 0.97153,2.0043 0.15509,2.1541 -0.0389,2.0324 3.24967,2.0376 1.55368,0 4.72588,0.079 7.04929,0.1689 2.3234,0.09 6.1658,0.1818 8.53865,0.2028 2.37284,0.021 5.28496,0.1463 6.47139,0.2788 1.18643,0.1324 3.81543,0.3609 5.84224,0.5077 8.65861,0.6269 10.21682,0.77 12.4934,1.1477 2.02784,0.3363 10.89153,0.5049 15.1898,0.2889 0.64265,-0.033 5.29397,-0.1008 10.33626,-0.1527 5.0423,-0.052 9.89585,-0.1826 10.78567,-0.2909 3.1422,-0.3822 3.52313,-0.4497 3.5433,-0.6277 0.0112,-0.099 -0.87053,-0.7055 -1.95943,-1.3482 -2.42,-1.4282 -4.87158,-3.3482 -5.02767,-3.9376 -0.12433,-0.4694 0.0596,-0.873 0.53469,-1.1726 0.33949,-0.2142 0.2932,-0.24 1.85054,1.03 0.58222,0.4748 1.50348,1.1467 2.04725,1.4931 0.54378,0.3465 1.38369,0.8883 1.86648,1.2041 0.48278,0.3158 1.21444,0.7763 1.62595,1.0235 0.41146,0.2472 1.05996,0.692 1.44109,0.9887 0.38115,0.2966 1.06258,0.7415 1.51428,0.9887 0.45171,0.2471 0.94313,0.6674 1.09205,0.934 0.25351,0.4538 0.24328,0.5139 -0.16055,0.9438 -0.23721,0.2525 -0.567,0.459 -0.73289,0.459 -0.16587,0 -0.57648,0.1986 -0.9124,0.441 -0.33596,0.2427 -0.97484,0.6638 -1.41975,0.9361 -1.4592,0.893 -5.45016,4.079 -6.76592,5.4012 -1.35538,1.3621 -1.96483,1.6657 -2.68477,1.3377 -0.52416,-0.2389 -0.5522,-0.656 -0.0911,-1.3553 0.42621,-0.6466 1.83627,-2.1094 2.56536,-2.6614 0.30088,-0.2277 0.92823,-0.7377 1.39409,-1.1331 0.46587,-0.3956 1.19064,-0.9618 1.61058,-1.2584 1.36045,-0.9609 1.81466,-1.3748 1.81466,-1.6538 0,-0.2145 -0.13371,-0.2486 -0.61807,-0.1577 -0.33993,0.064 -3.55541,0.1537 -7.1455,0.2 -19.5616,0.252 -23.08917,0.2949 -23.33509,0.2837 -0.1483,-0.011 -2.12372,-0.091 -4.38981,-0.1884 -2.2661,-0.097 -4.69288,-0.2606 -5.39284,-0.3637 -1.32031,-0.1945 -7.99229,-0.832 -10.35059,-0.989 -0.74151,-0.049 -2.19758,-0.1815 -3.2357,-0.2936 -2.82861,-0.3057 -2.96197,-0.3126 -7.99936,-0.4136 -2.57058,-0.052 -5.76584,-0.1403 -7.10056,-0.1971 -5.27061,-0.2242 -10.82562,-0.2639 -13.3922,-0.096 -1.48303,0.097 -3.54578,0.2118 -4.58391,0.2548 -1.03811,0.043 -3.2623,0.17 -4.94262,0.2824 -1.6803,0.1124 -3.90485,0.19 -4.94343,0.1723 -1.03857,-0.018 -3.34437,0.023 -5.124,0.09 -1.77963,0.067 -3.35704,0.1262 -3.50534,0.1312 -0.93841,0.032 -14.65508,-0.2328 -19.05466,-0.3668 -6.03302,-0.1839 -9.87291,-0.1694 -10.20145,0.038 -0.12357,0.078 -0.22469,0.4232 -0.22469,0.767 0,0.3437 -0.14157,0.8423 -0.31459,1.108 -0.17301,0.2657 -0.31458,0.7685 -0.31458,1.1172 0,0.5959 -0.0379,0.6368 -0.62917,0.6809 -0.986,0.073 -1.12884,-0.1267 -1.33823,-1.8768 l -0.18973,-1.5856 -1.52797,-0.1039 c -0.84038,-0.057 -2.13467,-0.039 -2.87618,0.04 -1.28593,0.1372 -20.01045,0.07 -28.94152,-0.1029 -2.32342,-0.045 -7.3792,0.024 -11.23507,0.1543 -8.147,0.275 -11.10401,0.2572 -15.18982,-0.091 -1.63133,-0.1393 -3.77163,-0.2536 -4.75622,-0.2541 -2.04927,0 -1.70937,-0.2807 -2.95037,2.4257 -1.29393,2.8219 -1.67504,3.9819 -1.72753,5.2585 -0.0274,0.6676 -0.15044,1.335 -0.27332,1.483 -0.33088,0.3987 -0.85231,0.327 -1.17217,-0.1612 -0.48968,-0.7474 -0.51463,-1.597 -0.0884,-3.0119 0.41057,-1.3629 0.58572,-1.7916 1.69037,-4.1386 0.357,-0.7585 0.64911,-1.5051 0.64911,-1.6593 0,-0.3424 -0.85178,-0.5846 -1.22585,-0.3486 -0.26541,0.1674 -1.05772,1.9408 -2.3163,5.1847 -0.50254,1.2952 -0.63807,1.9152 -0.67955,3.1092 -0.057,1.639 -0.33818,2.1937 -1.11203,2.1937 -0.3085,0 -0.50682,-0.1727 -0.726,-0.6324 -0.28106,-0.5893 -0.2815,-0.7362 -0.007,-2.1615 0.2618,-1.358 1.0338,-3.4813 2.29367,-6.3085 0.62839,-1.4102 0.52965,-1.4971 -1.7492,-1.5397 -1.06595,-0.02 -2.18076,-0.029 -2.47736,-0.022 -0.29661,0.011 -1.4291,-0.059 -2.51665,-0.1478 -1.08756,-0.089 -3.67611,-0.2001 -5.75236,-0.246 -3.87358,-0.086 -7.81638,-0.3316 -10.51601,-0.6552 -0.84038,-0.1008 -2.29645,-0.2149 -3.2357,-0.2535 -0.93926,-0.039 -2.47875,-0.1554 -3.42111,-0.2594 -0.94236,-0.1039 -3.53091,-0.2663 -5.75235,-0.3611 -2.22144,-0.094 -5.3737,-0.2659 -7.00504,-0.3804 -1.63133,-0.1144 -5.06926,-0.2205 -7.63985,-0.2356 -2.57058,-0.015 -5.00371,-0.089 -5.40696,-0.1639 -0.52436,-0.098 -0.7885,-0.069 -0.9274,0.099 -0.24749,0.2999 -0.29779,2.5425 -0.15648,6.9764 0.0791,2.48 0.0312,4.4678 -0.16361,6.7958 -0.15143,1.8098 -0.22401,3.3737 -0.16129,3.4751 0.11892,0.1924 -0.34628,4.436 -0.6574,5.9975 -0.26414,1.3254 -0.4883,7.1479 -0.33914,8.8082 0.0711,0.791 0.18992,2.0925 0.26414,2.8924 0.12775,1.3766 0.11275,1.4748 -0.28193,1.8425 -0.49082,0.4573 -0.68049,0.4779 -1.17974,0.1282 z m -43.39054,-36.3919 c 2.32341,-0.207 4.91196,-0.4121 5.75234,-0.4558 0.8404,-0.044 1.8111,-0.1235 2.15714,-0.1774 0.34604,-0.053 2.24701,-0.1379 4.22439,-0.187 5.77523,-0.1432 10.27713,-0.407 15.34558,-0.8994 2.60683,-0.2532 4.91227,-0.498 5.12319,-0.544 0.85973,-0.1874 5.23471,-0.4484 7.89119,-0.471 1.55864,-0.013 2.87668,-0.094 2.92898,-0.1778 0.0523,-0.085 0.12851,-1.9781 0.16938,-4.2077 0.0408,-2.2295 0.12513,-4.1359 0.18724,-4.2364 0.15446,-0.2499 0.14602,-11.4236 -0.008,-11.6741 -0.22277,-0.3604 -0.79555,-5.0563 -0.98649,-8.0873 -0.10269,-1.6313 -0.2712,-3.5727 -0.37434,-4.3142 -0.10311,-0.7416 -0.28387,-4.9963 -0.40161,-9.455 -0.16791,-6.3588 -0.26723,-8.1708 -0.46064,-8.4039 -0.15982,-0.1925 -0.52039,-0.297 -1.02501,-0.297 -0.42815,0 -0.96428,-0.072 -1.19137,-0.1622 -0.22711,-0.089 -1.14096,-0.3824 -2.03078,-0.6518 -1.90697,-0.577 -3.31585,-1.0805 -4.32608,-1.5458 -0.40195,-0.1852 -0.81686,-0.3366 -0.922,-0.3366 -0.16249,0 -0.95529,-0.3242 -2.66139,-1.0885 -0.19773,-0.088 -1.04711,-0.4344 -1.88749,-0.7683 -0.84037,-0.334 -1.8426,-0.8214 -2.22714,-1.083 -0.38456,-0.2617 -0.79796,-0.4756 -0.91867,-0.4756 -0.12072,0 -0.50555,-0.1942 -0.85518,-0.4315 -0.34966,-0.2373 -0.82608,-0.488 -1.05873,-0.5572 -0.23263,-0.069 -0.70611,-0.3082 -1.05215,-0.531 -4.91775,-3.1664 -7.86615,-4.0822 -11.33594,-3.5212 -1.51804,0.2454 -2.96947,1.08 -3.57104,2.0534 -0.19265,0.3117 -0.55964,0.7634 -0.81553,1.0039 -0.25589,0.2403 -0.57207,0.6434 -0.70264,0.8956 -0.6908,1.3349 -1.19496,2.2041 -1.51239,2.6077 -0.19492,0.2478 -0.48746,0.8768 -0.65006,1.3978 -0.16259,0.521 -0.50629,1.4326 -0.76375,2.0259 -0.602,1.387 -1.65436,3.6811 -1.88102,4.1005 -0.57342,1.0609 -1.56984,3.5635 -1.68109,4.2222 -0.0718,0.4249 -0.31057,0.9507 -0.53065,1.1684 -0.49508,0.4896 -1.9022,3.5378 -1.9022,4.1205 0,0.2352 -0.0825,0.5102 -0.18348,0.6111 -0.35907,0.3591 -1.19558,2.8396 -1.781,5.2813 -0.59494,2.4814 -0.77218,3.1414 -1.03787,3.8649 -0.42928,1.169 -2.30127,10.3467 -2.76828,13.5719 -0.20137,1.3907 -0.51727,2.727 -0.9774,4.1345 -0.14543,0.4449 -0.26403,1.0266 -0.26354,1.2927 0,0.266 -0.0707,0.5279 -0.15815,0.582 -0.0875,0.055 -0.19885,0.3217 -0.2475,0.5948 -0.0487,0.2731 -0.26024,1.3317 -0.47014,2.3523 -0.2099,1.0207 -0.38164,2.0872 -0.38164,2.3702 0,0.2829 -0.084,0.7352 -0.18664,1.0053 -0.10269,0.2699 -0.22372,0.8617 -0.26906,1.3149 -0.0933,0.9332 -0.19526,1.6247 -0.46104,3.1287 -0.12081,0.6836 -0.12391,1.1197 -0.009,1.2583 0.29184,0.3516 8.23424,0.22 13.14938,-0.2181 z m 93.84982,-0.1181 c 0.16353,-0.1008 0,-2.0229 -0.20588,-2.4268 -0.0783,-0.1532 -0.15438,-1.1239 -0.16909,-2.1571 -0.0147,-1.0332 -0.17592,-2.7279 -0.35831,-3.766 -0.52308,-2.9775 -0.70271,-4.4318 -0.82151,-6.6512 -0.0634,-1.1838 -0.28994,-2.797 -0.5302,-3.7749 -0.23074,-0.9392 -0.55289,-2.4762 -0.71589,-3.4155 -0.16298,-0.9393 -0.45071,-2.2335 -0.63937,-2.8761 -0.31322,-1.0669 -0.90524,-3.5676 -1.97904,-8.359 -0.22157,-0.9886 -0.50003,-1.9998 -0.61878,-2.247 -0.11876,-0.2471 -0.31483,-0.9661 -0.43569,-1.5975 -0.12088,-0.6316 -0.29209,-1.2787 -0.38051,-1.4382 -0.26366,-0.4755 -0.89,-2.7207 -0.89,-3.1903 0,-0.2399 -0.20225,-0.9165 -0.44943,-1.5037 -0.24716,-0.5872 -0.45041,-1.2117 -0.45166,-1.3877 -0.002,-0.176 -0.22605,-0.765 -0.49952,-1.3087 -0.27347,-0.5438 -0.60149,-1.3528 -0.72895,-1.7976 -0.51261,-1.7897 -0.61415,-2.0955 -0.92466,-2.7863 -0.17777,-0.3955 -0.46369,-1.2044 -0.63543,-1.7976 -0.47508,-1.6413 -0.80744,-2.6468 -0.94596,-2.8617 -0.16077,-0.2496 -0.46289,-1.0718 -1.10112,-2.9969 -0.28157,-0.8494 -0.7125,-1.8605 -0.95759,-2.247 -0.24506,-0.3865 -0.65231,-1.0667 -0.90497,-1.5117 -0.6102,-1.0745 -1.43379,-1.8361 -2.70623,-2.5027 -0.5763,-0.3019 -1.2705,-0.7075 -1.54265,-0.9013 -0.94634,-0.6738 -2.31205,-1.09 -3.5771,-1.09 -1.08682,0 -1.31169,0.066 -2.19542,0.6452 -0.54154,0.3548 -1.63745,1.3054 -2.4354,2.1122 -2.48315,2.5109 -4.81787,4.4545 -6.27892,5.2273 -0.49433,0.2615 -1.30326,0.796 -1.79761,1.1879 -0.49434,0.3919 -1.06059,0.7141 -1.25832,0.716 -0.19774,0 -0.56176,0.1216 -0.80892,0.2657 -0.24718,0.1443 -0.72215,0.391 -1.05549,0.5483 -0.33336,0.1572 -0.8996,0.47 -1.25833,0.6949 -0.35873,0.2251 -0.97314,0.4603 -1.36534,0.5228 -0.39221,0.063 -0.91801,0.2591 -1.16845,0.4366 -0.25043,0.1776 -0.90026,0.4699 -1.44403,0.6495 -0.54378,0.1795 -1.16711,0.4122 -1.38515,0.5171 -0.25659,0.1233 -1.09124,0.1466 -2.36588,0.066 -1.09922,-0.069 -2.01278,-0.055 -2.06756,0.035 -0.054,0.087 -0.11562,0.5564 -0.137,1.0423 -0.043,0.9768 0.16827,6.4013 0.29347,7.5346 0.0437,0.3955 0.0113,1.2449 -0.072,1.8875 -0.0983,0.7581 -0.0855,1.2947 0.0363,1.5281 0.10322,0.1977 0.21533,1.411 0.24899,2.6964 0.0337,1.2853 0.0957,2.7413 0.13778,3.2356 0.29037,3.408 0.51894,5.5588 0.84059,7.9095 0.49164,3.5931 0.63458,6.4992 0.57471,11.6845 -0.0274,2.3729 -0.0716,6.1621 -0.0983,8.4206 -0.0595,5.0404 -0.24436,4.7197 2.75168,4.7723 1.11178,0.019 2.07985,0.071 2.15123,0.1156 0.0714,0.044 0.49666,0.012 0.94503,-0.072 0.4518,-0.084 2.20383,-0.081 3.92975,0.01 1.71296,0.088 3.68071,0.186 4.37279,0.2165 0.69208,0.03 2.43127,0.1458 3.86487,0.2566 2.40639,0.1859 7.51324,0.5143 10.51506,0.6761 1.66364,0.089 4.76203,0.424 5.21403,0.5625 0.19773,0.061 0.92576,0.1223 1.61785,0.1372 2.16919,0.046 10.77252,0.4658 11.0553,0.5389 0.30482,0.079 1.60061,-0.053 1.81217,-0.1827 z m -318.917177,-0.7022 c 0.11949,-0.1439 0.16725,-0.3426 0.10617,-0.4415 -0.18218,-0.2947 0.37518,-1.4033 0.86787,-1.7262 0.43555,-0.2853 0.48526,-0.281 1.00369,0.088 0.46584,0.3317 0.54547,0.5038 0.54547,1.1787 0,1.1439 0.26091,1.2349 3.036797,1.0599 1.24637,-0.079 6.27031,-0.1519 11.16431,-0.1629 9.08573,-0.021 14.12143,-0.1397 19.86359,-0.4697 2.03205,-0.1168 4.63996,-0.1292 7.01069,-0.034 4.84534,0.1961 9.24136,0.1374 9.50661,-0.1272 0.16594,-0.1656 0.44349,-2.7008 0.49233,-4.4973 0.0171,-0.6299 -0.3266,-3.9878 -0.44162,-4.3143 -0.0523,-0.1482 -0.13623,-0.8763 -0.18661,-1.6178 -0.21341,-3.1416 -0.86836,-6.5498 -1.65811,-8.6285 -0.3789,-0.9973 -0.63825,-2.1451 -0.79181,-3.5043 -0.0782,-0.6926 -0.31156,-1.9065 -0.51843,-2.6975 -0.20687,-0.7909 -0.37709,-1.6555 -0.37825,-1.9212 -0.001,-0.2658 -0.11937,-0.9938 -0.26266,-1.6179 -0.14329,-0.6241 -0.34833,-1.8222 -0.45563,-2.6626 -0.2288,-1.792 -0.42585,-3.0929 -0.69437,-4.5839 -0.36488,-2.0262 -0.74659,-5.0975 -0.74659,-6.0072 0,-0.4997 -0.0768,-1.2535 -0.1705,-1.675 -0.0938,-0.4216 -0.34762,-1.7778 -0.56407,-3.0136 -0.21647,-1.2359 -0.51289,-2.6919 -0.65871,-3.2357 -0.14583,-0.5438 -0.37156,-1.6075 -0.50164,-2.3638 -0.13007,-0.7563 -0.39732,-1.6904 -0.59387,-2.0756 -0.19656,-0.3853 -0.41207,-1.0203 -0.47891,-1.4112 -0.22211,-1.2987 -2.47859,-6.2224 -3.79634,-8.2839 -0.32417,-0.507 -0.91233,-1.1778 -1.30705,-1.4904 -0.39469,-0.3125 -0.76177,-0.7073 -0.8157,-0.8773 -0.0907,-0.2859 -1.57964,-1.1207 -1.98876,-1.1149 -0.50839,0.011 -3.02307,-1.1777 -3.25681,-1.5345 -0.14633,-0.2233 -0.525,-0.5043 -0.84151,-0.6245 -0.3165,-0.1203 -1.03105,-0.4516 -1.58791,-0.7365 -0.93685,-0.4793 -1.17172,-0.5196 -3.14581,-0.54 -2.53931,-0.026 -3.19781,0.077 -4.73991,0.7392 -2.05572,0.8835 -3.09404,1.2587 -3.48437,1.2594 -0.20928,0 -0.64535,0.1622 -0.96907,0.3595 -0.3237,0.1974 -0.78367,0.3589 -1.02213,0.3589 -0.23845,0 -1.10609,0.2505 -1.92808,0.5568 -4.01698,1.4964 -5.67126,1.9835 -7.87604,2.319 -1.35986,0.207 -2.042,0.3567 -3.685097,0.8087 -2.01708,0.5549 -3.1981,0.7218 -6.46951,0.9134 -0.61344,0.036 -2.18283,-0.198 -5.39472,-0.8045 -0.96972,-0.1831 -3.68817,-1.4922 -4.13407,-1.9907 -0.73796,-0.8251 -2.68063,-1.543 -3.41732,-1.2629 -0.55505,0.211 -1.55861,0 -2.5848,-0.5541 -0.39538,-0.2119 -1.0003,-0.3453 -1.56631,-0.3453 -0.62725,0 -1.05927,-0.1073 -1.35087,-0.3355 -1.05764,-0.8279 -2.60172,-1.4257 -4.18076,-1.6188 -1.55785,-0.1906 -1.61466,-0.1841 -2.80947,0.3244 -0.67071,0.2854 -1.88371,0.9509 -2.69554,1.4788 -1.43919,0.9361 -1.49581,1.0003 -2.26633,2.5697 -0.43463,0.8854 -0.79025,1.7252 -0.79025,1.8663 0,0.1411 -0.15305,0.5088 -0.34012,0.8171 -0.18708,0.3083 -0.39595,0.8437 -0.46417,1.1896 -0.27124,1.3761 -0.94273,3.2199 -2.1548,5.9167 -0.45323,1.0084 -0.91078,2.2536 -1.01674,2.7671 -0.10597,0.5134 -0.37545,1.338 -0.59884,1.8323 -0.22339,0.4943 -0.62486,1.6269 -0.89216,2.5166 -0.2673,0.8899 -0.60267,1.8835 -0.74527,2.2082 -0.1426,0.3247 -0.25929,0.7332 -0.25929,0.9078 0,0.1746 -0.0862,0.4038 -0.19161,0.5091 -0.10538,0.1054 -0.42076,1.072 -0.70086,2.1482 -0.28009,1.076 -0.72512,2.5632 -0.98894,3.3047 -0.26383,0.7415 -0.54747,1.6313 -0.63031,1.9774 -0.0829,0.346 -0.36548,1.2763 -0.62804,2.0672 -0.83685,2.5209 -1.54679,5.1682 -2.26353,8.4406 -0.21556,0.9842 -0.45438,1.9144 -0.53072,2.0672 -0.34014,0.6809 -0.67254,2.3122 -0.59198,2.9051 0.0485,0.3576 -0.0748,1.49 -0.27401,2.5167 -0.19927,1.0267 -0.41576,2.5543 -0.48112,3.3947 -0.14933,1.9201 -0.58413,4.7335 -0.81316,5.2614 -0.66901,1.5421 -1.35017,5.9357 -1.04691,6.7527 0.0857,0.2308 0.10973,0.494 0.0536,0.585 -0.0562,0.091 -0.17624,0.711 -0.26672,1.378 -0.0905,0.667 -0.21463,1.5065 -0.27583,1.8656 -0.0683,0.4004 -0.0342,0.7005 0.088,0.7761 0.10961,0.067 0.84688,0.1528 1.63838,0.1891 0.79147,0.037 2.04517,0.1579 2.78597,0.2703 1.12034,0.1698 1.77742,0.1492 3.90648,-0.1227 2.65623,-0.3391 3.67246,-0.3533 13.8845,-0.1937 2.86719,0.045 5.9411,0.018 6.83092,-0.059 1.8188,-0.158 9.75527,0.088 11.68448,0.3619 0.69207,0.099 2.22903,0.2281 3.41545,0.2884 1.82217,0.092 4.75325,0.3307 5.14612,0.4183 0.062,0.014 0.21058,-0.092 0.33006,-0.2366 z m 397.287177,37.0322 c -0.25809,-0.2747 -0.44424,-0.7999 -0.55293,-1.5599 -0.0901,-0.6302 -0.24994,-1.5907 -0.35514,-2.1345 -0.10519,-0.5437 -0.19197,-2.0807 -0.19283,-3.4155 -0.002,-2.2846 -0.0247,-2.4444 -0.39543,-2.7287 l -0.39386,-0.3021 0.42281,-0.8664 c 0.3297,-0.6757 0.53576,-1.7572 0.9357,-4.911 0.28207,-2.2246 0.6053,-4.3681 0.71827,-4.7635 0.24873,-0.8704 1.13413,-1.9282 1.76783,-2.112 1.05006,-0.3047 2.13291,0.8244 1.64521,1.7154 -0.60769,1.1103 -0.88401,1.5844 -1.19287,2.0466 -0.69987,1.0472 -1.38837,3.6684 -1.02289,3.8942 0.0928,0.058 0.60341,-0.1756 1.13466,-0.5179 1.08531,-0.6992 1.87626,-0.792 2.94503,-0.3455 0.97159,0.406 0.81953,0.8927 -0.439,1.4053 -0.54376,0.2215 -1.37912,0.7021 -1.85631,1.068 -0.4772,0.3659 -0.94069,0.6653 -1.02998,0.6653 -0.0892,0 -0.3141,0.3033 -0.49959,0.6741 -0.30841,0.6164 -0.32297,0.8895 -0.17013,3.1907 0.22514,3.3899 0.0467,8.2405 -0.32398,8.8063 -0.39948,0.6096 -0.70368,0.6604 -1.14457,0.1911 z m -269.47583,-0.9145 c -0.15371,-0.1852 -0.27504,-1.3372 -0.36879,-3.5018 -0.0769,-1.7743 -0.20092,-3.325 -0.27567,-3.4459 -0.20947,-0.339 -0.0942,-10.75 0.12647,-11.4248 0.13547,-0.4142 0.33959,-0.622 0.70636,-0.719 0.36427,-0.097 0.72445,-0.4597 1.22577,-1.2365 0.60044,-0.9302 0.81159,-1.1189 1.36915,-1.2235 0.94523,-0.1773 1.78562,0.3348 1.86347,1.1356 0.0715,0.735 -0.37723,1.2778 -1.05635,1.2778 -0.75665,0 -1.43803,1.386 -1.70121,3.4604 -0.11547,0.91 0.0685,1.0892 0.6186,0.603 0.15608,-0.1381 0.68225,-0.3846 1.16923,-0.5479 0.48699,-0.1634 1.27509,-0.4646 1.75132,-0.6695 0.81309,-0.3497 0.89334,-0.3545 1.31662,-0.077 0.24791,0.1624 0.45076,0.4006 0.45076,0.5295 0,0.3222 -0.68991,0.9106 -1.39316,1.1884 -0.32132,0.1268 -0.58422,0.2887 -0.58422,0.3597 0,0.071 -0.182,0.2124 -0.40446,0.3143 -0.22245,0.1018 -1.03138,0.6538 -1.79761,1.2268 -1.09352,0.8176 -1.39552,1.1415 -1.4042,1.5064 -0.006,0.2557 -0.0383,2.7805 -0.0717,5.6108 -0.0399,3.3867 -0.13046,5.2765 -0.2649,5.5276 -0.2403,0.4491 -0.94232,0.5073 -1.2755,0.1057 z m 276.87049,-2.0589 c -0.32779,-0.078 -0.79291,-0.3262 -1.03363,-0.5522 -0.40572,-0.3812 -0.43766,-0.5393 -0.43766,-2.1654 0,-1.4965 0.0728,-1.9353 0.49542,-2.9873 0.64713,-1.6106 1.37273,-2.4741 2.29087,-2.7262 1.02711,-0.2819 1.43054,-0.2481 1.91251,0.1601 l 0.42439,0.3595 -0.42193,0.3576 c -0.23205,0.1966 -0.7434,0.4539 -1.13632,0.5716 -0.53517,0.1603 -0.79604,0.375 -1.03984,0.8558 -0.44972,0.887 -0.77024,2.4611 -0.69802,3.4282 l 0.0604,0.8089 0.93508,0.054 c 0.56027,0.033 1.13672,-0.049 1.4381,-0.2034 0.87961,-0.4504 1.93354,-0.5441 2.22098,-0.1978 0.22279,0.2684 0.17997,0.3642 -0.37365,0.8359 -1.00309,0.8544 -1.35503,1.0507 -2.3667,1.32 -1.04876,0.2792 -1.38127,0.291 -2.27001,0.081 z M 107.292,233.34845 c -1.65634,-0.4836 -2.63315,-1.6432 -2.63432,-3.127 0,-0.4709 0.0753,-0.9968 0.16821,-1.1685 0.0928,-0.1716 0.5851,-1.1615 1.09385,-2.1996 0.50874,-1.0381 1.05454,-1.9683 1.21287,-2.0672 0.15835,-0.099 0.54241,-0.4493 0.85351,-0.7788 0.43674,-0.4627 0.68507,-0.5855 1.08995,-0.5393 0.8362,0.095 0.77448,0.6763 -0.18686,1.7586 -0.73431,0.8269 -1.21196,1.6746 -2.14726,3.811 -0.53118,1.2134 -0.32947,1.872 0.78985,2.5785 0.71932,0.4541 2.05343,0.5727 2.72605,0.2423 0.19659,-0.097 0.43802,-0.033 0.70998,0.1874 0.38939,0.3153 0.39626,0.3579 0.12462,0.7724 -0.30608,0.4672 -1.37661,0.8755 -2.23191,0.8514 -0.28514,-0.01 -0.99098,-0.1526 -1.56854,-0.3212 z m -23.532197,-0.2632 c -0.2719,-0.2544 -0.49435,-0.5346 -0.49435,-0.6228 0,-0.2251 0.52336,-0.6586 1.22357,-1.0134 1.09277,-0.5537 2.77429,-2.4824 3.3305,-3.82 0.28021,-0.6737 0.624,-1.4398 0.76399,-1.7022 0.25625,-0.4804 0.3482,-2.2154 0.14541,-2.7439 -0.13524,-0.3524 -1.76453,-0.3922 -2.33822,-0.057 -2.01651,1.1781 -2.42547,1.2634 -2.86234,0.5966 -0.42136,-0.6431 -0.0848,-1.0346 1.61583,-1.8801 2.04734,-1.0179 3.82836,-1.0981 4.81451,-0.2168 0.56543,0.5052 0.58754,0.5765 0.5999,1.9324 0.014,1.5319 -0.26514,2.7551 -0.91607,4.0144 -0.22999,0.4448 -0.6983,1.4008 -1.0407,2.1242 l -0.62256,1.3153 0.39984,0.1521 c 0.21992,0.084 1.11509,0.154 1.9893,0.1564 1.63976,0 2.19088,0.2056 2.67707,0.9763 0.39729,0.6299 -0.17625,0.8136 -2.85922,0.9155 -1.38418,0.053 -3.28515,0.1496 -4.2244,0.2155 -1.66336,0.1166 -1.72057,0.1077 -2.20206,-0.3425 z m 553.608237,0.042 c -0.0671,-0.1085 -0.14335,-0.5332 -0.16956,-0.9438 -0.23269,-3.6443 -0.25012,-4.8777 -0.0856,-6.0495 0.35294,-2.5128 0.41032,-3.5402 0.20487,-3.6673 -0.10793,-0.066 -0.51934,0.044 -0.91429,0.2451 -0.89389,0.4561 -1.47064,0.4641 -2.00926,0.028 -0.71282,-0.5772 -0.28159,-1.1014 1.68116,-2.0437 1.89783,-0.9112 1.92609,-0.949 2.3826,-3.1904 0.15105,-0.7415 0.47253,-1.9954 0.71442,-2.7863 0.24189,-0.791 0.5556,-1.8426 0.69711,-2.337 0.14153,-0.4943 0.53031,-1.3841 0.864,-1.9773 0.50797,-0.903 0.76705,-1.1587 1.59208,-1.5708 1.18486,-0.592 1.49009,-0.6096 2.17101,-0.1247 0.9434,0.6718 0.50347,2.0272 -0.84019,2.5886 -0.71064,0.2969 -1.43603,1.351 -2.14474,3.1166 -0.26567,0.6618 -0.59644,1.4691 -0.73503,1.7937 -0.29782,0.6977 -0.32708,1.4093 -0.0646,1.5716 0.10311,0.064 0.58789,-0.028 1.07742,-0.2044 1.07173,-0.3853 1.76241,-0.2175 2.11271,0.5134 0.19809,0.4132 0.18845,0.5525 -0.0652,0.9395 -0.16376,0.2499 -0.46872,0.4544 -0.6777,0.4544 -0.50139,0 -2.7426,0.8609 -2.95253,1.1343 -0.17213,0.2239 -0.41704,2.8106 -0.79351,8.3801 -0.20628,3.052 -0.25746,3.3525 -0.65079,3.8199 -0.4339,0.5157 -1.16665,0.6786 -1.39443,0.3101 z m -403.76369,-2.1496 c -1.1439,-0.2232 -1.75634,-0.6147 -2.459,-1.572 -1.00562,-1.3698 -1.07061,-1.6719 -0.6323,-2.9384 0.86367,-2.4956 3.24543,-5.0898 4.5606,-4.9673 0.95793,0.089 0.8024,0.6725 -0.52913,1.9845 -0.64823,0.6387 -1.17861,1.2673 -1.17861,1.3969 0,0.1297 -0.11243,0.3634 -0.24984,0.5194 -0.13743,0.1562 -0.43045,0.7084 -0.65115,1.2273 l -0.40127,0.9433 0.64229,0.7838 c 0.6508,0.7942 1.07254,1.0274 2.36579,1.3083 1.7203,0.3735 0.28771,1.6565 -1.46738,1.3142 z m -155.818537,-1.0356 c -0.0429,-0.043 -0.91059,-0.091 -1.92808,-0.1064 l -1.84999,-0.028 -0.17194,-0.6905 c -0.15439,-0.6199 -0.128,-0.726 0.25829,-1.0389 0.32074,-0.2596 0.54747,-0.3113 0.89098,-0.2029 0.25343,0.08 1.55893,0.1455 2.90112,0.1458 2.39551,0 2.4525,0.01 3.10088,0.504 0.6902,0.5262 0.81425,0.8567 0.43582,1.1614 -0.22133,0.1783 -3.48509,0.4077 -3.63708,0.2557 z m 131.408797,-2.183 c -0.45431,-0.502 -0.24008,-1.1304 0.50676,-1.4866 0.77196,-0.3681 3.92642,-0.7443 5.36704,-0.6401 0.79259,0.058 1.15553,0.1701 1.33425,0.4144 0.33591,0.4594 0.31385,0.5695 -0.20439,1.0201 -0.39008,0.3391 -0.70109,0.3981 -2.33942,0.4439 -1.03926,0.029 -2.36523,0.1761 -2.9466,0.3268 -1.33138,0.3449 -1.33464,0.3448 -1.71764,-0.079 z m -22.38682,-29.3082 c -0.19772,-0.1978 -0.35951,-0.4481 -0.35951,-0.5565 0,-0.3187 0.72327,-1.2411 0.97306,-1.2411 0.399,0 0.82456,0.6358 0.82456,1.232 0,0.4513 -0.0989,0.6121 -0.46111,0.7498 -0.59633,0.2267 -0.55902,0.2337 -0.977,-0.1842 z m 361.611,-1.4899 c -0.21333,-0.1561 -0.37155,-0.6401 -0.48473,-1.4831 -0.40831,-3.041 -0.53705,-3.8431 -0.80677,-5.0264 -0.4561,-2.0011 -0.44197,-2.148 0.21278,-2.2117 0.48185,-0.047 0.61641,0.04 0.95601,0.6153 0.21737,0.3684 0.47221,1.1209 0.56634,1.6724 0.0941,0.5514 0.26322,1.488 0.37581,2.0811 0.11257,0.5933 0.26718,1.483 0.34353,1.9774 0.0763,0.4943 0.19484,1.1241 0.26325,1.3994 0.2225,0.8953 -0.68603,1.5168 -1.42622,0.9756 z m -101.03716,-3.4036 c -0.33306,-0.4756 -0.35262,-1.2903 -0.0734,-3.0576 0.28597,-1.8102 0.6618,-3.1247 0.96547,-3.3767 0.14097,-0.117 0.52144,-0.2249 0.84549,-0.2397 l 0.58917,-0.027 -0.0544,0.9887 c -0.0299,0.5437 -0.13954,1.2584 -0.24366,1.5881 -0.10416,0.3297 -0.21477,0.815 -0.2459,1.0785 -0.13238,1.1211 -0.4087,2.4914 -0.59497,2.9509 -0.24572,0.6061 -0.79875,0.6502 -1.1878,0.094 z m -18.0374,-1.6688 -0.5904,-0.2565 0.0721,-1.8486 c 0.10153,-2.6031 0.60763,-3.4456 1.65673,-2.7583 0.47262,0.3098 0.53052,0.5564 0.28455,1.2126 -0.0858,0.2289 -0.0964,1.0632 -0.0235,1.8542 0.12001,1.3023 0.0989,1.4678 -0.22342,1.7526 -0.42138,0.3725 -0.42033,0.3725 -1.17614,0.044 z m -252.91851,-1.9143 c -0.27243,-0.2725 -0.29765,-2.297 -0.0438,-3.5137 0.099,-0.4745 0.20949,-1.2671 0.24552,-1.7614 0.0752,-1.0316 0.87875,-2.4268 1.39765,-2.4268 0.73081,0 0.77116,0.767 0.24588,4.6738 -0.41098,3.0564 -0.43758,3.1349 -1.08453,3.1988 -0.29531,0.029 -0.63765,-0.047 -0.76074,-0.1707 z m 101.00835,-1.3899 c -0.32852,-0.2082 -0.73949,-2.0324 -0.74295,-3.2977 -0.002,-0.5666 -0.0999,-1.5964 -0.21852,-2.2883 -0.2628,-1.5325 -0.0835,-2.254 0.55998,-2.254 0.23402,0 0.48516,0.1213 0.5581,0.2697 0.601,1.2221 0.738,1.877 0.92487,4.4209 0.19476,2.6515 0.18839,2.7922 -0.1374,3.0388 -0.39609,0.2998 -0.60654,0.3245 -0.94408,0.1106 z m 14.45192,-1.8093 c -0.27431,-0.3031 -0.29126,-0.4683 -0.12454,-1.2134 0.45433,-2.0307 0.61428,-3.7543 0.5135,-5.5339 -0.10321,-1.8227 -0.0962,-1.8689 0.32675,-2.146 0.52597,-0.3446 1.16467,-0.3639 1.59649,-0.048 0.29394,0.215 0.30348,0.3543 0.11113,1.6232 -0.11573,0.7634 -0.16449,1.6081 -0.10838,1.8771 0.0562,0.2689 0.0151,1.0957 -0.0911,1.8372 -0.10625,0.7415 -0.20692,1.6865 -0.22374,2.1001 -0.0228,0.5611 -0.16448,0.8917 -0.55854,1.3033 -0.61165,0.6387 -0.99648,0.6922 -1.44153,0.2005 z m 251.79894,-4.546 c -0.9642,-1.0474 -1.87657,-7.9365 -1.11492,-8.4186 0.71967,-0.4555 1.1236,-0.036 1.65663,1.7208 0.14998,0.4943 0.6124,1.6269 1.02758,2.5167 0.68603,1.4703 0.7446,1.7057 0.64185,2.5805 -0.13825,1.1773 -0.34209,1.5843 -0.86925,1.7359 -0.22256,0.064 -0.53141,0.1511 -0.68634,0.1935 -0.15493,0.042 -0.44992,-0.1054 -0.65555,-0.3288 z m -113.61459,-0.9004 c -0.47742,-0.6031 -0.56867,-1.0212 -0.42663,-1.9549 0.0808,-0.5314 0.0897,-1.5325 0.0196,-2.2247 -0.19067,-1.8838 0.39568,-2.5674 1.4743,-1.719 0.42437,0.3338 0.44416,0.4416 0.48057,2.62 0.0234,1.3972 0.12185,2.4094 0.25577,2.6289 0.18262,0.2994 0.16146,0.3987 -0.13116,0.6156 -0.42927,0.3183 -1.43125,0.3387 -1.67247,0.034 z m 19.22274,-3.2775 c -0.16482,-0.3617 -0.151,-0.8832 0.0633,-2.3901 0.15077,-1.06 0.34955,-2.1072 0.44173,-2.3268 0.19295,-0.4599 1.00787,-0.732 1.30439,-0.4355 0.29453,0.2946 0.30758,1.7953 0.0227,2.6029 -0.13662,0.3872 -0.25431,0.9567 -0.26153,1.2657 -0.0306,1.3042 -1.14586,2.2159 -1.57056,1.2838 z m -271.29357,-0.8663 c -0.38576,-0.1964 -0.44555,-0.3425 -0.42223,-1.031 0.0296,-0.8753 0.44906,-2.7795 0.7338,-3.3314 0.0984,-0.1908 0.22306,-0.6937 0.27703,-1.1178 0.054,-0.4241 0.19619,-0.8893 0.31606,-1.0336 0.34802,-0.4194 1.20217,-0.3268 1.52458,0.1653 0.25782,0.3935 0.25229,0.4767 -0.0687,1.0337 -0.41408,0.7185 -1.10226,3.3132 -1.10226,4.1561 0,0.5601 -0.41144,1.396 -0.68429,1.3903 -0.0686,0 -0.32686,-0.1057 -0.57403,-0.2316 z m 96.39356,-4.9492 c -0.29482,-0.1873 -0.55406,-1.0369 -1.29783,-4.254 -0.2353,-1.0178 -0.21945,-2.1376 0.0338,-2.3909 0.34302,-0.343 0.62625,-0.2569 1.21245,0.3686 0.45316,0.4835 0.54769,0.7334 0.54839,1.4499 0,0.4761 0.0923,1.0366 0.20413,1.2455 0.32541,0.6081 0.56081,3.1905 0.31753,3.4836 -0.22849,0.2753 -0.67125,0.3177 -1.01848,0.098 z m 19.28266,-0.7837 c -0.19772,-0.1122 -0.41083,-0.2814 -0.47355,-0.376 -0.10609,-0.1601 -0.0553,-6.7261 0.0615,-7.9647 0.0289,-0.3058 0.16352,-0.6901 0.2992,-0.8539 0.27746,-0.3348 1.01756,-0.3992 1.19979,-0.1039 0.0657,0.1063 0.12509,2.2163 0.13191,4.6887 0.0105,3.7043 -0.0327,4.5239 -0.24372,4.6574 -0.33348,0.2111 -0.53711,0.2012 -0.97517,-0.047 z m 245.81301,-1.4222 c -0.12025,-0.2247 -0.28064,-0.9392 -0.35643,-1.5878 -0.63439,-5.4295 -0.62137,-5.1765 -0.30142,-5.8474 0.22704,-0.4761 0.2563,-0.7334 0.11819,-1.0384 -0.22509,-0.497 0.17853,-1.8165 0.57979,-1.8953 0.48433,-0.096 1.22843,0.6624 1.22843,1.2505 0,0.2988 0.11816,0.7581 0.26255,1.0205 0.8019,1.4573 1.42056,3.1126 1.52194,4.0724 0.0627,0.5933 0.18683,1.1958 0.27595,1.339 0.20811,0.3344 0.33133,2.652 0.14675,2.76 -0.077,0.045 -0.84129,0.1389 -1.69852,0.2086 -1.49921,0.1216 -1.56693,0.1109 -1.77723,-0.2821 z m -109.06176,-0.6442 c -0.51349,-0.1029 -0.99607,-1.0181 -0.97349,-1.8469 0.009,-0.3495 0.10683,-1.2827 0.21625,-2.0736 0.10942,-0.791 0.22052,-1.8181 0.24688,-2.2824 0.0556,-0.9775 0.33826,-1.4027 0.9325,-1.4027 0.67529,0 0.85887,0.5803 0.70667,2.2341 -0.0734,0.798 -0.11519,1.7745 -0.0928,2.17 0.0224,0.3954 0.0517,1.2853 0.0651,1.9774 0.0263,1.3583 -0.0433,1.4356 -1.10109,1.2241 z m 20.5525,-4.5355 c -0.35242,-0.3895 -0.3306,-1.2646 0.0788,-3.16 0.10678,-0.4943 0.23534,-1.1416 0.28571,-1.4381 0.1896,-1.1164 0.25938,-1.3301 0.51961,-1.5903 0.18684,-0.1868 0.41665,-0.2263 0.76372,-0.1312 0.49021,0.1345 0.49609,0.1533 0.46472,1.4944 -0.0174,0.747 -0.1948,1.9126 -0.39403,2.5902 -0.19925,0.6776 -0.38718,1.5152 -0.41765,1.8613 -0.046,0.523 -0.13274,0.6382 -0.51415,0.6826 -0.2839,0.033 -0.58377,-0.085 -0.78671,-0.3089 z m -268.02146,-3.0535 c -0.28774,-0.318 -0.28976,-0.4033 -0.0278,-1.1748 0.15532,-0.4575 0.28242,-1.0356 0.28242,-1.2848 0,-0.2491 0.24267,-1.0232 0.53928,-1.7203 0.29661,-0.697 0.53929,-1.3339 0.53929,-1.4153 0,-0.2463 1.25442,-2.2716 1.6014,-2.5857 0.4081,-0.3694 0.88817,-0.1994 1.11389,0.3943 0.12303,0.3236 0.10353,0.5313 -0.0696,0.7395 -0.50216,0.6037 -1.36274,2.4916 -1.64783,3.6149 -0.1631,0.6427 -0.37345,1.4169 -0.46744,1.7206 -0.094,0.3036 -0.17088,0.6769 -0.17088,0.8296 0,0.4176 -0.70115,1.2249 -1.06375,1.2249 -0.17524,0 -0.45824,-0.1544 -0.6289,-0.3429 z m 89.24933,-5.1641 c -0.20492,-0.2605 -0.37258,-0.6566 -0.37258,-0.8802 0,-0.2236 -0.24895,-1.0013 -0.55328,-1.7284 -0.68476,-1.6361 -0.92415,-3.6759 -0.4526,-3.8568 0.67816,-0.2603 1.47938,1.1105 2.56416,4.3867 l 0.62882,1.899 -0.41945,0.3227 c -0.5827,0.4482 -0.96045,0.4096 -1.39507,-0.143 z m 158.70425,-0.5291 c -0.29342,-0.3536 -0.24982,-7.041 0.0483,-7.4002 0.2664,-0.321 1.13319,-0.2792 1.42177,0.068 0.24991,0.3012 0.3035,1.6206 0.16696,4.1101 -0.038,0.6921 -0.009,1.5923 0.0637,2.0003 0.12668,0.708 0.10458,0.7591 -0.48477,1.1235 -0.73867,0.4564 -0.90706,0.4701 -1.21594,0.098 z m -137.21577,-0.4883 c -0.27776,-0.2031 -0.31623,-0.5293 -0.30211,-2.5616 0.0263,-3.7807 0.17495,-5.0827 0.61572,-5.3915 0.91034,-0.6376 1.8611,0.1127 1.33314,1.0521 -0.15094,0.2686 -0.22203,1.4033 -0.2249,3.5902 -0.003,2.6423 -0.051,3.2269 -0.27366,3.3677 -0.37451,0.2367 -0.77369,0.217 -1.14819,-0.057 z m 243.47097,-0.5706 c -0.12049,-0.1451 -0.36691,-1.2292 -0.54758,-2.4091 -0.1807,-1.1799 -0.4609,-2.4012 -0.62268,-2.714 -0.16176,-0.3129 -0.26905,-0.7859 -0.23839,-1.0513 0.0483,-0.4183 0.13727,-0.4823 0.66964,-0.4823 0.53563,0 0.66804,0.098 1.03826,0.7628 0.39468,0.7096 0.51127,1.2942 1.07569,5.3939 l 0.10519,0.764 h -0.63054 c -0.34679,0 -0.72911,-0.1187 -0.84959,-0.264 z m -83.04099,-4.124 c -0.30115,-0.3629 -0.16336,-2.3533 0.27489,-3.9708 0.43668,-1.6118 0.50722,-1.7077 1.25421,-1.7077 0.91532,0 1.14079,0.5866 0.61876,1.6098 -0.21419,0.4198 -0.46842,1.2607 -0.56497,1.8687 -0.29616,1.8645 -1.02297,2.8746 -1.58289,2.2 z m -266.73752,-3.3724 c -0.30535,-0.3054 -0.27865,-2.1675 0.0456,-3.1809 0.1466,-0.4581 0.30798,-1.0352 0.35862,-1.2824 0.0506,-0.2471 0.33529,-0.8337 0.63258,-1.3033 0.49298,-0.7788 0.60176,-0.8539 1.23722,-0.8539 1.10188,0 1.36113,0.6402 0.51433,1.27 -0.2119,0.1576 -1.5473,3.5142 -1.8089,4.5468 -0.23769,0.9383 -0.57123,1.2119 -0.97944,0.8037 z m -34.82497,-0.8009 c -0.19773,-0.039 -0.76397,-0.1499 -1.25832,-0.2466 -0.49435,-0.097 -1.4919,-0.2187 -2.21679,-0.2709 -1.56033,-0.1125 -2.27979,-0.4357 -2.44628,-1.0989 -0.10122,-0.4032 -0.002,-0.6054 0.59601,-1.2197 0.67319,-0.6911 5.23551,-7.3808 5.23551,-7.6768 0,-0.1892 1.03084,-1.8656 1.81181,-2.9465 0.35718,-0.4943 0.78712,-1.1652 0.95542,-1.4908 0.38478,-0.7444 0.99459,-1.0519 1.52429,-0.7684 0.56153,0.3005 0.49468,1.0942 -0.15415,1.8304 -0.29502,0.3347 -0.5377,0.6581 -0.53928,0.7187 -0.002,0.061 -0.25036,0.4215 -0.55285,0.8021 -0.30248,0.3806 -0.99608,1.504 -1.54136,2.4965 -0.54525,0.9923 -1.34547,2.2897 -1.77826,2.8829 -0.43276,0.5932 -0.89189,1.2467 -1.02024,1.4522 -0.12835,0.2056 -0.5818,0.8926 -1.00768,1.5269 l -0.77435,1.1534 0.38979,0.3156 c 0.23953,0.1939 0.71129,0.3201 1.22375,0.3274 0.45867,0.011 1.52153,0.109 2.36191,0.2276 0.9651,0.1363 1.87337,0.1603 2.4656,0.065 1.26628,-0.2032 1.95514,0.1129 1.89973,0.8715 -0.0704,0.9656 -0.55828,1.1633 -2.81234,1.1398 -1.10132,-0.012 -2.16418,-0.053 -2.36192,-0.091 z m 341.27635,-0.7591 c -0.1483,-0.083 -0.87634,-0.2517 -1.61785,-0.3749 -1.74115,-0.2892 -2.11782,-0.4478 -2.36807,-0.997 -0.17036,-0.374 -0.1497,-0.5132 0.12039,-0.8116 0.40323,-0.4456 0.72842,-0.4451 2.41529,0 0.73482,0.1954 1.67634,0.3553 2.09227,0.3553 0.45705,0 0.91245,0.1264 1.1511,0.3198 0.33936,0.2747 0.37227,0.4075 0.23409,0.9437 -0.15056,0.5842 -0.21171,0.6267 -0.9592,0.668 -0.43911,0.024 -0.91972,-0.024 -1.06802,-0.1068 z m -10.66215,-2.8682 c -0.26567,-0.2773 -0.48304,-0.5947 -0.48304,-0.7053 0,-0.3659 -0.93195,-1.3163 -1.53987,-1.5703 -0.65011,-0.2716 -2.23511,-1.8196 -2.23511,-2.183 0,-0.3385 0.51991,-0.7896 0.91021,-0.7896 0.35117,0 3.42714,2.3813 4.37233,3.3848 0.39038,0.4145 0.51884,0.7257 0.51884,1.257 0,0.3883 -0.0563,0.7971 -0.12501,0.9083 -0.22404,0.3625 -0.92465,0.2134 -1.41835,-0.3019 z m -215.37618,-1.4533 c -0.68985,-1.2291 -1.2966,-2.0492 -1.9187,-2.5934 -0.69602,-0.6089 -0.8956,-0.8964 -0.84936,-1.2234 0.0488,-0.3449 0.18204,-0.4374 0.68962,-0.4785 0.512,-0.042 0.79654,0.086 1.52797,0.6884 0.49434,0.4069 1.00468,0.987 1.13409,1.2892 0.1294,0.3022 0.56557,1.0439 0.96927,1.6483 0.48315,0.7234 0.74064,1.3139 0.75341,1.7281 0.0185,0.5986 -0.0124,0.6318 -0.639,0.684 l -0.65844,0.055 z m 236.72787,1.6067 c -0.20117,-0.082 -0.4687,-0.2724 -0.59454,-0.424 -0.30765,-0.3706 0.0697,-0.9953 0.69066,-1.1433 0.24717,-0.059 1.11704,-0.5064 1.93302,-0.9945 1.66963,-0.9985 2.25738,-1.068 2.34827,-0.2778 0.0768,0.6668 -0.5387,1.4905 -1.46519,1.9609 -0.41186,0.209 -0.94176,0.5307 -1.17756,0.7149 -0.44936,0.3509 -1.11726,0.414 -1.73466,0.1638 z m -73.07891,-0.7507 c -0.12215,-0.2283 -0.22122,-1.5148 -0.2457,-3.1908 -0.0226,-1.5445 -0.10606,-3.2702 -0.18555,-3.8347 -0.13881,-0.9855 -0.12653,-1.0346 0.30888,-1.2329 0.35376,-0.1612 0.56658,-0.1521 0.96815,0.041 0.44984,0.2165 0.51609,0.3492 0.52566,1.0532 0.006,0.443 0.11914,1.818 0.25141,3.0554 0.30503,2.8541 0.17851,3.854 -0.53426,4.2227 -0.6888,0.3561 -0.84574,0.3397 -1.08859,-0.114 z m -197.9945,-0.2479 c -0.39548,-0.1447 -1.01148,-0.2643 -1.3689,-0.2658 -1.22821,0 -2.14036,-1.2431 -1.18385,-1.6068 0.45084,-0.1714 3.47925,0.036 4.35035,0.2973 0.72436,0.2177 0.83615,0.9501 0.20785,1.3618 -0.6763,0.4431 -1.21947,0.5009 -2.00545,0.2135 z m 301.78011,-0.1748 c -0.38493,-0.167 -0.61877,-0.4197 -0.70013,-0.7565 -0.0672,-0.278 -0.41927,-1.0718 -0.78237,-1.764 -0.36309,-0.692 -0.77219,-1.6124 -0.90909,-2.0451 -0.23791,-0.7521 -0.23066,-0.8017 0.16362,-1.121 0.3062,-0.2479 0.49724,-0.2886 0.74118,-0.1581 0.3293,0.1762 1.43558,2.0423 1.43558,2.4214 0,0.111 0.0907,0.2924 0.20147,0.4032 0.43138,0.4315 1.02351,2.2158 0.8949,2.6967 -0.15807,0.5911 -0.31609,0.64 -1.04516,0.3234 z m -241.5323,-1.1414 c -0.1838,-0.2032 -0.29752,-0.6372 -0.29752,-1.1355 0,-0.4437 -0.0764,-1.2462 -0.16982,-1.7834 -0.0934,-0.5373 -0.21006,-2.0343 -0.25917,-3.3268 -0.0878,-2.3109 -0.0819,-2.3581 0.35688,-2.8313 0.48499,-0.5231 0.65086,-0.569 1.12984,-0.3125 0.2826,0.1512 0.31715,0.5307 0.33556,3.6883 0.0119,2.0322 0.11313,3.9337 0.23964,4.4989 0.17546,0.7842 0.17348,1.0342 -0.009,1.2551 -0.31031,0.3739 -0.96288,0.3479 -1.32553,-0.053 z m -140.15604,-1.3907 c -0.28583,-0.7518 -0.21784,-0.9229 0.71316,-1.7937 2.17699,-2.0363 2.92752,-2.3927 6.66148,-3.1633 0.93926,-0.1938 2.51666,-0.6212 3.50534,-0.9497 1.4204,-0.4721 2.26912,-0.6304 4.04462,-0.755 4.14182,-0.2905 6.44279,-0.092 7.97868,0.6882 0.91416,0.4643 2.98675,2.0971 2.98675,2.3528 0,0.1099 0.25682,0.4648 0.57071,0.7886 0.55737,0.5751 0.56303,0.5973 0.24179,0.9523 -0.4521,0.4996 -1.28069,0.4776 -1.54622,-0.041 -0.41869,-0.8177 -1.72201,-1.9734 -2.77162,-2.4575 -1.4712,-0.6786 -3.38953,-0.9949 -4.61958,-0.7616 -0.52416,0.1 -1.68105,0.2256 -2.57087,0.2806 -1.38957,0.086 -6.13573,1.1217 -7.8196,1.7069 -0.24717,0.086 -0.81341,0.2553 -1.25832,0.3763 -0.44492,0.1209 -1.1325,0.3474 -1.52797,0.5032 -0.77693,0.3063 -2.32083,1.7574 -2.51263,2.3618 -0.0986,0.3105 -0.26589,0.3721 -1.00928,0.3721 -0.79116,0 -0.91081,-0.051 -1.06644,-0.461 z m 304.37584,0.2453 c -0.34241,-0.3424 -0.25937,-0.7487 0.42121,-2.0613 0.72724,-1.4024 2.12933,-2.8331 2.93424,-2.9941 0.54198,-0.1085 1.52248,0.1262 1.96055,0.469 0.27445,0.2149 0.12188,0.8451 -0.28128,1.162 -0.15721,0.1236 -0.51846,0.2247 -0.80277,0.2247 -0.53936,0 -1.75124,0.7922 -1.75124,1.1449 0,0.1118 -0.32998,0.6684 -0.73326,1.2369 -0.7471,1.0531 -1.26828,1.2971 -1.74745,0.8179 z m -216.88979,-0.2927 c -0.47176,-0.5213 -0.35282,-0.8941 0.40935,-1.2829 0.38876,-0.1983 0.75867,-0.4445 0.822,-0.5469 0.25354,-0.4103 2.07572,-1.6165 2.44195,-1.6165 0.21499,0 0.66777,0.1711 1.00614,0.3802 0.87351,0.5399 0.75717,1.0426 -0.33115,1.4309 -0.46029,0.1643 -1.29686,0.6733 -1.85903,1.1313 -1.13391,0.9237 -1.95832,1.0905 -2.48926,0.5039 z m -17.73433,-0.4524 c -3.14707,-1.0612 -5.02436,-2.5401 -4.6065,-3.629 0.20568,-0.536 1.64108,-0.1718 2.53925,0.6443 0.58539,0.5319 3.3406,1.6312 4.35796,1.7388 1.13232,0.1197 1.44618,0.4047 1.1534,1.0472 -0.20428,0.4483 -0.86501,0.8112 -1.4335,0.7873 -0.16658,-0.011 -1.07135,-0.272 -2.01061,-0.5886 z m 200.43357,-0.9267 c -0.33503,-0.2471 -0.76052,-0.4494 -0.94555,-0.4494 -0.18502,0 -0.47267,-0.072 -0.63916,-0.1611 -0.16653,-0.089 -0.99266,-0.2454 -1.83587,-0.3482 -1.47013,-0.1793 -2.97066,-0.5652 -3.63261,-0.9344 -0.17167,-0.096 -0.47869,-0.1741 -0.68227,-0.1741 -0.41805,0 -1.25259,-0.7532 -1.25259,-1.1304 0,-0.1364 0.53789,-0.9693 1.19532,-1.8508 0.65744,-0.8814 1.63853,-2.2496 2.18023,-3.0402 0.54169,-0.7907 1.13982,-1.64 1.32918,-1.8875 2.12373,-2.7756 2.98483,-3.7779 3.68409,-4.2885 l 0.8256,-0.603 0.41963,0.5131 c 0.2308,0.2821 0.42176,0.5939 0.42435,0.6928 0.003,0.099 -0.56206,0.6918 -1.25481,1.3178 -0.69272,0.6259 -1.38926,1.389 -1.54783,1.6957 -0.15858,0.3067 -0.52327,0.8056 -0.81039,1.1089 -0.28713,0.3032 -0.9601,1.2793 -1.4955,2.1692 -0.53538,0.8897 -1.11986,1.7091 -1.29886,1.8205 -0.17898,0.1115 -0.48437,0.5043 -0.67863,0.873 -0.33542,0.6365 -0.3373,0.6819 -0.0374,0.9011 0.17369,0.1271 1.26288,0.449 2.42045,0.7155 3.12983,0.7205 3.70926,0.9031 5.43024,1.7114 0.41967,0.1971 0.42014,0.9462 0,1.3962 -0.48743,0.5232 -1.04484,0.5085 -1.79845,-0.047 z m -229.5189,-1.2043 c -0.11864,-0.1187 -0.21571,-0.4735 -0.21571,-0.7884 0,-0.4879 0.19966,-0.7475 1.3487,-1.7536 1.51586,-1.3273 1.97919,-1.4858 3.7793,-1.293 2.39022,0.2559 2.26558,1.7138 -0.14651,1.7138 -1.24504,0 -1.49524,0.1174 -2.93418,1.376 -1.12781,0.9865 -1.45653,1.1202 -1.8316,0.7452 z m 278.05439,-0.5057 c -1.16134,-0.7753 -3.41662,-1.6032 -4.72059,-1.733 -1.28,-0.1274 -1.57105,-0.292 -1.57105,-0.8886 0,-0.5984 0.81962,-0.9713 2.13485,-0.9713 1.13262,0 2.26318,0.4536 5.10053,2.0462 1.35142,0.7587 1.50467,1.1141 0.73973,1.7157 -0.61486,0.4837 -0.72197,0.473 -1.68347,-0.169 z m -206.7173,-0.7056 c -0.20688,-0.2905 -0.82366,-0.7472 -1.37066,-1.0148 -0.8505,-0.4161 -2.77175,-2.0062 -2.77175,-2.294 0,-0.3644 0.39853,-1.0166 0.62121,-1.0166 0.14885,0 0.73731,0.2999 1.30773,0.6665 0.57042,0.3665 1.41775,0.8573 1.88298,1.0906 1.06914,0.5362 1.94044,1.5097 1.94044,2.1679 0,1.0278 -0.98823,1.2736 -1.60995,0.4004 z m -53.12729,-0.7506 c -0.2966,-0.1997 -1.12617,-0.6472 -1.84346,-0.9946 -1.13154,-0.5481 -1.53605,-0.6451 -3.05592,-0.7327 -1.92218,-0.1108 -2.56071,-0.2721 -2.56071,-0.6467 0,-0.4116 0.57772,-0.7703 1.61785,-1.0046 0.82162,-0.1851 1.2469,-0.1761 2.51666,0.053 4.21955,0.7619 7.81042,3.5255 4.74515,3.6519 -0.63027,0.026 -1.03344,-0.066 -1.41957,-0.3264 z m 236.62835,-0.1201 c -0.33115,-0.2863 -1.18349,-0.8971 -1.89407,-1.3573 -0.71056,-0.4602 -1.34321,-0.9197 -1.40585,-1.0211 -0.0627,-0.1008 -0.49244,-0.3762 -0.95507,-0.6109 -0.46262,-0.2346 -0.98909,-0.5902 -1.16989,-0.7903 -0.18083,-0.2002 -0.78752,-0.5393 -1.34821,-0.7538 -0.56071,-0.2146 -1.26072,-0.5201 -1.55558,-0.6792 -0.29487,-0.1591 -0.86111,-0.347 -1.25833,-0.4178 -0.39721,-0.07 -1.20755,-0.2116 -1.80077,-0.3131 -0.59321,-0.1018 -2.17061,-0.1625 -3.50534,-0.1356 -2.86529,0.058 -3.71834,0.2733 -6.56128,1.659 -1.08756,0.5301 -2.0768,0.9642 -2.19829,0.9646 -0.12153,0 -0.72975,0.1679 -1.3516,0.372 -0.85488,0.2807 -1.20457,0.4999 -1.43352,0.8988 -0.37117,0.6467 -0.99523,0.6949 -1.88435,0.1453 -1.33731,-0.8264 -1.08039,-1.7786 0.60268,-2.2334 0.47975,-0.1296 1.51938,-0.4082 2.31034,-0.619 0.79094,-0.2108 1.95561,-0.6264 2.58818,-0.9236 3.62118,-1.7008 6.35046,-2.1226 10.95093,-1.6925 1.55053,0.1449 3.10226,0.3599 3.44831,0.4776 2.27801,0.775 4.19676,1.8442 6.11187,3.4056 0.44491,0.3627 1.08148,0.7992 1.41459,0.9698 1.13442,0.581 2.3621,1.5712 2.46717,1.9899 0.29644,1.1811 -0.55717,1.5422 -1.57192,0.665 z m 65.86453,0.2285 c -0.22245,-0.1584 -0.40446,-0.3524 -0.40446,-0.431 0,-0.079 0.4826,-0.6299 1.07242,-1.2253 1.72718,-1.7433 4.07732,-2.5368 4.40993,-1.4887 0.15839,0.499 0.0165,0.6609 -1.04599,1.1942 -0.51204,0.2571 -1.258,0.8149 -1.65765,1.2398 -0.85234,0.9061 -1.73087,1.1692 -2.37425,0.711 z m 13.65003,-2.2929 c -0.32781,-0.105 -0.93034,-0.5416 -1.33895,-0.9703 -0.67187,-0.7049 -0.8243,-0.7795 -1.59321,-0.7795 -0.79166,0 -1.41522,-0.3128 -1.41522,-0.7099 0,-0.5485 1.96374,-0.8916 3.19865,-0.5586 0.56663,0.1527 1.11586,0.5445 2.06513,1.4734 1.22601,1.1995 1.27522,1.2784 0.94642,1.5189 -0.39808,0.2911 -1.00834,0.2996 -1.86282,0.026 z m -277.54822,-0.5274 c -0.30574,-0.3057 -0.26738,-0.7642 0.0989,-1.1814 0.54405,-0.6199 6.83635,-1.6198 7.13649,-1.1341 0.32756,0.53 -1.32952,1.8116 -2.34369,1.8127 -0.2879,0 -1.35551,0.1621 -2.37243,0.3595 -2.16895,0.4211 -2.23749,0.425 -2.51925,0.1433 z m 42.42721,-6.4804 c -0.12307,-0.1501 -0.13453,-1.2694 -0.0345,-3.3706 0.0823,-1.7302 0.10458,-3.7137 0.0495,-4.408 -0.11371,-1.4307 0.0165,-1.6505 1.08052,-1.8231 0.93829,-0.1522 1.10026,0.2725 0.8561,2.2449 -0.10619,0.8577 -0.1841,1.9639 -0.17315,2.4583 0.0485,2.1922 -0.12755,4.5495 -0.36089,4.8307 -0.28713,0.346 -1.15537,0.3874 -1.41751,0.068 z m 136.93674,-1.1255 c -0.28164,-0.3393 -0.27539,-1.8416 0.0159,-3.7987 0.25573,-1.7189 0.52823,-2.1058 1.33178,-1.8909 0.6983,0.1868 0.82188,0.7416 0.53121,2.3851 -0.12929,0.731 -0.19139,1.622 -0.13802,1.9801 0.12969,0.8699 -0.33379,1.5961 -1.01874,1.5961 -0.27313,0 -0.59804,-0.1223 -0.72199,-0.2717 z m 0.5104,-9.9298 c -0.33329,-0.3603 -0.53752,-0.9064 -0.75321,-2.0139 -0.16275,-0.8357 -0.37116,-1.5948 -0.46313,-1.6867 -0.10311,-0.1029 -0.61922,0.014 -1.34627,0.3048 l -1.17907,0.4721 -3.34134,-0.4226 c -2.81288,-0.3557 -3.40106,-0.4822 -3.71883,-0.8 -0.31989,-0.3198 -0.34631,-0.4459 -0.1732,-0.8258 0.11237,-0.2466 0.45874,-0.58 0.76972,-0.7408 0.53343,-0.2758 0.58726,-0.2727 0.95153,0.056 0.49934,0.4494 2.93392,0.7903 4.07123,0.5703 1.29994,-0.2517 2.70269,-0.5458 3.92737,-0.8236 1.0471,-0.2374 1.19481,-0.2322 1.79425,0.062 l 0.65319,0.321 0.0422,1.6178 c 0.0244,0.9337 0.16163,1.9318 0.32457,2.3603 0.26861,0.7062 0.26364,0.7742 -0.10154,1.3931 -0.45953,0.7788 -0.84354,0.8201 -1.45747,0.1564 z m -137.46455,-3.3291 c -0.15219,-0.2844 -0.20224,-1.2779 -0.1652,-3.2785 l 0.0531,-2.8702 0.52954,-0.2537 c 0.43912,-0.2103 0.76136,-0.2171 1.88749,-0.039 1.83551,0.29 4.29772,0.3866 5.12092,0.201 0.90079,-0.2032 1.68857,0.08 1.83402,0.6596 0.27228,1.085 -1.40584,1.5059 -5.03518,1.2631 -1.40295,-0.093 -2.37989,-0.089 -2.48073,0.012 -0.19485,0.1949 -0.25153,3.6828 -0.0648,3.9851 0.20852,0.3373 -0.26658,0.7292 -0.88415,0.7292 -0.41564,0 -0.63777,-0.114 -0.79514,-0.408 z m 106.03686,-0.3102 c -0.54377,-0.079 -2.12117,-0.2838 -3.50534,-0.4552 -1.61431,-0.1998 -2.62945,-0.4098 -2.83124,-0.5856 -0.46006,-0.4009 -0.39303,-1.0575 0.14381,-1.4093 0.4019,-0.2633 0.58463,-0.2729 1.48303,-0.078 2.2395,0.4863 2.70209,0.5386 4.26034,0.4812 l 1.61785,-0.06 0.6851,0.7046 c 0.91834,0.9445 0.86695,1.4793 -0.14582,1.5178 -0.39546,0.015 -1.16394,-0.037 -1.70773,-0.1163 z m -313.439077,-0.1752 c -0.40277,-0.1667 -0.96515,-0.8515 -0.95993,-1.1689 0.002,-0.1019 0.48897,-0.7914 1.08291,-1.5329 0.59393,-0.7415 1.4963,-1.955 2.00527,-2.6965 0.50895,-0.7415 1.15231,-1.6313 1.42967,-1.9774 0.27734,-0.346 1.16333,-1.5189 1.96885,-2.6065 0.80551,-1.087496 1.65671,-2.205996 1.89156,-2.485496 0.23485,-0.2795 0.42699,-0.6626 0.42699,-0.8514 0,-0.464 -1.55796,-2.2841 -4.43812,-5.1849 -1.31604,-1.3254 -2.3928,-2.5465 -2.3928,-2.7134 0,-0.1671 0.15505,-0.4439 0.34458,-0.6155 0.28934,-0.2619 0.41116,-0.2762 0.76026,-0.089 0.22865,0.1225 0.50944,0.3109 0.62399,0.4189 1.82506,1.7201 3.84243,3.7843 4.91138,5.0253 0.73549,0.8538 1.464,1.5525 1.6189,1.5525 0.15489,0 1.00918,-0.9041 1.89843,-2.0091 1.89313,-2.3525 5.062447,-5.7207 5.382897,-5.7207 0.12255,0 0.36508,-0.1572 0.53896,-0.3492 0.17387,-0.1922 0.54995,-0.4008 0.83571,-0.4635 0.28576,-0.063 0.59663,-0.2494 0.69079,-0.4146 0.22454,-0.3942 0.79426,-0.076 0.87835,0.4917 0.0756,0.5097 -0.1318,0.7466 -1.66799,1.9064 -1.19935,0.9054 -3.968177,3.8334 -5.399557,5.7101 -0.36028,0.4723 -0.97322,1.1738 -1.36209,1.5588 -0.38887,0.3849 -0.70703,0.8102 -0.70703,0.9448 0,0.1347 0.27632,0.6871 0.61403,1.2276 0.33772,0.5404 0.81525,1.306196 1.06117,1.701596 0.24593,0.3955 0.81753,1.4406 1.27022,2.3224 0.670197,1.3055 0.783367,1.6561 0.60937,1.8875 -0.28736,0.3821 -0.91436,0.9043 -1.09167,0.9093 -0.2518,0.011 -1.02504,-0.9359 -1.02504,-1.2501 0,-0.7321 -1.45631,-3.5006 -2.48146,-4.717196 -0.35564,-0.422 -0.76958,-0.1755 -1.50391,0.895796 -0.32091,0.468 -1.0708,1.4536 -1.66642,2.1898 -1.32138,1.6334 -1.73668,2.2003 -2.37748,3.2452 -0.27285,0.445 -0.90025,1.3752 -1.39422,2.0673 -0.65196,0.9134 -0.92477,1.48 -0.99533,2.0673 -0.0845,0.7032 -0.15587,0.8137 -0.5466,0.8464 -0.24718,0.021 -0.62277,-0.035 -0.83464,-0.1219 z m 322.221507,-0.1403 c -0.7759,-0.076 -1.31346,-0.5851 -1.15281,-1.0913 0.1231,-0.3878 1.04906,-0.8525 1.34023,-0.6726 0.1008,0.062 0.89439,-7e-4 1.76354,-0.1398 1.0448,-0.1674 2.32745,-0.222 3.78549,-0.1611 l 2.20521,0.092 0.53614,0.6106 c 1.04661,1.1921 0.67474,1.485 -1.71088,1.3479 -2.2425,-0.129 -4.24913,-0.1343 -5.30296,-0.014 -0.44492,0.05 -1.1037,0.063 -1.46396,0.028 z m -31.61207,-0.7639 c -0.93926,-0.049 -1.80886,-0.1554 -1.93243,-0.2353 -0.33888,-0.2194 -0.26975,-0.9265 0.12552,-1.2843 0.31108,-0.2815 0.76543,-0.3165 4.0623,-0.3132 h 3.71205 l 0.4512,0.6639 c 0.70695,1.0405 0.42423,1.185 -2.39376,1.2234 -1.27444,0.018 -3.08562,-0.011 -4.02488,-0.058 z m -31.73084,-0.9577 c -0.32762,-0.4678 -0.3384,-0.8528 -0.0355,-1.2671 0.19551,-0.2674 0.59043,-0.3256 2.5616,-0.3774 1.28174,-0.034 3.18508,-0.12 4.22962,-0.1918 2.05464,-0.1412 2.68475,0.011 2.68475,0.6395 0,0.5082 -1.20288,1.0553 -2.5506,1.1602 -0.62399,0.048 -1.33675,0.1267 -1.58392,0.1736 -0.24717,0.047 -1.48214,0.1209 -2.74437,0.1644 -2.17988,0.076 -2.30834,0.06 -2.56159,-0.3014 z m -13.02966,-0.6537 c -0.64265,-0.068 -1.77515,-0.09 -2.51666,-0.048 -1.32238,0.074 -3.7397,-0.3408 -4.26933,-0.7341 -0.37906,-0.2816 -0.25698,-0.9592 0.2303,-1.2785 0.38764,-0.254 0.66036,-0.273 1.84255,-0.1286 0.76316,0.093 2.63389,0.1766 4.15721,0.1853 2.20343,0.013 2.83107,0.071 3.0701,0.2877 0.16524,0.1495 0.38108,0.272 0.47964,0.272 0.0986,0 0.35138,0.1832 0.56181,0.4072 0.53851,0.5732 0.26191,0.9388 -0.71807,0.9489 -0.42365,0 -0.97254,0.055 -1.2197,0.1106 -0.24717,0.057 -0.97521,0.046 -1.61785,-0.022 z m -19.32432,-0.392 c -2.42429,-0.2334 -3.40309,-0.5162 -3.4723,-1.0031 -0.041,-0.2886 0.10007,-0.4952 0.50747,-0.743 0.49247,-0.2995 0.80869,-0.3313 2.48361,-0.2501 1.05563,0.052 2.51585,0.086 3.24496,0.078 0.98257,-0.012 1.43468,0.064 1.74703,0.2905 0.50708,0.3684 0.53686,0.6118 0.11808,0.9653 -0.75109,0.6341 -2.4307,0.8747 -4.62885,0.663 z m 102.33126,-3.1315 c -0.27062,-0.1469 -0.54085,-0.4615 -0.60049,-0.6991 -0.10111,-0.4031 0.33263,-1.9506 0.90933,-3.244 1.217,-2.729296 1.32736,-3.084996 1.37919,-4.444796 0.0295,-0.775 -0.0276,-1.4694 -0.12938,-1.5712 -0.12324,-0.1232 -0.50031,-0.063 -1.16373,0.187 -0.53978,0.2032 -1.46189,0.5274 -2.04913,0.7208 -0.82468,0.2714 -1.33611,0.6098 -2.24702,1.4865 -1.42885,1.3755 -2.3085,1.9562 -3.58519,2.3667 -1.19484,0.384196 -3.1313,0.2948 -3.85278,-0.178 -0.41535,-0.2722 -0.56223,-0.2852 -1.02916,-0.091 -0.62798,0.2601 -2.39214,0.138 -2.79121,-0.1932 -0.34282,-0.2845 -0.32582,-0.7876 0.0369,-1.0885 0.16171,-0.1342 0.70773,-0.2856 1.21339,-0.3365 l 0.91934,-0.092 v -1.7078 c 0,-2.1885 0.44299,-3.2007 1.79682,-4.1055 0.7605,-0.5082 1.00329,-0.5832 1.58556,-0.4901 1.98608,0.3175 2.46682,1.981 1.14352,3.9568 -1.2617,1.8838 -1.4329,2.2461 -1.19611,2.5314 0.30622,0.3689 1.07154,0.3299 2.09308,-0.1068 0.95089,-0.4066 2.03391,-1.425 2.04294,-1.921 0.0141,-0.767 0.9444,-1.3411 2.69299,-1.6614 0.64137,-0.1175 1.6515,-0.3976 2.24471,-0.6224 1.40284,-0.5315 2.80319,-0.7144 3.16709,-0.4136 0.73012,0.6035 0.94249,1.2687 0.93257,2.9206 -0.0108,1.8015 -0.2079,2.5928 -1.29378,5.194696 -0.79417,1.9029 -0.78457,2.122 0.10786,2.4613 0.52063,0.198 0.56075,0.972 0.0641,1.2377 -0.50134,0.2684 -1.81789,0.2159 -2.39136,-0.095 z M 404.83662,94.618154 c 0.72412,-1.2477 0.76424,-1.3804 0.49803,-1.6466 -0.2662,-0.2662 -0.32741,-0.2541 -0.75972,0.1497 -0.66777,0.6239 -0.97531,1.2981 -0.97531,2.1381 0,1.0808 0.33981,0.9046 1.237,-0.6412 z M 122.7019,102.96385 c -0.0728,-0.1176 -0.16926,-0.8542 -0.21456,-1.6366 -0.0795,-1.373996 0.10049,-2.645496 0.59058,-4.171496 0.12703,-0.3954 0.33334,-1.2043 0.45848,-1.7976 0.12513,-0.5932 0.38379,-1.5818 0.57479,-2.1968 0.33893,-1.0912 0.31861,-1.4882 -0.0761,-1.4882 -0.26478,0 -2.05814,-1.5013 -2.87667,-2.4082 -0.82245,-0.9112 -1.0178,-1.616 -0.58158,-2.098 0.43801,-0.484 0.91319,-0.4334 1.28697,0.1371 0.41585,0.6347 1.93515,2.1497 2.41132,2.4045 0.23729,0.1271 0.4367,0.1376 0.54549,0.028 0.0943,-0.094 0.23902,-1.0523 0.32158,-2.1289 0.19531,-2.5467 0.47484,-3.2802 1.15116,-3.0207 0.77626,0.2979 0.82224,3.0824 0.10363,6.2764 -0.20019,0.8898 -0.43536,1.9425 -0.52258,2.3393 -0.0873,0.3969 -0.32422,1.1654 -0.52667,1.7078 -0.20243,0.5424 -0.44386,1.5239 -0.53648,2.1812 -0.0926,0.6573 -0.257,1.3605 -0.36525,1.5628 -0.10827,0.2023 -0.27959,1.2015 -0.38075,2.220496 -0.10112,1.0189 -0.21952,1.9537 -0.26308,2.0773 -0.10069,0.2859 -0.92526,0.294 -1.10024,0.01 z m 181.9922,-1.0973 c -0.36635,-0.218 -0.8517,-0.6922 -1.07856,-1.0535 -0.58892,-0.938196 -0.93299,-1.116196 -1.54556,-0.7994 -0.85207,0.4406 -3.73672,0.966 -5.44525,0.9919 -1.35619,0.02 -1.64651,-0.291 -1.51193,-1.621996 0.0539,-0.5332 0.12802,-3.1535 0.16469,-5.823 0.0366,-2.6695 0.12222,-4.9888 0.19011,-5.1542 0.1855,-0.4519 0.63505,-0.5496 1.10683,-0.2403 l 0.42127,0.2759 -0.0421,5.1659 -0.0421,5.1658 1.29722,0.053 c 0.85462,0.035 1.46793,-0.034 1.7976,-0.2007 0.46269,-0.2342 1.58631,-0.5183 2.19708,-0.5553 0.17383,-0.01 0.33227,-0.4141 0.48333,-1.2308 0.22777,-1.2316 0.67495,-2.0662 1.36666,-2.5507 0.58855,-0.4122 2.34331,-0.1685 3.51497,0.4882 1.3629,0.7639 1.54716,1.2112 1.30825,3.1762 -0.10563,0.8686 -0.28657,1.8535 -0.40214,2.188496 -0.66241,1.9208 -2.24104,2.6411 -3.78031,1.7248 z m 1.82289,-1.912796 c 0.6768,-0.6769 0.97992,-2.8168 0.4601,-3.2482 -0.17311,-0.1436 -0.52181,-0.1844 -0.9677,-0.1131 -0.50329,0.081 -0.75856,0.038 -0.91818,-0.155 -0.29815,-0.3592 -0.49194,-0.2031 -0.70469,0.5674 -0.15367,0.5565 -0.10437,0.8075 0.35882,1.8292 0.70605,1.557096 1.09097,1.800396 1.77165,1.1197 z m 27.09357,1.636896 c -0.19881,-0.2196 -0.29847,-0.6519 -0.30041,-1.3032 -0.002,-0.535996 -0.17212,-2.349696 -0.37895,-4.030496 -0.20685,-1.6807 -0.4345,-3.7435 -0.50594,-4.5838 -0.0714,-0.8405 -0.23959,-1.906 -0.37367,-2.368 -0.2806,-0.9669 -0.14992,-1.2433 0.79775,-1.687 0.30448,-0.1426 0.91011,-0.4616 1.34586,-0.7088 0.95091,-0.5394 1.59546,-0.5626 2.89974,-0.105 1.19155,0.4184 2.06411,1.3379 2.19204,2.3097 0.14888,1.131 -0.11692,2.4782 -0.63699,3.2286 -0.26586,0.3836 -0.48338,0.8379 -0.48338,1.0096 0,0.5262 -0.67155,1.6634 -1.17838,1.9954 -0.29282,0.192 -0.66488,0.2777 -0.95409,0.22 -1.2459,-0.2486 -1.19457,-0.2748 -1.1749,0.599 0.0105,0.4449 0.0788,1.7494 0.15308,2.8989 0.14892,2.307696 0.0171,2.853496 -0.68904,2.853496 -0.22837,0 -0.5491,-0.148 -0.71272,-0.3288 z m 2.74619,-8.462296 c 0.20448,-0.2871 0.37231,-0.6714 0.37295,-0.8539 0,-0.1824 0.1619,-0.5745 0.35834,-0.871 0.59521,-0.8988 0.33022,-2.5521 -0.45746,-2.8544 -0.56426,-0.2165 -1.4849,-0.1077 -1.89434,0.2238 -0.3578,0.2896 -0.41884,0.5163 -0.44789,1.6627 -0.0397,1.5668 0.29448,2.5718 0.97892,2.9437 0.64236,0.349 0.66618,0.3436 1.08948,-0.2509 z m 42.20839,8.116996 c -0.41948,-0.466 0.002,-1.390696 0.70202,-1.539296 0.28276,-0.06 0.91858,-0.4157 1.41293,-0.7905 1.02751,-0.7787 1.95242,-2.4462 2.1434,-3.8643 0.12851,-0.9542 0.4738,-1.4008 1.08313,-1.4008 0.62002,0 0.76497,0.3112 0.85871,1.8436 0.0945,1.5442 0.33857,1.9789 1.35253,2.408 0.72192,0.3055 0.76844,0.8325 0.11151,1.2629 -0.67544,0.4426 -1.58262,0.3962 -2.11976,-0.1084 -0.55396,-0.5205 -0.8602,-0.4116 -1.44386,0.5129 -0.56267,0.891296 -0.96393,1.160996 -2.41919,1.625896 -1.38024,0.4409 -1.33085,0.4394 -1.68142,0.05 z m -66.71278,-0.3816 c -0.16756,-0.1851 -0.46926,-0.7715 -0.67044,-1.303196 -0.20121,-0.5317 -0.57011,-1.4925 -0.81979,-2.1351 -1.03375,-2.6607 -1.12789,-4.1345 -0.26411,-4.1345 0.43051,0 0.639,0.2631 0.92595,1.1684 0.39289,1.2397 1.27025,2.845 1.4543,2.661 0.0933,-0.094 0.26915,-0.768 0.39069,-1.4992 0.19034,-1.1452 0.28837,-1.3672 0.70708,-1.6015 0.44823,-0.2507 0.52529,-0.2431 0.9887,0.099 0.30229,0.2229 0.62378,0.7299 0.80673,1.2722 0.34253,1.0153 1.52165,3.1135 1.7497,3.1135 0.082,0 0.22817,-0.1008 0.3248,-0.2247 0.30386,-0.3887 1.09892,-2.8818 1.2182,-3.8199 0.0628,-0.4943 0.18272,-1.101 0.2664,-1.3482 0.0837,-0.2471 0.20142,-0.6747 0.26164,-0.9501 0.07,-0.32 0.28169,-0.5662 0.58672,-0.6821 0.40445,-0.1538 0.54451,-0.1141 0.91858,0.2599 l 0.44137,0.4414 -0.31051,1.4092 c -0.17076,0.775 -0.38414,1.5951 -0.47419,1.8221 -0.09,0.2271 -0.16329,0.5911 -0.16281,0.8089 0.002,0.852 -0.97901,3.317 -1.669,4.194096 -0.27669,0.3518 -0.49811,0.4257 -1.26604,0.4223 -1.06306,0 -1.41905,-0.2345 -2.16023,-1.395496 -0.27049,-0.4237 -0.56742,-0.7237 -0.65986,-0.6666 -0.0924,0.057 -0.25842,0.4443 -0.3688,0.8603 -0.37233,1.403096 -1.49414,2.025496 -2.21508,1.228696 z m 61.76312,-0.059 c -0.14807,-0.148 -0.21571,-1.038596 -0.21571,-2.840196 0,-1.8025 -0.0676,-2.6921 -0.21584,-2.8404 -0.16704,-0.167 -0.16772,-0.3489 -0.003,-0.8045 0.1171,-0.3238 0.22165,-1.511 0.23235,-2.6381 0.0106,-1.1272 0.0871,-2.2275 0.16987,-2.4451 0.0827,-0.2176 0.4111,-0.4865 0.72972,-0.5976 0.3186,-0.111 1.20972,-0.6063 1.98025,-1.1006 1.55972,-1.0006 2.07338,-1.0941 2.64786,-0.4826 0.42557,0.453 0.48751,0.9241 0.21555,1.6395 -0.14672,0.3858 -0.28938,0.4611 -0.87458,0.4611 -0.40616,0 -0.87894,0.1395 -1.12793,0.3327 -0.2358,0.183 -0.6714,0.4119 -0.96801,0.5086 -0.51748,0.1689 -0.54115,0.2227 -0.58565,1.3301 -0.0652,1.624 0.053,1.7522 1.2638,1.3705 1.70004,-0.5359 2.82719,-0.2802 2.82719,0.6414 0,0.3356 -0.66195,0.85 -1.0937,0.85 -0.41445,0 -2.57125,0.999 -2.83007,1.3108 -0.14004,0.1689 -0.22219,1.0945 -0.2364,2.6647 -0.012,1.3233 -0.10185,2.507096 -0.19984,2.630696 -0.22701,0.2865 -1.43209,0.2928 -1.71591,0.01 z m 16.83982,-1.048096 c -0.50158,-0.5342 -0.8977,-0.8255 -0.96802,-0.7118 -0.19731,0.3192 -1.49663,1.076796 -1.84687,1.076796 -0.87036,0 -1.06898,-1.267396 -0.26422,-1.685996 0.68144,-0.3546 1.21296,-0.9688 1.57422,-1.8193 0.25375,-0.5975 0.31327,-1.4488 0.3518,-5.0333 0.0471,-4.3927 0.2733,-6.2152 0.93086,-7.5034 0.33553,-0.6573 1.02919,-1.0956 1.49832,-0.9467 0.60702,0.1927 0.85369,0.8087 0.96851,2.4188 0.0628,0.8808 0.20783,1.6181 0.34529,1.7556 0.15087,0.1509 0.78884,0.2523 1.75554,0.279 l 1.51857,0.042 v -1.0786 -1.0786 l 0.57228,-0.056 c 0.62788,-0.061 0.87995,0.2272 1.22845,1.4036 0.17683,0.597 0.23219,0.6323 1.08033,0.6889 0.49166,0.033 1.32217,-0.042 1.84558,-0.1654 0.79938,-0.1891 0.99168,-0.1843 1.20179,0.03 0.21389,0.2183 0.20468,0.3107 -0.0636,0.6375 -0.44852,0.5463 -1.34305,0.9661 -2.05895,0.9661 -0.33887,0 -0.90914,0.1223 -1.26725,0.272 l -0.65112,0.2721 -0.0146,1.6603 c -0.008,0.9132 -0.075,2.6716 -0.14867,3.9074 -0.0737,1.2359 -0.0698,2.4798 0.008,2.7643 0.2873,1.0414 -0.52322,1.541 -1.44854,0.8929 -0.41773,-0.2927 -0.4229,-0.3327 -0.30747,-2.3819 0.34438,-6.1134 0.35428,-6.8361 0.0948,-6.9208 -0.13829,-0.045 -0.95288,-0.1133 -1.81021,-0.1514 l -1.55876,-0.069 -0.21814,1.1805 c -0.11999,0.6492 -0.32857,1.3988 -0.46354,1.6658 -0.13497,0.2669 -0.24541,0.6552 -0.24541,0.8628 0,0.2075 -0.12556,0.6201 -0.27904,0.917 -0.15348,0.2968 -0.32609,1.2061 -0.38357,2.0207 -0.12571,1.7812 0.096,2.3551 1.34104,3.4713 0.72063,0.6459 0.80064,0.785096 0.59441,1.033596 -0.16099,0.1939 -0.53429,0.2871 -1.15086,0.2871 -0.86349,0 -0.95825,-0.048 -1.76159,-0.904296 z m 0.92056,-11.4993 c 0,-0.099 -0.0808,-0.1797 -0.17975,-0.1797 -0.0989,0 -0.17976,0.081 -0.17976,0.1797 0,0.099 0.0809,0.1798 0.17976,0.1798 0.0988,0 0.17975,-0.081 0.17975,-0.1798 z m -275.04431,8.8863 c -0.28777,-0.3467 -0.84264,-1.9614 -1.16955,-3.4035 -0.28671,-1.2646 -0.81767,-3.0825 -1.23388,-4.2244 -0.16216,-0.4449 -0.50173,-1.4561 -0.7546,-2.2471 -0.25288,-0.7908 -0.56101,-1.5997 -0.68473,-1.7976 -0.45254,-0.7232 -0.49297,-1.3187 -0.10363,-1.5271 0.58716,-0.3141 0.99886,0.062 1.72208,1.5716 0.74619,1.558 0.84159,1.6566 1.60568,1.6605 0.29693,0 1.07796,0.1567 1.73565,0.3447 2.6816,0.767 3.53057,1.7804 3.30935,3.9507 -0.15048,1.4761 -0.43363,1.9978 -1.83179,3.3755 -0.8725,0.8596 -1.14653,1.2512 -1.14653,1.6382 0,0.2797 -0.0971,0.6058 -0.21571,0.7244 -0.30314,0.3031 -0.95494,0.2683 -1.2323,-0.066 z m 1.7906,-4.3332 c 0.6604,-0.9969 0.77506,-2.3254 0.24164,-2.7996 -0.44148,-0.3924 -1.68735,-0.8837 -1.96787,-0.776 -0.27054,0.1039 -0.31278,1.2276 -0.0754,2.0067 0.0874,0.2867 0.26346,0.8852 0.39136,1.3302 0.12791,0.4448 0.26348,0.8696 0.30122,0.9437 0.17182,0.3374 0.59818,0.066 1.10907,-0.705 z m 208.2701,4.2045 c -0.49435,-0.1 -1.4239,-0.3189 -2.06569,-0.4876 -1.06517,-0.2799 -1.18161,-0.358 -1.33599,-0.8963 -0.1418,-0.4944 -0.11303,-0.6311 0.17821,-0.847 0.20161,-0.1494 0.53581,-0.2142 0.7967,-0.1543 0.56285,0.1288 4.03895,0.9662 4.76366,1.1474 0.44496,0.1113 0.53928,0.2265 0.53928,0.6587 0,0.4055 -0.10143,0.552 -0.44939,0.6488 -0.60632,0.1686 -1.34924,0.1473 -2.42678,-0.069 z m 57.47068,-7.0688 c -0.80655,-0.4809 -0.9558,-0.9241 -0.47359,-1.4062 0.15537,-0.1554 0.52139,-0.2826 0.81338,-0.2826 0.56433,0 0.88152,0.4814 0.88152,1.3379 0,0.7394 -0.3846,0.8499 -1.22131,0.3509 z m -247.51708,-0.799 c -0.47892,-0.1473 -0.61133,-0.3085 -0.77072,-0.9383 -0.10586,-0.4182 -0.31938,-1.0839 -0.47451,-1.4794 -0.15511,-0.3955 -0.42506,-1.083 -0.59989,-1.528 -0.17484,-0.4449 -0.39945,-1.092 -0.49915,-1.4381 -0.56518,-1.9616 -1.03947,-3.5036 -1.51214,-4.9163 -0.50563,-1.511 -0.51678,-1.6078 -0.223,-1.9324 0.55122,-0.6091 1.51187,-0.3394 1.51187,0.4245 0,0.6191 1.67143,5.6149 2.78028,8.31 0.50855,1.2361 0.84198,1.8169 1.06791,1.8604 0.59338,0.1144 1.84484,-0.159 2.19243,-0.4786 0.18748,-0.1725 0.76307,-0.5858 1.27908,-0.9184 l 0.93821,-0.6049 -0.0897,-1.0969 c -0.0494,-0.6032 -0.12205,-1.4653 -0.16164,-1.9159 -0.0886,-1.0083 0.46595,-2.1108 1.25666,-2.4985 0.58513,-0.2868 1.65109,-0.3492 2.54684,-0.1491 l 0.57505,0.1285 0.0541,-0.9374 c 0.0452,-0.7848 0.11015,-0.9374 0.39817,-0.9374 0.20716,0 0.48239,0.2503 0.6917,0.6291 0.55092,0.9971 1.20811,1.7976 1.47576,1.7976 0.28527,0 0.50044,-0.8228 0.48614,-1.8592 -0.0122,-0.8761 0.22998,-1.3764 0.66591,-1.3764 0.44452,0 0.8089,0.4619 1.20548,1.5279 0.34274,0.9214 1.56044,2.4268 1.96296,2.4268 0.47312,0 0.62337,-0.9992 0.59055,-3.9274 -0.0328,-2.9229 -0.0306,-2.9406 0.40675,-3.2767 0.56118,-0.4312 0.5925,-0.4291 1.18506,0.081 0.48145,0.4141 0.48878,0.4477 0.25305,1.1619 -0.17526,0.5311 -0.20375,1.0996 -0.10248,2.0453 0.18268,1.7064 0.18345,2.0988 0.007,3.8771 -0.1426,1.442 -0.16881,1.5058 -0.83324,2.0321 l -0.68599,0.5434 -0.91554,-0.3245 c -0.50356,-0.1784 -1.24584,-0.6414 -1.64952,-1.0291 -0.69486,-0.6672 -0.74701,-0.6869 -0.97866,-0.37 -0.1346,0.184 -0.2447,0.3864 -0.2447,0.4496 0,0.063 -0.19719,0.2206 -0.43819,0.3495 -0.38157,0.2043 -0.52226,0.185 -1.08885,-0.1494 -0.99066,-0.5844 -1.16939,-0.5169 -1.16939,0.4424 0,1.0107 -0.46009,2.6532 -0.95452,3.4075 -0.71267,1.0872 -1.93243,1.4416 -3.02205,0.8782 -0.35831,-0.1853 -0.61538,-0.2221 -0.75506,-0.108 -0.11649,0.096 -0.7243,0.4441 -1.3507,0.7754 -0.62641,0.3311 -1.34987,0.7152 -1.60771,0.8534 -0.58435,0.3131 -2.6315,0.4268 -3.40422,0.1891 z m 9.16157,-4.3052 c 0.35926,-0.7192 0.39368,-1.9564 0.08,-2.8762 -0.26889,-0.7885 -0.90147,-0.9182 -1.64095,-0.3366 -0.49018,0.3857 -0.5044,0.442 -0.40623,1.613 0.13484,1.6083 0.51929,2.3599 1.16881,2.2849 0.34556,-0.04 0.57399,-0.2359 0.79836,-0.6851 z m 12.49368,-6.306 c -1.31647,-0.7668 1.86934,-3.0301 4.27831,-3.0394 0.56717,0 0.9797,0.2695 0.9797,0.6452 0,0.2533 -1.15204,0.9705 -1.55901,0.9705 -0.15407,0 -0.82769,0.364 -1.49693,0.8089 -1.24199,0.8256 -1.64622,0.9385 -2.20207,0.6148 z m -47.91349,-0.6669 c -0.17696,-0.177 -0.4296,-0.8038 -0.56141,-1.3931 -0.1318,-0.5894 -0.4342,-1.8399 -0.672,-2.7791 -0.23779,-0.9394 -0.58563,-2.4161 -0.77298,-3.2818 -0.30473,-1.4081 -0.93769,-3.5776 -1.48125,-5.0772 -0.47433,-1.3086 -0.14074,-2.0606 0.80839,-1.8224 0.40189,0.1008 0.52465,0.3068 0.84609,1.4196 0.2068,0.7159 0.44583,1.5038 0.53117,1.751 0.0854,0.2472 0.29538,0.9955 0.46674,1.6628 0.17137,0.6674 0.40066,1.2119 0.50957,1.2101 0.25603,0 1.1544,-1.3416 2.06493,-3.0739 0.39591,-0.7532 0.97571,-1.7486 1.28846,-2.212 0.5,-0.7409 0.6368,-0.8359 1.13341,-0.7877 0.7901,0.077 0.84019,0.7339 0.1432,1.8783 -0.29242,0.4802 -0.6812,1.1684 -0.86396,1.5294 -0.18277,0.3609 -0.71091,1.3316 -1.17362,2.1571 -0.9865,1.7598 -1.20599,2.4571 -0.84582,2.687 0.13697,0.087 1.42199,0.1168 2.85558,0.065 2.26994,-0.082 2.68777,-0.053 3.23569,0.228 0.53205,0.2721 0.62917,0.4158 0.62917,0.931 0,0.5454 -0.0725,0.6345 -0.68957,0.8482 -0.57923,0.2006 -0.78564,0.1986 -1.28975,-0.012 -0.46136,-0.1928 -0.88393,-0.2128 -1.82708,-0.086 -0.6748,0.09 -1.69706,0.2114 -2.27168,0.2692 -1.21417,0.122 -1.39204,0.3572 -0.9581,1.2671 0.39324,0.8247 0.37147,1.6479 -0.0624,2.3595 -0.40733,0.668 -0.59094,0.7143 -1.04277,0.2625 z m 56.81578,-0.2534 c -0.10437,-0.1286 -0.50847,-0.8405 -0.89792,-1.582 -0.38947,-0.7415 -0.8833,-1.6313 -1.09741,-1.9773 -0.2141,-0.3461 -0.38959,-0.7443 -0.38995,-0.8848 0,-0.1405 -0.20872,-0.7755 -0.46299,-1.4112 -0.42648,-1.0659 -0.46439,-1.3875 -0.48909,-4.1485 -0.0299,-3.3418 0.10765,-4.0733 0.96006,-5.1052 0.49168,-0.5952 0.65073,-0.6741 1.35981,-0.6741 0.97051,0 2.00989,0.4993 2.66836,1.2818 0.42528,0.5054 0.47608,0.694 0.40182,1.4909 -0.11256,1.2081 -0.54369,3.1532 -0.80553,3.6344 -0.38496,0.7074 -1.28698,1.3226 -1.93918,1.3226 -0.43278,0 -0.61537,0.082 -0.61537,0.2753 0,0.3839 0.71159,2.4741 0.91298,2.6818 0.091,0.095 0.16559,0.2863 0.16559,0.4277 0,0.1413 0.36802,1.0084 0.8178,1.9269 0.70567,1.441 0.79669,1.7521 0.66373,2.2687 -0.11715,0.4552 -0.26307,0.6117 -0.60851,0.6527 -0.24991,0.029 -0.53981,-0.051 -0.6442,-0.1797 z m -0.80755,-9.7191 c 0.45206,-0.4813 1.04174,-2.9308 0.87013,-3.6146 -0.0637,-0.2539 -0.27126,-0.5448 -0.46115,-0.6465 -0.28519,-0.1525 -0.4101,-0.093 -0.71766,0.3383 -0.49394,0.6936 -0.77922,4.3302 -0.33969,4.3302 0.14609,0 0.43786,-0.1834 0.64837,-0.4074 z m 4.79365,7.4446 c -1.16436,-0.4734 -1.35353,-0.6433 -1.51547,-1.3613 -0.37754,-1.674 1.54532,-5.1367 2.85239,-5.1367 0.29636,0 0.59391,0.089 0.66125,0.1982 0.0673,0.109 0.39523,0.312 0.72865,0.4514 0.35203,0.1471 0.80039,0.5609 1.06926,0.9868 0.44709,0.7082 0.475,0.7226 0.81067,0.4188 0.49706,-0.4498 0.75976,-1.6092 0.65722,-2.9005 -0.0715,-0.9003 -0.0294,-1.1686 0.21881,-1.3932 0.65817,-0.5955 1.60029,-0.1249 2.7681,1.383 0.51397,0.6636 0.74359,0.8406 0.89457,0.6896 0.29748,-0.2974 0.20084,-3.7337 -0.13221,-4.7004 -0.24438,-0.7094 -0.24251,-0.8151 0.0196,-1.1049 0.53431,-0.5904 0.98279,-0.3646 2.84405,1.4323 0.53768,0.5191 1.04936,0.9437 1.13709,0.9437 0.22352,0 2.24561,2.4777 2.6278,3.22 0.1737,0.3373 0.35723,1.07 0.40784,1.6281 0.11397,1.2568 -0.10143,1.517 -1.49591,1.8065 -0.94507,0.1962 -1.03055,0.1844 -1.43798,-0.1983 -0.56485,-0.5307 -0.53914,-0.7186 0.15794,-1.1557 0.9621,-0.603 0.88535,-1.2413 -0.3189,-2.6519 -1.03935,-1.2175 -1.4936,-1.5447 -1.61403,-1.1626 -0.0384,0.1219 -0.10549,0.8283 -0.14903,1.5699 -0.0444,0.7556 -0.25376,1.8222 -0.47641,2.4268 -0.21849,0.5932 -0.4566,1.4563 -0.52911,1.9178 -0.16442,1.0465 -0.45514,1.4078 -1.1327,1.4078 -1.03755,0 -1.21398,-0.2354 -1.18107,-1.5757 0.0208,-0.8491 -0.0631,-1.3851 -0.28112,-1.7948 -0.39055,-0.7342 -0.66112,-0.7481 -0.66112,-0.035 0,0.3712 -0.21924,0.8145 -0.6741,1.3633 -0.82106,0.9906 -1.41696,1.3225 -2.37457,1.3225 -0.68256,0 -0.76553,0.058 -1.28602,0.9042 -0.37185,0.6044 -0.7661,0.9919 -1.18874,1.1684 -0.3478,0.1453 -0.64269,0.256 -0.65534,0.2458 -0.0127,-0.011 -0.35081,-0.1517 -0.75149,-0.3146 z m 1.47209,-2.7714 c 0.47649,-0.9403 0.50641,-1.804 0.0653,-1.8862 -0.51313,-0.096 -1.50809,2.4637 -1.17026,3.0103 0.18754,0.3035 0.58796,-0.1039 1.10492,-1.1241 z m -52.07862,1.7402 c -0.19749,-0.238 -0.18004,-0.5605 0.10448,-1.9325 0.18784,-0.9057 0.34651,-2.3343 0.35261,-3.1747 0.006,-0.8404 0.0753,-1.6291 0.15374,-1.7527 0.0784,-0.1236 0.37068,-0.2247 0.64935,-0.2247 0.58973,0 0.69844,0.1142 1.36924,1.4381 0.95379,1.8824 2.23738,3.127 2.23738,2.1694 0,-0.191 0.22682,-0.5089 0.50407,-0.7063 0.27723,-0.1974 0.64949,-0.6289 0.82727,-0.959 0.32029,-0.5947 0.31832,-0.6132 -0.21768,-2.0351 -0.83057,-2.2035 -0.90071,-2.511 -1.19682,-5.2472 -0.37399,-3.456 -0.36209,-5.3627 0.0385,-6.1645 0.26356,-0.5277 0.42255,-0.6382 0.98478,-0.6849 0.59239,-0.049 0.76359,0.04 1.47015,0.7673 0.43984,0.4525 0.89615,1.1247 1.01405,1.4937 0.11788,0.369 0.28545,0.7477 0.37238,0.8416 0.0869,0.094 0.15804,0.3413 0.15804,0.5499 0,0.2085 0.11876,0.5361 0.26392,0.728 0.49198,0.6504 0.32346,5.5101 -0.26144,7.5394 -0.3918,1.3593 -0.39207,1.4308 -0.007,1.8425 0.89662,0.9591 2.35726,0.095 2.97327,-1.7603 0.36517,-1.0995 0.3013,-1.6189 -0.43011,-3.4977 -0.30792,-0.7909 -0.56015,-1.6631 -0.5605,-1.9382 0,-0.2751 -0.12689,-0.8008 -0.28115,-1.1684 -0.4537,-1.081 -0.55076,-3.4508 -0.17952,-4.3831 0.52803,-1.3262 1.10666,-1.9477 1.81322,-1.9477 0.73559,0 0.96084,0.2984 1.49238,1.9774 0.53246,1.6818 0.72897,3.5238 0.67123,6.2916 -0.0465,2.2273 -0.0206,2.46 0.31487,2.8312 0.20101,0.2225 0.51849,0.4045 0.70549,0.4045 0.18701,0 0.498,0.085 0.69112,0.1879 0.26061,0.1394 0.47765,0.1177 0.84204,-0.084 0.27002,-0.1497 0.79428,-0.392 1.16504,-0.5383 0.8188,-0.3232 0.87207,-0.7406 0.19698,-1.543 -1.10577,-1.3141 -0.53877,-5.0841 0.92551,-6.1538 0.26992,-0.1972 1.35471,-0.1462 2.06683,0.098 1.2827,0.4385 1.57036,2.3778 0.72678,4.8998 -0.19634,0.5869 -0.35897,1.3725 -0.36139,1.7458 -0.003,0.5329 -0.0911,0.7135 -0.40888,0.8421 -0.22246,0.09 -0.67865,0.4519 -1.01376,0.8043 -0.78031,0.8205 -2.03208,1.1497 -5.61684,1.4771 -0.98591,0.09 -1.02198,0.1127 -1.34611,0.8417 -0.18316,0.4119 -0.84466,1.2642 -1.46997,1.8939 l -1.13695,1.1448 -0.97874,-0.081 c -0.70399,-0.059 -1.10503,-0.1998 -1.42863,-0.5039 l -0.44988,-0.4226 -0.6066,0.6622 c -0.48141,0.5257 -0.73868,0.6624 -1.24664,0.6624 -0.51995,0 -0.6853,0.092 -0.88118,0.4943 -0.20045,0.411 -0.35092,0.4911 -0.89228,0.4753 -0.36908,-0.01 -0.86345,-0.1861 -1.14115,-0.4045 -0.26949,-0.212 -0.59831,-0.3854 -0.73075,-0.3854 -0.34394,0 -0.7893,0.9513 -0.7893,1.6859 0,1.0157 -0.89584,1.574 -1.45135,0.9046 z m 7.79443,-11.7785 c 0.022,-2.2049 -0.017,-2.5191 -0.46559,-3.7483 -0.58837,-1.6123 -0.73972,-1.7959 -1.03128,-1.2512 -0.15398,0.2878 -0.18488,0.8758 -0.10258,1.9517 0.16173,2.1136 0.63525,5.2226 0.85913,5.641 0.16297,0.3045 0.21591,0.3138 0.45047,0.079 0.20541,-0.2054 0.27127,-0.8126 0.28983,-2.6724 z m 12.59419,-0.2944 c 0.30453,-0.599 0.54627,-2.4195 0.38763,-2.9193 -0.13768,-0.4338 -0.49786,-0.4672 -0.8223,-0.077 -0.27989,0.3373 -0.54078,2.2899 -0.40025,2.9955 0.0542,0.2719 0.20761,0.4944 0.34102,0.4944 0.1334,0 0.35565,-0.2225 0.4939,-0.4944 z m -7.74151,-4.1784 c -0.17996,-0.6945 -0.47874,-0.7219 -0.5623,-0.052 -0.0623,0.4994 0.27107,2.3173 0.48724,2.6571 0.1755,0.2758 0.24017,-1.9684 0.0751,-2.6055 z m 11.32865,5.7702 c -0.97431,-0.7062 -1.1948,-1.1449 -1.18366,-2.3551 0.0105,-1.1304 0.73099,-2.9533 1.36667,-3.4571 0.45614,-0.3615 1.21453,-0.4128 1.52437,-0.1029 0.32004,0.32 0.26151,0.8257 -0.11916,1.0294 -0.45698,0.2446 -0.72679,0.9907 -0.78488,2.1704 -0.0467,0.9477 -0.03,0.9886 0.40071,0.9886 0.73613,0 1.50819,-1.8139 1.97795,-4.6473 l 0.38305,-2.3104 -0.43069,-0.9252 c -0.7873,-1.6915 -1.92295,-5.4179 -1.92819,-6.3271 -0.005,-0.9064 1.19637,-1.1165 1.74743,-0.3057 0.52652,0.7748 1.60002,3.7245 2.10987,5.7974 0.46803,1.9028 1.46263,4.2401 2.09171,4.9153 0.18728,0.201 0.3405,0.433 0.3405,0.5154 0,0.083 0.31759,0.4944 0.70577,0.9155 1.18044,1.2807 1.10773,2.2924 -0.14498,2.0173 -0.634,-0.1392 -1.98359,-1.5241 -2.53114,-2.5974 -0.44519,-0.8727 -0.74416,-0.8726 -0.96903,4e-4 -0.78544,3.0488 -0.98645,3.5005 -1.90074,4.2714 -1.21103,1.0211 -1.70414,1.0967 -2.65556,0.4072 z m -25.17589,-0.8545 c -0.22245,-0.1578 -0.40446,-0.3925 -0.40446,-0.5217 0,-0.3798 0.52989,-0.7999 1.00881,-0.7999 0.7869,0 1.85974,1.029 1.37303,1.3169 -0.4477,0.2649 -1.60655,0.2676 -1.97738,0 z m 331.43922,-16.4988 c -0.246,-0.647 -0.23678,-0.7206 0.13002,-1.0379 0.48993,-0.4239 1.04988,-0.533 3.37052,-0.657 l 2.15713,-0.1153 0.0571,-1.1684 c 0.0314,-0.6426 -0.0759,-3.0065 -0.23845,-5.253 -0.16259,-2.2464 -0.257,-4.1474 -0.20979,-4.2243 0.0473,-0.077 -0.0245,-1.6365 -0.1593,-3.4656 -0.13482,-1.8289 -0.24813,-4.347 -0.25182,-5.5954 -0.004,-1.5918 -0.0739,-2.3245 -0.23143,-2.4525 -0.12357,-0.1008 -0.5887,-0.228 -1.03362,-0.2837 -2.40238,-0.3008 -3.44035,-0.6603 -3.78926,-1.3122 -0.21982,-0.4107 -0.20838,-0.4868 0.10905,-0.7245 0.35999,-0.2697 0.62093,-0.2583 2.69152,0.1173 0.49435,0.089 1.3903,0.1678 1.99098,0.1738 1.19127,0.011 1.71838,0.3578 1.93213,1.269 0.10279,0.4382 0.33655,7.183 0.40495,11.6844 0.0188,1.2359 0.13526,4.322 0.25886,6.858 0.1236,2.536 0.17328,4.8159 0.11042,5.0663 -0.0629,0.2505 -0.37613,0.6418 -0.69616,0.8697 -0.50653,0.3607 -0.80326,0.4155 -2.29152,0.4235 -0.94031,0 -2.25353,0.078 -2.91825,0.1613 -1.20467,0.1515 -1.20918,0.1505 -1.39314,-0.3335 z m -29.84763,-0.7347 c -0.12447,-0.1499 -0.22091,-0.6151 -0.21434,-1.0336 0.006,-0.4185 -0.0594,-1.2058 -0.14658,-1.7496 -0.0871,-0.5438 -0.2081,-2.283 -0.26867,-3.8648 -0.0606,-1.582 -0.17666,-3.9683 -0.25797,-5.3031 -0.16938,-2.781 -0.0877,-3.1044 0.7632,-3.0215 0.51413,0.05 0.58046,0.1272 0.69562,0.8072 0.10632,0.6276 0.23073,2.4547 0.39187,5.7552 0.0359,0.7363 0.1205,0.805 1.73579,1.4091 2.07614,0.7767 3.2357,1.8704 3.2357,3.0521 0,0.2585 -0.16618,0.849 -0.36924,1.3123 -0.79195,1.8063 -4.71284,3.664 -5.56538,2.6367 z m 2.82502,-2.5962 c 0.77679,-0.4737 1.24311,-1.3647 0.91882,-1.7557 -0.30965,-0.3734 -1.27018,-0.7682 -1.86902,-0.7682 -0.47297,0 -0.47562,0.011 -0.40292,1.1497 0.0651,1.0216 0.33709,1.7277 0.6648,1.7258 0.062,-4e-4 0.3718,-0.1586 0.68832,-0.3516 z m -20.61886,1.7997 c -1.01822,-0.063 -1.99033,-0.2325 -2.40768,-0.419 l -0.69994,-0.3126 0.1055,-1.122 c 0.0581,-0.6169 0.24165,-1.6072 0.40806,-2.2003 0.22995,-0.8199 0.32233,-2.0922 0.38502,-5.303 0.0855,-4.3762 -0.0146,-5.6572 -0.66617,-8.5387 -0.20123,-0.8897 -0.52225,-2.3863 -0.71334,-3.3255 l -0.34746,-1.7078 0.4368,-0.6653 c 0.94857,-1.4449 2.44254,-1.1397 7.09442,1.4496 0.80534,0.4482 0.90054,1.6971 0.1641,2.1523 -0.35377,0.2187 -0.45501,0.1771 -1.1302,-0.4638 -1.59399,-1.5133 -3.54589,-2.3818 -4.03319,-1.7948 -0.2241,0.2701 -0.10687,1.4759 0.32726,3.3666 0.56219,2.4485 0.7442,4.8325 0.66563,8.7184 -0.044,2.1752 -0.18291,4.7823 -0.30875,5.7938 -0.2872,2.3082 -0.22388,2.4221 1.26016,2.2671 1.35024,-0.1412 1.86477,-1e-4 2.13093,0.5841 0.1902,0.4173 0.16039,0.5474 -0.24796,1.0828 -0.25526,0.3347 -0.52068,0.5941 -0.58979,0.5765 -0.0691,-0.018 -0.89416,-0.08 -1.8334,-0.1384 z m 28.83698,-1.0823 c -0.51475,-0.2083 -1.31175,-1.1906 -1.43775,-1.7721 -0.0572,-0.2643 -0.29501,-0.9254 -0.52834,-1.4692 -0.88011,-2.0511 -0.74483,-5.6323 0.37796,-10.0059 0.33409,-1.3013 0.68247,-2.5551 0.77421,-2.7862 0.0918,-0.2312 0.30217,-0.8828 0.46759,-1.4479 0.16542,-0.5652 0.54352,-1.3331 0.84023,-1.7064 0.81079,-1.0202 1.08503,-1.1373 1.66735,-0.7114 0.3105,0.227 0.28537,0.3289 -0.47623,1.9324 -0.52577,1.1069 -1.03584,2.6258 -1.47383,4.3891 -0.36842,1.483 -0.7533,3.0311 -0.85535,3.4402 -0.31827,1.2761 -0.25751,4.7098 0.0997,5.6378 0.17131,0.4449 0.4181,1.2373 0.5484,1.7609 0.13033,0.5237 0.2912,1.0063 0.35752,1.0726 0.0662,0.066 0.41984,0.1233 0.78564,0.1265 0.58645,0.011 0.67168,0.063 0.72093,0.4895 0.1055,0.9137 -0.86158,1.4572 -1.86811,1.0501 z m -39.53277,-0.8508 c -1.45345,-0.4268 -2.27049,-1.436 -2.57753,-3.1842 -0.10548,-0.6006 -0.21555,-0.7345 -0.75041,-0.913 -0.35337,-0.1179 -0.72171,-0.4032 -0.84436,-0.6539 -0.21468,-0.439 -2.0441,-2.2191 -3.05007,-2.9678 -0.87731,-0.6531 -2.60129,-1.5238 -2.90225,-1.4658 -0.15717,0.03 -0.3419,0.2568 -0.41054,0.5035 -0.19184,0.6895 -0.1817,3.0737 0.016,3.7632 0.44422,1.5489 -0.35209,2.7608 -1.39734,2.1266 -0.65678,-0.3985 -0.75892,-0.8883 -0.85369,-4.0931 -0.0454,-1.5325 -0.17415,-4.2471 -0.28625,-6.0326 -0.19666,-3.1317 -0.19031,-3.2844 0.1796,-4.3263 0.21089,-0.594 0.38343,-1.2473 0.38343,-1.4517 0,-0.2045 0.37392,-0.826 0.83096,-1.3812 0.88169,-1.071 1.23937,-1.2004 2.04523,-0.7397 0.24716,0.1412 0.65163,0.2597 0.89879,0.2631 0.24718,0 1.43233,0.5045 2.6337,1.1132 2.00575,1.0164 2.21667,1.1717 2.58025,1.8997 0.2235,0.4475 0.35412,0.9637 0.29992,1.1851 -0.35246,1.4403 -0.51288,1.854 -1.12437,2.8993 -0.45864,0.784 -1.0577,1.4688 -1.81774,2.078 -0.62352,0.4995 -1.13366,0.9792 -1.13366,1.0658 0,0.086 0.38424,0.3807 0.85386,0.6537 0.46963,0.273 1.43836,1.0897 2.15275,1.8148 0.71439,0.7251 1.42633,1.3183 1.58208,1.3183 0.15771,0 0.40702,-0.2987 0.5627,-0.6741 0.6382,-1.5393 1.56058,-2.7162 2.48845,-3.1753 1.87458,-0.9273 3.3315,-0.7486 4.30531,0.5281 0.79115,1.0372 0.64807,1.6106 -0.72069,2.8882 -0.6485,0.6053 -1.59898,1.2842 -2.11219,1.5085 -2.17927,0.9526 -2.18741,0.9586 -2.24682,1.6659 -0.11773,1.402 0.81679,2.1106 2.785,2.1115 0.71036,4e-4 1.4964,-0.077 1.74675,-0.1723 0.5038,-0.1916 1.72534,0.1999 1.72534,0.5529 0,0.1075 -0.27503,0.4704 -0.61117,0.8065 -0.47614,0.4762 -0.76412,0.6137 -1.30328,0.6223 -0.38064,0.011 -1.21788,0.037 -1.86053,0.069 -0.67482,0.034 -1.54814,-0.054 -2.06724,-0.206 z m 1.30777,-7.1344 c 0.66488,-0.335 1.35753,-0.7739 1.53924,-0.9752 0.84638,-0.9378 -0.43535,-1.5112 -1.60914,-0.7199 -0.92452,0.6233 -1.8166,2.3045 -1.22277,2.3045 0.0461,0 0.62776,-0.2742 1.29267,-0.6094 z m -9.90124,-5.0403 c 0.67279,-0.339 1.52112,-0.9256 1.88514,-1.3033 0.66478,-0.6899 1.40538,-2.2557 1.40538,-2.9714 0,-0.4542 -0.48503,-1.041 -0.86052,-1.041 -0.14601,0 -0.53647,-0.1675 -0.86767,-0.3723 -0.33122,-0.2046 -1.04322,-0.4176 -1.58224,-0.4732 -0.95043,-0.098 -0.99041,-0.084 -1.32455,0.4654 -0.60733,0.9986 -0.7028,6.3121 -0.11341,6.3121 0.12902,0 0.78505,-0.2773 1.45787,-0.6163 z m 25.9266,11.5957 c -0.289,-0.2891 -0.52546,-0.6027 -0.52546,-0.6971 0,-0.3777 0.64007,-0.6627 1.57334,-0.7005 0.56228,-0.023 1.18439,-0.171 1.45138,-0.346 0.87446,-0.5729 3.29248,-3.0315 3.63986,-3.7009 0.40802,-0.7862 0.44844,-1.6308 0.0922,-1.9265 -0.13968,-0.1159 -1.04971,-0.2973 -2.02231,-0.4029 -0.97261,-0.1057 -1.92794,-0.3039 -2.12296,-0.4405 -0.19501,-0.1365 -0.48324,-0.2483 -0.64047,-0.2483 -0.38773,0 -1.12697,-0.8183 -1.61108,-1.7834 -0.54197,-1.0805 -0.44142,-2.4104 0.30028,-3.9721 1.18386,-2.4926 2.14585,-3.105 5.23018,-3.3296 1.89519,-0.138 2.19886,-0.015 2.19886,0.8942 0,0.858 -1.34714,1.7637 -1.72178,1.1576 -0.0818,-0.1323 -0.49873,-0.1687 -1.20285,-0.105 -1.44222,0.1307 -2.42674,0.8258 -2.89174,2.0415 -0.47604,1.2445 -0.53973,1.75 -0.3087,2.4501 0.36244,1.0983 0.85035,1.3839 2.73062,1.5984 2.28783,0.2611 3.49452,0.7581 3.94599,1.6252 0.84301,1.6191 0.14016,3.3963 -2.30171,5.8201 -2.16114,2.1452 -2.88901,2.5909 -4.23097,2.5909 -0.92881,0 -1.12102,-0.064 -1.58264,-0.5254 z m 25.65414,-0.064 c -0.3784,-0.2767 -0.4221,-1.1389 -0.11873,-2.3425 0.1261,-0.5004 0.15886,-1.0683 0.0778,-1.3482 -0.0771,-0.2661 -0.15808,-1.0096 -0.18009,-1.6522 -0.0221,-0.6427 -0.097,-1.8009 -0.16668,-2.5738 -0.11368,-1.2617 -0.17067,-1.4221 -0.55796,-1.5693 -0.23726,-0.09 -0.52766,-0.3754 -0.64536,-0.6337 -0.19045,-0.418 -0.16545,-0.5065 0.2269,-0.8045 0.24252,-0.1841 0.60271,-0.3586 0.80045,-0.3877 0.31601,-0.046 0.37387,-0.238 0.47806,-1.581 0.16611,-2.1415 0.27002,-2.5837 1.01349,-4.3143 0.73907,-1.7203 1.61787,-3.0909 2.44458,-3.8126 0.59671,-0.5209 1.35629,-0.6334 2.17492,-0.3222 0.40959,0.1558 0.46459,0.2678 0.41616,0.8475 -0.0489,0.586 -0.12435,0.682 -0.61401,0.7812 -1.07345,0.2177 -1.55098,0.7732 -2.83566,3.2992 -0.28384,0.5582 -0.35092,1.0159 -0.32505,2.2182 0.018,0.8333 0.0838,1.5979 0.14638,1.6992 0.10722,0.1735 1.92396,0.067 2.47648,-0.1448 0.12533,-0.048 0.41376,0.063 0.64095,0.2471 0.34253,0.2774 0.37934,0.3975 0.21559,0.7035 -0.17249,0.3224 -0.75775,0.6086 -2.75857,1.3492 -0.26478,0.098 -0.53358,0.3123 -0.59732,0.4762 -0.0637,0.164 -0.0951,1.8351 -0.0697,3.7137 l 0.0462,3.4154 -0.49157,0.7415 c -0.36425,0.5496 -0.46075,0.8644 -0.37257,1.2158 0.21424,0.8536 -0.66525,1.3345 -1.42473,0.7791 z m 9.53798,-0.4507 c -0.50527,-0.5583 -0.35167,-1.0532 0.92218,-2.9708 0.5306,-0.7987 1.07134,-2.6806 1.34539,-4.6821 0.14225,-1.0388 0.13602,-2.1086 -0.0236,-4.0446 -0.27257,-3.3061 -0.76633,-4.7529 -1.95435,-5.7263 -0.85074,-0.6971 -1.0173,-1.347 -0.42631,-1.6632 0.401,-0.2147 1.27114,-0.2419 1.55164,-0.048 0.6683,0.4606 2.00057,3.1228 2.2701,4.5362 0.95112,4.9879 0.31967,10.4108 -1.52207,13.0718 -0.2202,0.3182 -0.56343,0.844 -0.76271,1.1685 -0.4248,0.6916 -0.97223,0.832 -1.40025,0.359 z"
     id="path275"
     inkscape:connector-curvature="0" />
</svg>
