<?xml version="1.0" encoding="UTF-8" standalone="no"?>
<!-- Created with Inkscape (http://www.inkscape.org/) -->

<svg
   xmlns:dc="http://purl.org/dc/elements/1.1/"
   xmlns:cc="http://creativecommons.org/ns#"
   xmlns:rdf="http://www.w3.org/1999/02/22-rdf-syntax-ns#"
   xmlns:svg="http://www.w3.org/2000/svg"
   xmlns="http://www.w3.org/2000/svg"
   xmlns:sodipodi="http://sodipodi.sourceforge.net/DTD/sodipodi-0.dtd"
   xmlns:inkscape="http://www.inkscape.org/namespaces/inkscape"
   version="1.1"
   id="svg124"
   width="580"
   height="166.3593"
   viewBox="0 0 580.00001 166.3593"
   sodipodi:docname="FM_demodulation_diagram.svg"
   inkscape:version="0.92.0 r">
  <metadata
     id="metadata130">
    <rdf:RDF>
      <cc:Work
         rdf:about="">
        <dc:format>image/svg+xml</dc:format>
        <dc:type
           rdf:resource="http://purl.org/dc/dcmitype/StillImage" />
        <dc:title></dc:title>
      </cc:Work>
    </rdf:RDF>
  </metadata>
  <defs
     id="defs128" />
  <sodipodi:namedview
     pagecolor="#ffffff"
     bordercolor="#666666"
     borderopacity="1"
     objecttolerance="10"
     gridtolerance="10"
     guidetolerance="10"
     inkscape:pageopacity="0"
     inkscape:pageshadow="2"
     inkscape:window-width="1280"
     inkscape:window-height="701"
     id="namedview126"
     showgrid="false"
     fit-margin-top="20"
     fit-margin-left="15"
     fit-margin-right="15"
     fit-margin-bottom="20"
     inkscape:zoom="1.3808096"
     inkscape:cx="200.39847"
     inkscape:cy="62.594219"
     inkscape:window-x="36"
     inkscape:window-y="34"
     inkscape:window-maximized="0"
     inkscape:current-layer="svg124" />
  <path
     style="fill:#171717;stroke-width:0.19447705"
     d="m 107.96408,145.89504 c -0.77639,-0.65324 -1.13551,-1.75651 -1.40142,-4.30525 -0.21371,-2.04858 -0.19941,-2.28101 0.28008,-4.55193 0.53407,-2.52946 1.15987,-3.83386 2.21283,-4.61244 2.02906,-1.50005 4.28102,-1.70668 5.40323,-0.49587 0.54924,0.59258 0.58381,1.25546 0.16073,3.07976 -0.4122,1.77728 -1.67555,3.2186 -4.01491,4.58011 -0.93198,0.54244 -1.7979,1.11084 -1.92426,1.26302 -0.22279,0.26848 -0.13898,1.97011 0.13172,2.67571 0.21261,0.55401 1.33153,0.74625 3.53558,0.60756 2.51665,-0.15857 3.21458,0.0237 3.12122,0.81551 -0.0743,0.62996 -0.37481,0.73156 -3.35528,1.13487 -2.96861,0.40182 -3.47253,0.37853 -4.14949,-0.19105 z m 2.01317,-8.11093 c 1.40387,-0.90392 2.19677,-1.69882 2.72476,-2.73193 0.81811,-1.60077 0.46136,-2.4854 -0.85055,-2.10909 -1.4106,0.40449 -2.74228,2.15136 -3.05766,4.01082 -0.0715,0.42125 -0.17191,0.91904 -0.22326,1.10624 -0.14032,0.51114 0.32629,0.41962 1.40671,-0.27604 z m 19.61329,0.4217 c -0.68833,-0.44114 -1.61812,-1.54619 -2.12346,-2.52368 -0.55216,-1.06812 -0.13454,-3.18922 1.19925,-6.09173 0.91125,-1.98301 1.04675,-2.43067 0.99626,-3.29083 -0.0322,-0.54763 -0.14596,-1.02436 -0.25292,-1.05922 -0.10694,-0.0356 -0.49511,0.78956 -0.86258,1.83217 -0.85746,2.43304 -1.30297,3.19857 -1.81685,3.12143 -0.91108,-0.13646 -0.90036,-0.62698 0.0757,-3.46215 0.53555,-1.55567 1.33972,-5.36729 1.33972,-6.34997 v -0.84562 h 0.74777 c 0.96315,0 1.21676,0.30229 1.87556,2.23636 0.75543,2.21781 0.76463,2.23042 1.53229,2.10583 0.53392,-0.086 0.71299,-0.0222 0.97212,0.34723 0.54239,0.77443 0.39718,1.43123 -0.55291,2.50098 l -0.87052,0.98016 0.10042,2.18652 c 0.0552,1.20265 0.1375,2.48615 0.18307,2.85222 0.0455,0.36608 -0.006,1.59128 -0.11466,2.72273 -0.18345,1.91241 -0.23789,2.09471 -0.7742,2.59191 -0.68376,0.63381 -0.86697,0.64997 -1.65399,0.14536 z m 0.79493,-2.93262 c 0.16423,-0.74758 -0.0816,-3.67945 -0.30853,-3.67945 -0.50865,0 -0.856,2.7159 -0.49122,3.84098 0.20372,0.62817 0.64592,0.53888 0.79975,-0.16153 z m 22.72254,0.83776 c -0.36352,-0.29295 -0.44408,-0.65932 -0.62989,-2.86423 -0.39476,-4.68424 -0.28579,-8.86119 0.36517,-13.9953 0.16491,-1.3007 0.2861,-1.63845 0.7671,-2.13728 0.31419,-0.32573 0.65889,-0.82501 0.766,-1.1092 0.35819,-0.9505 1.72602,-0.90793 2.33845,0.0727 0.32789,0.52508 -0.21452,2.32609 -0.8888,2.95145 -0.42907,0.39782 -0.55086,0.76137 -0.76676,2.28887 -0.40532,2.86779 -0.4248,2.83976 1.43283,2.06978 l 1.03002,-0.42689 0.42017,0.42022 c 0.36515,0.36503 0.38825,0.47969 0.17639,0.87558 -0.25662,0.47955 -1.44541,1.47721 -2.49266,2.09189 -1.1631,0.68261 -1.2111,0.89472 -1.01092,4.46723 0.24102,4.30184 0.22456,4.87261 -0.15267,5.28942 -0.39591,0.43742 -0.81675,0.4392 -1.35443,0 z m 6.21783,-3.95475 c -1.31828,-0.40939 -2.20318,-1.22505 -2.20318,-2.03063 0,-0.69788 0.89388,-2.44965 1.71,-3.35134 0.39653,-0.43802 0.89598,-1.01383 1.10992,-1.27934 0.59352,-0.7369 1.17763,-0.8262 1.56247,-0.23881 0.31301,0.47776 0.29621,0.52375 -0.76709,2.10538 -1.45873,2.16976 -1.43544,3.06537 0.0798,3.06537 0.38506,0 0.79448,-0.0949 0.90981,-0.20959 0.33534,-0.33537 1.3131,-0.13646 1.39282,0.28376 0.0982,0.51752 -0.35429,1.27666 -0.93441,1.56769 -0.88791,0.44543 -1.6338,0.46827 -2.8601,0.0875 z m 9.56968,-1.28824 c -0.27126,-0.3993 -0.49321,-0.84696 -0.49321,-0.99499 0,-0.14833 -0.12519,-0.6746 -0.27822,-1.17032 -0.52191,-1.69065 -0.69416,-2.75358 -0.69416,-4.28359 0,-1.86421 -0.13469,-2.02188 -1.58202,-1.85175 -0.87394,0.10235 -1.12453,0.0593 -1.52885,-0.26877 -0.47136,-0.38165 -0.47456,-0.40153 -0.12726,-0.78525 0.45774,-0.50581 1.51005,-1.00478 2.11912,-1.00478 0.80314,0 1.11899,-0.56024 1.11899,-1.9848 0,-1.31464 0.12015,-1.55048 0.91367,-1.79359 0.34327,-0.10532 0.48689,-0.0163 0.72929,0.4527 0.16601,0.32113 0.30183,0.97111 0.30183,1.44472 0,0.99099 0.29228,1.32666 1.09434,1.25694 1.13144,-0.0979 3.79763,0.28168 3.90297,0.55609 0.32608,0.84978 -1.22582,1.61619 -3.28175,1.62079 -1.84309,0 -1.98623,0.1866 -1.82256,2.3221 0.0703,0.91726 0.24834,2.06147 0.39568,2.5428 0.14729,0.48133 0.37057,1.26896 0.49604,1.75029 0.25838,0.99113 0.4694,1.50806 0.80702,1.97708 0.34057,0.47317 -0.1203,0.94011 -0.92788,0.94011 -0.53262,0 -0.73881,-0.13053 -1.14305,-0.72578 z m -32.92019,-1.79092 c -0.96333,-0.15694 -1.80097,-0.85824 -1.80097,-1.50792 0,-0.25082 0.24066,-0.81611 0.53481,-1.2562 0.29414,-0.43994 0.75359,-1.13442 1.02101,-1.54321 0.26741,-0.40865 0.882,-1.33779 1.36576,-2.0646 1.12786,-1.69451 1.27839,-1.97975 1.44487,-2.73771 0.13276,-0.60429 0.11585,-0.62565 -0.49358,-0.62565 -0.50796,0 -0.81127,0.19297 -1.55538,0.98965 l -0.92438,0.9898 -0.32903,-0.50209 c -0.57026,-0.8704 -0.0659,-2.04339 1.30585,-3.03704 0.63939,-0.46324 0.99928,-0.57953 1.79189,-0.57893 1.03817,7.4e-4 2.25726,0.55089 2.25447,1.01739 -0.009,1.48878 -0.66501,3.51718 -1.55593,4.81031 -1.06742,1.54915 -1.9432,3.06003 -1.9432,3.35209 0,0.49068 0.61058,0.73779 1.8221,0.73779 0.58835,0 1.29977,0.0875 1.58093,0.19446 0.42893,0.16302 0.50138,0.29592 0.45022,0.8262 -0.0564,0.58471 -0.1335,0.64864 -1.03332,0.8566 -1.08341,0.25038 -2.68681,0.28256 -3.93612,0.0786 z m 6.84392,-1.6515 c -0.21699,-0.33122 -0.25553,-0.57923 -0.12845,-0.82649 0.0998,-0.19446 0.23535,-1.14792 0.30105,-2.11903 l 0.1194,-1.76571 -0.57893,-0.42808 c -0.84211,-0.62254 -0.77573,-1.25961 0.19508,-1.87251 0.85929,-0.54244 1.19612,-0.59287 1.80059,-0.26936 0.30779,0.16479 0.74009,0.15708 1.73653,-0.0312 1.18533,-0.22353 1.36475,-0.21582 1.68337,0.0727 0.19612,0.17755 0.62444,0.32276 0.95179,0.32276 0.32736,0 0.80179,0.16969 1.05432,0.3772 0.43131,0.35436 0.44146,0.40939 0.16741,0.90985 -0.16265,0.29711 -0.54258,0.59985 -0.85859,0.68425 -0.31176,0.0831 -0.63441,0.26076 -0.71698,0.3944 -0.0826,0.1335 -0.10354,0.94679 -0.0467,1.8071 0.11852,1.79167 -0.19532,3.0716 -0.78079,3.18433 -0.62366,0.12014 -0.7592,-0.26937 -0.90328,-2.59532 -0.15985,-2.58033 -0.35713,-2.98883 -1.29344,-2.67867 -0.54315,0.18007 -0.55779,0.22338 -0.75279,2.22582 -0.21227,2.1797 -0.58082,3.08125 -1.25971,3.08125 -0.20898,0 -0.51949,-0.21301 -0.69001,-0.47317 z m -25.22949,-0.0623 c -0.46987,-0.51915 -0.42388,-0.71287 0.29714,-1.25205 1.14133,-0.85334 1.76012,-0.99944 3.60093,-0.85007 1.8406,0.14937 2.18477,0.30748 2.18477,1.00419 0,0.81848 -0.8177,1.14539 -2.90997,1.16364 -1.0201,0.0148 -2.07594,0.0816 -2.34635,0.16019 -0.3641,0.1068 -0.57849,0.0475 -0.82652,-0.2259 z m 19.71575,-13.41801 c -0.39531,-0.32617 -0.40363,-0.41176 -0.1999,-2.05287 0.22174,-1.78603 0.18811,-2.87981 -0.18351,-5.96936 -0.20256,-1.68398 -0.39791,-7.993756 -0.48768,-15.752557 -0.0515,-4.449727 -0.0933,-4.590639 -0.87888,-2.965842 -0.24566,0.508176 -0.76545,1.343417 -1.1551,1.85634 -0.60497,0.796527 -0.79391,0.924239 -1.29378,0.875142 -0.83545,-0.08158 -0.8744,-0.73156 -0.10235,-1.706379 0.63025,-0.795786 1.55843,-2.850145 1.55971,-3.452213 0,-0.189268 0.1891,-0.650423 0.41934,-1.024806 0.69758,-1.134273 1.35767,-2.974445 1.11971,-3.121587 -0.11585,-0.0712 -0.85187,-0.184373 -1.63551,-0.250676 -1.418,-0.120147 -2.9029,-0.410872 -3.75434,-0.735713 -0.2457,-0.09345 -0.81455,-0.172062 -1.26411,-0.173842 -0.94428,0 -3.19422,-1.12923 -5.30658,-2.654647 -2.45835,-1.775203 -3.22961,-2.796301 -4.01502,-5.315672 -0.86652,-2.779391 -0.92665,-3.122328 -1.0192,-5.811239 -0.0492,-1.431377 -0.13171,-2.644561 -0.18311,-2.695883 -0.0515,-0.05192 -0.61718,0.304668 -1.25718,0.791336 -0.64001,0.486668 -1.41049,1.023471 -1.71218,1.192715 -0.3017,0.169095 -0.94237,0.597322 -1.4237,0.951383 -0.77419,0.569438 -1.01354,0.887604 -1.55847,2.071122 -0.24312,0.528052 -0.94868,0.46961 -1.16389,-0.09641 -0.30976,-0.814623 -0.23036,-1.461784 0.28794,-2.346122 0.38464,-0.656357 0.88844,-1.061147 2.47958,-1.992357 1.09826,-0.642859 2.20815,-1.394739 2.46641,-1.670928 0.45397,-0.48563 0.45796,-0.515147 0.12029,-0.888344 -0.19214,-0.212259 -0.53471,-0.44202 -0.76127,-0.510549 -0.22657,-0.06823 -1.06976,-0.453145 -1.87381,-0.854672 -0.80405,-0.401676 -1.76587,-0.796973 -2.13741,-0.878554 -0.86301,-0.189564 -3.39117,-1.385542 -3.69003,-1.745686 -0.36376,-0.438312 -0.15196,-1.143024 0.42655,-1.41951 0.46555,-0.222345 0.63659,-0.196833 1.45858,0.217747 0.51217,0.258242 1.54383,0.712129 2.29256,1.00849 0.74872,0.296362 1.60875,0.744613 1.91113,0.996031 0.3024,0.251418 0.78373,0.515444 1.06964,0.586642 0.28588,0.0712 1.0449,0.377497 1.68668,0.680534 0.64177,0.303036 1.30382,0.551043 1.47123,0.551043 0.20122,1.48e-4 0.45857,-0.444691 0.75941,-1.312565 1.15823,-3.341263 2.90386,-6.377264 4.8164,-8.376445 0.13528,-0.140913 0.24586,-0.506099 0.24586,-0.810619 0,-0.889975 0.18931,-1.168834 0.79372,-1.168834 0.58227,0 0.95686,-0.486223 1.21925,-1.582672 0.16355,-0.683501 1.30485,-1.660396 2.21367,-1.894905 0.40289,-0.10383 1.43263,-0.321132 2.28833,-0.482811 0.85569,-0.161531 1.90586,-0.384618 2.33374,-0.495716 2.82289,-0.733191 11.32263,0.34976 12.05574,1.536097 0.0672,0.10828 0.28116,0.197426 0.47568,0.197426 0.19452,0 0.46998,0.139429 0.61216,0.311343 0.14209,0.17132 0.72564,0.610374 1.29662,0.97556 0.57097,0.365335 1.31493,0.979418 1.65326,1.364629 0.33829,0.385359 0.94306,0.907626 1.34387,1.160675 0.83535,0.527311 2.59321,3.098449 3.24389,4.744754 0.52308,1.323393 1.02236,3.887411 1.14557,5.882883 0.0512,0.829012 0.13587,1.507172 0.18831,1.507172 0.0524,0 0.32752,-0.157525 0.61144,-0.350056 0.42412,-0.287611 0.84586,-0.340712 2.36374,-0.297252 1.01615,0.02967 2.67893,-0.03263 3.69508,-0.137946 1.01612,-0.105314 2.63515,-0.229614 3.5978,-0.276782 3.02018,-0.148478 6.77115,-0.489338 7.68185,-0.698186 1.19291,-0.273667 4.02487,-0.524788 7.2929,-0.646566 5.92387,-0.220863 7.81945,-0.359105 8.76738,-0.639596 0.96936,-0.28672 1.00248,-0.282715 1.72882,0.210183 0.40727,0.276337 0.81709,0.502539 0.91068,0.502539 0.0936,0 0.49234,-0.295175 0.88605,-0.65606 l 0.71583,-0.65606 -0.65871,-0.340564 c -0.63878,-0.330329 -1.21924,-0.539176 -2.43172,-0.874845 -1.21681,-0.337004 -2.70047,-0.975264 -3.09286,-1.330661 -0.22426,-0.203063 -0.65137,-0.426891 -0.94916,-0.497348 -0.76563,-0.181258 -1.07196,-0.921865 -0.64854,-1.568136 0.40668,-0.620609 0.5046,-0.617197 1.84341,0.06378 1.20324,0.612155 3.52869,1.582673 3.79015,1.581783 0.17122,-5.94e-4 0.49726,0.136462 2.70343,1.135014 1.30349,0.590054 1.31282,0.59124 1.32497,0.166871 0.12415,-4.333288 -0.2122,-16.267704 -0.51732,-18.356328 -0.10323,-0.70664 -0.051,-0.883004 0.39291,-1.326953 0.4309,-0.430896 0.61118,-0.488596 1.13859,-0.364444 0.87069,0.20499 5.73809,0.115697 6.56048,-0.120146 0.37169,-0.106797 1.24524,-0.195053 1.9412,-0.196536 0.69595,0 1.65673,-0.13943 2.13507,-0.305707 1.00966,-0.35154 4.76262,-0.445581 5.36079,-0.134979 0.56929,0.296213 1.79647,0.426297 5.22237,0.553712 1.90747,0.0712 3.54511,0.03412 4.27848,-0.09641 2.18844,-0.390848 6.61588,-0.966811 8.39278,-1.091852 l 1.75927,-0.123113 0.72042,0.924684 0.72042,0.924684 -0.0163,2.836499 c -0.009,1.560126 0.0764,3.355502 0.18993,3.989906 0.11347,0.634552 0.25979,2.559865 0.32507,4.278555 0.0653,1.718838 0.23579,3.609738 0.37884,4.202016 0.14313,0.592427 0.36036,2.342711 0.48285,3.889636 0.12252,1.546776 0.30823,3.118769 0.41271,3.493152 0.22882,0.819667 0.73931,8.969464 0.74849,11.949397 0.003,1.170465 0.14744,3.162823 0.31959,4.427329 0.21688,1.592758 0.2514,2.373266 0.11243,2.540877 -0.11036,0.133497 -0.61346,0.363556 -1.11799,0.512627 -0.74755,0.220713 -1.92925,0.241776 -6.38428,0.114213 -3.00678,-0.08603 -6.29829,-0.173398 -7.31443,-0.193125 -1.01615,-0.01928 -4.65304,-0.100864 -8.08198,-0.17933 -4.41642,-0.100864 -6.65654,-0.07713 -7.68185,0.08158 -0.79606,0.123113 -2.62884,0.305854 -4.07282,0.404345 -1.444,0.0979 -3.26087,0.232877 -4.03751,0.298438 -0.98758,0.08307 -1.49875,0.04747 -1.70043,-0.120146 -0.24044,-0.199503 -0.28488,-0.970517 -0.26757,-4.640922 0.0119,-2.42088 -0.0599,-5.667657 -0.15849,-7.215027 -0.0986,-1.547518 -0.12771,-3.166531 -0.0648,-3.597872 0.18161,-1.244779 0,-4.188074 -0.25749,-4.184959 -0.12281,0 -0.79198,0.491414 -1.48725,1.088587 -1.14382,0.982681 -1.91295,1.555083 -3.23685,2.409311 -0.50272,0.324396 -2.59745,2.701519 -2.59745,2.947597 0,0.08603 -0.2223,0.212407 -0.49403,0.280639 -0.64069,0.160789 -1.25627,-0.379278 -1.25627,-1.102086 0,-0.642265 1.69122,-2.762927 2.56289,-3.213699 0.96417,-0.498535 0.57561,-0.760484 -1.12119,-0.755589 -5.29025,0.01483 -12.42189,0.321429 -13.16613,0.565134 -0.91572,0.30007 -6.50926,0.903325 -8.01499,0.864611 -0.53482,-0.01483 -2.41637,0.08603 -4.18125,0.223087 -3.87763,0.299773 -6.06059,0.154114 -6.61521,-0.441131 -0.45008,-0.483108 -0.42821,-0.536358 -0.85923,2.089958 -0.41906,2.553486 -0.84808,4.442013 -1.28116,5.639919 -0.19335,0.534727 -0.46602,1.36092 -0.60594,1.835722 -0.58974,2.001405 -2.44903,4.068966 -4.6408,5.160668 -0.58829,0.29295 -1.28842,0.73156 -1.55583,0.974523 -0.26741,0.24311 -0.81314,0.546296 -1.21277,0.674007 -0.39961,0.127563 -0.78371,0.324545 -0.85354,0.43757 -0.23911,0.386843 -2.89208,1.469349 -4.05971,1.656541 -0.64178,0.102348 -1.59061,0.148329 -2.10852,0.09938 -1.41682,-0.13053 -1.50537,0.149665 -0.42573,1.350389 1.01672,1.13101 2.04795,2.560754 2.04795,2.839465 0,0.0979 0.48133,0.897391 1.06963,1.77639 0.58829,0.87885 1.06963,1.791669 1.06963,2.028401 0,0.627284 -0.53822,1.295062 -1.04373,1.295062 -0.48701,0 -1.67895,-1.057438 -1.67895,-1.489521 0,-0.398709 -0.67219,-1.643339 -1.17529,-2.176137 -0.33662,-0.356435 -0.46639,-0.399748 -0.59151,-0.197278 -0.0881,0.142396 -0.11258,2.054655 -0.0543,4.249037 0.0583,2.194233 0.13631,5.127295 0.17333,6.517732 0.0369,1.390585 0.13543,3.972252 0.21864,5.737072 0.0832,1.76497 0.12949,3.40431 0.10279,3.64297 -0.0267,0.23881 0.0892,0.70041 0.25741,1.02584 0.23534,0.45522 0.30693,1.22565 0.30985,3.33474 l 0.004,2.74275 -0.64337,0.55045 c -0.76769,0.65695 -0.77969,0.65903 -1.30451,0.22606 z m 3.29896,-35.735457 c 1.5899,-0.208848 2.36277,-0.401231 2.71032,-0.674898 0.26741,-0.210627 1.02298,-0.655022 1.67902,-0.987724 0.65606,-0.332554 1.48666,-0.849926 1.8458,-1.149699 l 0.65296,-0.545258 -0.3261,-0.654725 c -0.58002,-1.164681 -1.31414,-1.974855 -6.66107,-7.350155 l -3.68451,-3.704075 -0.49674,0.314902 c -0.80393,0.509659 -1.38836,1.098675 -1.70842,1.721954 -0.16478,0.320836 -0.41589,0.651758 -0.55805,0.735119 -0.1421,0.08306 -0.67432,0.69596 -1.1826,1.361365 -0.50826,0.665256 -0.99417,1.23929 -1.07979,1.275631 -0.23783,0.100864 -3.2746,3.861601 -4.22142,5.228157 -0.46117,0.665553 -1.00252,1.262133 -1.20302,1.325766 -0.53345,0.169392 -0.45197,0.37023 0.36477,0.899172 1.86926,1.210514 4.05354,1.819998 8.11942,2.265728 2.40704,0.263877 3.34936,0.253791 5.74943,-0.06081 z m 62.41477,-1.939552 c 1.33702,-0.05192 2.94284,-0.180814 3.56846,-0.285979 0.62561,-0.105314 3.07602,-0.156191 5.44535,-0.11273 7.93114,0.142396 14.02131,0.304668 15.19858,0.404197 0.64178,0.05488 2.42211,0.106797 3.95628,0.11718 2.14082,0.01483 2.85228,-0.0445 3.05974,-0.25216 0.22799,-0.227982 0.23808,-1.183073 0.0644,-6.101074 -0.11332,-3.206729 -0.19443,-6.18058 -0.18037,-6.608509 0.0463,-1.406606 -0.59142,-8.917105 -0.87508,-10.307246 -0.22542,-1.104755 -0.6138,-5.479279 -0.63885,-7.195744 -0.003,-0.213891 -0.1835,-1.657875 -0.4008,-3.208805 -0.21732,-1.55093 -0.39014,-3.169942 -0.38404,-3.597872 0.006,-0.427781 -0.0653,-1.127895 -0.15849,-1.555825 l -0.16956,-0.777838 -1.35868,-0.06378 c -0.78918,-0.03708 -2.29615,0.102347 -3.59517,0.330774 -1.23006,0.21656 -2.89285,0.480586 -3.69506,0.586345 -1.67759,0.221455 -8.01229,0.114213 -8.51307,-0.142396 -0.18459,-0.09493 -0.93122,-0.282864 -1.65916,-0.41725 -1.46909,-0.271294 -2.06961,-0.233322 -8.10863,0.513812 -2.19272,0.271294 -4.58375,0.511884 -5.31341,0.534579 -0.88225,0.02818 -1.38228,0.132012 -1.49279,0.310304 -0.2083,0.337004 -0.0521,2.572918 0.30871,4.416946 0.37266,1.904843 0.35145,3.166382 -0.0632,3.757178 -0.30529,0.435197 -0.33075,1.008193 -0.2676,6.023499 0.0641,5.086355 0.071,9.300683 0.0194,11.765914 -0.0119,0.534726 0.0762,1.803682 0.1944,2.819885 0.11807,1.016055 0.26438,3.422844 0.325,5.348156 0.0607,1.925313 0.19976,3.61137 0.30916,3.746795 0.13202,0.163459 0.50075,0.213 1.09623,0.146846 0.49351,-0.05488 1.99123,-0.142396 3.32827,-0.194015 z m 10.65352,-5.086652 c -0.34344,-0.100864 -2.55588,-2.815584 -3.50222,-4.297541 -0.91533,-1.433304 -1.78828,-1.053878 -3.24351,1.410017 -1.07724,1.824004 -1.37351,2.054508 -2.11056,1.642301 -0.72189,-0.403901 -0.75351,-0.947675 -0.10413,-1.791223 0.29889,-0.388178 0.84115,-1.196127 1.20507,-1.795376 0.67994,-1.119737 1.41861,-1.85545 2.34274,-2.333366 0.83462,-0.43149 1.99082,-0.04598 2.82223,0.94189 0.37194,0.441724 0.84753,0.99692 1.05685,1.233505 0.20931,0.236585 0.66601,0.849185 1.01484,1.361365 1.00442,1.47454 1.23082,1.611745 2.65926,1.611745 1.99747,0 2.62763,-0.280936 4.03118,-1.79686 0.68122,-0.735712 1.58624,-1.967141 2.01112,-2.736228 0.93087,-1.685167 1.40336,-2.047535 2.08609,-1.600175 0.48674,0.318908 0.64847,1.20918 0.28571,1.572734 -0.10131,0.102348 -0.41274,0.614676 -0.69191,1.140058 -0.71278,1.341341 -1.19044,1.961209 -2.52713,3.280151 -1.7721,1.748505 -2.69228,2.150328 -5.0564,2.207731 -1.06962,0.0267 -2.09527,0 -2.2792,-0.05043 z m -2.8524,-12.447041 c -0.64001,-0.448399 -0.46259,-1.255013 0.61746,-2.807723 0.47835,-0.687802 1.1882,-1.886005 1.57741,-2.662954 0.66644,-1.330215 0.6911,-1.444429 0.42364,-1.961653 -0.1562,-0.301998 -0.83574,-1.001074 -1.51008,-1.553303 -1.35105,-1.106387 -2.16864,-1.294617 -2.76452,-0.636184 -0.43766,0.483702 -1.66665,3.308779 -1.66969,3.838166 -0.001,0.227537 -0.13245,0.521822 -0.29155,0.653687 -0.35687,0.296213 -1.24018,0.102347 -1.39697,-0.305707 -0.19437,-0.506544 0.29909,-2.449656 0.98366,-3.87332 0.36,-0.748765 0.70482,-1.510584 0.76629,-1.69288 0.15595,-0.462787 1.5371,-1.127154 2.3433,-1.127154 0.96209,0 2.17216,0.587977 3.59124,1.744796 0.67849,0.55312 1.34026,0.964733 1.47057,0.914746 0.13038,-0.05043 0.52886,-0.690769 0.88569,-1.423811 1.03674,-2.130007 3.07087,-5.125218 3.48069,-5.125218 0.42819,0 1.0002,0.58768 1.0002,1.027625 0,0.288945 -0.42698,1.03771 -1.28672,2.256531 -0.18011,0.255275 -0.84378,1.466234 -1.47485,2.691136 -1.26406,2.453216 -1.26409,2.551559 -10e-4,3.079166 1.29192,0.539769 1.5993,0.438609 4.09498,-1.347126 0.89401,-0.639744 1.7797,-1.931394 1.7797,-2.595612 0,-0.218193 0.12563,-0.500908 0.27929,-0.628471 0.50012,-0.415025 1.47099,0.399154 1.47099,1.233802 0,0.163459 -0.18384,0.788518 -0.40854,1.389103 -0.35516,0.949306 -0.61558,1.256793 -1.99338,2.354132 -0.87167,0.694181 -1.81795,1.385839 -2.10286,1.537135 -0.68748,0.364742 -2.30391,0.401082 -3.83947,0.08603 l -1.24583,-0.255423 -0.74755,0.825897 c -0.41114,0.454184 -0.74755,0.90555 -0.74755,1.003002 0,0.459227 -1.27962,2.851925 -1.72974,3.234466 -0.61059,0.518707 -0.95477,0.546889 -1.55434,0.127563 z m -85.27839,13.990408 c 0.62978,-0.715985 1.36951,-1.525566 1.64386,-1.798936 1.23346,-1.228907 4.627,-5.225636 4.92181,-5.796555 0.17954,-0.347536 0.40095,-0.632031 0.49207,-0.632031 0.0911,0 0.7539,-0.657246 1.47288,-1.460597 l 1.30726,-1.460597 -0.37007,-0.748024 c -0.43989,-0.889085 -2.00184,-2.683423 -5.30213,-6.090989 -1.3336,-1.37694 -2.58928,-2.763521 -2.7904,-3.081093 -0.20112,-0.317721 -0.42272,-0.576556 -0.49244,-0.57537 -0.13854,0 -1.33227,1.307226 -2.04399,2.234283 -0.36968,0.481477 -1.11389,1.844621 -2.09006,3.827931 -0.65704,1.33511 -1.00972,2.924161 -1.04959,4.72903 -0.0236,1.069602 -0.10695,2.094556 -0.18507,2.277743 -0.20342,0.476581 0.22555,4.135862 0.67491,5.757396 0.20958,0.756182 0.69344,1.943408 1.07527,2.638034 0.60201,1.095262 0.85033,1.34134 1.47159,1.459114 0.0656,0.01483 0.63433,-0.563355 1.2641,-1.279339 z m 24.81931,0.335668 c 0.43673,-0.34353 1.89945,-3.34141 1.89945,-3.893046 0,-0.12163 0.17234,-0.763005 0.383,-1.42485 1.63245,-5.128926 1.33561,-10.551692 -0.80638,-14.731014 -0.87318,-1.703709 -1.13141,-2.040713 -2.01102,-2.624685 -0.55506,-0.36845 -1.14424,-0.669855 -1.30927,-0.669855 -0.36696,0 -1.19807,0.963695 -2.03952,2.364813 -0.34625,0.576555 -1.06826,1.480325 -1.60444,2.008525 -0.53619,0.528052 -0.97487,1.088884 -0.97487,1.246262 0,0.157228 -0.89704,1.17714 -1.9934,2.266172 -2.62953,2.612077 -3.45196,3.516885 -3.45196,3.797524 0,0.127563 1.70251,1.9486 3.78337,4.046716 2.08085,2.098264 3.97899,4.077568 4.2181,4.398404 0.2391,0.320836 0.79007,0.992471 1.2244,1.49234 0.43433,0.499869 0.99325,1.17803 1.24206,1.507172 0.52867,0.699224 0.77803,0.736603 1.44048,0.215522 z M 139.72751,57.060707 c 2.29677,-2.349831 4.05146,-4.594496 5.33758,-6.827889 0.26739,-0.46427 0.73458,-1.167943 1.03815,-1.563537 0.30801,-0.401527 0.50223,-0.849036 0.43944,-1.012643 -0.0618,-0.161383 -1.0104,-0.717914 -2.10778,-1.236917 -2.32615,-1.100009 -3.83451,-1.36804 -7.70168,-1.36804 -1.97912,0 -2.65689,0.07713 -3.61553,0.411613 -1.54006,0.537397 -1.64709,0.658433 -1.01865,1.152814 1.02726,0.808098 0.55631,1.547222 -0.98571,1.547222 -1.65419,0 -3.275,1.04928 -2.83012,1.832162 0.0847,0.149071 1.29177,1.494713 2.68229,2.990168 1.39049,1.495454 2.79073,3.055729 3.11161,3.46749 0.3209,0.411762 0.89921,1.099713 1.28513,1.528829 0.38592,0.429265 0.8047,0.977341 0.93062,1.217931 0.12593,0.240738 0.38352,0.437571 0.57246,0.437571 0.18894,0 1.47693,-1.159489 2.86219,-2.576774 z m 280.14761,30.199965 c -0.36665,-0.09196 -2.81706,-0.220269 -5.44534,-0.285534 -2.62826,-0.06527 -5.28354,-0.208551 -5.90058,-0.318463 -0.61703,-0.109763 -1.19454,-0.154855 -1.28333,-0.09938 -0.39774,0.245781 -8.2492,0.448547 -10.91644,0.281973 -0.90919,-0.05636 -2.92201,-0.04153 -4.47297,0.03412 -1.55096,0.07565 -2.96236,0.06378 -3.13645,-0.0267 -0.44271,-0.229169 -0.55265,-1.032964 -0.25781,-1.884967 0.14432,-0.416805 0.20473,-1.107277 0.14313,-1.634884 -0.0664,-0.568842 0.006,-1.265544 0.19178,-1.847588 0.2103,-0.658285 0.30489,-1.828157 0.32023,-3.960834 0.0134,-1.861086 0.14106,-3.658242 0.33172,-4.667325 0.18685,-0.989355 0.33556,-3.031254 0.37447,-5.141533 0.0354,-1.925313 0.18461,-4.375859 0.33134,-5.44546 0.3246,-2.366147 0.23534,-5.398143 -0.15631,-5.309739 -0.48246,0.10828 -5.77773,5.287193 -6.03416,5.900979 -0.35994,0.861347 -0.7137,1.107574 -1.28132,0.891903 -0.6366,-0.242073 -0.93819,-0.644194 -1.06381,-1.418175 -0.0934,-0.576259 -0.009,-0.741349 0.73871,-1.446803 2.93089,-2.764262 3.72031,-3.59802 3.55453,-3.753914 -0.70666,-0.66496 -5.71039,-0.919344 -15.74023,-0.800533 -3.63666,0.04302 -4.69646,0 -8.94594,-0.316237 -1.1766,-0.089 -2.31428,-0.145363 -2.52821,-0.123114 -0.21391,0.02077 -1.76184,0.08751 -3.43982,0.145363 -2.99423,0.105314 -3.05651,0.09938 -3.35473,-0.326324 -0.40304,-0.575517 -0.38334,-0.992916 0.066,-1.399634 0.51629,-0.467237 5.73841,-0.733636 9.54844,-0.487113 5.67753,0.36756 9.67429,0.485185 11.66862,0.34353 2.33804,-0.16598 11.19902,0.11273 12.91186,0.405087 0.6303,0.10828 1.22934,0.143879 1.33121,0.08158 0.1019,-0.0623 0.44015,0.07417 0.75175,0.304372 l 0.56654,0.418881 0.67905,-0.541846 c 0.37351,-0.297994 0.6791,-0.675936 0.6791,-0.839988 0,-0.279304 -2.64964,-1.50124 -4.18127,-1.928279 -0.32089,-0.089 -1.10553,-0.303482 -1.74364,-0.475544 -1.47144,-0.396928 -1.80349,-0.703822 -1.54444,-1.42752 0.18369,-0.513219 0.2484,-0.536951 1.41411,-0.518262 0.86843,0.01483 1.54084,0.165239 2.32572,0.523157 1.2123,0.552823 3.59715,1.304704 4.1381,1.304704 0.47335,0 0.53111,-0.295769 0.66455,-3.403265 0.0642,-1.497531 0.20582,-4.3855 0.31446,-6.417758 0.10872,-2.032258 0.242,-5.48892 0.2963,-7.681374 0.0562,-2.271513 0.18414,-4.089287 0.29728,-4.225601 0.26891,-0.3241 0.24936,-6.131631 -0.0224,-6.639362 -0.3026,-0.565431 -0.25753,-1.882742 0.0739,-2.157744 0.17731,-0.146846 0.44865,-0.17666 0.72929,-0.07861 0.2458,0.08603 0.79696,0.167761 1.2248,0.183039 0.42785,0.01483 1.82808,0.168798 3.11163,0.341008 1.45587,0.195201 3.77379,0.315348 6.162,0.319056 2.31546,0 4.04459,0.09048 4.37574,0.220714 0.6042,0.236733 15.67253,0.393814 16.68906,0.17399 0.32088,-0.06972 1.37105,-0.04005 2.33372,0.06675 2.03831,0.224126 7.15659,0.248452 10.54537,0.05043 2.34902,-0.137946 2.36587,-0.134979 2.66935,0.327808 0.41922,0.639892 0.51334,7.1597 0.17328,12.002499 -0.72819,10.369543 -0.833,12.600859 -0.8314,17.697449 0,3.048461 0.006,8.999427 0.0119,13.224435 0.006,4.225008 -0.077,9.432103 -0.18347,11.571306 -0.22549,4.528341 -0.19365,6.198527 0.1332,6.986451 0.27851,0.67119 0.13527,1.512365 -0.32599,1.914782 -0.71045,0.619867 -1.82553,0.7679 -6.28208,0.834054 -2.45136,0.03708 -4.534,0.114214 -4.62812,0.171914 -0.094,0.05785 -1.03369,0.148329 -2.088,0.200541 -1.05428,0.05192 -2.7045,0.13498 -3.66717,0.185708 -0.96266,0.05043 -2.05031,0.01632 -2.41699,-0.07565 z m 7.86235,-2.338706 c 0.61385,-0.155153 2.3039,-0.244595 4.58349,-0.242518 4.75684,0 4.44332,0.244001 4.6673,-3.56702 0.47214,-8.033804 0.53778,-10.560442 0.47944,-18.460454 -0.0828,-11.216799 -0.0819,-12.476411 0.0119,-14.780259 0.14714,-3.615523 0.43223,-8.550286 0.56168,-9.723867 0.28531,-2.58686 0.36345,-6.776566 0.21381,-11.463619 -0.0476,-1.492933 -0.11124,-1.776687 -0.4477,-2.000071 -0.60502,-0.401823 -14.10113,-0.610374 -22.12756,-0.342047 -2.51693,0.08455 -4.29299,0.03412 -6.32052,-0.180665 -1.55094,-0.163755 -4.78001,-0.342195 -7.1757,-0.396632 -2.39571,-0.05488 -5.08416,-0.200838 -5.97433,-0.325434 -2.15454,-0.301405 -2.18197,-0.275151 -2.12081,2.023951 0.0263,0.986538 -0.0258,2.800158 -0.11555,4.030252 -0.14744,2.019946 -0.70934,12.745925 -0.87112,16.627848 -0.0358,0.855562 -0.10265,3.393623 -0.14873,5.639771 -0.074,3.608552 -0.33141,6.972509 -0.62419,8.160181 -0.0538,0.218192 -0.13705,1.053137 -0.18483,1.855449 -0.0479,0.802164 -0.12979,2.07112 -0.18198,2.819886 -0.74094,10.617846 -0.99891,19.401602 -0.58,19.749286 0.34082,0.282863 5.13072,0.483998 10.00363,0.420068 1.33701,-0.0178 2.60598,-0.03115 2.8199,-0.03115 0.21394,7.41e-4 2.18302,-0.03708 4.37574,-0.08455 2.19272,-0.04746 4.49506,0 5.11629,0.09641 0.72204,0.115697 1.38851,0.11273 1.84753,-0.01483 0.46436,-0.123113 0.99285,-0.124596 1.49593,0 0.42785,0.102347 1.38861,0.236288 2.13502,0.296213 0.74642,0.05933 1.40122,0.153076 1.45512,0.20692 0.19129,0.191196 6.14916,-0.0712 7.10611,-0.314013 z m -23.08179,-6.21247 c -0.67039,-0.527311 -0.98445,-1.760668 -0.97887,-3.844099 0.007,-2.774497 0.7869,-4.681416 2.62139,-6.413011 1.3497,-1.273999 2.83751,-1.983754 4.4801,-2.137126 0.79663,-0.07416 1.39722,-0.235547 1.54593,-0.414729 0.17435,-0.210034 0.25058,-1.377384 0.26927,-4.123105 0.016,-2.344788 0.10842,-3.983825 0.23838,-4.22664 0.11673,-0.218192 0.45231,-0.457002 0.74563,-0.530573 0.44773,-0.11273 0.62082,-0.02967 1.07838,0.512477 0.42562,0.504616 0.52055,0.77413 0.43321,1.229649 -0.0614,0.320984 -0.14447,2.116212 -0.1844,3.989461 -0.0399,1.873397 -0.17842,4.013935 -0.30778,4.756916 -0.34392,1.974558 -0.1154,5.288379 0.4027,5.839867 0.24072,0.256165 0.38856,0.681424 0.38856,1.11766 0,0.387288 0.0869,0.932842 0.19327,1.212443 0.15695,0.4128 0.11348,0.616307 -0.23103,1.082358 -1.06477,1.440128 -2.29829,0.15975 -2.78741,-2.893309 -0.32555,-2.032109 -0.43889,-2.049167 -1.36719,-0.205881 -1.41595,2.811728 -2.85381,4.528489 -4.29839,5.132041 -0.9423,0.393814 -1.66865,0.366373 -2.24175,-0.08455 z m 3.01471,-2.792742 c 0.71685,-0.731708 1.3074,-1.645267 2.04294,-3.160301 0.56905,-1.172097 1.16456,-2.34983 1.32333,-2.617119 0.53016,-0.892793 0.86451,-1.765562 0.74841,-1.953347 -0.0632,-0.102347 -0.39417,-0.185411 -0.73547,-0.184818 -1.59085,0 -2.86842,0.796824 -4.21547,2.620383 -1.1073,1.498866 -1.36428,2.257421 -1.36428,4.027284 0,2.607775 0.56751,2.934841 2.20054,1.267918 z m 14.19837,-0.57522 c -0.70862,-0.787183 -0.74248,-0.981049 -0.84075,-4.813281 l -0.0973,-3.792332 -0.7779,-0.10383 c -0.96341,-0.129047 -1.26411,-0.307042 -1.26411,-0.748766 0,-0.51663 0.86733,-1.248783 1.31215,-1.107574 0.74536,0.236437 1.00651,-0.423034 1.22298,-3.088806 0.22354,-2.752841 0.37419,-3.216073 1.04573,-3.216073 0.863,0 0.9594,0.376904 0.81388,3.182551 -0.10739,2.069933 -0.0813,2.63299 0.12994,2.808316 0.15417,0.127563 1.23119,0.242369 2.58587,0.274408 l 2.3216,0.05488 v 0.583379 c 0,0.859864 -0.92977,1.250563 -3.20194,1.345642 -0.98849,0.04153 -1.8878,0.165684 -1.99848,0.276486 -0.12029,0.120146 -0.21003,1.479435 -0.22309,3.381163 -0.0188,2.741419 0.0258,3.252709 0.32326,3.707635 0.31677,0.484295 0.32036,0.575517 0.0436,1.110689 -0.35877,0.693735 -0.85527,0.745502 -1.39551,0.145362 z M 403.91642,56.09983 c -0.73235,-0.777244 -0.80757,-1.052988 -0.41832,-1.533723 0.27838,-0.343679 0.5355,-0.432973 1.17502,-0.407905 0.45027,0.0178 0.98326,0.120146 1.18444,0.227833 0.23118,0.123114 2.15384,0.161679 5.22485,0.103831 3.89614,-0.07417 5.29567,-0.176215 7.06201,-0.514702 2.55362,-0.489487 5.05519,-0.650869 6.57865,-0.424222 0.94686,0.140913 1.07541,0.214632 1.11993,0.643452 0.0276,0.266548 -0.0598,0.691956 -0.19449,0.94545 -0.23716,0.446768 -0.32926,0.462787 -2.96744,0.519449 -1.49746,0.03263 -3.24778,0.158564 -3.88955,0.280787 -2.30683,0.439499 -3.9712,0.544071 -9.17075,0.576407 l -5.28121,0.03263 z m 8.79236,-4.758844 c -1.09694,-0.54066 -1.59909,-1.315532 -1.59909,-2.467456 0,-1.304703 0.56425,-3.309669 1.22295,-4.345896 0.48942,-0.76968 1.64667,-1.610113 2.61509,-1.89891 0.49652,-0.148329 2.68707,0.748766 2.84703,1.165571 0.17283,0.450327 -0.41237,0.731856 -1.27984,0.615566 -1.51084,-0.202766 -2.6569,0.632178 -3.16437,2.305035 -0.37692,1.242553 -0.37359,2.121107 0.009,2.504241 0.38002,0.380019 0.72639,0.385359 1.42907,0.02225 1.3694,-0.708123 3.80246,-4.385203 4.25184,-6.425767 0.11792,-0.534875 0.2739,-2.678973 0.34688,-4.764778 0.15708,-4.491111 0.18591,-4.915332 0.46035,-6.7736 0.27093,-1.834683 0.47341,-2.212923 1.14292,-2.135347 0.60314,0.06971 1.08788,0.89398 1.06493,1.810506 -0.09,3.598614 -0.29614,7.429363 -0.45239,8.409523 -0.41032,2.573362 -0.26436,5.593344 0.41786,8.64581 0.28874,1.291947 -0.0688,2.015941 -0.97388,1.972481 -0.83919,-0.04005 -0.99425,-0.218192 -1.27434,-1.461932 -0.32289,-1.43375 -0.67622,-1.429004 -1.55707,0.02077 -0.89907,1.480028 -2.03361,2.406344 -3.44134,2.809799 -1.33004,0.381206 -1.27624,0.381355 -2.06604,-0.01483 z m -66.21687,24.710896 c -0.0814,-0.08158 -2.83801,-0.22635 -6.12573,-0.322171 -8.05345,-0.234508 -8.40043,-0.249045 -12.25689,-0.512626 -1.84914,-0.126079 -3.46187,-0.168056 -3.58393,-0.09196 -0.37798,0.233619 -10.24626,0.258686 -12.42342,0.03115 -1.52512,-0.159009 -2.79554,-0.156636 -4.88657,0.01483 -2.66558,0.211666 -2.8749,0.20247 -3.69508,-0.160343 l -0.86944,-0.38447 -0.17551,-2.87269 c -0.0966,-1.579854 -0.16076,-4.929126 -0.1427,-7.442712 0.0181,-2.513586 0.0271,-7.064325 0.0202,-10.112786 -0.007,-3.048461 -0.003,-5.848916 0.007,-6.223298 0.13661,-4.657684 0.11703,-10.309915 -0.0396,-11.454572 l -0.19691,-1.438941 0.65278,-0.544962 0.65276,-0.544961 -0.12015,-1.829343 c -0.0854,-1.300402 -0.0519,-1.917303 0.11584,-2.13327 0.43304,-0.557273 11.89424,-0.79727 15.50252,-0.324693 3.06278,0.401082 18.66331,0.520339 21.00353,0.160492 0.69526,-0.106797 2.05173,-0.312974 3.01439,-0.457892 0.96267,-0.145363 2.23163,-0.413097 2.81992,-0.595542 1.43995,-0.446915 2.67114,-0.568842 2.99871,-0.297103 0.43623,0.362072 0.5321,1.401266 0.61981,6.718867 0.15019,9.107855 0.3222,12.936082 0.60146,13.388041 0.12014,0.194312 0.55463,5.532234 0.71527,8.785982 0.0528,1.069602 0.18335,3.301362 0.29011,4.959237 0.38195,5.931535 0.40795,13.113929 0.0488,13.473924 -0.26612,0.266696 -4.30527,0.460117 -4.5476,0.217747 z m 2.29323,-2.811283 c 0.25671,-0.496457 0.30302,-1.349647 0.28236,-5.202348 -0.0134,-2.534648 -0.10724,-5.527338 -0.20815,-6.650486 -0.10087,-1.123 -0.22824,-3.267098 -0.28303,-4.764629 -0.0547,-1.497531 -0.18802,-3.816658 -0.29609,-5.153697 -0.49321,-6.10063 -0.99295,-15.820047 -0.95573,-18.587128 0.027,-2.008674 -0.10947,-2.150625 -1.68422,-1.752806 -2.381,0.601623 -7.36223,0.990394 -12.41865,0.969035 -2.73627,-0.01483 -5.23831,-0.112731 -5.72281,-0.230207 -0.56389,-0.137946 -1.20126,-0.148478 -1.84753,-0.03263 -1.6152,0.289984 -2.80265,0.277228 -5.26515,-0.05636 -3.35298,-0.454332 -8.67344,-0.457744 -13.22443,-0.01483 l -1.55583,0.153669 -0.0571,1.646009 c -0.0546,1.570361 -0.0847,1.669 -0.65669,2.146472 l -0.59948,0.500463 0.0154,4.465746 c 0.009,2.456182 0.0728,7.222443 0.14284,10.59174 0.13943,6.701363 0.13009,8.035139 -0.0771,11.085232 -0.0762,1.123148 -0.0633,3.223489 0.0288,4.667474 0.16206,2.538801 0.23077,3.694434 0.29682,4.993797 0.0538,1.057735 0.39777,1.224309 2.2216,1.075831 0.88116,-0.0712 2.69607,-0.118663 4.0331,-0.102347 5.42379,0.0623 7.09515,0.03115 7.29443,-0.133496 0.12459,-0.10383 0.91326,-0.05043 1.95134,0.129046 1.45247,0.252902 2.00316,0.265065 3.31151,0.07268 1.17097,-0.172211 1.87087,-0.176067 2.75717,-0.01483 0.83705,0.151889 1.55639,0.156487 2.43605,0.01632 0.87463,-0.13943 1.59168,-0.136463 2.39554,0.01483 1.26815,0.234508 3.25486,0.323357 9.86299,0.441576 2.43941,0.04302 4.48871,0.132013 4.55399,0.198019 0.0653,0.06527 0.75825,0.118663 1.5399,0.118663 1.38788,0 1.42835,-0.01483 1.72821,-0.593761 z m -25.4754,-9.20323 c -0.38747,-0.387436 -0.44445,-0.593614 -0.3528,-1.276818 l 0.10932,-0.814772 -1.24279,0.158564 c -2.12375,0.270998 -7.38086,0.174732 -8.04952,-0.146846 -1.16838,-0.563057 -0.93585,-1.024806 2.39344,-4.753653 2.14867,-2.406492 4.31603,-5.159481 4.31603,-5.482245 0,-0.146846 -0.17503,-0.455816 -0.38895,-0.68543 -0.51085,-0.548373 -0.49078,-0.851854 0.0811,-1.226682 0.32217,-0.211072 0.67975,-0.268624 1.13632,-0.183038 0.61452,0.115697 0.73091,0.05192 1.49976,-0.814624 0.45846,-0.516927 1.1469,-1.420993 1.52988,-2.009415 0.38299,-0.588274 1.05376,-1.507173 1.49059,-2.041899 0.43683,-0.534875 1.12607,-1.431822 1.53162,-1.993396 0.76891,-1.064707 0.93775,-1.144508 1.7612,-0.831385 0.77389,0.294285 0.6425,1.167944 -0.33224,2.209066 -0.46365,0.495123 -0.59411,0.667482 -1.79436,2.37119 -0.42784,0.60726 -1.39549,1.860938 -2.15031,2.785919 -0.75482,0.92498 -1.42753,1.827711 -1.4949,2.006004 -0.0774,0.204842 0.1148,0.634403 0.52207,1.166905 0.88768,1.160379 1.59877,2.90918 1.86491,4.586338 l 0.22376,1.410017 0.80897,-0.01483 c 0.44491,0 1.159,-0.137946 1.58684,-0.295027 1.21007,-0.445581 2.91096,-0.520932 5.34813,-0.236882 2.04421,0.238217 2.24166,0.29651 2.2969,0.679051 0.0332,0.230207 -0.0835,0.696702 -0.25928,1.036673 l -0.31971,0.618236 -1.29653,-0.120147 c -4.4107,-0.406274 -4.75518,-0.378388 -7.3082,0.593762 l -0.95526,0.363703 -0.40608,1.456592 c -0.22334,0.801126 -0.47689,1.565466 -0.56341,1.698666 -0.25547,0.392924 -1.08915,0.277227 -1.58652,-0.220121 z m -0.88505,-4.143724 c 1.47985,-0.477916 1.65872,-0.846662 1.37418,-2.832938 -0.2524,-1.761557 -0.76832,-2.778947 -1.64812,-3.249892 -0.51657,-0.276337 -0.55111,-0.260911 -1.30276,0.583527 -0.42468,0.477026 -1.0469,1.261243 -1.38276,1.742571 -0.33582,0.481328 -1.07956,1.431821 -1.65275,2.112355 -0.57317,0.680386 -1.00942,1.336743 -0.96943,1.458521 0.17188,0.523602 4.12818,0.65517 5.58164,0.185856 z M 48.440594,73.475256 c -0.627788,-0.482811 -0.517936,-1.271329 0.188541,-1.353207 1.331729,-0.15441 1.739961,-1.384207 2.498175,-7.525331 0.291645,-2.36229 0.393591,-9.399026 0.160596,-11.085231 -0.219824,-1.590979 -1.311808,-4.548515 -2.043724,-5.5352 -0.280683,-0.378388 -0.933257,-1.087105 -1.45017,-1.574959 -0.876491,-0.827084 -1.189852,-1.561016 -0.775746,-1.817032 0.09018,-0.05636 0.495419,-0.04747 0.900373,0.0178 1.458817,0.236733 3.453533,2.808316 4.572365,5.894749 0.788339,2.174655 0.942498,9.9784 0.291971,14.78026 -0.5402,3.987384 -0.598939,4.325872 -0.96193,5.542616 -0.490806,1.645118 -0.811093,2.198386 -1.524364,2.633287 -0.770036,0.469462 -1.266627,0.475395 -1.856087,0.02225 z M 35.402728,70.139482 C 34.825846,69.544979 34.51965,68.96071 34.103483,67.659864 33.804021,66.723907 33.534982,65.608026 33.505613,65.180097 33.476244,64.752315 33.37449,63.308331 33.2795,61.971292 c -0.09508,-1.337039 -0.09879,-2.692916 -0.0089,-3.013159 0.09033,-0.320242 0.16423,-0.963843 0.16423,-1.430486 0,-0.466644 0.122817,-1.342379 0.272807,-1.946079 0.15005,-0.603699 0.3311,-1.753992 0.402343,-2.556304 0.247324,-2.784881 1.487296,-7.437077 2.189976,-8.216695 0.574153,-0.636777 1.376643,-0.267141 1.696337,0.781547 0.09805,0.321726 -0.0012,0.602364 -0.365943,1.035931 -0.275254,0.327214 -0.500448,0.80513 -0.500448,1.062185 0,0.256906 -0.132458,0.798456 -0.294433,1.203097 -0.448636,1.121221 -1.397528,6.715752 -1.740257,10.259929 -0.258404,2.672446 0.46476,7.909356 1.320159,9.560111 0.157555,0.303926 0.555582,0.792078 0.884472,1.084583 0.77858,0.692549 0.631185,1.12122 -0.385448,1.12122 -0.628026,0 -0.886163,-0.133496 -1.512068,-0.77769 z m -10.241076,0.220862 c -0.970607,-0.591833 -1.329118,-1.302181 -1.131054,-2.241253 0.152141,-0.721177 0.225979,-0.799791 0.751287,-0.799791 0.46068,0 0.595883,0.09345 0.64627,0.449585 0.152512,1.07598 1.389533,0.537842 2.015289,-0.876773 0.29427,-0.665256 0.357978,-1.091258 0.260436,-1.741681 -0.116735,-0.778728 -0.344924,-1.074348 -2.384821,-3.089845 -1.240625,-1.225644 -2.350543,-2.226421 -2.466492,-2.223751 -0.115993,0 -0.463662,0.768345 -0.772735,1.701632 -0.309059,0.933288 -0.713523,1.915672 -0.898816,2.183109 -0.185292,0.267437 -0.559927,0.923794 -0.832512,1.458521 -0.614616,1.205916 -2.83859,3.655572 -3.608092,3.974331 -0.742461,0.307487 -1.662829,0.199948 -1.739189,-0.203211 -0.03412,-0.179923 0.648925,-1.0475 1.607606,-2.042047 1.743951,-1.809023 2.808895,-3.397925 3.700383,-5.521108 0.7342,-1.748504 0.827232,-3.103046 0.313123,-4.558749 -0.370363,-1.048539 -0.380835,-1.196423 -0.11362,-1.604328 0.555136,-0.847256 0.748795,-0.720583 2.820464,1.844918 0.630295,0.780508 1.564858,1.835573 2.076801,2.344491 2.682577,2.666661 4.072228,4.430592 4.254006,5.399478 0.207854,1.108019 -0.281633,3.141612 -0.935349,3.886224 -0.462772,0.527013 -2.610623,2.024841 -2.899494,2.021875 -0.03946,-4.45e-4 -0.338087,-0.163162 -0.66355,-0.361627 z m 16.99164,-3.14532 c -0.461408,-0.269217 -0.582815,-1.035634 -0.601964,-3.799599 -0.01928,-2.776277 -0.132458,-3.027992 -1.190134,-2.645451 -0.854584,0.30897 -1.578208,0.288204 -1.861798,-0.0534 -0.567582,-0.683798 0.152008,-1.319537 2.131505,-1.883039 0.481328,-0.136463 0.939517,-0.340416 1.018205,-0.451811 0.07876,-0.111247 0.126673,-1.952901 0.106501,-4.092105 -0.03293,-3.50754 7.26e-4,-3.966025 0.343129,-4.667474 0.312738,-0.640782 0.478851,-0.777986 0.942202,-0.777986 h 0.562509 l 0.0059,4.248741 c 0.0059,4.880474 -0.02551,4.803195 1.6113,3.917818 0.859923,-0.46516 1.073191,-0.513516 1.329118,-0.301108 0.167656,0.139429 0.304831,0.356435 0.304831,0.482811 0,0.309118 -1.124557,1.358695 -1.847529,1.724327 -0.320895,0.162272 -0.8012,0.528051 -1.067347,0.812843 -0.473437,0.506841 -0.484799,0.591389 -0.5255,3.911589 -0.02284,1.866574 -0.09478,3.479505 -0.159617,3.58467 -0.149145,0.241184 -0.677909,0.23614 -1.100884,-0.01483 z M 291.41694,66.689346 c -0.66248,-0.714502 -0.64421,-1.672856 0.0616,-3.229571 0.57524,-1.268659 0.8581,-1.553451 3.43108,-3.454734 2.60146,-1.922346 3.15665,-2.619493 3.2516,-4.082909 0.051,-0.787331 0.0119,-0.861644 -0.62616,-1.179068 -0.37437,-0.18645 -1.07448,-0.482812 -1.55582,-0.65873 -1.7999,-0.657692 -2.45524,-0.964733 -3.35298,-1.570954 -0.50713,-0.342344 -1.35366,-0.765824 -1.8812,-0.941149 -1.22089,-0.405532 -1.50946,-0.729186 -1.21875,-1.367299 0.23937,-0.525381 0.95293,-0.784957 1.66587,-0.605924 0.25508,0.06378 0.92322,0.425556 1.48472,0.803351 0.5615,0.377942 1.64363,0.960135 2.40472,1.294024 0.76109,0.33374 1.55884,0.719099 1.77277,0.856304 0.21392,0.136463 0.7253,0.310898 1.1364,0.386101 0.471,0.08603 1.02841,0.4039 1.50719,0.859419 0.68022,0.647012 0.75977,0.821743 0.75977,1.668851 0,2.289609 -1.24181,4.101153 -4.15221,6.057318 -2.55763,1.719135 -3.42813,2.89583 -3.43131,4.637808 -0.001,0.561278 -0.29066,1.05996 -0.61554,1.05996 -0.0813,0 -0.37005,-0.239848 -0.64178,-0.532798 z M 556.61742,65.04393 c -0.36302,-0.362961 -0.30329,-0.481773 0.81176,-1.614859 2.05513,-2.088178 5.22199,-9.649554 5.57094,-13.301418 0.088,-0.919937 0.13365,-2.678973 0.10176,-3.909067 -0.0484,-1.867464 -0.15204,-2.511064 -0.62797,-3.900908 -0.31351,-0.915488 -0.87121,-2.072159 -1.23936,-2.570248 -0.36811,-0.498238 -0.83315,-1.136201 -1.03338,-1.418027 -0.20023,-0.281677 -1.0254,-0.943818 -1.83374,-1.471573 -1.70529,-1.113211 -2.13445,-1.599879 -1.78361,-2.022617 0.41583,-0.501056 2.38672,0.23792 3.95901,1.484478 1.12083,0.88864 2.8312,3.239954 3.27029,4.495857 1.10075,3.148583 1.32088,4.572988 1.12053,7.250626 -0.22738,3.038968 -0.58337,5.156516 -1.06258,6.320455 -0.24221,0.588273 -0.50006,1.332144 -0.57304,1.653128 -0.14655,0.644194 -0.75563,1.992061 -2.40655,5.325165 -0.92481,1.867168 -1.25963,2.346568 -2.13913,3.062997 -1.05125,0.856453 -1.7058,1.045276 -2.13501,0.616011 z M 63.106625,64.008445 C 62.5158,63.715791 62.498223,63.034515 63.066873,62.46597 l 0.485971,-0.486075 4.729267,0.0445 c 3.300087,0.03115 4.934971,-0.0267 5.40995,-0.191048 0.897199,-0.310008 4.936973,-0.52286 9.01785,-0.475098 1.804439,0.02077 3.773523,-0.04598 4.37574,-0.149813 2.328931,-0.400192 10.09678,-0.5948 15.000049,-0.375866 1.89994,0.08455 3.33796,0.05933 3.88955,-0.06823 1.12842,-0.26195 7.9919,-0.341899 8.31389,-0.09641 0.35352,0.26892 0.30191,1.606553 -0.0765,1.985089 -0.20115,0.201134 -0.48628,0.27782 -0.76901,0.206919 -0.39581,-0.09938 -2.16041,-0.105314 -8.44068,-0.03263 -0.90919,0.01483 -3.31584,-0.01483 -5.348131,-0.05043 -4.089954,-0.07861 -7.220085,0.03857 -10.015556,0.374531 -1.016159,0.12163 -3.991656,0.24949 -6.612232,0.283457 -4.84007,0.0623 -5.705808,0.111247 -9.334888,0.513961 -2.588952,0.287758 -10.040268,0.330329 -10.585377,0.06081 z m 416.801715,0.09196 c -0.51911,-0.309712 -0.7749,-0.907775 -0.56002,-1.309302 0.40708,-0.760483 2.7179,-2.852666 4.34686,-3.935469 0.90244,-0.599992 1.04896,-0.938924 0.48554,-1.123742 -0.94668,-0.310304 -11.2263,0.07861 -12.47317,0.47228 -0.36515,0.115697 -3.68696,0.11718 -20.67706,0.01483 l -8.60119,-0.05488 -0.4906,-0.460858 c -0.57485,-0.540067 -0.62484,-1.001667 -0.15026,-1.387323 0.283,-0.22991 1.65094,-0.271442 8.11942,-0.246375 4.27848,0.01632 10.31699,0.08455 13.41891,0.151444 4.91409,0.105314 10.48101,-0.04302 14.29407,-0.383876 0.58828,-0.05192 2.20782,-0.09641 3.59895,-0.09641 1.39114,-7.41e-4 2.64943,-0.07565 2.79621,-0.166425 0.40675,-0.251418 0.0905,-0.567507 -0.71353,-0.713463 -0.39736,-0.07268 -1.02877,-0.281826 -1.40314,-0.46605 -0.37437,-0.184374 -0.94321,-0.397819 -1.26409,-0.474357 -0.80026,-0.191048 -1.45858,-0.853041 -1.45858,-1.466679 0,-1.12567 0.78177,-1.247745 2.57313,-0.401675 0.67053,0.316831 2.22559,0.939368 3.45565,1.383763 4.72761,1.707565 4.47297,1.561461 4.47297,2.568022 0,0.71821 -0.10487,0.937144 -0.72927,1.522006 -0.81015,0.759 -3.28379,2.656872 -4.71284,3.615968 -1.03866,0.696999 -2.0665,1.64408 -2.6371,2.429928 -0.43156,0.594355 -1.19004,0.834797 -1.69086,0.536062 z m 6.85293,-7.477867 c 0,-0.160492 -0.13128,-0.291763 -0.29172,-0.291763 -0.16045,0 -0.29172,0.132013 -0.29172,0.291763 0,0.160493 0.13127,0.291764 0.29172,0.291764 0.16044,0 0.29172,-0.13053 0.29172,-0.291764 z m 14.76039,3.348086 c -0.93825,-0.630844 -1.4057,-2.095149 -1.26266,-3.955494 0.0586,-0.761966 0.19609,-1.620792 0.30555,-1.908847 0.10947,-0.287907 0.19906,-0.816849 0.19906,-1.175361 0,-0.88063 0.60766,-2.218856 1.30656,-2.877289 0.41327,-0.389364 0.85279,-0.573292 1.57402,-0.65873 0.97826,-0.115697 1.04165,-0.09196 2.82981,1.094076 1.00602,0.666739 1.92489,1.422625 2.04196,1.679531 0.11703,0.257055 0.32415,0.466051 0.46015,0.464419 0.30455,0 1.46642,-1.433008 2.49756,-3.073084 1.02391,-1.628654 1.60147,-2.230574 2.05132,-2.138017 0.77547,0.159603 0.0724,2.586416 -1.17244,4.047014 -0.2279,0.267437 -0.62568,0.792522 -0.88396,1.166905 -0.25829,0.374383 -0.63715,0.91089 -0.84193,1.192122 -0.46776,0.642562 -0.30942,0.99158 1.15128,2.53717 0.5738,0.607111 1.04323,1.278894 1.04323,1.493081 0,0.512033 -0.88705,1.195385 -1.55189,1.195385 -0.59411,0 -0.98903,-0.383431 -1.36002,-1.320426 -0.27278,-0.688989 -0.86815,-1.207845 -1.38602,-1.207845 -0.27957,0 -2.84025,1.987908 -3.3839,2.62691 -0.36138,0.424815 -2.01072,1.262726 -2.48545,1.262726 -0.25928,0 -0.76879,-0.199948 -1.13223,-0.444246 z m 2.76734,-2.4857 c 1.54342,-1.269846 3.07634,-2.868982 3.08281,-3.215776 0.006,-0.316534 -2.45906,-2.590717 -3.05278,-2.816326 -0.71604,-0.272332 -0.94407,-0.130529 -1.38097,0.856898 -1.00375,2.269139 -1.14172,6.354866 -0.21462,6.354866 0.0725,0 0.77696,-0.53087 1.56556,-1.179662 z m 36.09033,1.835129 c -0.39804,-0.398116 -0.81282,-1.054769 -0.92176,-1.459263 -0.10887,-0.404642 -0.28322,-0.788221 -0.38727,-0.852596 -0.10413,-0.06378 -0.18919,-0.748469 -0.18919,-1.520522 0,-0.771905 -0.0866,-2.101379 -0.19246,-2.954272 -0.21447,-1.728183 -0.13379,-2.362439 0.72867,-5.732032 0.60389,-2.359176 1.44308,-4.535313 2.92469,-7.584515 1.11999,-2.305036 2.03343,-3.500569 2.67444,-3.500569 0.66681,0 0.85186,0.825304 0.34142,1.522748 -0.51656,0.705898 -1.49999,2.680753 -1.80806,3.630801 -0.13869,0.427929 -0.50914,1.303071 -0.82314,1.944892 -0.87983,1.798194 -1.544,3.983083 -2.09877,6.903832 -0.0914,0.481328 -0.11525,2.144099 -0.0528,3.695028 0.12089,3.007226 0.4887,4.359394 1.46967,5.403632 0.32842,0.349611 0.37544,0.521228 0.21357,0.779766 -0.38217,0.610523 -1.0969,0.505209 -1.87901,-0.27693 z M 238.07702,58.688768 c -0.93569,-0.137947 -1.60773,-0.625208 -1.60773,-1.165423 0,-0.684984 0.43707,-0.801719 2.93561,-0.783919 1.32688,0.01483 3.33142,-0.07417 4.45452,-0.186005 1.1231,-0.111247 3.57352,-0.260318 5.44536,-0.330329 1.87184,-0.06972 3.47679,-0.171914 3.56659,-0.226499 0.0897,-0.05488 1.92758,-0.129046 4.08402,-0.166573 2.15641,-0.03708 5.93361,-0.100864 8.39374,-0.142396 2.46014,-0.04153 4.91055,-0.168799 5.44535,-0.283457 1.6228,-0.347832 10.35993,-0.510994 13.27339,-0.247858 2.29793,0.207512 2.76144,0.195201 4.27848,-0.114214 2.38738,-0.486519 4.93163,-0.483701 5.47299,0 0.99003,0.895463 0.18524,1.743461 -1.69463,1.785735 -0.71448,0.01632 -1.91169,0.166129 -2.66044,0.333444 -1.65099,0.369043 -6.47043,0.46961 -7.5846,0.158267 -0.88205,-0.246523 -8.87925,-0.123113 -11.47414,0.176957 -0.85569,0.09938 -4.61882,0.193273 -8.36251,0.209589 -3.74368,0.01632 -7.76935,0.106797 -8.94594,0.200244 -9.14825,0.730076 -13.72807,0.96681 -15.02006,0.776355 z m 280.46172,-0.173101 c -0.43345,-0.28939 -0.66116,-1.021097 -0.66088,-2.12348 0,-1.06797 0.45626,-4.171757 0.66179,-4.504163 0.0522,-0.08455 0.27844,-0.838654 0.50282,-1.675823 0.46508,-1.7356 0.9882,-2.51418 1.90347,-2.833236 0.57641,-0.200986 0.72624,-0.165238 1.56624,0.37379 0.8678,0.556827 1.77928,1.772088 1.78612,2.381276 0.009,0.724885 0.31295,0.795044 1.29432,0.297697 0.85066,-0.431045 1.06582,-0.46516 1.86122,-0.29562 0.49468,0.105313 1.00351,0.317276 1.13075,0.470648 0.33934,0.408795 0.59405,0.348277 1.42841,-0.339377 0.58173,-0.479548 0.98443,-0.637667 1.79588,-0.70486 1.7312,-0.143879 2.58635,0.678606 3.19662,3.073232 0.40589,1.59261 -0.15042,4.473014 -0.86394,4.473014 -0.62588,0 -0.90027,-0.685429 -0.90137,-2.251785 -10e-4,-1.825338 -0.2664,-2.920452 -0.77256,-3.191301 -0.50199,-0.268625 -0.48669,-0.273668 -1.26128,0.40657 -0.79616,0.698927 -1.46567,2.076756 -1.46567,3.016125 0,0.907181 -0.91168,1.932136 -1.57131,1.766452 -0.25887,-0.06527 -0.63844,-0.240887 -0.84346,-0.390847 -0.34558,-0.252753 -0.35495,-0.356435 -0.12875,-1.422329 0.28537,-1.344752 0.0875,-2.46523 -0.45378,-2.569358 -0.7448,-0.143879 -2.05912,1.883484 -2.05912,3.175431 0,0.537842 -0.56056,1.42752 -0.9842,1.562055 -0.25897,0.08158 -0.53885,0.01483 -0.77613,-0.207365 -0.33238,-0.300811 -0.36937,-0.612747 -0.35423,-2.988387 0.0181,-2.821369 -0.26309,-4.101005 -0.90084,-4.101005 -0.96726,0 -2.21698,5.899941 -1.53244,7.234607 0.38004,0.741052 0.34416,0.884783 -0.30443,1.220155 -0.63093,0.326324 -0.96832,0.36489 -1.29328,0.148329 z m 29.91425,-0.580412 c -0.11999,-0.292356 -0.11258,-3.279706 0.0187,-7.536011 l 0.0361,-1.166906 -0.87514,0.03857 c -0.48133,0.02077 -1.20742,0.145362 -1.61351,0.277227 -0.67094,0.217599 -0.77628,0.201579 -1.15323,-0.175325 -0.92402,-0.924091 0.37518,-1.944299 2.75503,-2.163529 1.48154,-0.136463 1.37973,0.07268 1.8572,-3.810428 0.61066,-4.966209 0.65863,-5.216292 1.08024,-5.631762 0.38594,-0.380464 0.41375,-0.382392 0.66416,-0.04598 0.28816,0.387288 0.25367,1.521709 -0.19044,6.260826 -0.24888,2.655834 -0.24546,2.731036 0.13898,3.062997 0.21677,0.187191 0.62512,0.34175 0.90744,0.343382 0.62541,0 1.9008,0.431638 2.21144,0.742239 0.40023,0.400192 -0.12356,0.651907 -1.90455,0.914894 -0.95543,0.140913 -1.76389,0.362962 -1.85403,0.508918 -0.088,0.142396 -0.208,0.740607 -0.26683,1.329919 -0.31672,3.17113 -0.45897,4.875432 -0.48672,5.830968 -0.0169,0.585604 -0.12356,1.176399 -0.23674,1.312713 -0.29711,0.358067 -0.92501,0.304817 -1.08807,-0.09196 z M 262.59231,45.15121 c -0.28102,-0.196833 -0.45059,-0.584121 -0.53221,-1.215409 -0.27574,-2.133715 -0.52866,-4.553706 -0.67608,-6.469228 -0.0865,-1.123149 -0.31323,-3.193528 -0.50393,-4.601023 -0.39331,-2.902505 -0.32484,-3.56702 0.36762,-3.56702 0.57686,0 1.02783,1.025251 1.27287,2.893605 0.34698,2.646045 0.65161,4.211956 0.86445,4.443794 0.16939,0.184373 0.38451,0.18823 0.94355,0.01632 0.98941,-0.303629 2.07202,0.07268 3.23107,1.121517 l 0.89743,0.812399 -0.0134,1.530757 c -0.0148,1.693622 -0.34274,3.392585 -0.78737,4.071042 -0.48603,0.741794 -1.84359,1.251898 -3.33201,1.251898 -0.85294,0 -1.46613,-0.102347 -1.73257,-0.288945 z m 3.03087,-1.928873 c 0.84266,-0.896946 1.06632,-3.219929 0.39251,-4.07653 -0.64957,-0.825748 -1.1021,-0.670003 -1.67234,0.575517 -0.39893,0.871434 -0.47477,1.268066 -0.38104,1.993396 0.0644,0.497941 0.0358,1.033854 -0.0635,1.190638 -0.50405,0.796527 1.01211,1.075238 1.72436,0.316979 z m 17.65025,0.337746 c -0.32318,-0.323061 0.14685,-2.042196 1.32054,-4.829449 0.23518,-0.55846 0.41148,-1.215409 0.8763,-3.265318 0.58503,-2.57989 0.78508,-4.117619 0.78511,-6.034476 3e-5,-1.90514 -0.0561,-2.239029 -0.59395,-3.530976 -0.59596,-1.431525 -1.1562,-2.085508 -3.42749,-4.000437 -0.55469,-0.467682 -0.83245,-0.868171 -0.87516,-1.261837 -0.22313,-2.057473 4.3034,1.259612 5.91375,4.333585 0.63257,1.207548 0.73868,1.608185 0.84622,3.194269 0.12118,1.787663 -0.25719,5.721352 -0.67951,7.064621 -0.29675,0.943819 -1.22643,4.407008 -1.40957,5.250853 -0.23321,1.074645 -0.74442,2.249856 -1.20549,2.771382 -0.36714,0.415173 -1.26511,0.593465 -1.55075,0.307783 z m -11.83177,-2.206248 c -0.43229,-0.258686 -1.03282,-1.253678 -1.40717,-2.331438 -0.36032,-1.037414 -0.41979,-6.203274 -0.0985,-8.556961 0.10946,-0.802313 0.2738,-2.071269 0.36515,-2.820034 0.0914,-0.748618 0.26879,-1.711422 0.39434,-2.139204 0.12563,-0.427781 0.27552,-1.04038 0.33322,-1.361365 0.13097,-0.727851 0.58599,-1.264061 1.07285,-1.264061 0.20438,0 0.53556,-0.08751 0.73596,-0.195053 0.54451,-0.291318 0.67895,0.106797 0.31738,0.941297 -0.97769,2.254604 -1.78494,8.492883 -1.57703,12.186428 0.17083,3.03437 0.35132,3.563608 1.41546,4.149953 0.701,0.386249 0.82775,0.545258 0.77791,0.97571 -0.0547,0.471983 -0.13958,0.518113 -1.03193,0.561722 -0.53481,0.0267 -1.11872,-0.04005 -1.29761,-0.146846 z m -21.42302,-0.544517 c -0.36912,-0.407905 -0.21275,-1.228758 0.40503,-2.126446 0.60079,-0.873066 1.13231,-2.032703 1.35978,-2.966584 0.7923,-3.253155 0.75461,-4.521518 -0.19808,-6.663984 -0.56566,-1.271923 -0.57349,-1.328436 -0.23585,-1.701632 0.19209,-0.212259 0.53513,-0.385953 0.76231,-0.385953 0.52012,0 2.40777,1.912705 3.88682,3.938288 0.60527,0.828863 1.18408,1.507172 1.28619,1.507172 0.30928,0 2.28816,3.191748 2.42233,3.906991 0.22278,1.187523 -1.01056,3.4445 -2.32672,4.257937 -0.80783,0.499276 -1.47105,0.497792 -2.01021,0 -0.56693,-0.5282 -0.53652,-0.887009 0.10917,-1.287942 0.90344,-0.56113 1.4312,-1.103124 1.82855,-1.877996 0.45567,-0.888788 0.26916,-1.735006 -0.54789,-2.486442 -0.27883,-0.256313 -0.80408,-0.925574 -1.16721,-1.487148 -0.63167,-0.976896 -1.17052,-1.297139 -1.3085,-0.777838 -0.30176,1.135608 -0.58455,2.345678 -0.73853,3.160153 -0.32086,1.697182 -0.85231,3.081538 -1.44297,3.758513 -0.15627,0.179033 -0.50748,0.609929 -0.78048,0.957613 -0.56558,0.720138 -0.84999,0.781249 -1.30375,0.279748 z m 27.92629,-2.224492 c -0.25686,-0.328549 -0.64983,-1.521115 -0.5529,-1.677899 0.0429,-0.06972 -0.0279,-0.868913 -0.15702,-1.776687 l -0.23493,-1.650459 -0.9175,-0.05933 c -1.09393,-0.0712 -1.68196,-0.687951 -1.31277,-1.377829 0.18803,-0.351392 0.60137,-0.493047 1.94771,-0.667482 0.43218,-0.05637 0.5514,-0.780953 0.57256,-3.482175 0.0188,-2.413612 0.0315,-2.482882 0.50409,-2.792593 0.93174,-0.610523 1.02903,-0.362813 1.10164,2.803718 0.058,2.531533 0.11495,2.96332 0.4372,3.319161 0.20376,0.224867 0.56998,0.408944 0.81386,0.408944 0.77621,0 1.4411,0.354358 1.4411,0.768196 0,0.447361 -0.8924,0.982088 -1.63892,0.982088 -0.87897,0 -1.05596,0.600881 -0.88793,3.014494 0.0819,1.176547 0.10991,2.204765 0.0623,2.285011 -0.14003,0.235843 -0.97183,0.167167 -1.17851,-0.09641 z"
     id="path140"
     inkscape:connector-curvature="0" />
</svg>
